<?xml version="1.0" standalone="no"?><!DOCTYPE svg PUBLIC "-//W3C//DTD SVG 1.1//EN" "http://www.w3.org/Graphics/SVG/1.1/DTD/svg11.dtd"><svg height="1200" node-id="1" sillyvg="true" template-height="1200" template-width="1200" version="1.1" viewBox="0 0 1200 1200" width="1200" xmlns="http://www.w3.org/2000/svg" xmlns:xlink="http://www.w3.org/1999/xlink"><defs node-id="96"><linearGradient gradientUnits="objectBoundingBox" id="SVGID_1_" node-id="7" spreadMethod="pad" x1="1348.9371" x2="1410.2853" y1="671.1686" y2="527.2284"><stop offset="0.0000004984026" stop-color="#ffdbd4"></stop><stop offset="1" stop-color="#ffd1bf"></stop></linearGradient><linearGradient gradientUnits="objectBoundingBox" id="SVGID_00000105384712498657862770000013733900621628443527_" node-id="11" spreadMethod="pad" x1="1397.2465" x2="1394.7075" y1="537.7574" y2="669.6576"><stop offset="0.000000258786" stop-color="#fac1b6"></stop><stop offset="1" stop-color="#ffded1"></stop></linearGradient><linearGradient gradientUnits="objectBoundingBox" id="SVGID_00000119821289931146840230000001201367573269206953_" node-id="16" spreadMethod="pad" x1="793.3644" x2="854.7125" y1="671.1686" y2="527.2284"><stop offset="0.0000004984026" stop-color="#ffdbd4"></stop><stop offset="1" stop-color="#ffd1bf"></stop></linearGradient><linearGradient gradientUnits="objectBoundingBox" id="SVGID_00000041278218513882479940000007761809132970854325_" node-id="20" spreadMethod="pad" x1="841.6738" x2="839.1348" y1="537.7574" y2="669.6576"><stop offset="0.000000258786" stop-color="#fac1b6"></stop><stop offset="1" stop-color="#ffded1"></stop></linearGradient><linearGradient gradientUnits="objectBoundingBox" id="SVGID_00000117666635257041187180000016404701992908147117_" node-id="24" spreadMethod="pad" x1="841.6738" x2="839.1348" y1="537.7654" y2="669.6657"><stop offset="0.000000258786" stop-color="#fac1b6"></stop><stop offset="1" stop-color="#ffded1"></stop></linearGradient><linearGradient gradientUnits="objectBoundingBox" id="SVGID_00000043420099741360079000000009428156961025346969_" node-id="28" spreadMethod="pad" x1="583.2851" x2="585.2277" y1="959.6361" y2="826.3212"><stop offset="0.000000992013" stop-color="#ffdbd4"></stop><stop offset="1" stop-color="#ffbfaa"></stop></linearGradient><linearGradient gradientUnits="objectBoundingBox" id="SVGID_00000011748793972210465160000008769358948950417287_" node-id="32" spreadMethod="pad" x1="587.7321" x2="575.5379" y1="222.9075" y2="856.4008"><stop offset="0.0000004984026" stop-color="#ffdbd4"></stop><stop offset="1" stop-color="#ffd1bf"></stop></linearGradient><linearGradient gradientUnits="objectBoundingBox" id="SVGID_00000021812754561911945000000006449228595669974463_" node-id="39" spreadMethod="pad" x1="6602.508" x2="6607.4106" y1="849.0447" y2="849.0447"><stop offset="0.000000992013" stop-color="#ffdbd4"></stop><stop offset="1" stop-color="#ffdcd1"></stop></linearGradient></defs><g node-id="277"><g node-id="281"><path d="M 377.29 682.34 C 300.10 711.74 246.57 571.36 268.56 529.48 C 290.56 487.61 377.29 534.04 377.29 534.04 L 377.29 682.34 Z" fill="url(#SVGID_1_)" fill-rule="evenodd" group-id="1,5" node-id="153" stroke="none" target-height="224.13" target-width="130.72" target-x="246.57" target-y="487.61"></path><path d="M 321.58 537.78 C 321.58 537.78 275.77 525.16 278.64 560.24 C 281.51 595.32 302.05 666.76 364.65 669.24 L 321.58 537.78 Z" fill="url(#SVGID_00000105384712498657862770000013733900621628443527_)" fill-rule="evenodd" group-id="1,5" node-id="155" stroke="none" target-height="144.08002" target-width="88.880005" target-x="275.77" target-y="525.16"></path></g><g node-id="282"><path d="M 784.50 534.04 C 784.50 534.04 871.23 487.60 893.23 529.48 C 915.23 571.35 861.69 711.74 784.50 682.34 L 784.50 534.04 Z" fill="url(#SVGID_00000119821289931146840230000001201367573269206953_)" fill-rule="evenodd" group-id="1,6" node-id="160" stroke="none" target-height="224.13998" target-width="130.72998" target-x="784.5" target-y="487.6"></path><path d="M 840.21 537.78 C 840.21 537.78 886.02 525.16 883.15 560.24 C 880.28 595.33 859.74 666.76 797.14 669.24 L 840.21 537.78 Z" fill="url(#SVGID_00000041278218513882479940000007761809132970854325_)" fill-rule="evenodd" group-id="1,6" node-id="162" stroke="none" target-height="144.08002" target-width="88.880005" target-x="797.14" target-y="525.16"></path><path d="M 840.21 537.79 C 840.21 537.79 886.02 525.17 883.15 560.25 C 880.28 595.34 859.74 666.77 797.14 669.25 L 840.21 537.79 Z" fill="url(#SVGID_00000117666635257041187180000016404701992908147117_)" fill-rule="evenodd" group-id="1,6" node-id="164" stroke="none" target-height="144.08002" target-width="88.880005" target-x="797.14" target-y="525.17"></path></g></g><path d="M 677.33 825.17 L 581.08 826.55 L 484.83 825.17 C 484.83 825.17 487.33 883.50 476.59 925.14 C 471.08 946.51 491.36 964.99 513.42 964.99 L 578.41 964.99 L 583.75 964.99 L 658.18 964.99 C 681.80 964.99 696.17 943.65 690.47 920.73 C 680.19 879.44 677.33 825.17 677.33 825.17 Z" fill="url(#SVGID_00000043420099741360079000000009428156961025346969_)" fill-rule="evenodd" node-id="168" stroke="none" target-height="139.82" target-width="225.09" target-x="471.08" target-y="825.17"></path><path d="M 820.86 595.02 C 820.86 619.62 815.67 649.76 810.18 674.80 C 803.41 705.64 789.24 734.37 768.86 758.50 L 751.34 779.24 C 726.06 809.17 692.32 830.75 654.55 841.15 L 602.32 855.53 C 588.31 859.39 573.51 859.37 559.51 855.49 L 505.73 840.58 C 469.47 830.53 436.81 810.37 411.55 782.47 L 394.55 763.68 C 377.44 744.78 365.03 724.13 358.24 699.56 C 350.14 670.23 340.96 627.78 340.96 595.02 C 340.96 382.85 351.06 210.85 580.92 210.85 C 785.82 210.85 820.86 382.85 820.86 595.02 Z" fill="url(#SVGID_00000011748793972210465160000008769358948950417287_)" fill-rule="evenodd" node-id="170" stroke="none" target-height="648.54004" target-width="479.89993" target-x="340.96" target-y="210.84999"></path><path d="M 479.61 858.11 C 435.63 881.81 364.56 931.03 343.19 936.69 C 271.16 955.78 200.08 1010.28 151.04 1200.00 L 1009.01 1200.00 C 1009.01 1200.00 946.40 996.36 834.20 940.68 C 801.97 925.97 727.01 887.38 689.56 861.41 C 659.83 845.11 636.76 930.80 574.00 934.71 C 520.13 938.06 499.05 864.85 479.61 858.11 Z" fill="#e6f3ff" fill-rule="evenodd" node-id="172" stroke="none" target-height="354.89" target-width="857.97003" target-x="151.04" target-y="845.11"></path><path d="M 485.96 895.08 L 566.44 1200.00 L 617.66 1200.00 L 692.55 888.61 Z" fill="#c5dadd" fill-rule="evenodd" node-id="174" stroke="none" target-height="311.39" target-width="206.58997" target-x="485.96002" target-y="888.61"></path><path d="M 484.95 853.88 C 476.49 852.82 485.10 845.88 485.10 845.88 L 484.95 853.88 Z" fill="#e6f3ff" fill-rule="evenodd" node-id="176" stroke="none" target-height="8" target-width="8.610046" target-x="476.48996" target-y="845.88"></path><path d="M 678.66 844.39 C 678.66 844.39 689.03 854.18 679.60 853.69 L 678.66 844.39 Z" fill="url(#SVGID_00000021812754561911945000000006449228595669974463_)" fill-rule="evenodd" node-id="178" stroke="none" target-height="9.789978" target-width="10.370056" target-x="678.66" target-y="844.39"></path><path d="M 658.21 522.01 C 658.12 500.83 672.16 497.20 684.57 493.57 C 694.40 490.70 727.54 477.37 761.08 484.72 C 775.94 487.98 780.94 495.41 759.96 499.48 C 731.89 504.92 714.18 511.33 702.66 514.87 C 684.55 520.44 658.26 533.33 658.21 522.01 Z" fill="#3a302e" fill-rule="evenodd" node-id="180" stroke="none" target-height="55.960022" target-width="122.82001" target-x="658.12" target-y="477.37"></path><path d="M 466.35 514.87 C 454.82 511.33 437.12 504.91 409.05 499.48 C 388.07 495.42 393.08 487.98 407.93 484.72 C 441.47 477.37 474.61 490.69 484.44 493.57 C 496.85 497.20 510.90 500.83 510.80 522.01 C 510.76 533.33 484.47 520.44 466.35 514.87 Z" fill="#3a302e" fill-rule="evenodd" node-id="182" stroke="none" target-height="55.960022" target-width="122.82999" target-x="388.06998" target-y="477.37"></path><path d="M 600.81 696.40 C 600.81 702.94 590.60 708.24 578.01 708.24 C 565.42 708.24 555.21 702.94 555.21 696.40 C 555.21 689.86 565.42 676.46 578.01 676.46 C 590.60 676.46 600.81 689.86 600.81 696.40 Z" fill="#ffcbbb" fill-rule="nonzero" node-id="184" stroke="none" target-height="31.779968" target-width="45.599976" target-x="555.21" target-y="676.46"></path><g node-id="278"><g node-id="283"><path d="M 464.35 537.07 C 453.38 537.07 443.63 544.38 437.37 555.74 L 442.79 561.22 L 434.76 561.22 C 431.84 568.35 430.16 576.62 430.16 585.46 C 430.16 612.19 445.47 633.86 464.36 633.86 C 483.25 633.86 498.56 612.19 498.56 585.46 C 498.55 558.74 483.24 537.07 464.35 537.07 Z" fill="#3a302e" fill-rule="evenodd" group-id="2,7" node-id="190" stroke="none" target-height="96.78998" target-width="68.399994" target-x="430.16" target-y="537.07"></path><path d="M 483.49 576.43 C 483.49 580.19 482.65 583.80 481.16 586.46 C 479.68 589.12 477.66 590.62 475.55 590.62 C 473.44 590.62 471.42 589.12 469.94 586.46 C 468.45 583.80 467.61 580.19 467.61 576.43 C 467.61 572.67 468.45 569.06 469.94 566.40 C 471.42 563.74 473.44 562.24 475.55 562.24 C 477.66 562.24 479.68 563.74 481.16 566.40 C 482.65 569.06 483.49 572.67 483.49 576.43 Z" fill="#fff9f8" fill-rule="evenodd" group-id="2,7" node-id="192" stroke="none" target-height="28.380005" target-width="15.880035" target-x="467.60995" target-y="562.24"></path></g><g node-id="284"><path d="M 697.44 537.07 C 708.41 537.07 718.16 544.38 724.42 555.74 L 719.00 561.22 L 728.82 566.24 C 731.74 573.37 731.63 576.63 731.63 585.46 C 731.63 612.19 716.32 633.86 697.43 633.86 C 678.54 633.86 663.23 612.19 663.23 585.46 C 663.24 558.74 678.55 537.07 697.44 537.07 Z" fill="#3a302e" fill-rule="evenodd" group-id="2,8" node-id="197" stroke="none" target-height="96.78998" target-width="68.51001" target-x="663.23" target-y="537.07"></path><path d="M 689.50 576.43 C 689.50 580.19 688.66 583.80 687.17 586.46 C 685.69 589.12 683.67 590.62 681.56 590.62 C 679.45 590.62 677.43 589.12 675.95 586.46 C 674.46 583.80 673.62 580.19 673.62 576.43 C 673.62 572.67 674.46 569.06 675.95 566.40 C 677.43 563.74 679.45 562.24 681.56 562.24 C 683.67 562.24 685.69 563.74 687.17 566.40 C 688.66 569.06 689.50 572.67 689.50 576.43 Z" fill="#fff9f8" fill-rule="evenodd" group-id="2,8" node-id="199" stroke="none" target-height="28.380005" target-width="15.880005" target-x="673.62" target-y="562.24"></path></g></g><path d="M 481.97 693.19 C 481.97 703.80 463.28 712.41 440.22 712.41 C 417.16 712.41 398.47 703.80 398.47 693.19 C 398.47 682.58 417.16 673.97 440.22 673.97 C 463.28 673.97 481.97 682.58 481.97 693.19 Z" fill="#ffc2c2" fill-rule="evenodd" node-id="203" stroke="none" target-height="38.43994" target-width="83.49997" target-x="398.47003" target-y="673.97003"></path><path d="M 770.81 693.19 C 770.81 703.80 752.12 712.41 729.06 712.41 C 706.00 712.41 687.31 703.80 687.31 693.19 C 687.31 682.58 706.00 673.97 729.06 673.97 C 752.12 673.97 770.81 682.58 770.81 693.19 Z" fill="#ffc2c2" fill-rule="evenodd" node-id="205" stroke="none" target-height="38.43994" target-width="83.49994" target-x="687.31006" target-y="673.97003"></path><path d="M 350.13 1059.89 C 350.13 1059.89 278.94 1084.47 265.95 1200.00 L 306.35 1200.00 C 306.35 1200.00 313.16 1129.97 350.13 1059.89 Z" fill="#d4e6ff" fill-rule="evenodd" node-id="207" stroke="none" target-height="140.10999" target-width="84.17999" target-x="265.95" target-y="1059.89"></path><path d="M 797.78 1066.56 C 797.78 1066.56 863.80 1138.97 875.79 1200.00 L 829.33 1200.00 C 829.32 1200.00 834.75 1136.64 797.78 1066.56 Z" fill="#d4e6ff" fill-rule="evenodd" node-id="209" stroke="none" target-height="133.43994" target-width="78.00995" target-x="797.78" target-y="1066.56"></path><path d="M 559.78 928.34 L 532.30 1170.01 L 584.09 1200.00 L 650.64 1160.73 L 608.34 929.02 Z" fill="#1e3768" fill-rule="evenodd" node-id="211" stroke="none" target-height="271.65997" target-width="118.34003" target-x="532.3" target-y="928.34"></path><path d="M 471.44 862.62 C 471.44 862.62 411.85 917.90 406.20 978.00 L 440.69 968.32 L 390.07 1001.80 C 390.07 1001.80 451.48 1072.16 551.01 1199.99 C 558.80 1199.99 567.13 1199.99 567.13 1199.99 L 532.66 1071.98 L 470.20 911.05 L 471.44 862.62 Z" fill="#d4e6ff" fill-rule="evenodd" node-id="213" stroke="none" target-height="337.37" target-width="177.05997" target-x="390.07004" target-y="862.62"></path><g node-id="279"><path d="M 549.50 768.93 C 547.58 768.93 545.75 767.82 544.92 765.94 C 543.81 763.41 544.96 760.46 547.48 759.35 C 587.46 741.76 618.78 758.83 620.10 759.56 C 622.51 760.91 623.37 763.95 622.02 766.36 C 620.67 768.77 617.64 769.63 615.23 768.29 C 614.05 767.64 586.75 752.99 551.51 768.50 C 550.86 768.79 550.18 768.93 549.50 768.93 Z" fill="#ffb094" fill-rule="nonzero" group-id="3" node-id="217" stroke="none" target-height="27.869995" target-width="79.56" target-x="543.81" target-y="741.7601"></path></g><path d="M 563.47 776.30 C 572.26 777.45 587.90 778.86 602.13 776.77 C 604.13 776.48 605.15 779.07 603.47 780.19 C 598.71 783.35 591.74 786.92 584.08 787.33 C 575.67 787.78 567.42 783.34 562.15 779.71 C 560.54 778.58 561.52 776.04 563.47 776.30 Z" fill="#fcc9bb" fill-rule="evenodd" node-id="220" stroke="none" target-height="11.73999" target-width="44.610046" target-x="560.54" target-y="776.04"></path><path d="M 559.55 929.66 L 558.81 933.08 C 558.69 933.63 559.10 934.14 559.66 934.15 L 608.06 934.93 C 608.91 934.94 609.54 934.15 609.34 933.33 L 608.62 930.36 L 559.55 929.66 Z" fill="#193054" fill-rule="evenodd" node-id="222" stroke="none" target-height="5.2800293" target-width="50.849976" target-x="558.69" target-y="929.66"></path><path d="M 491.24 901.57 C 491.24 901.57 535.56 934.07 544.23 934.40 C 552.90 934.74 555.81 920.66 555.81 920.66 L 551.51 909.93 L 491.24 901.57 Z" fill="#c2d2d3" fill-rule="evenodd" node-id="224" stroke="none" target-height="33.169983" target-width="64.57001" target-x="491.24" target-y="901.57"></path><path d="M 677.83 901.57 C 677.83 901.57 633.51 934.07 624.84 934.40 C 616.17 934.74 613.26 920.66 613.26 920.66 L 617.56 909.93 L 677.83 901.57 Z" fill="#c2d2d3" fill-rule="evenodd" node-id="226" stroke="none" target-height="33.169983" target-width="64.57001" target-x="613.26" target-y="901.57"></path><path d="M 559.66 878.00 C 559.66 878.00 600.24 880.50 608.82 877.78 L 616.00 906.91 L 608.89 929.81 C 608.56 930.86 607.59 931.56 606.49 931.55 L 561.44 930.90 C 560.43 930.89 559.54 930.26 559.17 929.32 L 551.00 908.33 L 559.66 878.00 Z" fill="#1e3768" fill-rule="evenodd" node-id="228" stroke="none" target-height="53.77997" target-width="65" target-x="551" target-y="877.78"></path><path d="M 481.19 851.96 C 481.19 851.96 467.81 878.92 470.57 886.78 C 473.33 894.65 539.25 927.62 546.50 925.81 C 552.25 924.37 556.51 899.74 560.06 878.67 C 560.29 877.30 559.34 876.03 557.96 875.83 C 517.24 870.16 481.19 851.96 481.19 851.96 Z" fill="#d3dfe0" fill-rule="evenodd" node-id="230" stroke="none" target-height="75.65991" target-width="92.47995" target-x="467.81003" target-y="851.9601"></path><path d="M 683.36 851.93 C 685.18 851.43 700.40 880.59 698.21 886.82 C 695.45 894.69 629.53 927.66 622.28 925.85 C 616.52 924.41 610.19 913.49 608.64 879.45 C 608.54 877.25 610.23 875.40 612.42 875.26 C 646.49 873.05 683.36 851.93 683.36 851.93 Z" fill="#d3dfe0" fill-rule="evenodd" node-id="232" stroke="none" target-height="76.22992" target-width="91.86005" target-x="608.54" target-y="851.43005"></path><path d="M 481.41 850.40 C 472.33 858.93 423.34 925.57 411.85 968.53 L 462.49 961.87 L 404.59 1001.20 C 400.61 1006.24 557.83 1165.07 557.83 1165.07 C 557.83 1165.07 512.06 980.18 499.58 888.92 C 498.06 877.77 485.23 865.12 485.03 853.79 C 480.52 851.97 481.68 851.42 481.41 850.40 Z" fill="#e6f3ff" fill-rule="evenodd" node-id="234" stroke="none" target-height="314.66992" target-width="157.22003" target-x="400.61" target-y="850.4"></path><path d="M 542.48 1149.50 C 542.48 1149.50 556.81 1166.58 564.82 1200.00 L 567.12 1200.00 L 557.82 1165.07 L 542.48 1149.50 Z" fill="#e6f3ff" fill-rule="evenodd" node-id="236" stroke="none" target-height="50.5" target-width="24.640015" target-x="542.48" target-y="1149.5"></path><path d="M 693.74 862.62 C 693.74 862.62 753.33 917.90 758.98 978.00 L 724.49 968.32 L 773.41 1004.18 L 624.46 1200.00 L 598.06 1200.00 L 632.53 1071.99 L 694.98 911.05 L 693.74 862.62 Z" fill="#d4e6ff" fill-rule="evenodd" node-id="238" stroke="none" target-height="337.38" target-width="175.34998" target-x="598.06" target-y="862.62"></path><path d="M 683.99 851.05 C 693.07 859.58 741.84 925.57 753.34 968.53 L 702.70 961.87 L 760.60 1001.20 C 764.58 1006.24 607.36 1165.07 607.36 1165.07 C 607.36 1165.07 659.35 944.53 683.99 851.05 Z" fill="#e6f3ff" fill-rule="evenodd" node-id="240" stroke="none" target-height="314.01996" target-width="157.22003" target-x="607.36" target-y="851.05"></path><path d="M 762.90 1118.48 L 754.46 1115.12 L 766.62 1084.60 C 767.50 1082.38 770.02 1081.30 772.24 1082.18 L 776.66 1083.94 C 778.88 1084.82 779.96 1087.34 779.08 1089.56 L 768.52 1116.06 C 767.63 1118.28 765.12 1119.37 762.90 1118.48 Z" fill="#344454" fill-rule="evenodd" node-id="242" stroke="none" target-height="38.069946" target-width="25.5" target-x="754.46" target-y="1081.3"></path><path d="M 622.70 1149.50 C 622.70 1149.50 608.37 1166.58 600.36 1200.00 L 598.06 1200.00 L 607.36 1165.07 L 622.70 1149.50 Z" fill="#e6f3ff" fill-rule="evenodd" node-id="244" stroke="none" target-height="50.5" target-width="24.640015" target-x="598.06" target-y="1149.5"></path><path d="M 703.10 1111.92 C 703.10 1111.92 781.87 1115.79 808.76 1111.92 C 808.75 1111.92 764.20 1127.65 703.10 1111.92 Z" fill="#d4e6ff" fill-rule="evenodd" node-id="246" stroke="none" target-height="15.72998" target-width="105.660095" target-x="703.0999" target-y="1111.92"></path><path d="M 703.49 1111.92 L 701.98 1176.96 C 701.98 1176.96 705.76 1119.03 703.49 1111.92 Z" fill="#d4e6ff" fill-rule="evenodd" node-id="248" stroke="none" target-height="65.03992" target-width="3.7799072" target-x="701.98004" target-y="1111.92"></path><path d="M 808.03 1111.92 L 806.52 1176.96 C 806.52 1176.96 810.30 1119.03 808.03 1111.92 Z" fill="#d4e6ff" fill-rule="evenodd" node-id="250" stroke="none" target-height="65.03992" target-width="3.7799683" target-x="806.52" target-y="1111.92"></path><path d="M 764.81 1089.14 L 777.31 1093.99 L 776.59 1095.81 L 764.10 1090.92 Z" fill="#3b4c5b" fill-rule="evenodd" node-id="252" stroke="none" target-height="6.670044" target-width="13.209961" target-x="764.1" target-y="1089.14"></path><path d="M 704.22 1128.87 C 704.22 1128.87 748.28 1138.40 807.64 1130.69 L 807.64 1132.93 C 807.64 1132.93 771.47 1142.49 704.13 1131.29 L 704.22 1128.87 Z" fill="#d4e6ff" fill-rule="evenodd" node-id="254" stroke="none" target-height="13.619995" target-width="103.51001" target-x="704.13" target-y="1128.87"></path><g node-id="280"><path d="M 488.25 662.22 C 465.86 663.61 443.48 663.61 421.09 662.22 C 392.21 659.84 360.07 630.75 357.92 601.25 C 357.47 592.56 357.47 583.86 357.92 575.17 C 360.07 545.67 392.21 516.58 421.09 514.20 C 443.48 512.81 465.86 512.81 488.25 514.20 C 517.13 516.58 549.27 545.67 551.42 575.17 C 551.87 583.86 551.87 592.56 551.42 601.25 C 549.27 630.75 517.13 659.84 488.25 662.22 Z" fill="none" group-id="4" node-id="258" stroke="#121928" stroke-linecap="butt" stroke-width="12" target-height="150.79999" target-width="194.4" target-x="357.47" target-y="512.81"></path><path d="M 740.70 662.22 C 718.31 663.61 695.93 663.61 673.54 662.22 C 644.66 659.84 612.52 630.75 610.37 601.25 C 609.92 592.56 609.92 583.86 610.37 575.17 C 612.52 545.67 644.66 516.58 673.54 514.20 C 695.93 512.81 718.31 512.81 740.70 514.20 C 769.58 516.58 801.72 545.67 803.87 575.17 C 804.32 583.86 804.32 592.56 803.87 601.25 C 801.72 630.75 769.58 659.84 740.70 662.22 Z" fill="none" group-id="4" node-id="260" stroke="#121928" stroke-linecap="butt" stroke-width="12" target-height="150.79999" target-width="194.39996" target-x="609.92" target-y="512.81"></path><path d="M 551.76 591.94 L 610.07 591.94" fill="none" group-id="4" node-id="262" stroke="#121928" stroke-linecap="butt" stroke-width="12" target-height="0" target-width="58.309998" target-x="551.76" target-y="591.94"></path></g><path d="M 307.78 537.78 C 307.78 537.78 311.16 554.91 318.18 546.40 C 345.78 512.93 422.83 404.59 507.14 369.15 C 537.39 389.12 696.32 398.66 760.67 416.13 C 820.86 432.47 818.27 529.52 820.86 550.67 C 823.45 571.81 884.64 408.87 857.16 309.65 C 841.29 252.35 819.09 216.24 762.37 185.01 C 755.05 180.98 725.28 173.53 718.00 170.09 C 712.07 167.28 695.31 156.26 689.50 153.86 C 662.04 142.50 636.52 135.81 617.66 134.77 C 552.03 131.14 299.31 116.95 290.84 394.36 C 289.34 443.57 307.78 537.78 307.78 537.78 Z" fill="#3d3f47" fill-rule="evenodd" node-id="265" stroke="none" target-height="454.86" target-width="595.30005" target-x="289.34" target-y="116.95"></path><path d="M 664.35 128.93 C 664.35 128.93 698.03 140.43 695.34 169.04 L 754.94 194.28 C 754.94 194.28 772.15 178.64 808.45 180.46 C 808.45 180.46 775.78 157.47 731.34 166.01 C 731.34 166.02 727.75 133.77 664.35 128.93 Z" fill="#3d3f47" fill-rule="evenodd" node-id="267" stroke="none" target-height="65.350006" target-width="144.1001" target-x="664.35" target-y="128.93"></path><path d="M 807.87 238.54 C 807.87 238.54 869.32 324.20 873.55 342.95 C 868.55 310.19 876.27 297.87 837.25 249.77 C 812.83 219.67 760.20 199.70 760.20 199.70" fill="#3d3f47" fill-rule="evenodd" node-id="269" stroke="none" target-height="143.25003" target-width="116.07007" target-x="760.2" target-y="199.69998"></path><path d="M 634.19 136.80 C 634.19 136.80 562.50 105.14 500.79 117.24 C 500.79 117.24 581.87 128.74 603.65 148.70 L 634.19 136.80 Z" fill="#3d3f47" fill-rule="evenodd" node-id="271" stroke="none" target-height="43.559998" target-width="133.39996" target-x="500.79004" target-y="105.14"></path><path d="M 475.55 372.56 C 475.55 372.56 441.50 397.37 429.70 455.45 C 429.70 455.45 501.52 372.45 534.86 379.06 C 568.19 385.67 534.86 351.38 534.86 351.38 L 475.55 372.56 Z" fill="#3d3f47" fill-rule="evenodd" node-id="273" stroke="none" target-height="104.07004" target-width="138.48999" target-x="429.7" target-y="351.37997"></path><path d="M 495.65 378.92 C 495.65 378.92 470.84 414.62 472.36 432.47 C 472.36 432.47 531.65 369.24 559.49 373.78 L 495.65 378.92 Z" fill="#3d3f47" fill-rule="evenodd" node-id="275" stroke="none" target-height="63.23001" target-width="88.649994" target-x="470.84" target-y="369.24"></path></svg>