<?xml version="1.0" standalone="no"?><!DOCTYPE svg PUBLIC "-//W3C//DTD SVG 1.1//EN" "http://www.w3.org/Graphics/SVG/1.1/DTD/svg11.dtd"><svg height="1024" node-id="1" sillyvg="true" template-height="1024" template-width="1024" version="1.1" viewBox="0 0 1024 1024" width="1024" xmlns="http://www.w3.org/2000/svg" xmlns:xlink="http://www.w3.org/1999/xlink"><defs node-id="244"><clipPath id="master_svg0_45_7577" node-id="3"><path d="M 0.00 0.00 L 1024.00 0.00 L 1024.00 1024.00 L 0.00 1024.00 Z" fill="#000000" fill-rule="nonzero" node-id="247" stroke="none" target-height="1024" target-width="1024" target-x="0" target-y="0"></path></clipPath></defs><g node-id="844"><g clip-path="url(#master_svg0_45_7577)" group-id="1" id="sillyvg_g_1" node-id="253"><path d="M 1012.28 189.45 L 1011.81 369.08 L 1011.73 386.12 C 1011.73 390.81 1010.09 394.17 1007.28 395.89 L 999.70 400.19 L 995.24 402.77 C 995.32 402.77 995.32 402.69 995.40 402.61 C 992.66 404.25 988.83 404.10 984.53 401.60 L 891.36 347.82 L 891.36 354.46 L 941.77 383.62 L 941.62 391.20 L 891.12 420.51 L 828.82 384.63 L 758.47 425.28 C 760.58 427.08 760.82 429.34 759.02 431.30 L 805.29 458.19 C 807.72 458.35 810.14 458.89 812.02 459.91 C 816.16 462.33 816.16 466.16 812.02 468.51 C 809.83 469.84 806.78 470.38 803.89 470.23 L 747.29 501.49 C 747.84 503.37 747.06 505.32 744.56 506.81 C 740.49 509.15 733.85 509.15 729.71 506.81 C 727.13 505.25 726.34 503.21 726.97 501.26 L 700.70 486.02 C 696.56 502.98 683.35 519.39 660.84 532.60 L 406.72 679.33 L 533.66 752.57 C 540.62 749.29 550.23 749.21 557.50 752.41 L 693.98 673.07 C 692.65 669.95 694.06 666.58 698.20 664.16 C 704.61 660.49 714.85 660.49 721.42 664.24 C 726.34 667.13 727.44 671.27 724.78 674.79 L 858.99 752.26 C 864.47 751.63 870.41 752.41 874.78 754.91 C 881.66 758.90 881.66 765.31 874.86 769.22 C 869.78 772.19 862.36 772.97 856.02 771.49 L 817.80 793.69 L 886.04 833.08 C 888.85 834.72 890.18 836.83 890.18 838.94 L 890.18 855.59 C 890.18 857.63 888.85 859.66 886.04 861.22 L 642.78 1002.55 C 637.39 1005.68 628.48 1005.68 623.08 1002.55 L 494.11 928.06 C 491.29 926.41 489.89 924.38 489.89 922.19 L 489.96 905.78 C 489.81 903.67 491.14 901.48 494.03 899.84 L 737.29 758.59 C 742.68 755.46 751.59 755.46 757.06 758.59 L 811.55 790.09 C 811.70 790.01 811.70 789.86 811.86 789.86 L 848.83 768.28 C 843.28 764.29 843.60 758.51 849.93 754.84 C 850.08 754.76 850.32 754.76 850.47 754.68 L 718.76 678.62 C 712.51 681.05 704.30 680.81 698.67 677.68 L 563.44 756.32 C 567.12 760.54 566.02 765.78 559.92 769.30 C 552.26 773.75 539.99 773.75 532.33 769.30 C 526.31 765.86 524.91 760.86 528.03 756.71 L 400.38 683.00 L 294.31 744.21 C 239.59 775.79 150.48 775.79 95.76 743.89 C 68.56 728.02 54.96 707.47 54.96 686.60 L 54.73 653.45 C 53.16 652.67 51.60 651.81 50.04 650.95 C 24.63 636.18 11.89 616.79 11.89 597.33 L 11.73 545.74 C 11.73 546.99 11.89 548.16 12.05 549.33 C 10.25 528.38 23.15 507.04 50.90 490.94 C 61.53 484.84 73.56 480.15 86.38 476.48 L 86.23 429.66 C 86.23 430.36 86.31 431.06 86.38 431.69 C 85.37 409.72 99.44 387.45 128.67 370.56 C 173.54 344.69 240.53 339.69 294.00 355.32 C 299.47 350.32 305.72 345.78 313.15 341.41 C 329.17 332.18 348.25 325.85 368.41 322.49 L 368.10 204.14 L 486.45 135.82 L 604.01 204.14 L 604.40 345.86 C 625.19 349.69 644.74 356.34 661.15 365.95 C 689.14 382.21 702.66 403.55 701.96 424.89 L 702.27 474.76 C 702.27 476.32 702.03 477.81 701.88 479.37 L 732.36 497.12 C 735.41 496.18 738.93 496.26 741.98 497.19 L 795.91 467.41 C 793.49 465.22 793.65 462.49 796.46 460.46 L 751.67 434.43 C 748.47 434.74 745.03 434.27 742.45 432.78 C 738.30 430.36 738.23 426.53 742.37 424.19 C 744.64 422.86 747.61 422.31 750.58 422.47 L 822.49 380.96 L 762.46 346.25 L 762.61 338.67 L 813.11 309.28 L 827.65 317.64 L 827.65 311.08 L 738.30 259.49 C 730.02 254.64 723.22 242.99 723.30 233.46 L 723.30 216.34 L 723.53 36.79 C 723.53 32.10 725.17 28.73 727.91 27.17 L 740.02 20.14 C 742.76 18.49 746.51 18.81 750.73 21.15 L 997.27 163.42 C 1005.48 168.26 1012.28 179.91 1012.28 189.45 Z" fill="#d4dae8" fill-rule="nonzero" group-id="1,2" node-id="257" stroke="none" target-height="987.1831" target-width="1002.0352" target-x="10.247743" target-y="18.494709"></path><path d="M 813.45 795.75 C 812.01 795.76 810.75 794.79 810.38 793.40 C 810.00 792.01 810.61 790.54 811.86 789.82 L 861.43 761.01 L 707.89 672.35 L 547.05 765.83 C 546.06 766.38 544.86 766.38 543.87 765.83 L 378.76 670.51 C 377.24 669.63 376.72 667.69 377.60 666.17 C 378.48 664.65 380.43 664.13 381.94 665.01 L 545.46 759.40 L 706.30 665.94 C 707.29 665.38 708.50 665.38 709.48 665.94 L 869.37 758.25 C 870.35 758.82 870.95 759.86 870.95 761.00 C 870.95 762.13 870.35 763.18 869.37 763.74 L 815.05 795.31 C 814.57 795.59 814.02 795.74 813.46 795.73 L 813.45 795.75 Z M 549.83 539.30 C 548.40 539.30 547.15 538.35 546.77 536.97 C 546.39 535.59 546.98 534.13 548.22 533.40 L 668.78 461.99 C 669.94 461.29 671.41 461.41 672.44 462.28 L 737.11 499.86 L 802.35 463.83 L 745.60 430.85 C 743.49 429.62 743.49 426.58 745.60 425.35 L 856.49 361.33 C 857.99 360.60 859.80 361.15 860.64 362.59 C 861.48 364.03 861.06 365.88 859.68 366.82 L 753.52 428.11 L 810.37 461.15 C 811.36 461.73 811.96 462.79 811.95 463.93 C 811.94 465.07 811.32 466.12 810.32 466.68 L 738.61 506.29 C 737.63 506.82 736.45 506.81 735.48 506.25 L 670.37 468.41 L 551.46 538.85 C 550.97 539.14 550.41 539.29 549.84 539.30 L 549.83 539.30 Z" fill="#4c7891" fill-rule="nonzero" group-id="1,3" node-id="262" stroke="none" target-height="435.15866" target-width="494.23407" target-x="376.72034" target-y="360.5966"></path><path d="M 86.24 429.68 L 86.38 481.23 C 86.43 495.82 93.12 510.39 106.53 523.30 L 106.39 471.75 C 92.98 458.84 86.28 444.27 86.24 429.68 Z M 11.72 545.78 L 11.86 597.33 C 11.91 616.77 24.64 636.15 50.07 650.94 C 54.29 653.38 58.70 655.71 63.92 657.81 L 63.77 606.26 C 58.99 604.31 54.36 602.02 49.93 599.38 C 24.49 584.61 11.77 565.22 11.72 545.78 Z" fill="#d4dae8" fill-rule="nonzero" group-id="1,4" node-id="267" stroke="none" target-height="228.13303" target-width="94.809906" target-x="11.717308" target-y="429.68137"></path><path d="M 702.23 474.77 C 702.23 495.64 688.32 516.51 660.81 532.63 L 294.33 744.17 C 239.62 775.79 150.46 775.79 95.75 743.86 C 68.55 728.05 54.96 707.49 54.96 686.63 L 54.65 635.08 C 54.65 655.95 68.56 676.51 95.75 692.32 C 150.46 724.26 239.31 724.26 294.33 692.63 L 660.50 481.09 C 688.00 465.28 701.92 444.41 701.92 423.86 L 702.23 474.77 Z" fill="#d4dae8" fill-rule="nonzero" group-id="1,5" node-id="272" stroke="none" target-height="351.936" target-width="647.582" target-x="54.646996" target-y="423.85794"></path><path d="M 128.69 370.58 C 81.04 398.09 73.36 439.93 106.38 471.75 C 86.04 475.36 66.88 481.77 50.93 490.98 C -0.95 520.94 -1.42 569.54 49.92 599.38 C 54.14 601.83 58.55 604.16 63.77 606.26 C 44.89 635.05 55.56 669.09 95.68 692.40 C 150.43 724.22 239.38 724.22 294.30 692.51 L 660.52 481.08 C 715.63 449.26 715.92 397.73 661.16 365.92 C 619.65 341.79 558.31 335.84 507.12 348.43 C 503.92 346.10 500.51 343.65 496.69 341.44 C 446.15 312.06 364.04 312.06 313.17 341.44 C 306.28 345.34 299.85 349.99 293.98 355.30 C 240.54 339.69 173.50 344.70 128.69 370.58 Z" fill="#e4e8f4" fill-rule="nonzero" group-id="1,6" node-id="277" stroke="none" target-height="412.15582" target-width="717.33905" target-x="-1.4226983" target-y="312.062"></path><path d="M 368.10 204.12 L 368.87 473.24 L 486.43 541.56 L 485.66 272.43 L 368.10 204.12 Z" fill="#474b59" fill-rule="nonzero" group-id="1,7" node-id="282" stroke="none" target-height="337.443" target-width="118.331024" target-x="368.1006" target-y="204.11987"></path><path d="M 387.21 462.46 L 477.91 515.18 L 477.91 526.85 L 377.31 468.39 L 387.21 462.46 Z" fill="#5b5e71" fill-rule="nonzero" group-id="1,8" node-id="287" stroke="none" target-height="64.38699" target-width="100.60202" target-x="377.30862" target-y="462.465"></path><path d="M 376.64 218.89 L 386.54 224.64 L 387.21 462.46 L 377.32 468.39 L 376.64 218.89 Z" fill="#525566" fill-rule="nonzero" group-id="1,9" node-id="292" stroke="none" target-height="249.504" target-width="10.57608" target-x="376.63675" target-y="218.88586"></path><path d="M 386.54 224.64 L 477.24 277.35 L 477.91 515.18 L 387.21 462.47 L 386.54 224.64 Z" fill="#3f434f" fill-rule="nonzero" group-id="1,10" node-id="297" stroke="none" target-height="290.542" target-width="91.37048" target-x="386.54056" target-y="224.63904"></path><path d="M 485.66 272.44 L 486.42 541.56 L 604.75 473.24 L 603.99 204.11 L 485.66 272.44 Z" fill="#525566" fill-rule="nonzero" group-id="1,11" node-id="302" stroke="none" target-height="337.451" target-width="119.097015" target-x="485.65726" target-y="204.11206"></path><path d="M 368.10 204.12 L 485.67 272.44 L 603.99 204.12 L 486.42 135.80 L 368.10 204.12 Z" fill="#5b5e71" fill-rule="nonzero" group-id="1,12" node-id="307" stroke="none" target-height="136.638" target-width="235.88702" target-x="368.1006" target-y="135.80115"></path><path d="M 524.25 268.63 L 524.27 274.67 L 596.99 232.68 L 596.98 226.65 L 524.25 268.63 Z" fill="#748bfd" fill-rule="nonzero" group-id="1,13" node-id="312" stroke="none" target-height="48.026413" target-width="72.74304" target-x="524.249" target-y="226.64793"></path><path d="M 512.82 276.35 L 512.84 280.15 L 515.96 278.36 L 515.95 274.54 L 512.82 276.35 Z" fill="#f9bb4a" fill-rule="nonzero" group-id="1,14" node-id="317" stroke="none" target-height="5.6124573" target-width="3.142334" target-x="512.8208" target-y="274.54138"></path><path d="M 518.70 277.89 L 493.44 292.47 L 493.42 286.43 L 518.68 271.84 L 518.70 277.89 Z M 504.50 284.96 L 507.63 283.16 L 507.61 279.36 L 504.49 281.15 L 504.50 284.96 Z M 512.84 280.15 L 515.96 278.36 L 515.95 274.54 L 512.82 276.35 L 512.84 280.15 Z M 496.17 289.77 L 499.30 287.97 L 499.29 284.16 L 496.16 285.97 L 496.17 289.77 Z" fill="#d4dae8" fill-rule="nonzero" group-id="1,15" node-id="322" stroke="none" target-height="20.62851" target-width="25.27951" target-x="493.41946" target-y="271.8446"></path><path d="M 504.50 281.16 L 504.50 284.96 L 507.62 283.16 L 507.62 279.36 L 504.50 281.16 Z M 496.16 285.97 L 496.16 289.78 L 499.30 287.97 L 499.29 284.16 L 496.16 285.97 Z" fill="#f9bb4a" fill-rule="nonzero" group-id="1,16" node-id="327" stroke="none" target-height="10.4198" target-width="11.459351" target-x="496.16312" target-y="279.35657"></path><path d="M 524.25 289.22 L 524.27 295.27 L 596.99 253.28 L 596.98 247.25 L 524.25 289.22 Z" fill="#748bfd" fill-rule="nonzero" group-id="1,17" node-id="332" stroke="none" target-height="48.026413" target-width="72.74304" target-x="524.249" target-y="247.2451"></path><path d="M 512.82 296.94 L 512.84 300.75 L 515.96 298.95 L 515.95 295.14 L 512.82 296.94 Z" fill="#f9bb4a" fill-rule="nonzero" group-id="1,18" node-id="337" stroke="none" target-height="5.6124573" target-width="3.142334" target-x="512.8208" target-y="295.13867"></path><path d="M 518.70 298.48 L 493.44 313.07 L 493.42 307.03 L 518.68 292.44 L 518.70 298.48 Z M 504.50 305.56 L 507.63 303.76 L 507.61 299.95 L 504.49 301.75 L 504.50 305.56 Z M 512.84 300.75 L 515.96 298.95 L 515.95 295.14 L 512.82 296.94 L 512.84 300.75 Z M 496.17 310.37 L 499.30 308.57 L 499.29 304.76 L 496.16 306.57 L 496.17 310.37 Z" fill="#d4dae8" fill-rule="nonzero" group-id="1,19" node-id="342" stroke="none" target-height="20.62851" target-width="25.27951" target-x="493.41946" target-y="292.4419"></path><path d="M 504.50 301.76 L 504.50 305.56 L 507.62 303.76 L 507.62 299.95 L 504.50 301.76 Z M 496.16 306.57 L 496.16 310.37 L 499.30 308.57 L 499.29 304.76 L 496.16 306.57 Z" fill="#f9bb4a" fill-rule="nonzero" group-id="1,20" node-id="347" stroke="none" target-height="10.4198" target-width="11.459351" target-x="496.16312" target-y="299.95386"></path><path d="M 524.25 309.83 L 524.27 315.87 L 596.99 273.88 L 596.98 267.84 L 524.25 309.83 Z" fill="#748bfd" fill-rule="nonzero" group-id="1,21" node-id="352" stroke="none" target-height="48.026398" target-width="72.74304" target-x="524.249" target-y="267.8424"></path><path d="M 512.82 317.54 L 512.84 321.35 L 515.96 319.54 L 515.95 315.74 L 512.82 317.54 Z" fill="#f9bb4a" fill-rule="nonzero" group-id="1,22" node-id="357" stroke="none" target-height="5.612488" target-width="3.142334" target-x="512.8208" target-y="315.73596"></path><path d="M 518.70 319.08 L 493.44 333.67 L 493.42 327.63 L 518.68 313.04 L 518.70 319.08 Z M 504.50 326.16 L 507.63 324.36 L 507.61 320.55 L 504.49 322.35 L 504.50 326.16 Z M 512.84 321.35 L 515.96 319.54 L 515.95 315.74 L 512.82 317.54 L 512.84 321.35 Z M 496.17 330.96 L 499.30 329.17 L 499.29 325.36 L 496.16 327.16 L 496.17 330.96 Z" fill="#d4dae8" fill-rule="nonzero" group-id="1,23" node-id="362" stroke="none" target-height="20.62851" target-width="25.27951" target-x="493.41946" target-y="313.03906"></path><path d="M 504.50 322.36 L 504.50 326.16 L 507.62 324.36 L 507.62 320.55 L 504.50 322.36 Z M 496.16 327.16 L 496.16 330.97 L 499.30 329.17 L 499.29 325.36 L 496.16 327.16 Z" fill="#f9bb4a" fill-rule="nonzero" group-id="1,24" node-id="367" stroke="none" target-height="10.4198" target-width="11.459351" target-x="496.16312" target-y="320.55103"></path><path d="M 524.25 330.42 L 524.27 336.46 L 596.99 294.48 L 596.98 288.44 L 524.25 330.42 Z" fill="#748bfd" fill-rule="nonzero" group-id="1,25" node-id="372" stroke="none" target-height="48.018616" target-width="72.74304" target-x="524.249" target-y="288.4397"></path><path d="M 512.82 338.14 L 512.84 341.95 L 515.96 340.14 L 515.95 336.33 L 512.82 338.14 Z" fill="#f9bb4a" fill-rule="nonzero" group-id="1,26" node-id="377" stroke="none" target-height="5.612488" target-width="3.142334" target-x="512.8208" target-y="336.33313"></path><path d="M 518.70 339.68 L 493.44 354.26 L 493.42 348.22 L 518.68 333.64 L 518.70 339.68 Z M 504.50 346.75 L 507.63 344.96 L 507.61 341.14 L 504.49 342.95 L 504.50 346.75 Z M 512.84 341.95 L 515.96 340.14 L 515.95 336.33 L 512.82 338.14 L 512.84 341.95 Z M 496.17 351.56 L 499.30 349.76 L 499.29 345.96 L 496.16 347.75 L 496.17 351.56 Z" fill="#d4dae8" fill-rule="nonzero" group-id="1,27" node-id="382" stroke="none" target-height="20.620697" target-width="25.27951" target-x="493.41946" target-y="333.63635"></path><path d="M 504.50 342.95 L 504.50 346.75 L 507.62 344.96 L 507.62 341.14 L 504.50 342.95 Z M 496.16 347.76 L 496.16 351.57 L 499.30 349.76 L 499.29 345.96 L 496.16 347.76 Z" fill="#f9bb4a" fill-rule="nonzero" group-id="1,28" node-id="387" stroke="none" target-height="10.427612" target-width="11.459351" target-x="496.16312" target-y="341.1405"></path><path d="M 524.25 351.02 L 524.27 357.06 L 596.99 315.08 L 596.98 309.03 L 524.25 351.02 Z" fill="#748bfd" fill-rule="nonzero" group-id="1,29" node-id="392" stroke="none" target-height="48.026398" target-width="72.74304" target-x="524.249" target-y="309.02905"></path><path d="M 512.82 358.74 L 512.84 362.54 L 515.96 360.74 L 515.95 356.93 L 512.82 358.74 Z" fill="#f9bb4a" fill-rule="nonzero" group-id="1,30" node-id="397" stroke="none" target-height="5.6124573" target-width="3.142334" target-x="512.8208" target-y="356.93045"></path><path d="M 518.70 360.28 L 493.44 374.85 L 493.42 368.82 L 518.68 354.23 L 518.70 360.28 Z M 504.50 367.35 L 507.63 365.55 L 507.61 361.74 L 504.49 363.54 L 504.50 367.35 Z M 512.84 362.54 L 515.96 360.74 L 515.95 356.93 L 512.82 358.74 L 512.84 362.54 Z M 496.17 372.16 L 499.30 370.36 L 499.29 366.55 L 496.16 368.35 L 496.17 372.16 Z" fill="#d4dae8" fill-rule="nonzero" group-id="1,31" node-id="402" stroke="none" target-height="20.620697" target-width="25.27951" target-x="493.41946" target-y="354.23364"></path><path d="M 504.50 363.54 L 504.50 367.35 L 507.62 365.55 L 507.62 361.74 L 504.50 363.54 Z M 496.16 368.36 L 496.16 372.17 L 499.30 370.36 L 499.29 366.55 L 496.16 368.36 Z" fill="#f9bb4a" fill-rule="nonzero" group-id="1,32" node-id="407" stroke="none" target-height="10.427582" target-width="11.459351" target-x="496.16312" target-y="361.7378"></path><path d="M 524.25 371.61 L 524.27 377.65 L 596.99 335.67 L 596.98 329.63 L 524.25 371.61 Z" fill="#748bfd" fill-rule="nonzero" group-id="1,33" node-id="412" stroke="none" target-height="48.02643" target-width="72.74304" target-x="524.249" target-y="329.62634"></path><path d="M 512.82 379.33 L 512.84 383.14 L 515.96 381.33 L 515.95 377.53 L 512.82 379.33 Z" fill="#f9bb4a" fill-rule="nonzero" group-id="1,34" node-id="417" stroke="none" target-height="5.612488" target-width="3.142334" target-x="512.8208" target-y="377.5277"></path><path d="M 518.70 380.87 L 493.44 395.45 L 493.42 389.42 L 518.68 374.83 L 518.70 380.87 Z M 504.50 387.95 L 507.63 386.15 L 507.61 382.33 L 504.49 384.14 L 504.50 387.95 Z M 512.84 383.14 L 515.96 381.33 L 515.95 377.53 L 512.82 379.33 L 512.84 383.14 Z M 496.17 392.75 L 499.30 390.96 L 499.29 387.15 L 496.16 388.95 L 496.17 392.75 Z" fill="#d4dae8" fill-rule="nonzero" group-id="1,35" node-id="422" stroke="none" target-height="20.620697" target-width="25.27951" target-x="493.41946" target-y="374.8308"></path><path d="M 504.50 384.14 L 504.50 387.95 L 507.62 386.15 L 507.62 382.34 L 504.50 384.14 Z M 496.16 388.96 L 496.16 392.76 L 499.30 390.95 L 499.29 387.15 L 496.16 388.96 Z" fill="#f9bb4a" fill-rule="nonzero" group-id="1,36" node-id="427" stroke="none" target-height="10.427582" target-width="11.459351" target-x="496.16312" target-y="382.3351"></path><path d="M 524.25 392.22 L 524.27 398.25 L 596.99 356.27 L 596.98 350.22 L 524.25 392.22 Z" fill="#748bfd" fill-rule="nonzero" group-id="1,37" node-id="432" stroke="none" target-height="48.026398" target-width="72.74304" target-x="524.249" target-y="350.22363"></path><path d="M 512.82 399.93 L 512.84 403.74 L 515.96 401.93 L 515.95 398.12 L 512.82 399.93 Z" fill="#f9bb4a" fill-rule="nonzero" group-id="1,38" node-id="437" stroke="none" target-height="5.612488" target-width="3.142334" target-x="512.8208" target-y="398.125"></path><path d="M 518.70 401.47 L 493.44 416.05 L 493.42 410.01 L 518.68 395.43 L 518.70 401.47 Z M 504.50 408.54 L 507.63 406.75 L 507.61 402.93 L 504.49 404.74 L 504.50 408.54 Z M 512.84 403.74 L 515.96 401.93 L 515.95 398.12 L 512.82 399.92 L 512.84 403.74 Z M 496.17 413.35 L 499.30 411.55 L 499.29 407.75 L 496.16 409.55 L 496.17 413.35 Z" fill="#d4dae8" fill-rule="nonzero" group-id="1,39" node-id="442" stroke="none" target-height="20.620697" target-width="25.27951" target-x="493.41946" target-y="395.4281"></path><path d="M 504.50 404.74 L 504.50 408.54 L 507.62 406.75 L 507.62 402.93 L 504.50 404.74 Z M 496.16 409.55 L 496.16 413.36 L 499.30 411.55 L 499.29 407.75 L 496.16 409.55 Z" fill="#f9bb4a" fill-rule="nonzero" group-id="1,40" node-id="447" stroke="none" target-height="10.427643" target-width="11.459351" target-x="496.16312" target-y="402.93225"></path><path d="M 524.25 412.80 L 524.27 418.85 L 596.99 376.86 L 596.98 370.82 L 524.25 412.80 Z" fill="#748bfd" fill-rule="nonzero" group-id="1,41" node-id="452" stroke="none" target-height="48.026398" target-width="72.74304" target-x="524.249" target-y="370.8208"></path><path d="M 512.82 420.53 L 512.84 424.33 L 515.96 422.53 L 515.95 418.72 L 512.82 420.53 Z" fill="#f9bb4a" fill-rule="nonzero" group-id="1,42" node-id="457" stroke="none" target-height="5.612488" target-width="3.142334" target-x="512.8208" target-y="418.72217"></path><path d="M 518.70 422.07 L 493.44 436.65 L 493.42 430.61 L 518.68 416.03 L 518.70 422.07 Z M 504.50 429.14 L 507.63 427.34 L 507.61 423.53 L 504.49 425.34 L 504.50 429.14 Z M 512.84 424.33 L 515.96 422.53 L 515.95 418.72 L 512.82 420.52 L 512.84 424.33 Z M 496.17 433.95 L 499.30 432.15 L 499.29 428.34 L 496.16 430.14 L 496.17 433.95 Z" fill="#d4dae8" fill-rule="nonzero" group-id="1,43" node-id="462" stroke="none" target-height="20.620697" target-width="25.27951" target-x="493.41946" target-y="416.0254"></path><path d="M 504.50 425.34 L 504.50 429.14 L 507.62 427.34 L 507.62 423.53 L 504.50 425.34 Z M 496.16 430.15 L 496.16 433.95 L 499.30 432.15 L 499.29 428.34 L 496.16 430.15 Z" fill="#f9bb4a" fill-rule="nonzero" group-id="1,44" node-id="467" stroke="none" target-height="10.4198" target-width="11.459351" target-x="496.16312" target-y="423.52954"></path><path d="M 524.25 433.41 L 524.27 439.44 L 596.99 397.46 L 596.98 391.42 L 524.25 433.41 Z" fill="#748bfd" fill-rule="nonzero" group-id="1,45" node-id="472" stroke="none" target-height="48.026398" target-width="72.74304" target-x="524.249" target-y="391.4181"></path><path d="M 512.82 441.13 L 512.84 444.93 L 515.96 443.13 L 515.95 439.32 L 512.82 441.13 Z" fill="#f9bb4a" fill-rule="nonzero" group-id="1,46" node-id="477" stroke="none" target-height="5.612488" target-width="3.142334" target-x="512.8208" target-y="439.31946"></path><path d="M 518.70 442.67 L 493.44 457.24 L 493.42 451.20 L 518.68 436.62 L 518.70 442.67 Z M 504.50 449.74 L 507.63 447.93 L 507.61 444.13 L 504.49 445.93 L 504.50 449.74 Z M 512.84 444.93 L 515.96 443.13 L 515.95 439.32 L 512.82 441.12 L 512.84 444.93 Z M 496.17 454.55 L 499.30 452.75 L 499.29 448.94 L 496.16 450.74 L 496.17 454.55 Z" fill="#d4dae8" fill-rule="nonzero" group-id="1,47" node-id="482" stroke="none" target-height="20.620697" target-width="25.27951" target-x="493.41946" target-y="436.62265"></path><path d="M 504.50 445.93 L 504.50 449.74 L 507.62 447.93 L 507.62 444.13 L 504.50 445.93 Z M 496.16 450.75 L 496.16 454.55 L 499.30 452.75 L 499.29 448.94 L 496.16 450.75 Z" fill="#f9bb4a" fill-rule="nonzero" group-id="1,48" node-id="487" stroke="none" target-height="10.4198" target-width="11.459351" target-x="496.16312" target-y="444.1267"></path><path d="M 524.25 454.00 L 524.27 460.04 L 596.99 418.06 L 596.98 412.02 L 524.25 454.00 Z" fill="#748bfd" fill-rule="nonzero" group-id="1,49" node-id="492" stroke="none" target-height="48.026398" target-width="72.74304" target-x="524.249" target-y="412.01538"></path><path d="M 512.82 461.72 L 512.84 465.53 L 515.96 463.72 L 515.95 459.92 L 512.82 461.72 Z" fill="#f9bb4a" fill-rule="nonzero" group-id="1,50" node-id="497" stroke="none" target-height="5.612488" target-width="3.142334" target-x="512.8208" target-y="459.91675"></path><path d="M 518.70 463.26 L 493.44 477.84 L 493.42 471.80 L 518.68 457.22 L 518.70 463.26 Z M 504.50 470.34 L 507.63 468.53 L 507.61 464.72 L 504.49 466.53 L 504.50 470.34 Z M 512.84 465.53 L 515.96 463.72 L 515.95 459.92 L 512.82 461.71 L 512.84 465.53 Z M 496.17 475.14 L 499.30 473.35 L 499.29 469.53 L 496.16 471.34 L 496.17 475.14 Z" fill="#d4dae8" fill-rule="nonzero" group-id="1,51" node-id="502" stroke="none" target-height="20.620697" target-width="25.27951" target-x="493.41946" target-y="457.21997"></path><path d="M 504.50 466.53 L 504.50 470.34 L 507.62 468.53 L 507.62 464.72 L 504.50 466.53 Z M 496.16 471.34 L 496.16 475.14 L 499.30 473.35 L 499.29 469.53 L 496.16 471.34 Z" fill="#f9bb4a" fill-rule="nonzero" group-id="1,52" node-id="507" stroke="none" target-height="10.419769" target-width="11.459351" target-x="496.16312" target-y="464.724"></path><path d="M 524.25 474.60 L 524.27 480.64 L 596.99 438.66 L 596.98 432.61 L 524.25 474.60 Z" fill="#748bfd" fill-rule="nonzero" group-id="1,53" node-id="512" stroke="none" target-height="48.026398" target-width="72.74304" target-x="524.249" target-y="432.61267"></path><path d="M 512.82 482.32 L 512.84 486.12 L 515.96 484.32 L 515.95 480.51 L 512.82 482.32 Z" fill="#f9bb4a" fill-rule="nonzero" group-id="1,54" node-id="517" stroke="none" target-height="5.604645" target-width="3.142334" target-x="512.8208" target-y="480.51392"></path><path d="M 518.70 483.86 L 493.44 498.44 L 493.42 492.40 L 518.68 477.82 L 518.70 483.86 Z M 504.50 490.93 L 507.63 489.13 L 507.61 485.32 L 504.49 487.13 L 504.50 490.93 Z M 512.84 486.12 L 515.96 484.32 L 515.95 480.51 L 512.82 482.31 L 512.84 486.12 Z M 496.17 495.74 L 499.30 493.94 L 499.29 490.13 L 496.16 491.93 L 496.17 495.74 Z" fill="#d4dae8" fill-rule="nonzero" group-id="1,55" node-id="522" stroke="none" target-height="20.620697" target-width="25.27951" target-x="493.41946" target-y="477.8171"></path><path d="M 504.50 487.13 L 504.50 490.93 L 507.62 489.13 L 507.62 485.32 L 504.50 487.13 Z M 496.16 491.94 L 496.16 495.74 L 499.30 493.94 L 499.29 490.14 L 496.16 491.94 Z" fill="#f9bb4a" fill-rule="nonzero" group-id="1,56" node-id="527" stroke="none" target-height="10.4198" target-width="11.459351" target-x="496.16312" target-y="485.3213"></path><path d="M 524.25 495.19 L 524.27 501.24 L 596.99 459.25 L 596.98 453.21 L 524.25 495.19 Z" fill="#748bfd" fill-rule="nonzero" group-id="1,57" node-id="532" stroke="none" target-height="48.026398" target-width="72.74304" target-x="524.249" target-y="453.20984"></path><path d="M 512.82 502.92 L 512.84 506.72 L 515.96 504.91 L 515.95 501.11 L 512.82 502.92 Z" fill="#f9bb4a" fill-rule="nonzero" group-id="1,58" node-id="537" stroke="none" target-height="5.6124573" target-width="3.142334" target-x="512.8208" target-y="501.1112"></path><path d="M 518.70 504.45 L 493.44 519.04 L 493.42 512.99 L 518.68 498.41 L 518.70 504.45 Z M 504.50 511.53 L 507.63 509.73 L 507.61 505.92 L 504.49 507.72 L 504.50 511.53 Z M 512.84 506.72 L 515.96 504.92 L 515.95 501.11 L 512.82 502.91 L 512.84 506.72 Z M 496.17 516.34 L 499.30 514.54 L 499.29 510.73 L 496.16 512.53 L 496.17 516.34 Z" fill="#d4dae8" fill-rule="nonzero" group-id="1,59" node-id="542" stroke="none" target-height="20.620728" target-width="25.27951" target-x="493.41946" target-y="498.41443"></path><path d="M 504.50 507.72 L 504.50 511.53 L 507.62 509.73 L 507.62 505.92 L 504.50 507.72 Z M 496.16 512.53 L 496.16 516.34 L 499.30 514.54 L 499.29 510.73 L 496.16 512.53 Z" fill="#f9bb4a" fill-rule="nonzero" group-id="1,60" node-id="547" stroke="none" target-height="10.4198" target-width="11.459351" target-x="496.16312" target-y="505.91846"></path><path d="M 391.45 456.46 L 391.45 460.01 L 407.61 469.41 L 473.68 507.56 L 473.68 503.92 L 391.45 456.46 Z M 391.36 442.92 L 391.44 446.39 L 473.68 493.86 L 473.60 490.39 L 391.36 442.92 Z M 391.36 429.30 L 391.36 432.85 L 473.60 480.32 L 473.60 476.77 L 391.36 429.30 Z M 391.28 415.68 L 391.36 419.15 L 473.60 466.62 L 473.52 463.14 L 391.28 415.68 Z M 391.28 401.97 L 391.28 405.53 L 473.51 453.08 L 473.51 449.52 L 391.28 401.97 Z M 391.19 388.35 L 391.27 391.90 L 473.52 439.37 L 473.43 435.82 L 391.19 388.35 Z M 391.19 374.73 L 391.19 378.29 L 473.42 425.75 L 473.42 422.28 L 391.19 374.73 Z M 391.19 361.10 L 391.19 364.57 L 473.42 412.12 L 473.42 408.58 L 391.19 361.10 Z M 391.11 347.49 L 391.11 350.96 L 473.34 398.42 L 473.34 394.95 L 391.11 347.49 Z M 391.11 333.78 L 391.11 337.42 L 473.34 384.88 L 473.34 381.33 L 391.11 333.78 Z M 391.02 320.24 L 391.02 323.80 L 473.26 371.26 L 473.26 367.71 L 391.02 320.24 Z M 391.02 306.62 L 391.02 310.17 L 473.26 357.64 L 473.26 354.08 L 391.02 306.62 Z M 390.94 293.00 L 390.94 296.47 L 473.17 343.93 L 473.17 340.46 L 390.94 293.00 Z M 390.94 279.37 L 390.94 282.93 L 473.17 330.39 L 473.17 326.84 L 390.94 279.37 Z M 390.86 265.76 L 390.86 269.23 L 473.09 316.69 L 473.09 313.22 L 390.86 265.76 Z M 390.86 252.05 L 390.86 255.69 L 473.09 303.15 L 473.09 299.60 L 390.86 252.05 Z M 390.76 238.51 L 390.76 241.98 L 473.01 289.45 L 473.01 285.98 L 390.76 238.51 Z" fill="#9ad898" fill-rule="nonzero" group-id="1,61" node-id="552" stroke="none" target-height="269.04602" target-width="82.9205" target-x="390.76175" target-y="238.5138"></path><path d="M 891.08 420.54 L 941.61 391.18 L 941.80 383.60 L 891.27 412.96 L 891.08 420.54 Z" fill="#525566" fill-rule="nonzero" group-id="1,62" node-id="557" stroke="none" target-height="36.942047" target-width="50.715454" target-x="891.083" target-y="383.60135"></path><path d="M 891.27 412.96 L 941.80 383.60 L 813.13 309.32 L 762.61 338.68 L 891.27 412.96 Z" fill="#5b5e71" fill-rule="nonzero" group-id="1,63" node-id="562" stroke="none" target-height="103.643036" target-width="179.19202" target-x="762.60645" target-y="309.31836"></path><path d="M 762.61 338.68 L 762.43 346.26 L 891.09 420.54 L 891.27 412.96 L 762.61 338.68 Z" fill="#474b59" fill-rule="nonzero" group-id="1,64" node-id="567" stroke="none" target-height="81.865295" target-width="128.844" target-x="762.42676" target-y="338.67822"></path><path d="M 877.40 320.81 L 897.87 308.91 L 846.59 279.31 L 826.12 291.21 L 877.40 320.81 Z" fill="#4e5161" fill-rule="nonzero" group-id="1,65" node-id="572" stroke="none" target-height="41.49942" target-width="71.75037" target-x="826.1177" target-y="279.3097"></path><path d="M 876.51 380.30 L 891.27 371.73 L 891.47 312.95 L 876.71 321.52 L 876.51 380.30 Z" fill="#bac1ce" fill-rule="nonzero" group-id="1,66" node-id="577" stroke="none" target-height="67.3573" target-width="14.953613" target-x="876.5127" target-y="312.9453"></path><path d="M 827.71 293.23 L 827.52 352.01 L 876.51 380.31 L 876.71 321.52 L 827.71 293.23 Z" fill="#cad0dd" fill-rule="nonzero" group-id="1,67" node-id="582" stroke="none" target-height="87.07907" target-width="49.1911" target-x="827.5171" target-y="293.23145"></path><path d="M 923.75 346.79 L 835.62 295.59 L 819.87 305.95 L 907.99 357.16 L 923.75 346.79 Z" fill="#eaf0f6" fill-rule="nonzero" group-id="1,68" node-id="587" stroke="none" target-height="61.565125" target-width="103.877014" target-x="819.8721" target-y="295.59204"></path><path d="M 727.84 27.20 C 730.42 25.80 734.86 25.93 738.96 28.41 L 985.12 170.52 C 993.43 175.27 1000.23 187.03 1000.23 196.53 L 999.69 376.02 L 999.69 393.19 C 999.58 397.93 997.97 401.28 995.27 402.79 L 999.69 400.20 L 1007.30 395.92 C 1010.11 394.20 1011.73 390.85 1011.73 386.10 L 1011.84 369.05 L 1012.27 189.45 C 1012.27 179.95 1005.47 168.30 997.26 163.43 L 750.76 21.18 C 746.54 18.81 742.77 18.49 740.07 20.10 L 727.84 27.20 Z" fill="#5b5e71" fill-rule="nonzero" group-id="1,69" node-id="592" stroke="none" target-height="384.3045" target-width="284.43" target-x="727.8374" target-y="18.486712"></path><path d="M 723.33 216.32 L 999.69 376.02 L 1000.24 196.53 C 1000.24 187.03 993.44 175.38 985.12 170.52 L 738.61 28.27 C 730.29 23.41 723.49 27.30 723.49 36.79 L 723.33 216.32 Z" fill="#3f434f" fill-rule="nonzero" group-id="1,70" node-id="597" stroke="none" target-height="352.60724" target-width="276.9021" target-x="723.3349" target-y="23.411276"></path><path d="M 733.22 208.07 L 989.88 356.35 L 990.37 196.51 C 990.37 190.58 985.44 182.08 980.10 179.03 L 733.42 36.66 L 733.22 208.07 Z" fill="#fed57a" fill-rule="nonzero" group-id="1,71" node-id="602" stroke="none" target-height="319.69104" target-width="257.15717" target-x="733.2153" target-y="36.660774"></path><path d="M 723.33 216.32 L 723.29 233.44 C 723.26 243.02 729.98 254.67 738.32 259.48 L 984.51 401.62 C 992.89 406.46 999.66 402.60 999.68 393.02 L 999.74 375.90 L 723.33 216.32 Z" fill="#e4e8f4" fill-rule="nonzero" group-id="1,72" node-id="607" stroke="none" target-height="190.13602" target-width="276.48016" target-x="723.2565" target-y="216.3219"></path><path d="M 855.52 308.97 C 855.52 313.13 858.44 318.03 861.99 320.12 C 865.53 322.21 868.45 320.54 868.45 316.47 C 868.45 312.30 865.64 307.29 861.99 305.21 C 858.44 303.23 855.52 304.90 855.52 308.97 Z" fill="#bac1ce" fill-rule="nonzero" group-id="1,73" node-id="612" stroke="none" target-height="18.979187" target-width="12.929016" target-x="855.5244" target-y="303.22903"></path><path d="M 812.01 459.95 C 816.14 462.33 816.15 466.16 812.06 468.55 C 807.96 470.93 801.35 470.92 797.22 468.55 C 793.01 466.12 793.00 462.29 797.09 459.90 C 801.19 457.52 807.80 457.52 812.01 459.95 Z" fill="#f9607f" fill-rule="nonzero" group-id="1,74" node-id="617" stroke="none" target-height="13.413605" target-width="23.153381" target-x="792.9981" target-y="457.51694"></path><path d="M 757.27 424.22 C 761.39 426.60 761.42 430.43 757.32 432.82 C 753.23 435.20 746.61 435.20 742.49 432.82 C 738.27 430.39 738.26 426.56 742.35 424.18 C 746.45 421.79 753.06 421.79 757.27 424.23 L 757.27 424.22 Z" fill="#576cfb" fill-rule="nonzero" group-id="1,75" node-id="622" stroke="none" target-height="13.405762" target-width="23.161194" target-x="738.2571" target-y="421.79425"></path><path d="M 744.53 498.18 C 748.65 500.56 748.67 504.39 744.57 506.78 C 740.48 509.16 733.86 509.15 729.74 506.78 C 725.53 504.35 725.52 500.52 729.61 498.13 C 733.71 495.75 740.32 495.75 744.53 498.18 Z" fill="#bac1ce" fill-rule="nonzero" group-id="1,76" node-id="627" stroke="none" target-height="13.413635" target-width="23.153381" target-x="725.5157" target-y="495.74887"></path><path d="M 721.40 664.25 C 727.81 667.95 727.84 673.90 721.47 677.60 C 715.11 681.30 704.82 681.30 698.41 677.60 C 691.89 673.82 691.85 667.87 698.22 664.18 C 704.59 660.48 714.86 660.48 721.40 664.26 L 721.40 664.25 Z" fill="#fa5168" fill-rule="nonzero" group-id="1,77" node-id="632" stroke="none" target-height="20.823914" target-width="35.988586" target-x="691.84863" target-y="660.48004"></path><path d="M 874.80 754.94 C 881.67 758.90 881.70 765.28 874.88 769.24 C 868.06 773.21 857.04 773.21 850.18 769.24 C 843.17 765.20 843.14 758.82 849.96 754.86 C 856.78 750.89 867.80 750.89 874.80 754.94 Z" fill="#576cfb" fill-rule="nonzero" group-id="1,78" node-id="637" stroke="none" target-height="22.324768" target-width="38.567993" target-x="843.1352" target-y="750.88904"></path><path d="M 559.82 753.30 C 567.51 757.74 567.55 764.87 559.92 769.30 C 552.29 773.74 539.98 773.74 532.30 769.30 C 524.47 764.78 524.43 757.65 532.06 753.22 C 539.69 748.79 551.99 748.79 559.82 753.30 Z" fill="#bac1ce" fill-rule="nonzero" group-id="1,79" node-id="642" stroke="none" target-height="24.951172" target-width="43.117493" target-x="524.4286" target-y="748.7863"></path><path d="M 890.17 838.90 L 890.17 855.60 C 890.17 857.65 888.84 859.70 886.06 861.23 L 642.82 1002.52 C 637.39 1005.69 628.48 1005.69 623.05 1002.52 L 494.07 928.04 C 491.31 926.40 489.87 924.35 489.87 922.20 L 489.97 905.51 C 489.97 907.65 491.30 909.70 494.07 911.34 L 623.05 985.82 C 628.58 989.00 637.39 989.00 642.82 985.82 L 886.17 844.54 C 888.83 843.00 890.17 840.95 890.17 838.91 L 890.17 838.90 Z" fill="#525566" fill-rule="nonzero" group-id="1,80" node-id="647" stroke="none" target-height="166.79504" target-width="400.29794" target-x="489.87064" target-y="838.8983"></path><path d="M 886.03 833.08 C 891.53 836.26 891.56 841.39 886.17 844.53 L 642.87 985.78 C 637.41 988.95 628.54 988.95 623.05 985.78 L 494.08 911.30 C 488.57 908.14 488.55 903.00 494.00 899.83 L 737.30 758.58 C 742.70 755.45 751.56 755.45 757.06 758.62 L 886.03 833.08 Z" fill="#5b5e71" fill-rule="nonzero" group-id="1,81" node-id="652" stroke="none" target-height="233.50354" target-width="403.01053" target-x="488.54965" target-y="755.44635"></path><path d="M 577.51 937.12 C 580.66 938.93 580.67 941.95 577.48 943.80 C 574.37 945.61 569.22 945.57 566.08 943.76 C 562.87 941.91 562.86 938.97 565.98 937.16 C 569.16 935.30 574.31 935.26 577.51 937.12 Z M 814.64 799.45 C 816.79 800.71 816.81 802.66 814.66 803.91 C 812.51 805.16 809.12 805.16 806.97 803.91 C 804.81 802.66 804.80 800.71 806.94 799.45 C 809.09 798.20 812.48 798.20 814.64 799.45 Z M 627.89 968.84 C 629.78 969.93 629.80 971.74 627.92 972.84 C 625.75 973.95 623.17 973.95 621.01 972.84 L 609.10 965.96 C 607.20 964.87 607.12 963.10 609.08 961.97 C 610.96 960.87 614.09 960.87 615.99 961.97 L 627.89 968.84 Z M 535.93 915.74 C 537.83 916.83 537.83 918.64 535.95 919.75 C 533.78 920.86 531.21 920.86 529.04 919.75 L 517.14 912.87 C 515.24 911.77 515.17 910.00 517.11 908.87 C 519.00 907.77 522.13 907.77 524.02 908.87 L 535.93 915.74 Z" fill="#525566" fill-rule="nonzero" group-id="1,82" node-id="657" stroke="none" target-height="175.7497" target-width="301.6427" target-x="515.16595" target-y="798.20416"></path><path d="M 864.32 843.74 L 647.88 969.42 L 521.36 896.43 L 738.01 770.75 L 864.32 843.74 Z" fill="#748bfd" fill-rule="nonzero" group-id="1,83" node-id="662" stroke="none" target-height="198.664" target-width="342.95398" target-x="521.36426" target-y="770.75146"></path><path d="M 784.91 172.99 C 784.75 193.03 799.01 217.55 816.48 227.65 L 914.24 284.06 C 927.86 291.91 938.92 285.67 939.08 269.95 C 939.08 258.58 933.15 245.28 924.82 235.98 C 925.13 233.74 925.30 231.49 925.46 228.93 C 925.46 209.05 911.35 184.70 894.05 174.76 C 889.72 172.20 885.56 170.91 881.87 170.59 C 876.74 152.01 863.76 133.57 848.54 124.76 C 828.82 113.37 812.63 122.51 812.63 145.28 C 812.63 147.84 812.79 150.40 813.11 153.12 C 797.41 145.91 784.91 154.25 784.91 172.99 Z" fill="#ffffff" fill-rule="nonzero" group-id="1,84" node-id="667" stroke="none" target-height="178.53523" target-width="154.32709" target-x="784.7512" target-y="113.3748"></path><path d="M 721.26 849.52 C 729.42 854.24 730.81 861.21 725.59 866.57 C 728.17 867.28 730.62 868.19 732.75 869.42 C 742.60 875.10 742.75 884.33 732.86 890.08 L 732.31 890.27 C 738.47 895.90 737.29 903.32 728.84 908.23 C 719.17 913.85 703.34 913.85 693.38 908.10 L 621.35 866.51 C 611.50 860.82 611.45 851.66 621.11 846.03 C 629.23 841.32 641.83 840.48 651.32 843.64 L 651.76 843.25 C 661.65 837.51 677.37 837.44 687.22 843.13 C 689.35 844.35 690.80 845.71 691.93 847.13 C 701.28 844.16 713.32 844.94 721.26 849.52 L 721.26 849.52 Z" fill="#e4e8f4" fill-rule="nonzero" group-id="1,85" node-id="672" stroke="none" target-height="76.401306" target-width="131.29895" target-x="611.4531" target-y="837.4446"></path><path d="M 119.14 577.88 L 119.32 612.90 C 119.32 614.14 120.03 615.20 121.62 616.26 L 237.52 683.50 C 240.52 685.27 245.83 685.45 249.01 683.68 L 365.62 616.26 C 367.22 615.38 368.10 614.14 368.10 612.90 L 367.93 577.70 C 367.93 578.94 367.22 580.18 365.45 581.24 L 249.02 648.48 C 245.84 650.25 240.52 650.25 237.34 648.48 L 121.44 581.07 C 119.85 580.18 119.14 578.94 119.14 577.88 Z" fill="#416e84" fill-rule="nonzero" group-id="1,86" node-id="677" stroke="none" target-height="107.74701" target-width="248.957" target-x="119.14358" target-y="577.7002"></path><path d="M 121.51 581.10 L 237.28 648.40 C 240.48 650.24 245.77 650.24 248.97 648.51 L 365.48 581.22 C 368.80 579.25 368.69 576.18 365.61 574.33 L 249.71 507.03 C 246.50 505.18 241.47 505.18 238.14 507.15 L 121.51 574.46 C 118.43 576.29 118.31 579.25 121.51 581.10 Z" fill="#4c7891" fill-rule="nonzero" group-id="1,87" node-id="682" stroke="none" target-height="145.05646" target-width="250.49689" target-x="118.30741" target-y="505.18372"></path><path d="M 191.47 581.63 L 243.26 611.82 L 295.62 581.54 L 243.74 551.44 L 191.47 581.63 Z" fill="#363a44" fill-rule="nonzero" group-id="1,88" node-id="687" stroke="none" target-height="60.377014" target-width="104.15102" target-x="191.47218" target-y="551.4436"></path><path d="M 184.73 577.72 L 191.47 581.63 L 243.74 551.44 L 243.74 543.63 L 184.73 577.72 Z" fill="#416e84" fill-rule="nonzero" group-id="1,89" node-id="692" stroke="none" target-height="38.005188" target-width="59.008987" target-x="184.7344" target-y="543.6267"></path><path d="M 243.74 543.63 L 243.74 551.44 L 295.62 581.54 L 302.36 577.63 L 243.74 543.63 Z" fill="#37617b" fill-rule="nonzero" group-id="1,90" node-id="697" stroke="none" target-height="37.911377" target-width="58.618103" target-x="243.7432" target-y="543.6267"></path><path d="M 255.37 573.18 C 262.02 577.01 262.05 583.17 255.45 587.01 C 248.93 590.80 238.31 590.80 231.67 586.96 C 225.10 583.17 225.06 577.02 231.59 573.23 C 238.19 569.40 248.81 569.40 255.37 573.18 Z" fill="#748bfd" fill-rule="nonzero" group-id="1,91" node-id="702" stroke="none" target-height="21.402344" target-width="36.98906" target-x="225.06123" target-y="569.3987"></path><path d="M 321.33 617.47 C 324.44 615.68 327.04 617.08 327.04 620.72 C 327.05 624.29 324.47 628.76 321.37 630.55 C 318.28 632.34 315.67 630.86 315.67 627.30 C 315.65 623.65 318.24 619.26 321.33 617.47 Z" fill="#f9bb4a" fill-rule="nonzero" group-id="1,92" node-id="707" stroke="none" target-height="16.657593" target-width="11.404663" target-x="315.65" target-y="615.6819"></path><path d="M 338.26 607.69 C 341.37 605.90 343.97 607.30 343.97 610.94 C 343.99 614.51 341.41 618.99 338.30 620.78 C 335.20 622.57 332.60 621.08 332.60 617.52 C 332.58 613.88 335.17 609.48 338.26 607.69 Z" fill="#75ca75" fill-rule="nonzero" group-id="1,93" node-id="712" stroke="none" target-height="16.665344" target-width="11.404663" target-x="332.58115" target-y="605.9031"></path><path d="M 355.20 597.92 C 358.30 596.12 360.90 597.53 360.91 601.17 C 360.92 604.73 358.33 609.21 355.23 611.00 C 352.07 612.83 349.53 611.31 349.53 607.75 C 349.51 604.11 352.03 599.75 355.20 597.92 Z" fill="#d4dae8" fill-rule="nonzero" group-id="1,94" node-id="717" stroke="none" target-height="16.704468" target-width="11.404663" target-x="349.5123" target-y="596.12427"></path><path d="M 136.28 603.42 C 133.51 601.82 131.17 603.07 131.17 606.33 C 131.17 609.51 133.47 613.52 136.25 615.13 C 139.08 616.77 141.35 615.40 141.36 612.21 C 141.37 608.95 139.12 605.05 136.28 603.42 Z M 222.04 653.82 L 222.02 663.25 L 147.76 620.38 L 147.77 610.94 L 222.04 653.82 Z" fill="#f9607f" fill-rule="nonzero" group-id="1,95" node-id="722" stroke="none" target-height="61.43994" target-width="90.87018" target-x="131.16556" target-y="601.815"></path><path d="M 131.01 561.07 L 131.17 579.41 C 131.17 580.53 131.80 581.48 133.23 582.44 L 237.59 642.99 C 240.30 644.58 245.08 644.74 247.95 643.14 L 352.94 582.44 C 354.37 581.65 355.17 580.53 355.17 579.41 L 355.02 560.92 C 355.02 562.03 354.37 563.15 352.78 564.10 L 247.95 624.65 C 245.08 626.23 240.30 626.23 237.43 624.65 L 133.08 563.94 C 131.64 563.15 131.00 562.03 131.00 561.07 L 131.01 561.07 Z" fill="#9ad898" fill-rule="nonzero" group-id="1,96" node-id="727" stroke="none" target-height="83.81952" target-width="224.16998" target-x="131.0015" target-y="560.9175"></path><path d="M 133.14 563.97 L 237.38 624.56 C 240.26 626.23 245.03 626.23 247.90 624.67 L 352.81 564.08 C 355.81 562.31 355.70 559.54 352.92 557.88 L 248.57 508.08 C 245.69 506.42 241.14 506.42 238.15 508.19 L 133.14 557.98 C 130.36 559.64 130.25 562.31 133.14 563.97 Z" fill="#748bfd" fill-rule="nonzero" group-id="1,97" node-id="732" stroke="none" target-height="119.80768" target-width="225.55396" target-x="130.25128" target-y="506.41888"></path><path d="M 119.14 525.88 L 119.32 560.90 C 119.32 562.14 120.03 563.20 121.62 564.26 L 237.52 631.50 C 240.52 633.27 245.83 633.45 249.01 631.67 L 365.62 564.26 C 367.22 563.38 368.10 562.14 368.10 560.90 L 367.93 525.70 C 367.93 526.95 367.22 528.18 365.45 529.24 L 249.02 596.48 C 245.84 598.25 240.52 598.25 237.34 596.48 L 121.44 529.06 C 119.85 528.18 119.14 526.95 119.14 525.88 Z" fill="#416e84" fill-rule="nonzero" group-id="1,98" node-id="737" stroke="none" target-height="107.74701" target-width="248.957" target-x="119.14358" target-y="525.7029"></path><path d="M 121.51 529.10 L 237.28 596.40 C 240.48 598.23 245.77 598.23 248.97 596.51 L 365.48 529.21 C 368.80 527.25 368.69 524.17 365.61 522.33 L 249.71 455.03 C 246.51 453.19 241.47 453.19 238.14 455.16 L 121.51 522.46 C 118.43 524.30 118.31 527.25 121.51 529.10 Z" fill="#4c7891" fill-rule="nonzero" group-id="1,99" node-id="742" stroke="none" target-height="145.04846" target-width="250.49689" target-x="118.30741" target-y="453.1864"></path><path d="M 191.47 529.63 L 243.26 559.82 L 295.62 529.54 L 243.74 499.45 L 191.47 529.63 Z" fill="#363a44" fill-rule="nonzero" group-id="1,100" node-id="747" stroke="none" target-height="60.377014" target-width="104.15102" target-x="191.47218" target-y="499.4463"></path><path d="M 184.73 525.73 L 191.47 529.63 L 243.74 499.45 L 243.74 491.63 L 184.73 525.73 Z" fill="#416e84" fill-rule="nonzero" group-id="1,101" node-id="752" stroke="none" target-height="38.005188" target-width="59.008987" target-x="184.7344" target-y="491.6294"></path><path d="M 243.74 491.63 L 243.74 499.45 L 295.62 529.54 L 302.36 525.63 L 243.74 491.63 Z" fill="#37617b" fill-rule="nonzero" group-id="1,102" node-id="757" stroke="none" target-height="37.911377" target-width="58.618103" target-x="243.7432" target-y="491.6294"></path><path d="M 255.37 521.18 C 262.02 525.01 262.05 531.17 255.45 535.00 C 248.93 538.80 238.31 538.80 231.67 534.97 C 225.10 531.17 225.06 525.02 231.59 521.23 C 238.19 517.39 248.81 517.39 255.37 521.18 Z" fill="#748bfd" fill-rule="nonzero" group-id="1,103" node-id="762" stroke="none" target-height="21.402405" target-width="36.98906" target-x="225.06123" target-y="517.39355"></path><path d="M 321.33 565.47 C 324.44 563.68 327.04 565.08 327.04 568.73 C 327.05 572.28 324.47 576.76 321.37 578.55 C 318.28 580.34 315.67 578.86 315.67 575.30 C 315.65 571.66 318.24 567.26 321.33 565.47 L 321.33 565.47 Z" fill="#f9bb4a" fill-rule="nonzero" group-id="1,104" node-id="767" stroke="none" target-height="16.657532" target-width="11.404663" target-x="315.65" target-y="563.6846"></path><path d="M 338.26 555.70 C 341.37 553.91 343.97 555.30 343.97 558.95 C 343.99 562.51 341.41 566.99 338.30 568.77 C 335.21 570.57 332.60 569.09 332.60 565.52 C 332.58 561.88 335.17 557.49 338.26 555.70 Z" fill="#75ca75" fill-rule="nonzero" group-id="1,105" node-id="772" stroke="none" target-height="16.665344" target-width="11.404663" target-x="332.58115" target-y="553.90576"></path><path d="M 355.20 545.92 C 358.30 544.13 360.90 545.53 360.91 549.18 C 360.92 552.73 358.33 557.21 355.23 559.00 C 352.07 560.83 349.53 559.31 349.53 555.74 C 349.51 552.10 352.03 547.75 355.20 545.92 L 355.20 545.92 Z" fill="#748bfd" fill-rule="nonzero" group-id="1,106" node-id="777" stroke="none" target-height="16.704468" target-width="11.404663" target-x="349.5123" target-y="544.12695"></path><path d="M 136.28 551.42 C 133.51 549.82 131.17 551.07 131.17 554.33 C 131.17 557.52 133.47 561.53 136.25 563.13 C 139.08 564.77 141.35 563.40 141.36 560.21 C 141.37 556.95 139.12 553.05 136.28 551.41 L 136.28 551.42 Z M 222.04 601.81 L 222.02 611.26 L 147.76 568.38 L 147.77 558.95 L 222.04 601.81 Z" fill="#e4e8f4" fill-rule="nonzero" group-id="1,107" node-id="782" stroke="none" target-height="61.440002" target-width="90.87018" target-x="131.16556" target-y="549.8176"></path><path d="M 131.01 509.08 L 131.17 527.41 C 131.17 528.53 131.80 529.49 133.23 530.44 L 237.59 590.99 C 240.30 592.58 245.08 592.74 247.95 591.14 L 352.94 530.44 C 354.37 529.64 355.17 528.53 355.17 527.41 L 355.02 508.91 C 355.02 510.03 354.37 511.15 352.78 512.10 L 247.95 572.64 C 245.08 574.24 240.30 574.24 237.43 572.64 L 133.08 511.95 C 131.64 511.15 131.00 510.03 131.00 509.08 L 131.01 509.08 Z" fill="#9ad898" fill-rule="nonzero" group-id="1,108" node-id="787" stroke="none" target-height="83.82733" target-width="224.16998" target-x="131.0015" target-y="508.91235"></path><path d="M 133.14 511.97 L 237.38 572.56 C 240.26 574.23 245.03 574.23 247.90 572.67 L 352.81 512.08 C 355.81 510.30 355.69 507.54 352.92 505.88 L 248.57 456.08 C 245.70 454.42 241.15 454.42 238.16 456.19 L 133.14 505.98 C 130.37 507.65 130.26 510.30 133.14 511.97 L 133.14 511.97 Z" fill="#748bfd" fill-rule="nonzero" group-id="1,109" node-id="792" stroke="none" target-height="119.80765" target-width="225.54593" target-x="130.2591" target-y="454.42148"></path><path d="M 119.14 472.02 L 119.32 507.04 C 119.32 508.29 120.03 509.35 121.62 510.41 L 237.52 577.64 C 240.52 579.42 245.83 579.60 249.01 577.82 L 365.62 510.41 C 367.22 509.52 368.10 508.29 368.10 507.05 L 367.93 471.85 C 367.93 473.09 367.22 474.33 365.45 475.39 L 249.02 542.63 C 245.84 544.40 240.52 544.40 237.34 542.63 L 121.44 475.21 C 119.85 474.33 119.14 473.09 119.14 472.02 Z" fill="#416e84" fill-rule="nonzero" group-id="1,110" node-id="797" stroke="none" target-height="107.74701" target-width="248.957" target-x="119.14358" target-y="471.8529"></path><path d="M 121.51 475.24 L 237.28 542.54 C 240.48 544.39 245.77 544.39 248.97 542.67 L 365.48 475.36 C 368.80 473.39 368.69 470.32 365.61 468.48 L 249.71 401.17 C 246.51 399.33 241.47 399.33 238.14 401.30 L 121.51 468.60 C 118.43 470.45 118.31 473.39 121.51 475.25 L 121.51 475.24 Z" fill="#4c7891" fill-rule="nonzero" group-id="1,111" node-id="802" stroke="none" target-height="145.05646" target-width="250.49689" target-x="118.307396" target-y="399.32874"></path><path d="M 191.47 475.78 L 243.26 505.97 L 295.62 475.68 L 243.74 445.59 L 191.47 475.78 Z" fill="#363a44" fill-rule="nonzero" group-id="1,112" node-id="807" stroke="none" target-height="60.384644" target-width="104.15102" target-x="191.47218" target-y="445.58853"></path><path d="M 184.73 471.88 L 191.47 475.78 L 243.74 445.60 L 243.74 437.78 L 184.73 471.88 Z" fill="#416e84" fill-rule="nonzero" group-id="1,113" node-id="812" stroke="none" target-height="38.00522" target-width="59.008987" target-x="184.7344" target-y="437.77954"></path><path d="M 243.74 437.78 L 243.74 445.60 L 295.62 475.69 L 302.36 471.78 L 243.74 437.78 Z" fill="#37617b" fill-rule="nonzero" group-id="1,114" node-id="817" stroke="none" target-height="37.911438" target-width="58.618103" target-x="243.7432" target-y="437.77954"></path><path d="M 255.37 467.33 C 262.02 471.17 262.05 477.32 255.45 481.15 C 248.93 484.95 238.31 484.95 231.67 481.11 C 225.10 477.32 225.06 471.17 231.59 467.37 C 238.19 463.54 248.81 463.54 255.37 467.33 Z" fill="#748bfd" fill-rule="nonzero" group-id="1,115" node-id="822" stroke="none" target-height="21.402374" target-width="36.98906" target-x="225.06123" target-y="463.5437"></path><path d="M 321.33 511.62 C 324.44 509.83 327.04 511.23 327.04 514.87 C 327.05 518.43 324.47 522.91 321.37 524.69 C 318.28 526.49 315.67 525.01 315.67 521.44 C 315.65 517.80 318.24 513.41 321.33 511.62 Z" fill="#f9bb4a" fill-rule="nonzero" group-id="1,116" node-id="827" stroke="none" target-height="16.665375" target-width="11.404663" target-x="315.65" target-y="509.82687"></path><path d="M 338.26 501.84 C 341.37 500.06 343.97 501.45 343.97 505.10 C 343.99 508.65 341.41 513.13 338.30 514.92 C 335.20 516.71 332.60 515.23 332.60 511.67 C 332.58 508.03 335.17 503.63 338.26 501.85 L 338.26 501.84 Z" fill="#75ca75" fill-rule="nonzero" group-id="1,117" node-id="832" stroke="none" target-height="16.657593" target-width="11.404663" target-x="332.58115" target-y="500.0559"></path><path d="M 355.20 492.07 C 358.30 490.28 360.90 491.68 360.91 495.32 C 360.92 498.88 358.33 503.35 355.23 505.14 C 352.07 506.97 349.53 505.46 349.53 501.89 C 349.51 498.25 352.03 493.90 355.20 492.07 Z" fill="#f9607f" fill-rule="nonzero" group-id="1,118" node-id="837" stroke="none" target-height="16.696686" target-width="11.404663" target-x="349.5123" target-y="490.27707"></path><path d="M 136.28 497.56 C 133.51 495.96 131.17 497.22 131.17 500.48 C 131.17 503.67 133.47 507.67 136.25 509.28 C 139.08 510.92 141.35 509.55 141.36 506.36 C 141.37 503.10 139.12 499.20 136.28 497.56 Z M 222.04 547.97 L 222.02 557.40 L 147.76 514.52 L 147.77 505.09 L 222.04 547.97 Z" fill="#f9bb4a" fill-rule="nonzero" group-id="1,119" node-id="842" stroke="none" target-height="61.439972" target-width="90.87018" target-x="131.16556" target-y="495.95993"></path></g></g></svg>