<?xml version="1.0" standalone="no"?><!DOCTYPE svg PUBLIC "-//W3C//DTD SVG 1.1//EN" "http://www.w3.org/Graphics/SVG/1.1/DTD/svg11.dtd"><svg height="1024" node-id="1" sillyvg="true" template-height="1024" template-width="1828" version="1.1" viewBox="0 0 1828 1024" width="1828" xmlns="http://www.w3.org/2000/svg" xmlns:xlink="http://www.w3.org/1999/xlink"><defs node-id="38"></defs><path d="M 800.56 682.32 L 303.01 682.32 C 293.47 682.32 285.67 690.13 285.67 699.66 L 451.45 979.82 C 451.45 989.36 459.25 997.16 468.79 997.16 L 966.34 997.16 C 975.88 997.16 983.68 989.36 983.68 979.82 L 817.90 699.66 C 813.57 688.10 810.10 682.32 800.56 682.32 Z" fill="#d2e9fe" fill-rule="nonzero" node-id="40" stroke="none" target-height="314.83795" target-width="698.01196" target-x="285.67" target-y="682.322"></path><path d="M 633.81 860.90 C 645.78 860.90 655.48 851.20 655.48 839.23 C 655.48 827.25 645.78 817.55 633.81 817.55 C 621.83 817.55 612.13 827.25 612.13 839.23 C 612.13 851.20 621.83 860.90 633.81 860.90 Z" fill="#ffffff" fill-rule="nonzero" node-id="42" stroke="none" target-height="43.35498" target-width="43.35498" target-x="612.129" target-y="817.549"></path><path d="M 1749.59 999.23 L 59.27 999.23 C 52.45 999.23 46.88 1004.80 46.88 1011.61 C 46.88 1018.43 52.45 1024.00 59.27 1024.00 L 1749.59 1024.00 C 1756.40 1024.00 1761.98 1018.43 1761.98 1011.61 C 1761.98 1004.80 1756.40 999.23 1749.59 999.23 Z" fill="#000000" fill-rule="nonzero" node-id="44" stroke="none" target-height="24.77301" target-width="1715.1008" target-x="46.8792" target-y="999.227"></path><path d="M 16.00 442.84 L 231.74 442.84 C 240.58 442.84 247.74 450.00 247.74 458.84 L 247.74 574.45 C 247.74 583.29 240.58 590.45 231.74 590.45 L 211.96 590.45 L 210.58 641.03 L 153.46 590.45 L 16.00 590.45 C 7.16 590.45 0.00 583.29 0.00 574.45 L 0.00 458.84 C 0.00 450.00 7.16 442.84 16.00 442.84 Z" fill="#315bf4" fill-rule="nonzero" node-id="46" stroke="none" target-height="198.19302" target-width="247.74202" target-x="0" target-y="442.84"></path><path d="M 57.81 552.26 C 78.90 552.26 96.00 535.16 96.00 514.07 C 96.00 492.97 78.90 475.87 57.81 475.87 C 36.71 475.87 19.61 492.97 19.61 514.07 C 19.61 535.16 36.71 552.26 57.81 552.26 Z" fill="#ffffff" fill-rule="nonzero" node-id="48" stroke="none" target-height="76.387024" target-width="76.3871" target-x="19.6128" target-y="475.873"></path><g node-id="122"><path d="M 101.16 552.26 C 122.26 552.26 139.35 535.16 139.35 514.07 C 139.35 492.97 122.26 475.87 101.16 475.87 C 80.07 475.87 62.97 492.97 62.97 514.07 C 62.97 535.16 80.07 552.26 101.16 552.26 Z" fill="#ffffff" fill-opacity="0.48" fill-rule="nonzero" group-id="1" node-id="52" stroke="none" target-height="76.387024" target-width="76.3872" target-x="62.967796" target-y="475.873"></path></g><path d="M 187.87 491.36 L 164.13 491.36 C 160.16 491.36 156.90 488.10 156.90 484.13 C 156.90 480.16 160.16 476.90 164.13 476.90 L 187.87 476.90 C 191.84 476.90 195.10 480.16 195.10 484.13 C 195.10 488.10 191.84 491.36 187.87 491.36 Z" fill="#ff3f08" fill-rule="nonzero" node-id="55" stroke="none" target-height="14.451996" target-width="38.194" target-x="156.903" target-y="476.904"></path><path d="M 216.77 521.29 L 164.13 521.29 C 160.16 521.29 156.90 518.04 156.90 514.07 C 156.90 510.09 160.16 506.84 164.13 506.84 L 216.77 506.84 C 220.75 506.84 224.00 510.09 224.00 514.07 C 224.00 518.04 220.75 521.29 216.77 521.29 Z" fill="#ffffff" fill-rule="nonzero" node-id="57" stroke="none" target-height="14.451019" target-width="67.097" target-x="156.903" target-y="506.84"></path><path d="M 201.29 551.23 L 164.13 551.23 C 160.16 551.23 156.90 547.98 156.90 544.00 C 156.90 540.03 160.16 536.77 164.13 536.77 L 201.29 536.77 C 205.26 536.77 208.52 540.03 208.52 544.00 C 208.52 547.98 205.26 551.23 201.29 551.23 Z" fill="#ffffff" fill-rule="nonzero" node-id="59" stroke="none" target-height="14.451965" target-width="51.613007" target-x="156.903" target-y="536.775"></path><path d="M 1511.92 493.42 L 1815.05 493.42 C 1821.86 493.42 1827.43 498.99 1827.43 505.81 L 1827.43 873.29 C 1827.43 880.10 1821.86 885.68 1815.05 885.68 L 1511.92 885.68 C 1505.11 885.68 1499.53 880.10 1499.53 873.29 L 1499.53 505.81 C 1499.53 498.99 1505.11 493.42 1511.92 493.42 Z" fill="#d2e9fe" fill-rule="nonzero" node-id="61" stroke="none" target-height="392.25797" target-width="327.90002" target-x="1499.53" target-y="493.42"></path><path d="M 1436.90 436.65 L 1774.45 436.65 C 1781.26 436.65 1786.84 442.22 1786.84 449.03 L 1786.84 837.16 C 1786.84 843.98 1781.26 849.55 1774.45 849.55 L 1436.90 849.55 C 1430.09 849.55 1424.52 843.98 1424.52 837.16 L 1424.52 449.03 C 1424.52 442.22 1430.09 436.65 1436.90 436.65 Z" fill="#315bf4" fill-rule="nonzero" node-id="63" stroke="none" target-height="412.904" target-width="362.31995" target-x="1424.52" target-y="436.646"></path><path d="M 1522.58 759.74 L 1494.71 759.74 C 1487.90 759.74 1482.32 754.17 1482.32 747.36 L 1482.32 624.52 C 1482.32 617.71 1487.90 612.13 1494.71 612.13 L 1522.58 612.13 C 1529.39 612.13 1534.97 617.71 1534.97 624.52 L 1534.97 747.36 C 1534.97 754.17 1529.39 759.74 1522.58 759.74 Z" fill="#ffffff" fill-rule="nonzero" node-id="65" stroke="none" target-height="147.61304" target-width="52.650024" target-x="1482.32" target-y="612.131"></path><path d="M 1620.65 759.74 L 1592.77 759.74 C 1585.96 759.74 1580.39 754.17 1580.39 747.36 L 1580.39 576.00 C 1580.39 569.19 1585.96 563.61 1592.77 563.61 L 1620.65 563.61 C 1627.46 563.61 1633.03 569.19 1633.03 576.00 L 1633.03 747.36 C 1633.03 754.17 1627.46 759.74 1620.65 759.74 Z" fill="#ff3f08" fill-rule="nonzero" node-id="67" stroke="none" target-height="196.12897" target-width="52.640015" target-x="1580.39" target-y="563.613"></path><path d="M 1713.55 759.74 L 1685.68 759.74 C 1678.86 759.74 1673.29 754.17 1673.29 747.36 L 1673.29 516.13 C 1673.29 509.32 1678.86 503.74 1685.68 503.74 L 1713.55 503.74 C 1720.36 503.74 1725.94 509.32 1725.94 516.13 L 1725.94 747.36 C 1725.94 754.17 1720.36 759.74 1713.55 759.74 Z" fill="#ffffff" fill-rule="nonzero" node-id="69" stroke="none" target-height="256.00003" target-width="52.64978" target-x="1673.29" target-y="503.744"></path><path d="M 971.36 364.39 L 647.23 364.39 C 640.41 364.39 634.84 358.81 634.84 352.00 L 634.84 12.39 C 634.84 5.57 640.41 0.00 647.23 0.00 L 971.36 0.00 C 978.17 0.00 983.74 5.57 983.74 12.39 L 983.74 352.00 C 983.74 358.81 978.17 364.39 971.36 364.39 Z" fill="#d2e9fe" fill-rule="nonzero" node-id="71" stroke="none" target-height="364.387" target-width="348.90295" target-x="634.839" target-y="0"></path><path d="M 880.52 69.16 L 692.64 69.16 C 688.10 69.16 684.39 65.44 684.39 60.90 C 684.39 56.36 688.10 52.64 692.64 52.64 L 880.52 52.64 C 885.06 52.64 888.77 56.36 888.77 60.90 C 888.77 65.44 885.06 69.16 880.52 69.16 Z" fill="#315bf4" fill-rule="nonzero" node-id="73" stroke="none" target-height="16.516197" target-width="204.38696" target-x="684.387" target-y="52.6445"></path><g node-id="123"><path d="M 820.11 95.62 L 890.18 165.69 C 895.00 170.51 895.00 178.39 890.18 183.21 L 820.11 253.28 C 815.30 258.10 807.41 258.10 802.60 253.28 L 732.52 183.21 C 727.71 178.39 727.71 170.51 732.52 165.69 L 802.60 95.62 C 807.41 90.80 815.30 90.80 820.11 95.62 Z" fill="#315bf4" fill-opacity="0.59" fill-rule="nonzero" group-id="2" node-id="77" stroke="none" target-height="167.2975" target-width="167.29694" target-x="727.706" target-y="90.8015"></path></g><g node-id="124"><path d="M 820.11 169.94 L 890.18 240.01 C 895.00 244.83 895.00 252.71 890.18 257.53 L 820.11 327.60 C 815.30 332.42 807.41 332.42 802.60 327.60 L 732.52 257.53 C 727.71 252.71 727.71 244.83 732.52 240.01 L 802.60 169.94 C 807.41 165.12 815.30 165.12 820.11 169.94 Z" fill="#315bf4" fill-opacity="0.59" fill-rule="nonzero" group-id="3" node-id="82" stroke="none" target-height="167.297" target-width="167.29694" target-x="727.706" target-y="165.124"></path></g><path d="M 809.29 292.13 L 1257.29 292.13 C 1270.92 292.13 1282.06 303.28 1282.06 316.90 L 1282.06 533.68 C 1282.06 547.30 1270.92 558.45 1257.29 558.45 L 1028.65 558.45 L 945.55 647.23 L 946.58 558.45 L 809.29 558.45 C 795.66 558.45 784.52 547.30 784.52 533.68 L 784.52 316.90 C 784.52 303.28 795.66 292.13 809.29 292.13 Z" fill="#398cff" fill-rule="nonzero" node-id="85" stroke="none" target-height="355.09702" target-width="497.54407" target-x="784.516" target-y="292.129"></path><path d="M 924.90 506.84 C 973.36 506.84 1012.65 467.56 1012.65 419.10 C 1012.65 370.64 973.36 331.36 924.90 331.36 C 876.45 331.36 837.16 370.64 837.16 419.10 C 837.16 467.56 876.45 506.84 924.90 506.84 Z" fill="#ffffff" fill-rule="nonzero" node-id="87" stroke="none" target-height="175.48398" target-width="175.48889" target-x="837.1611" target-y="331.355"></path><path d="M 999.55 465.20 C 1007.85 451.80 1012.65 436.01 1012.65 419.10 C 1012.65 400.58 1006.90 383.42 997.11 369.26 L 924.69 417.57 L 999.55 465.20 Z" fill="#315bf4" fill-rule="nonzero" node-id="89" stroke="none" target-height="95.94006" target-width="87.96094" target-x="924.689" target-y="369.26196"></path><path d="M 924.90 419.10 L 1002.01 377.19 C 987.80 351.10 960.74 333.03 929.33 331.47 L 924.90 419.10 Z" fill="#ff3f08" fill-rule="nonzero" node-id="91" stroke="none" target-height="87.629" target-width="77.107056" target-x="924.903" target-y="331.467"></path><path d="M 1051.95 343.87 C 1060.46 345.20 1069.66 346.51 1076.74 352.01 C 1079.88 354.45 1082.69 357.47 1084.86 360.81 C 1087.26 364.52 1088.39 368.62 1090.59 372.40 C 1094.38 378.91 1093.66 387.49 1098.13 393.59 C 1100.35 396.62 1103.76 398.34 1107.54 397.64 C 1111.32 396.94 1113.39 393.86 1115.77 391.18 C 1122.10 384.05 1124.33 374.78 1130.98 367.73 C 1132.33 366.30 1133.71 364.89 1135.05 363.46 C 1136.10 362.35 1139.51 360.16 1137.57 359.25 C 1138.84 359.84 1140.40 362.95 1141.16 364.09 C 1142.51 366.09 1143.54 368.26 1144.93 370.23 C 1148.76 375.65 1156.77 384.42 1164.15 380.18 C 1166.64 378.75 1169.52 377.07 1171.01 374.51 C 1172.11 372.62 1173.16 370.94 1174.40 369.11 C 1175.02 368.21 1177.67 365.27 1177.80 364.33 C 1177.23 364.21 1176.65 364.08 1176.08 363.96 C 1176.38 364.27 1176.68 364.58 1176.97 364.90 C 1177.31 365.57 1178.25 366.51 1178.75 367.16 C 1179.98 368.76 1181.24 370.34 1182.49 371.91 C 1185.29 375.43 1188.36 378.85 1192.71 380.41 C 1198.00 382.30 1203.70 380.25 1209.09 379.84 C 1214.23 379.45 1219.32 378.64 1223.94 376.28 C 1231.04 372.65 1224.78 361.96 1217.69 365.58 C 1213.75 367.59 1208.99 367.28 1204.71 367.74 C 1202.71 367.95 1200.62 368.71 1198.64 368.75 C 1196.01 368.81 1194.74 367.36 1193.08 365.45 C 1188.90 360.63 1184.97 352.07 1177.69 351.74 C 1169.44 351.37 1165.41 360.73 1161.29 366.20 C 1160.22 367.62 1160.28 367.62 1158.72 368.79 C 1157.79 369.50 1155.70 370.52 1159.17 369.45 C 1162.60 368.40 1160.74 369.53 1160.08 368.35 C 1159.34 367.03 1157.07 365.84 1156.06 364.56 C 1154.59 362.68 1153.62 360.52 1152.32 358.53 C 1147.80 351.60 1142.08 343.37 1133.06 348.75 C 1129.53 350.85 1126.87 354.13 1124.07 357.06 C 1120.87 360.43 1117.69 363.85 1115.15 367.77 C 1112.60 371.70 1111.53 376.50 1108.92 380.33 C 1107.99 381.68 1105.85 382.86 1105.31 384.43 C 1104.81 385.93 1103.13 384.86 1106.38 385.97 C 1109.81 387.13 1107.67 386.50 1107.58 385.05 C 1107.10 377.38 1102.71 370.14 1099.97 363.28 C 1096.36 354.24 1090.32 346.45 1082.35 340.81 C 1074.37 335.17 1064.62 333.39 1055.24 331.92 C 1047.44 330.70 1044.08 342.64 1051.95 343.87 Z" fill="#ff3f08" fill-rule="nonzero" node-id="93" stroke="none" target-height="67.63904" target-width="186.96008" target-x="1044.08" target-y="330.701"></path><path d="M 1220.65 418.58 L 1152.52 418.58 C 1149.11 418.58 1146.32 415.79 1146.32 412.39 C 1146.32 408.98 1149.11 406.19 1152.52 406.19 L 1220.65 406.19 C 1224.05 406.19 1226.84 408.98 1226.84 412.39 C 1226.84 415.79 1224.05 418.58 1220.65 418.58 Z" fill="#315bf4" fill-rule="nonzero" node-id="95" stroke="none" target-height="12.386993" target-width="80.52002" target-x="1146.32" target-y="406.193"></path><path d="M 1221.16 455.23 L 1043.61 455.23 C 1040.21 455.23 1037.42 452.44 1037.42 449.03 C 1037.42 445.63 1040.21 442.84 1043.61 442.84 L 1221.16 442.84 C 1224.57 442.84 1227.35 445.63 1227.35 449.03 C 1227.35 452.44 1224.57 455.23 1221.16 455.23 Z" fill="#ffffff" fill-rule="nonzero" node-id="97" stroke="none" target-height="12.386993" target-width="189.92993" target-x="1037.42" target-y="442.838"></path><path d="M 1221.16 495.48 L 1080.77 495.48 C 1077.37 495.48 1074.58 492.70 1074.58 489.29 C 1074.58 485.88 1077.37 483.10 1080.77 483.10 L 1221.16 483.10 C 1224.57 483.10 1227.35 485.88 1227.35 489.29 C 1227.35 492.70 1224.57 495.48 1221.16 495.48 Z" fill="#ffffff" fill-rule="nonzero" node-id="99" stroke="none" target-height="12.386932" target-width="152.77002" target-x="1074.58" target-y="483.09802"></path><path d="M 186.93 185.99 L 476.02 53.66 C 482.21 50.82 489.60 53.57 492.44 59.76 L 528.10 137.67 C 530.93 143.86 528.18 151.25 521.99 154.09 L 266.32 270.45 L 248.77 322.06 C 247.83 322.49 230.99 287.15 230.01 287.33 C 224.56 288.34 218.88 285.56 216.48 280.31 L 180.82 202.41 C 177.99 196.21 180.73 188.82 186.93 185.99 Z" fill="#398cff" fill-rule="nonzero" node-id="101" stroke="none" target-height="271.6719" target-width="352.94702" target-x="177.985" target-y="50.8211"></path><path d="M 278.71 218.84 C 287.83 218.84 295.23 211.44 295.23 202.32 C 295.23 193.20 287.83 185.80 278.71 185.80 C 269.59 185.80 262.19 193.20 262.19 202.32 C 262.19 211.44 269.59 218.84 278.71 218.84 Z" fill="#ffffff" fill-rule="nonzero" node-id="103" stroke="none" target-height="33.03203" target-width="33.032013" target-x="262.194" target-y="185.80498"></path><path d="M 332.39 195.09 C 341.51 195.09 348.90 187.70 348.90 178.58 C 348.90 169.46 341.51 162.06 332.39 162.06 C 323.27 162.06 315.87 169.46 315.87 178.58 C 315.87 187.70 323.27 195.09 332.39 195.09 Z" fill="#ffffff" fill-rule="nonzero" node-id="105" stroke="none" target-height="33.033005" target-width="33.032013" target-x="315.871" target-y="162.062"></path><path d="M 386.06 171.35 C 395.19 171.35 402.58 163.96 402.58 154.84 C 402.58 145.72 395.19 138.32 386.06 138.32 C 376.94 138.32 369.55 145.72 369.55 154.84 C 369.55 163.96 376.94 171.35 386.06 171.35 Z" fill="#ffffff" fill-rule="nonzero" node-id="107" stroke="none" target-height="33.03299" target-width="33.03302" target-x="369.548" target-y="138.322"></path><path d="M 438.71 148.64 C 447.83 148.64 455.23 141.25 455.23 132.13 C 455.23 123.01 447.83 115.61 438.71 115.61 C 429.59 115.61 422.19 123.01 422.19 132.13 C 422.19 141.25 429.59 148.64 438.71 148.64 Z" fill="#ffffff" fill-rule="nonzero" node-id="109" stroke="none" target-height="33.032997" target-width="33.032013" target-x="422.194" target-y="115.611"></path><path d="M 444.90 504.77 C 460.87 504.77 473.81 491.83 473.81 475.87 C 473.81 459.91 460.87 446.97 444.90 446.97 C 428.94 446.97 416.00 459.91 416.00 475.87 C 416.00 491.83 428.94 504.77 444.90 504.77 Z" fill="#d2e9fe" fill-rule="nonzero" node-id="111" stroke="none" target-height="57.80597" target-width="57.806" target-x="416" target-y="446.96704"></path><path d="M 1582.45 103.23 C 1536.84 103.23 1499.87 140.20 1499.87 185.81 C 1499.87 231.41 1536.84 268.39 1582.45 268.39 C 1628.06 268.39 1665.03 231.41 1665.03 185.81 C 1665.03 140.20 1628.06 103.23 1582.45 103.23 Z M 1582.45 220.90 C 1563.07 220.90 1547.35 205.19 1547.35 185.81 C 1547.35 166.42 1563.07 150.71 1582.45 150.71 C 1601.84 150.71 1617.55 166.42 1617.55 185.81 C 1617.55 205.19 1601.84 220.90 1582.45 220.90 Z" fill="#315bf4" fill-rule="nonzero" node-id="113" stroke="none" target-height="165.16101" target-width="165.16003" target-x="1499.87" target-y="103.22699"></path><g node-id="125"><path d="M 1582.45 268.39 C 1626.44 268.39 1662.39 233.98 1664.88 190.62 L 1617.48 187.85 C 1616.43 206.28 1601.15 220.90 1582.45 220.90 C 1576.01 220.90 1569.98 219.16 1564.79 216.13 L 1540.89 257.16 C 1553.10 264.29 1567.29 268.39 1582.45 268.39 Z" fill="#ffffff" fill-opacity="0.48" fill-rule="nonzero" group-id="4" node-id="117" stroke="none" target-height="80.535995" target-width="123.98999" target-x="1540.89" target-y="187.852"></path></g><path d="M 1664.67 193.45 C 1664.90 190.93 1665.03 188.39 1665.03 185.81 C 1665.03 151.83 1644.51 122.66 1615.19 109.98 L 1596.37 153.58 C 1608.83 158.97 1617.55 171.37 1617.55 185.81 C 1617.55 186.90 1617.49 187.99 1617.39 189.06 L 1664.67 193.45 Z" fill="#ff3f08" fill-rule="nonzero" node-id="120" stroke="none" target-height="83.46999" target-width="68.660034" target-x="1596.37" target-y="109.984"></path></svg>