<?xml version="1.0" standalone="no"?><!DOCTYPE svg PUBLIC "-//W3C//DTD SVG 1.1//EN" "http://www.w3.org/Graphics/SVG/1.1/DTD/svg11.dtd"><svg height="1024" node-id="1" sillyvg="true" template-height="1024" template-width="1024" version="1.1" viewBox="0 0 1024 1024" width="1024" xmlns="http://www.w3.org/2000/svg" xmlns:xlink="http://www.w3.org/1999/xlink"><defs node-id="122"></defs><path d="M 900.73 427.84 C 963.41 581.41 906.07 760.47 776.57 815.17 C 647.07 869.87 614.08 842.84 475.99 819.17 C 337.90 795.50 255.22 862.58 168.28 788.41 C 81.34 714.24 73.36 588.26 152.51 481.82 C 231.66 375.38 325.80 241.57 468.85 193.35 C 611.90 145.13 733.20 217.78 733.20 217.78 C 733.20 217.78 838.00 274.26 900.73 427.84 Z" fill="#8c71ff" fill-rule="nonzero" node-id="124" stroke="none" target-height="724.74" target-width="890.05" target-x="73.36" target-y="145.13"></path><g node-id="367"><path d="M 900.73 427.84 C 963.41 581.41 906.07 760.47 776.57 815.17 C 647.07 869.87 614.08 842.84 475.99 819.17 C 337.90 795.50 255.22 862.58 168.28 788.41 C 81.34 714.24 73.36 588.26 152.51 481.82 C 231.66 375.38 325.80 241.57 468.85 193.35 C 611.90 145.13 733.20 217.78 733.20 217.78 C 733.20 217.78 838.00 274.26 900.73 427.84 Z" fill="#ffffff" fill-opacity="0.86" fill-rule="nonzero" group-id="1" node-id="128" stroke="none" target-height="724.74" target-width="890.05" target-x="73.36" target-y="145.13"></path></g><path d="M 206.59 481.19 L 209.00 492.04 L 216.40 494.61 L 209.00 498.26 L 206.59 511.39 L 204.71 498.26 L 196.79 494.61 L 204.71 492.04 L 206.59 481.19 Z" fill="#ffffff" fill-rule="nonzero" node-id="131" stroke="#0c0426" stroke-linecap="round" stroke-width="1" target-height="30.200012" target-width="19.610016" target-x="196.78998" target-y="481.19"></path><path d="M 185.58 378.34 L 736.48 378.34 L 736.48 763.19 L 185.58 763.19 Z" fill="#ffffff" fill-rule="nonzero" node-id="133" stroke="#0c0426" stroke-linecap="round" stroke-width="1" target-height="384.85" target-width="550.9" target-x="185.58002" target-y="378.34"></path><path d="M 185.58 378.34 L 298.79 378.34 L 298.79 763.19 L 185.58 763.19 Z" fill="#8c71ff" fill-rule="nonzero" node-id="135" stroke="#0c0426" stroke-linecap="round" stroke-width="1" target-height="384.85" target-width="113.20999" target-x="185.58002" target-y="378.34"></path><path d="M 223.16 448.24 C 223.16 442.64 218.62 438.10 213.03 438.10 C 207.43 438.10 202.89 442.63 202.88 448.23 C 202.87 453.82 207.40 458.37 213.00 458.38 C 215.69 458.39 218.28 457.32 220.18 455.42 C 222.09 453.51 223.16 450.93 223.16 448.24 Z" fill="#ffffff" fill-rule="nonzero" node-id="137" stroke="#0c0426" stroke-linecap="round" stroke-width="1" target-height="20.28894" target-width="20.287369" target-x="202.87265" target-y="438.09637"></path><path d="M 231.62 449.08 L 281.49 449.08" fill="none" node-id="139" stroke="#0c0426" stroke-linecap="round" stroke-width="1" target-height="0" target-width="49.869995" target-x="231.62" target-y="449.08"></path><path d="M 223.16 491.33 C 223.15 485.73 218.62 481.20 213.02 481.20 C 207.42 481.20 202.89 485.73 202.88 491.33 C 202.87 496.93 207.40 501.47 213.00 501.48 C 215.69 501.49 218.28 500.42 220.19 498.51 C 222.09 496.61 223.16 494.02 223.16 491.33 Z" fill="#ffffff" fill-rule="nonzero" node-id="141" stroke="#0c0426" stroke-linecap="round" stroke-width="1" target-height="20.285309" target-width="20.288162" target-x="202.8745" target-y="481.2"></path><path d="M 231.62 492.18 L 281.49 492.18" fill="none" node-id="143" stroke="#0c0426" stroke-linecap="round" stroke-width="1" target-height="0" target-width="49.869995" target-x="231.62" target-y="492.18"></path><path d="M 223.16 534.43 C 223.15 528.83 218.62 524.30 213.02 524.30 C 207.42 524.30 202.89 528.83 202.88 534.43 C 202.87 540.03 207.40 544.57 213.00 544.58 C 215.69 544.59 218.28 543.52 220.19 541.61 C 222.09 539.71 223.16 537.12 223.16 534.43 Z" fill="#ffffff" fill-rule="nonzero" node-id="145" stroke="#0c0426" stroke-linecap="round" stroke-width="1" target-height="20.28534" target-width="20.288162" target-x="202.8745" target-y="524.3"></path><path d="M 231.62 535.28 L 281.49 535.28" fill="none" node-id="147" stroke="#0c0426" stroke-linecap="round" stroke-width="1" target-height="0" target-width="49.869995" target-x="231.62" target-y="535.28"></path><path d="M 223.16 577.53 C 223.16 571.93 218.62 567.39 213.03 567.39 C 207.43 567.39 202.89 571.92 202.88 577.52 C 202.87 583.11 207.40 587.66 213.00 587.67 C 215.69 587.67 218.27 586.61 220.18 584.70 C 222.09 582.80 223.16 580.22 223.16 577.53 Z" fill="#ffffff" fill-rule="nonzero" node-id="149" stroke="#0c0426" stroke-linecap="round" stroke-width="1" target-height="20.286316" target-width="20.287369" target-x="202.87265" target-y="567.38635"></path><path d="M 231.62 578.37 L 281.49 578.37" fill="none" node-id="151" stroke="#0c0426" stroke-linecap="round" stroke-width="1" target-height="0" target-width="49.869995" target-x="231.62" target-y="578.37"></path><path d="M 203.51 624.00 L 281.41 624.00" fill="none" node-id="153" stroke="#0c0426" stroke-linecap="round" stroke-width="1" target-height="0" target-width="77.900024" target-x="203.50998" target-y="624"></path><path d="M 203.51 652.01 L 281.41 652.01" fill="none" node-id="155" stroke="#0c0426" stroke-linecap="round" stroke-width="1" target-height="0" target-width="77.900024" target-x="203.50998" target-y="652.01"></path><path d="M 203.51 680.02 L 281.41 680.02" fill="none" node-id="157" stroke="#0c0426" stroke-linecap="round" stroke-width="1" target-height="0" target-width="77.900024" target-x="203.50998" target-y="680.02"></path><path d="M 203.51 708.03 L 281.41 708.03" fill="none" node-id="159" stroke="#0c0426" stroke-linecap="round" stroke-width="1" target-height="0" target-width="77.900024" target-x="203.50998" target-y="708.03"></path><path d="M 216.60 733.00 C 216.51 730.95 214.79 729.34 212.74 729.40 C 210.68 729.46 209.06 731.16 209.08 733.21 C 209.11 735.27 210.78 736.92 212.84 736.92 C 213.86 736.90 214.83 736.48 215.54 735.74 C 216.24 735.01 216.62 734.02 216.60 733.00 Z" fill="#ffffff" fill-rule="nonzero" node-id="161" stroke="#0c0426" stroke-linecap="round" stroke-width="1" target-height="7.576172" target-width="7.5682983" target-x="209.05583" target-y="729.3438"></path><path d="M 231.26 733.00 C 231.17 730.95 229.45 729.36 227.40 729.42 C 225.35 729.48 223.73 731.18 223.76 733.22 C 223.79 735.27 225.46 736.92 227.51 736.92 C 228.53 736.90 229.50 736.47 230.20 735.74 C 230.90 735.00 231.28 734.02 231.26 733.00 Z" fill="#ffffff" fill-rule="nonzero" node-id="163" stroke="#0c0426" stroke-linecap="round" stroke-width="1" target-height="7.5595093" target-width="7.549469" target-x="223.73468" target-y="729.3605"></path><path d="M 245.93 733.00 C 245.84 730.95 244.12 729.36 242.07 729.42 C 240.02 729.48 238.40 731.18 238.43 733.22 C 238.46 735.27 240.13 736.92 242.18 736.92 C 243.20 736.90 244.17 736.47 244.87 735.74 C 245.57 735.00 245.95 734.02 245.93 733.00 Z" fill="#ffffff" fill-rule="nonzero" node-id="165" stroke="#0c0426" stroke-linecap="round" stroke-width="1" target-height="7.5595093" target-width="7.549469" target-x="238.40466" target-y="729.3605"></path><path d="M 260.60 733.00 C 260.51 730.95 258.79 729.36 256.74 729.42 C 254.69 729.48 253.07 731.18 253.10 733.22 C 253.13 735.27 254.80 736.92 256.85 736.92 C 257.87 736.90 258.84 736.47 259.54 735.74 C 260.24 735.00 260.62 734.02 260.60 733.00 Z" fill="#ffffff" fill-rule="nonzero" node-id="167" stroke="#0c0426" stroke-linecap="round" stroke-width="1" target-height="7.5595093" target-width="7.5494537" target-x="253.07469" target-y="729.3605"></path><path d="M 275.27 733.00 C 275.18 730.95 273.46 729.36 271.41 729.42 C 269.36 729.48 267.74 731.18 267.77 733.22 C 267.80 735.27 269.47 736.92 271.52 736.92 C 272.54 736.90 273.51 736.47 274.21 735.74 C 274.91 735.00 275.29 734.02 275.27 733.00 Z" fill="#ffffff" fill-rule="nonzero" node-id="169" stroke="#0c0426" stroke-linecap="round" stroke-width="1" target-height="7.5595093" target-width="7.5494385" target-x="267.7447" target-y="729.3605"></path><path d="M 185.58 377.78 L 736.48 377.78 L 736.48 413.57 L 185.58 413.57 Z" fill="#0c0426" fill-rule="nonzero" node-id="171" stroke="none" target-height="35.789978" target-width="550.9" target-x="185.58002" target-y="377.78003"></path><path d="M 207.33 386.81 L 230.95 386.81" fill="none" node-id="173" stroke="#ffffff" stroke-linecap="round" stroke-width="1" target-height="0" target-width="23.619995" target-x="207.33" target-y="386.80997"></path><path d="M 207.33 395.68 L 230.95 395.68" fill="none" node-id="175" stroke="#ffffff" stroke-linecap="round" stroke-width="1" target-height="0" target-width="23.619995" target-x="207.33" target-y="395.68"></path><path d="M 207.33 404.54 L 230.95 404.54" fill="none" node-id="177" stroke="#ffffff" stroke-linecap="round" stroke-width="1" target-height="0" target-width="23.619995" target-x="207.33" target-y="404.54"></path><path d="M 323.29 433.16 L 408.70 433.16 L 408.70 507.90 L 323.29 507.90 Z" fill="#ffffff" fill-rule="nonzero" node-id="179" stroke="#0c0426" stroke-linecap="round" stroke-width="1" target-height="74.74002" target-width="85.41" target-x="323.29" target-y="433.15997"></path><path d="M 323.29 533.67 L 611.80 533.67 L 611.80 544.52 L 323.29 544.52 Z" fill="#ffffff" fill-rule="nonzero" node-id="181" stroke="#0c0426" stroke-linecap="round" stroke-width="1" target-height="10.849976" target-width="288.51004" target-x="323.29" target-y="533.67"></path><path d="M 627.93 533.67 L 713.34 533.67 L 713.34 544.52 L 627.93 544.52 Z" fill="#ffffff" fill-rule="nonzero" node-id="183" stroke="#0c0426" stroke-linecap="round" stroke-width="1" target-height="10.849976" target-width="85.40997" target-x="627.93" target-y="533.67"></path><path d="M 424.83 433.16 L 510.24 433.16 L 510.24 507.90 L 424.83 507.90 Z" fill="#ffffff" fill-rule="nonzero" node-id="185" stroke="#0c0426" stroke-linecap="round" stroke-width="1" target-height="74.74002" target-width="85.41" target-x="424.83" target-y="433.15997"></path><path d="M 526.38 433.16 L 611.79 433.16 L 611.79 507.90 L 526.38 507.90 Z" fill="#ffffff" fill-rule="nonzero" node-id="187" stroke="#0c0426" stroke-linecap="round" stroke-width="1" target-height="74.74002" target-width="85.410034" target-x="526.38" target-y="433.15997"></path><path d="M 627.93 433.16 L 713.34 433.16 L 713.34 507.90 L 627.93 507.90 Z" fill="#ffffff" fill-rule="nonzero" node-id="189" stroke="#0c0426" stroke-linecap="round" stroke-width="1" target-height="74.74002" target-width="85.40997" target-x="627.93" target-y="433.15997"></path><path d="M 323.29 570.28 L 611.79 570.28" fill="none" node-id="191" stroke="#0c0426" stroke-linecap="round" stroke-width="1" target-height="0" target-width="288.49997" target-x="323.29" target-y="570.28"></path><path d="M 323.29 596.04 L 611.79 596.04" fill="none" node-id="193" stroke="#0c0426" stroke-linecap="round" stroke-width="1" target-height="0" target-width="288.49997" target-x="323.29" target-y="596.04"></path><path d="M 323.29 621.81 L 611.79 621.81" fill="none" node-id="195" stroke="#0c0426" stroke-linecap="round" stroke-width="1" target-height="0" target-width="288.49997" target-x="323.29" target-y="621.81"></path><path d="M 323.29 647.57 L 611.79 647.57" fill="none" node-id="197" stroke="#0c0426" stroke-linecap="round" stroke-width="1" target-height="0" target-width="288.49997" target-x="323.29" target-y="647.57"></path><path d="M 697.61 570.28 L 714.16 570.28" fill="none" node-id="199" stroke="#0c0426" stroke-linecap="round" stroke-width="1" target-height="0" target-width="16.549988" target-x="697.61" target-y="570.28"></path><path d="M 697.61 596.04 L 714.16 596.04" fill="none" node-id="201" stroke="#0c0426" stroke-linecap="round" stroke-width="1" target-height="0" target-width="16.549988" target-x="697.61" target-y="596.04"></path><path d="M 697.61 621.81 L 714.16 621.81" fill="none" node-id="203" stroke="#0c0426" stroke-linecap="round" stroke-width="1" target-height="0" target-width="16.549988" target-x="697.61" target-y="621.81"></path><path d="M 697.61 647.57 L 714.16 647.57" fill="none" node-id="205" stroke="#0c0426" stroke-linecap="round" stroke-width="1" target-height="0" target-width="16.549988" target-x="697.61" target-y="647.57"></path><path d="M 662.77 570.28 L 679.32 570.28" fill="none" node-id="207" stroke="#0c0426" stroke-linecap="round" stroke-width="1" target-height="0" target-width="16.549988" target-x="662.77" target-y="570.28"></path><path d="M 662.77 596.04 L 679.32 596.04" fill="none" node-id="209" stroke="#0c0426" stroke-linecap="round" stroke-width="1" target-height="0" target-width="16.549988" target-x="662.77" target-y="596.04"></path><path d="M 662.77 621.81 L 679.32 621.81" fill="none" node-id="211" stroke="#0c0426" stroke-linecap="round" stroke-width="1" target-height="0" target-width="16.549988" target-x="662.77" target-y="621.81"></path><path d="M 662.77 647.57 L 679.32 647.57" fill="none" node-id="213" stroke="#0c0426" stroke-linecap="round" stroke-width="1" target-height="0" target-width="16.549988" target-x="662.77" target-y="647.57"></path><path d="M 627.93 570.28 L 644.48 570.28" fill="none" node-id="215" stroke="#0c0426" stroke-linecap="round" stroke-width="1" target-height="0" target-width="16.549988" target-x="627.93" target-y="570.28"></path><path d="M 627.93 596.04 L 644.48 596.04" fill="none" node-id="217" stroke="#0c0426" stroke-linecap="round" stroke-width="1" target-height="0" target-width="16.549988" target-x="627.93" target-y="596.04"></path><path d="M 627.93 621.81 L 644.48 621.81" fill="none" node-id="219" stroke="#0c0426" stroke-linecap="round" stroke-width="1" target-height="0" target-width="16.549988" target-x="627.93" target-y="621.81"></path><path d="M 627.93 647.57 L 644.48 647.57" fill="none" node-id="221" stroke="#0c0426" stroke-linecap="round" stroke-width="1" target-height="0" target-width="16.549988" target-x="627.93" target-y="647.57"></path><path d="M 416.56 711.24 L 479.07 711.24" fill="none" node-id="223" stroke="#0c0426" stroke-linecap="round" stroke-width="1" target-height="0" target-width="62.51001" target-x="416.56" target-y="711.24"></path><path d="M 416.56 730.96 L 454.00 730.96" fill="none" node-id="225" stroke="#0c0426" stroke-linecap="round" stroke-width="1" target-height="0" target-width="37.440002" target-x="416.56" target-y="730.96"></path><path d="M 416.56 678.85 L 502.67 678.85 L 502.67 688.77 L 416.56 688.77 Z" fill="none" node-id="227" stroke="#0c0426" stroke-linecap="round" stroke-width="1" target-height="9.919922" target-width="86.109955" target-x="416.56" target-y="678.85"></path><path d="M 277.93 664.52 C 274.73 662.05 267.09 659.16 263.36 661.72 C 262.13 662.62 261.35 663.99 261.19 665.50 C 261.04 667.02 261.53 668.52 262.55 669.65 C 264.62 672.09 268.55 672.71 271.55 672.55 C 275.09 672.35 282.10 668.61 282.11 668.60 C 282.12 668.59 278.21 664.73 277.93 664.52 Z" fill="#0c0426" fill-rule="nonzero" node-id="229" stroke="none" target-height="13.550049" target-width="21.08136" target-x="261.03864" target-y="659.16"></path><path d="M 392.18 690.67 C 391.77 689.20 390.75 687.98 389.39 687.31 C 388.02 686.64 386.43 686.58 385.02 687.15 C 380.87 688.96 379.28 696.97 379.68 700.99 C 379.68 701.23 380.24 703.78 380.61 705.38 C 380.25 704.47 379.91 703.58 379.53 702.65 C 378.79 700.81 377.99 698.99 377.14 697.03 L 375.80 694.21 C 375.37 693.21 374.80 692.30 374.29 691.34 C 373.08 689.13 371.75 686.95 370.36 684.78 C 371.97 684.13 377.67 681.72 379.77 679.53 C 381.87 677.34 383.92 674.00 383.42 670.85 C 383.23 669.34 382.41 667.98 381.17 667.11 C 379.92 666.24 378.36 665.94 376.88 666.29 C 372.50 667.45 369.72 675.12 369.50 679.16 C 369.50 679.41 369.66 682.32 369.78 683.92 C 368.94 682.63 368.10 681.33 367.20 680.05 C 364.60 676.34 361.86 672.67 359.14 669.05 C 358.31 667.93 357.49 666.80 356.67 665.67 C 357.24 665.44 364.08 662.67 366.43 660.28 C 368.52 658.10 370.59 654.75 370.08 651.59 C 369.89 650.08 369.07 648.72 367.83 647.85 C 366.58 646.98 365.02 646.68 363.54 647.03 C 359.16 648.19 356.38 655.86 356.16 659.90 C 356.16 660.20 356.40 664.40 356.52 665.46 C 354.71 662.98 352.92 660.46 351.27 657.95 C 349.02 654.55 346.98 651.00 345.19 647.33 C 345.46 647.22 352.60 644.42 355.01 641.91 C 357.11 639.74 359.17 636.38 358.67 633.23 C 358.48 631.72 357.66 630.36 356.41 629.49 C 355.16 628.62 353.60 628.32 352.12 628.67 C 347.75 629.83 344.96 637.50 344.74 641.54 C 344.74 641.86 345.00 646.37 345.11 647.18 C 345.01 646.97 344.88 646.76 344.78 646.54 C 343.08 642.81 341.72 638.94 340.71 634.97 C 340.12 632.79 339.71 630.67 339.30 628.59 C 340.69 628.21 346.99 626.38 349.41 624.36 C 351.83 622.34 354.15 619.36 354.00 616.13 C 353.98 614.61 353.32 613.17 352.17 612.16 C 351.03 611.16 349.51 610.70 348.00 610.88 C 343.52 611.55 339.91 618.88 339.25 622.88 C 339.25 623.10 339.09 625.34 339.03 626.98 C 338.87 626.04 338.69 625.07 338.56 624.17 C 338.05 620.79 337.80 617.65 337.56 614.88 C 337.46 613.30 337.40 611.88 337.36 610.53 C 338.52 609.44 343.14 605.00 344.36 602.15 C 345.58 599.30 346.24 595.49 344.63 592.73 C 343.92 591.39 342.66 590.41 341.18 590.05 C 339.71 589.69 338.14 589.98 336.89 590.84 C 333.22 593.50 333.39 601.66 334.64 605.50 C 334.75 605.84 337.05 610.84 337.11 610.78 L 337.18 610.71 C 337.18 612.00 337.23 613.38 337.29 614.89 C 337.44 617.68 337.62 620.83 338.06 624.24 C 338.49 627.89 339.14 631.52 340.00 635.10 C 340.94 639.14 342.23 643.10 343.87 646.91 L 343.94 647.04 C 343.07 646.04 340.54 643.33 340.32 643.14 C 337.24 640.51 329.76 637.24 325.91 639.62 C 324.64 640.45 323.78 641.79 323.55 643.29 C 323.32 644.79 323.74 646.32 324.70 647.50 C 326.64 650.04 330.49 650.86 333.51 650.84 C 336.92 650.84 343.62 647.72 344.15 647.48 C 345.91 651.31 347.91 655.03 350.15 658.60 C 351.45 660.69 352.83 662.75 354.24 664.80 C 353.46 663.96 352.75 663.21 352.64 663.12 C 349.57 660.49 342.08 657.22 338.23 659.60 C 336.96 660.43 336.10 661.77 335.87 663.27 C 335.64 664.77 336.06 666.30 337.02 667.48 C 338.96 670.02 342.81 670.83 345.83 670.82 C 348.85 670.81 354.67 668.28 356.18 667.59 L 357.82 669.93 C 360.47 673.67 363.12 677.38 365.61 681.11 C 366.49 682.42 367.31 683.75 368.13 685.11 C 367.43 684.36 366.84 683.74 366.74 683.66 C 363.67 681.03 356.19 677.76 352.33 680.13 C 351.06 680.97 350.20 682.30 349.97 683.81 C 349.74 685.31 350.16 686.84 351.12 688.02 C 353.06 690.55 356.92 691.37 359.94 691.35 C 362.96 691.33 368.21 689.06 370.01 688.25 C 370.82 689.63 371.62 691.01 372.33 692.38 C 372.80 693.33 373.33 694.21 373.73 695.19 L 375.00 698.00 C 375.75 699.84 376.54 701.74 377.22 703.56 C 377.71 704.82 378.15 706.03 378.59 707.24 C 377.73 705.93 376.00 703.38 375.83 703.24 C 373.41 700.63 370.36 698.69 366.97 697.60 C 366.71 697.30 366.43 697.02 366.12 696.77 C 364.97 695.78 363.45 695.32 361.95 695.51 C 360.44 695.70 359.08 696.52 358.22 697.77 C 355.75 701.57 358.84 709.12 361.39 712.26 C 361.54 712.44 363.39 714.26 364.59 715.40 C 363.79 714.84 363.02 714.29 362.19 713.72 C 360.55 712.60 358.88 711.52 357.09 710.35 L 354.41 708.74 C 353.53 708.18 352.53 707.74 351.58 707.18 C 349.35 706.00 347.03 704.92 344.68 703.88 C 345.68 702.44 349.09 697.29 349.63 694.31 C 350.17 691.33 350.05 687.40 347.89 685.05 C 346.90 683.88 345.46 683.20 343.93 683.16 C 342.41 683.12 340.94 683.73 339.89 684.85 C 336.89 688.23 338.78 696.17 340.83 699.66 C 340.96 699.88 342.71 702.21 343.70 703.48 C 342.28 702.86 340.86 702.24 339.40 701.67 C 335.19 700.01 330.88 698.46 326.59 696.90 C 325.27 696.43 323.97 695.90 322.66 695.45 C 323.01 694.94 327.21 688.90 327.83 685.56 C 328.37 682.56 328.24 678.66 326.08 676.30 C 325.09 675.13 323.65 674.44 322.12 674.41 C 320.59 674.37 319.12 674.99 318.08 676.11 C 315.08 679.49 316.98 687.43 319.03 690.91 C 319.18 691.18 321.70 694.53 322.39 695.36 C 319.51 694.28 316.64 693.18 313.87 691.99 C 310.13 690.38 306.50 688.53 303.00 686.45 C 303.16 686.22 307.58 679.94 308.21 676.52 C 308.75 673.52 308.62 669.61 306.46 667.25 C 305.47 666.09 304.03 665.40 302.50 665.37 C 300.98 665.33 299.51 665.95 298.46 667.06 C 295.46 670.44 297.36 678.38 299.40 681.87 C 299.56 682.14 302.28 685.75 302.82 686.37 C 302.62 686.25 302.39 686.15 302.19 686.02 C 298.72 683.85 295.45 681.37 292.41 678.62 C 290.72 677.12 289.18 675.62 287.72 674.07 C 288.66 672.99 292.91 667.98 293.82 664.96 C 294.73 661.94 294.99 658.14 293.10 655.56 C 292.24 654.30 290.89 653.47 289.39 653.27 C 287.88 653.07 286.36 653.51 285.20 654.50 C 281.84 657.50 282.86 665.63 284.51 669.32 C 284.60 669.52 285.74 671.46 286.59 672.86 C 285.94 672.16 285.26 671.46 284.65 670.78 C 282.36 668.23 280.42 665.78 278.72 663.56 C 277.72 662.30 276.92 661.14 276.15 660.05 C 276.52 658.50 277.92 652.25 277.35 649.21 C 276.78 646.17 275.24 642.62 272.35 641.21 C 271.01 640.49 269.43 640.37 268.00 640.88 C 266.57 641.39 265.42 642.49 264.85 643.90 C 263.26 648.14 267.90 654.90 271.07 657.37 C 271.34 657.59 276.01 660.49 276.07 660.37 C 276.07 660.34 276.07 660.31 276.07 660.28 C 276.80 661.35 277.59 662.48 278.48 663.70 C 280.13 665.95 282.02 668.47 284.27 671.07 C 286.66 673.91 289.21 676.60 291.91 679.13 C 294.92 681.99 298.18 684.57 301.65 686.84 L 301.77 686.92 C 300.50 686.57 296.89 685.70 296.60 685.66 C 292.60 685.17 284.55 686.57 282.60 690.66 C 282.00 692.06 282.02 693.64 282.66 695.02 C 283.29 696.41 284.49 697.45 285.94 697.90 C 288.94 698.90 292.63 697.50 295.13 695.82 C 297.96 693.92 301.85 687.64 302.13 687.14 C 305.72 689.37 309.45 691.36 313.31 693.09 C 315.54 694.09 317.83 695.09 320.13 696.01 C 319.02 695.74 318.02 695.50 317.88 695.49 C 313.88 694.99 305.82 696.39 303.88 700.49 C 303.28 701.89 303.30 703.47 303.94 704.85 C 304.58 706.23 305.77 707.28 307.22 707.73 C 310.22 708.78 313.91 707.33 316.42 705.65 C 318.93 703.97 322.42 698.65 323.27 697.25 C 324.16 697.60 325.04 697.96 325.93 698.30 C 330.19 699.96 334.46 701.59 338.59 703.30 C 340.04 703.91 341.46 704.56 342.87 705.21 C 341.87 704.97 341.05 704.78 340.87 704.76 C 336.87 704.27 328.82 705.67 326.87 709.76 C 326.27 711.16 326.29 712.74 326.93 714.12 C 327.57 715.50 328.76 716.55 330.21 717.00 C 333.21 718.00 336.90 716.60 339.41 714.92 C 341.92 713.24 345.03 708.44 346.10 706.77 C 347.52 707.48 348.96 708.18 350.31 708.93 C 351.22 709.47 352.14 709.93 353.02 710.51 L 355.67 712.18 C 357.31 713.30 359.01 714.45 360.58 715.59 C 361.68 716.37 362.72 717.14 363.76 717.91 C 362.32 717.28 359.47 716.12 359.22 716.05 C 355.33 714.95 347.16 715.12 344.66 718.89 C 343.85 720.18 343.63 721.75 344.05 723.21 C 344.47 724.67 345.49 725.88 346.86 726.55 C 349.69 728.04 353.53 727.17 356.26 725.89 C 359.26 724.48 363.90 719.10 364.48 718.43 C 366.20 719.71 367.86 720.97 369.41 722.18 C 372.84 724.85 375.84 727.32 378.34 729.44 L 380.54 727.44 C 377.90 725.29 374.72 722.77 371.04 720.04 C 369.30 718.73 367.41 717.37 365.45 716.04 C 366.46 713.99 367.34 711.88 368.10 709.73 C 371.50 710.04 377.87 708.24 378.69 708.00 C 379.42 710.00 380.12 712.00 380.74 713.85 C 382.06 717.76 383.15 721.29 384.04 724.33 L 386.42 722.18 C 385.53 719.44 384.49 716.34 383.28 712.97 C 382.54 710.97 381.71 708.74 380.84 706.52 C 381.60 706.08 387.71 702.46 389.63 699.74 C 391.62 697.34 393.15 693.71 392.18 690.67 Z" fill="#0c0426" fill-rule="nonzero" node-id="231" stroke="none" target-height="139.7489" target-width="129.89001" target-x="263.26" target-y="589.6911"></path><path d="M 338.00 623.68 C 338.08 623.68 336.91 618.32 336.79 617.99 C 335.49 614.16 330.71 607.54 326.18 607.62 C 324.66 607.69 323.24 608.40 322.28 609.58 C 321.32 610.76 320.90 612.29 321.13 613.79 C 321.51 616.96 324.41 619.63 327.02 621.15 C 330.00 622.94 338.00 623.68 338.00 623.68 Z" fill="#0c0426" fill-rule="nonzero" node-id="233" stroke="none" target-height="16.140015" target-width="17.181427" target-x="320.89856" target-y="607.54"></path><g node-id="368"><path d="M 324.69 671.12 L 398.50 671.12 L 398.50 744.94 L 324.69 744.94 Z" fill="#ffffff" fill-opacity="0" fill-rule="nonzero" group-id="2" node-id="237" stroke="#0c0426" stroke-linecap="round" stroke-opacity="0" stroke-width="1" target-height="73.82001" target-width="73.81" target-x="324.69" target-y="671.12"></path></g><g node-id="369"><g node-id="373"><path d="M 318.51 296.25 L 318.51 296.25 C 337.20 296.25 352.36 311.41 352.36 330.10 L 352.36 378.34 L 352.36 378.34 L 284.66 378.34 L 284.66 378.34 L 284.66 330.10 C 284.66 311.41 299.82 296.25 318.51 296.25 Z" fill="#0c0426" fill-opacity="0" fill-rule="nonzero" group-id="3,7" node-id="244" stroke="none" target-height="82.09" target-width="67.69998" target-x="284.66" target-y="296.25"></path></g><path d="M 377.73 307.44 L 318.51 307.44 C 337.20 307.44 352.36 322.60 352.36 341.29 L 352.36 714.16 C 352.36 732.90 367.55 748.09 386.29 748.09 L 639.29 748.09 C 658.03 748.09 673.22 732.90 673.22 714.16 L 673.22 341.37 C 673.22 322.63 658.03 307.44 639.29 307.44 Z" fill="#0c0426" fill-opacity="0.2" fill-rule="nonzero" group-id="3" node-id="247" stroke="none" target-height="440.65002" target-width="354.70996" target-x="318.51" target-y="307.44"></path><path d="M 419.83 679.66 L 419.83 713.05 C 419.83 713.33 419.83 713.60 419.83 713.87 L 419.83 713.87 C 419.84 725.24 414.19 735.87 404.76 742.23 L 404.60 742.33 C 404.21 742.59 403.81 742.85 403.41 743.09 L 403.08 743.29 L 402.02 743.90 L 401.52 744.16 C 401.21 744.33 400.90 744.49 400.58 744.64 C 400.26 744.79 400.14 744.85 399.92 744.95 L 399.11 745.32 L 398.29 745.65 L 397.60 745.92 C 397.29 746.04 396.96 746.15 396.60 746.26 L 396.02 746.46 L 394.91 746.79 L 394.45 746.92 C 394.04 747.03 393.62 747.13 393.21 747.22 L 392.84 747.31 C 392.39 747.41 391.93 747.49 391.48 747.57 L 391.20 747.57 C 390.72 747.65 390.20 747.72 389.73 747.78 L 389.53 747.78 C 389.01 747.84 388.53 747.88 387.96 747.92 L 387.84 747.92 C 387.29 747.92 386.74 747.98 386.18 747.99 L 672.90 747.99 C 691.80 747.98 707.11 732.67 707.11 713.77 L 707.11 679.66 Z" fill="#0c0426" fill-opacity="0.2" fill-rule="nonzero" group-id="3" node-id="249" stroke="none" target-height="68.33002" target-width="320.93002" target-x="386.17996" target-y="679.66"></path></g><path d="M 329.69 296.25 L 329.69 296.25 C 348.38 296.25 363.54 311.41 363.54 330.10 L 363.54 378.34 L 363.54 378.34 L 295.84 378.34 L 295.84 378.34 L 295.84 330.10 C 295.84 311.41 311.00 296.25 329.69 296.25 Z" fill="#ffffff" fill-rule="nonzero" node-id="252" stroke="#0c0426" stroke-linecap="round" stroke-width="1" target-height="82.09" target-width="67.69998" target-x="295.84" target-y="296.25"></path><path d="M 388.92 296.25 L 329.69 296.25 C 348.39 296.26 363.54 311.41 363.54 330.11 L 363.54 703.00 C 363.54 721.74 378.73 736.93 397.47 736.94 L 650.47 736.94 C 659.48 736.95 668.12 733.38 674.49 727.01 C 680.86 720.64 684.44 712.01 684.44 703.00 L 684.44 330.19 C 684.44 311.45 669.25 296.26 650.51 296.25 Z" fill="#ffffff" fill-rule="nonzero" node-id="254" stroke="#0c0426" stroke-linecap="round" stroke-width="1" target-height="440.69788" target-width="354.75" target-x="329.69" target-y="296.25"></path><path d="M 416.56 339.86 L 629.79 339.86 L 629.79 362.99 L 416.56 362.99 Z" fill="#8c71ff" fill-rule="nonzero" node-id="256" stroke="#0c0426" stroke-linecap="round" stroke-width="1" target-height="23.130005" target-width="213.22998" target-x="416.56" target-y="339.86"></path><path d="M 416.56 600.99 L 629.79 600.99 L 629.79 612.56 L 416.56 612.56 Z" fill="#ffffff" fill-rule="nonzero" node-id="258" stroke="#0c0426" stroke-linecap="round" stroke-width="1" target-height="11.570007" target-width="213.22998" target-x="416.56" target-y="600.99"></path><path d="M 416.56 600.99 L 479.52 600.99 L 479.52 612.56 L 416.56 612.56 Z" fill="#8c71ff" fill-rule="nonzero" node-id="260" stroke="#0c0426" stroke-linecap="round" stroke-width="1" target-height="11.570007" target-width="62.95999" target-x="416.56" target-y="600.99"></path><path d="M 545.15 502.73 L 629.80 502.73 L 629.80 514.30 L 545.15 514.30 Z" fill="#0c0426" fill-rule="nonzero" node-id="262" stroke="none" target-height="11.569977" target-width="84.650024" target-x="545.15" target-y="502.73"></path><path d="M 545.15 533.45 L 629.80 533.45 L 629.80 545.02 L 545.15 545.02 Z" fill="#8c71ff" fill-rule="nonzero" node-id="264" stroke="none" target-height="11.570007" target-width="84.650024" target-x="545.15" target-y="533.45"></path><path d="M 545.15 564.16 L 629.80 564.16 L 629.80 575.73 L 545.15 575.73 Z" fill="#0c0426" fill-rule="nonzero" node-id="266" stroke="none" target-height="11.570007" target-width="84.650024" target-x="545.15" target-y="564.16"></path><path d="M 416.56 394.44 L 499.89 394.44" fill="none" node-id="268" stroke="#0c0426" stroke-linecap="round" stroke-width="1" target-height="0" target-width="83.33002" target-x="416.56" target-y="394.44"></path><path d="M 416.56 421.72 L 601.25 421.72" fill="none" node-id="270" stroke="#0c0426" stroke-linecap="round" stroke-width="1" target-height="0" target-width="184.69" target-x="416.56" target-y="421.71997"></path><path d="M 416.56 449.00 L 531.38 449.00" fill="none" node-id="272" stroke="#0c0426" stroke-linecap="round" stroke-width="1" target-height="0" target-width="114.82001" target-x="416.56" target-y="449"></path><path d="M 416.56 476.28 L 569.76 476.28" fill="none" node-id="274" stroke="#0c0426" stroke-linecap="round" stroke-width="1" target-height="0" target-width="153.20001" target-x="416.56" target-y="476.28"></path><path d="M 416.56 638.74 L 601.25 638.74" fill="none" node-id="276" stroke="#0c0426" stroke-linecap="round" stroke-width="1" target-height="0" target-width="184.69" target-x="416.56" target-y="638.74"></path><path d="M 416.56 666.02 L 531.38 666.02" fill="none" node-id="278" stroke="#0c0426" stroke-linecap="round" stroke-width="1" target-height="0" target-width="114.82001" target-x="416.56" target-y="666.02"></path><path d="M 416.56 693.30 L 569.76 693.30" fill="none" node-id="280" stroke="#0c0426" stroke-linecap="round" stroke-width="1" target-height="0" target-width="153.20001" target-x="416.56" target-y="693.30005"></path><path d="M 416.56 504.77 L 427.80 504.77 L 427.80 516.01 L 416.56 516.01 Z" fill="#0c0426" fill-rule="nonzero" node-id="282" stroke="none" target-height="11.240021" target-width="11.23999" target-x="416.56" target-y="504.77"></path><path d="M 434.82 510.39 L 518.10 510.39" fill="none" node-id="284" stroke="#0c0426" stroke-linecap="butt" stroke-width="1" target-height="0" target-width="83.27997" target-x="434.82" target-y="510.39"></path><path d="M 416.56 535.13 L 427.80 535.13 L 427.80 546.37 L 416.56 546.37 Z" fill="#8c71ff" fill-rule="nonzero" node-id="286" stroke="none" target-height="11.23999" target-width="11.23999" target-x="416.56" target-y="535.13"></path><path d="M 434.82 540.75 L 518.10 540.75" fill="none" node-id="288" stroke="#0c0426" stroke-linecap="butt" stroke-width="1" target-height="0" target-width="83.27997" target-x="434.82" target-y="540.75"></path><path d="M 416.56 565.48 L 427.80 565.48 L 427.80 576.72 L 416.56 576.72 Z" fill="#0c0426" fill-rule="nonzero" node-id="290" stroke="none" target-height="11.23999" target-width="11.23999" target-x="416.56" target-y="565.48"></path><path d="M 434.82 571.10 L 518.10 571.10" fill="none" node-id="292" stroke="#0c0426" stroke-linecap="butt" stroke-width="1" target-height="0" target-width="83.27997" target-x="434.82" target-y="571.1"></path><path d="M 522.95 402.23 L 539.82 386.65" fill="none" node-id="294" stroke="#0c0426" stroke-linecap="round" stroke-width="2" target-height="15.580017" target-width="16.869995" target-x="522.95" target-y="386.65"></path><path d="M 523.47 386.12 L 539.30 402.76" fill="none" node-id="296" stroke="#0c0426" stroke-linecap="round" stroke-width="2" target-height="16.640015" target-width="15.830017" target-x="523.47" target-y="386.12"></path><path d="M 612.92 429.51 L 629.79 413.93" fill="none" node-id="298" stroke="#0c0426" stroke-linecap="round" stroke-width="2" target-height="15.580017" target-width="16.869995" target-x="612.92" target-y="413.93"></path><path d="M 613.44 413.41 L 629.27 430.04" fill="none" node-id="300" stroke="#0c0426" stroke-linecap="round" stroke-width="2" target-height="16.630005" target-width="15.830017" target-x="613.44" target-y="413.41"></path><path d="M 546.01 456.79 L 562.89 441.22" fill="none" node-id="302" stroke="#0c0426" stroke-linecap="round" stroke-width="2" target-height="15.570007" target-width="16.880005" target-x="546.01" target-y="441.22"></path><path d="M 546.53 440.69 L 562.37 457.32" fill="none" node-id="304" stroke="#0c0426" stroke-linecap="round" stroke-width="2" target-height="16.630005" target-width="15.839966" target-x="546.53" target-y="440.69"></path><path d="M 587.47 484.07 L 604.35 468.50" fill="none" node-id="306" stroke="#0c0426" stroke-linecap="round" stroke-width="2" target-height="15.569977" target-width="16.880005" target-x="587.47" target-y="468.5"></path><path d="M 587.99 467.97 L 603.83 484.60" fill="none" node-id="308" stroke="#0c0426" stroke-linecap="round" stroke-width="2" target-height="16.630005" target-width="15.840027" target-x="587.99" target-y="467.97"></path><path d="M 431.00 663.53 L 431.00 701.87 C 431.00 702.14 431.00 702.41 431.00 702.69 L 431.00 702.69 C 431.01 714.03 425.39 724.64 416.00 731.00 L 415.85 731.10 C 415.45 731.37 415.06 731.62 414.65 731.87 L 414.32 732.06 C 413.97 732.27 413.62 732.48 413.26 732.67 C 413.10 732.77 412.93 732.85 412.76 732.94 L 411.83 733.42 L 411.16 733.72 L 410.36 734.09 C 410.09 734.21 409.81 734.31 409.54 734.42 L 408.85 734.70 L 407.85 735.04 L 407.28 735.23 L 406.17 735.56 L 405.70 735.69 L 404.46 736.00 L 404.09 736.08 C 403.64 736.18 403.19 736.27 402.73 736.35 L 402.46 736.40 C 401.97 736.48 401.46 736.54 400.98 736.60 L 400.79 736.60 C 400.27 736.66 399.79 736.71 399.22 736.74 L 399.10 736.74 C 398.55 736.74 397.99 736.80 397.44 736.81 L 397.44 736.81 L 397.44 736.81 L 684.08 736.81 C 693.15 736.81 701.86 733.20 708.27 726.79 C 714.69 720.37 718.29 711.66 718.29 702.59 L 718.29 663.53 Z" fill="#ffffff" fill-rule="nonzero" node-id="310" stroke="#0c0426" stroke-linecap="round" stroke-width="1" target-height="73.27997" target-width="320.85266" target-x="397.44" target-y="663.53"></path><g node-id="370"><path d="M 363.54 330.18 C 363.53 311.49 348.38 296.34 329.69 296.33 L 329.69 296.33 C 317.91 296.33 306.97 302.45 300.82 312.50 C 306.14 309.23 312.26 307.50 318.51 307.50 L 318.51 307.50 C 337.21 307.51 352.36 322.66 352.36 341.36 L 352.36 378.36 L 363.54 378.36 Z" fill="#0c0426" fill-opacity="0.2" fill-rule="nonzero" group-id="4" node-id="314" stroke="none" target-height="82.033356" target-width="62.71997" target-x="300.82" target-y="296.32663"></path></g><g node-id="371"><path d="M 603.12 409.10 L 729.70 409.10 C 734.29 409.09 738.69 410.91 741.93 414.15 C 745.18 417.39 747.00 421.78 747.00 426.37 L 747.00 508.18 C 747.00 517.72 739.27 525.45 729.73 525.45 L 661.00 525.45 L 638.32 546.45 L 639.16 525.45 L 603.16 525.45 C 593.62 525.45 585.89 517.72 585.89 508.18 L 585.89 426.37 C 585.89 416.85 593.60 409.12 603.12 409.10 Z" fill="#0c0426" fill-opacity="0.2" fill-rule="nonzero" group-id="5" node-id="319" stroke="none" target-height="137.35797" target-width="161.11005" target-x="585.88995" target-y="409.09204"></path></g><path d="M 613.83 398.39 L 740.41 398.39 C 749.94 398.39 757.67 406.12 757.68 415.65 L 757.68 497.47 C 757.67 507.00 749.94 514.73 740.41 514.73 L 671.69 514.73 L 649.02 535.73 L 649.85 514.73 L 613.85 514.73 C 604.32 514.73 596.59 507.00 596.59 497.47 L 596.59 415.65 C 596.59 406.13 604.31 398.40 613.83 398.39 Z" fill="#ffffff" fill-rule="nonzero" node-id="322" stroke="#0c0426" stroke-linecap="round" stroke-width="1" target-height="137.34" target-width="161.09003" target-x="596.58997" target-y="398.38998"></path><path d="M 645.36 453.32 C 645.36 458.82 640.92 463.27 635.44 463.27 C 629.96 463.27 625.52 458.82 625.52 453.32 C 625.52 447.82 629.96 443.37 635.44 443.37 C 640.92 443.37 645.36 447.82 645.36 453.32 Z" fill="#ffffff" fill-rule="nonzero" node-id="324" stroke="#0c0426" stroke-linecap="round" stroke-width="1" target-height="19.900024" target-width="19.839966" target-x="625.52" target-y="443.37"></path><path d="M 687.04 453.32 C 687.04 458.82 682.60 463.27 677.12 463.27 C 671.64 463.27 667.20 458.82 667.20 453.32 C 667.20 447.82 671.64 443.37 677.12 443.37 C 682.60 443.37 687.04 447.82 687.04 453.32 Z" fill="#ffffff" fill-rule="nonzero" node-id="326" stroke="#0c0426" stroke-linecap="round" stroke-width="1" target-height="19.900024" target-width="19.839966" target-x="667.2" target-y="443.37"></path><path d="M 728.72 453.32 C 728.72 458.82 724.28 463.27 718.80 463.27 C 713.32 463.27 708.88 458.82 708.88 453.32 C 708.88 447.82 713.32 443.37 718.80 443.37 C 724.28 443.37 728.72 447.82 728.72 453.32 Z" fill="#ffffff" fill-rule="nonzero" node-id="328" stroke="#0c0426" stroke-linecap="round" stroke-width="1" target-height="19.900024" target-width="19.839905" target-x="708.88" target-y="443.37"></path><g node-id="372"><path d="M 703.53 500.93 L 853.38 500.93 C 864.67 500.93 873.82 510.08 873.82 521.37 L 873.82 618.22 C 873.82 629.51 864.67 638.66 853.38 638.66 L 772.00 638.66 L 745.16 663.53 L 746.16 638.66 L 703.53 638.66 C 692.24 638.66 683.09 629.51 683.09 618.22 L 683.09 521.37 C 683.09 510.08 692.24 500.93 703.53 500.93 Z" fill="#0c0426" fill-opacity="0.2" fill-rule="nonzero" group-id="6" node-id="332" stroke="none" target-height="162.60004" target-width="190.72998" target-x="683.09" target-y="500.93"></path></g><path d="M 716.21 488.24 L 866.06 488.24 C 877.35 488.24 886.50 497.39 886.50 508.68 L 886.50 605.54 C 886.51 610.96 884.35 616.17 880.52 620.01 C 876.69 623.84 871.48 626.00 866.06 626.00 L 784.70 626.00 L 757.86 650.87 L 758.86 626.00 L 716.21 626.00 C 704.92 626.00 695.77 616.85 695.77 605.56 L 695.77 508.68 C 695.77 497.39 704.92 488.24 716.21 488.24 Z" fill="#8c71ff" fill-rule="nonzero" node-id="335" stroke="#0c0426" stroke-linecap="round" stroke-width="1" target-height="162.63" target-width="190.73529" target-x="695.77" target-y="488.24"></path><path d="M 753.56 553.48 C 753.56 559.97 748.30 565.23 741.81 565.23 C 735.32 565.23 730.06 559.97 730.06 553.48 C 730.06 546.99 735.32 541.73 741.81 541.73 C 748.30 541.73 753.56 546.99 753.56 553.48 Z" fill="#ffffff" fill-rule="nonzero" node-id="337" stroke="#0c0426" stroke-linecap="round" stroke-width="1" target-height="23.5" target-width="23.499939" target-x="730.06" target-y="541.73"></path><path d="M 802.89 553.48 C 802.89 559.97 797.63 565.23 791.14 565.23 C 784.65 565.23 779.39 559.97 779.39 553.48 C 779.39 546.99 784.65 541.73 791.14 541.73 C 797.63 541.73 802.89 546.99 802.89 553.48 Z" fill="#ffffff" fill-rule="nonzero" node-id="339" stroke="#0c0426" stroke-linecap="round" stroke-width="1" target-height="23.5" target-width="23.499939" target-x="779.39" target-y="541.73"></path><path d="M 852.22 553.48 C 852.22 559.97 846.96 565.23 840.47 565.23 C 833.98 565.23 828.72 559.97 828.72 553.48 C 828.72 546.99 833.98 541.73 840.47 541.73 C 846.96 541.73 852.22 546.99 852.22 553.48 Z" fill="#ffffff" fill-rule="nonzero" node-id="341" stroke="#0c0426" stroke-linecap="round" stroke-width="1" target-height="23.5" target-width="23.499939" target-x="828.72003" target-y="541.73"></path><path d="M 854.43 672.33 L 852.42 685.35 L 859.55 691.41 L 849.73 692.22 L 841.39 705.66 L 844.96 690.35 L 837.72 682.86 L 847.64 683.48 L 854.43 672.33 Z" fill="#ffffff" fill-rule="nonzero" node-id="343" stroke="#0c0426" stroke-linecap="round" stroke-width="1" target-height="33.329956" target-width="21.830078" target-x="837.72" target-y="672.33"></path><path d="M 435.42 217.26 L 438.01 228.91 L 445.99 231.67 L 438.01 235.60 L 435.42 249.70 L 433.39 235.60 L 424.85 231.67 L 433.39 228.91 L 435.42 217.26 Z" fill="#ffffff" fill-rule="nonzero" node-id="345" stroke="#0c0426" stroke-linecap="round" stroke-width="1" target-height="32.440002" target-width="21.139923" target-x="424.85004" target-y="217.26"></path><path d="M 146.35 599.56 L 155.00 613.18 L 166.41 613.02 L 158.07 621.68 L 161.26 640.79 L 152.19 623.80 L 139.54 622.74 L 149.12 615.31 L 146.35 599.56 Z" fill="#ffffff" fill-rule="nonzero" node-id="347" stroke="#0c0426" stroke-linecap="round" stroke-width="1" target-height="41.22998" target-width="26.87001" target-x="139.54" target-y="599.56"></path><path d="M 138.47 341.02 L 147.01 349.36 L 155.20 347.31 L 150.66 354.96 L 156.20 368.18 L 146.79 357.49 L 137.50 358.87 L 143.14 351.89 L 138.47 341.02 Z" fill="#ffffff" fill-rule="nonzero" node-id="349" stroke="#0c0426" stroke-linecap="round" stroke-width="1" target-height="27.160004" target-width="18.699997" target-x="137.5" target-y="341.02"></path><path d="M 798.15 421.95 L 799.86 429.59 L 805.12 431.40 L 799.86 433.97 L 798.15 443.21 L 796.82 433.97 L 791.20 431.40 L 796.82 429.59 L 798.15 421.95 Z" fill="#8c71ff" fill-rule="nonzero" node-id="351" stroke="#0c0426" stroke-linecap="round" stroke-width="1" target-height="21.259949" target-width="13.919983" target-x="791.2" target-y="421.95"></path><path d="M 873.17 763.18 L 942.00 763.18" fill="none" node-id="353" stroke="#0c0426" stroke-linecap="butt" stroke-width="1" target-height="0" target-width="68.83002" target-x="873.17" target-y="763.18"></path><path d="M 167.90 763.18 L 855.58 763.18" fill="none" node-id="355" stroke="#0c0426" stroke-linecap="butt" stroke-width="1" target-height="0" target-width="687.68005" target-x="167.9" target-y="763.18"></path><path d="M 82.00 763.18 L 140.20 763.18" fill="none" node-id="357" stroke="#0c0426" stroke-linecap="butt" stroke-width="1" target-height="0" target-width="58.199997" target-x="82" target-y="763.18"></path><path d="M 911.82 362.21 L 734.24 362.21 C 734.24 362.21 741.09 354.01 752.74 358.11 C 752.74 358.11 761.06 342.45 776.32 348.11 C 776.32 348.11 780.04 329.70 804.89 336.35 C 804.89 336.35 832.89 297.27 862.54 318.22 C 876.11 327.79 875.37 341.12 877.67 346.65 C 877.67 346.67 904.89 332.28 911.82 362.21 Z" fill="#ffffff" fill-rule="nonzero" node-id="359" stroke="#0c0426" stroke-linecap="round" stroke-width="1" target-height="64.94" target-width="177.57996" target-x="734.24005" target-y="297.27"></path><path d="M 754.65 259.15 L 643.65 259.15 C 646.62 256.01 651.20 255.00 655.21 256.59 C 655.21 256.59 660.41 246.80 669.95 250.35 C 669.95 250.35 672.27 238.84 687.80 243.00 C 687.80 243.00 705.27 218.58 723.80 231.67 C 732.28 237.67 731.80 245.99 733.26 249.44 C 733.31 249.44 750.32 240.44 754.65 259.15 Z" fill="#ffffff" fill-rule="nonzero" node-id="361" stroke="#0c0426" stroke-linecap="round" stroke-width="1" target-height="40.569992" target-width="110.99994" target-x="643.65" target-y="218.58"></path><path d="M 261.74 303.00 L 112.18 303.00 C 112.18 303.00 117.95 296.09 127.76 299.55 C 127.76 299.55 134.76 286.36 147.62 291.13 C 147.62 291.13 150.75 275.63 171.68 281.24 C 171.68 281.24 195.23 248.32 220.23 265.96 C 231.66 274.07 231.00 285.30 233.00 290.00 C 233.00 290.00 255.90 277.83 261.74 303.00 Z" fill="#ffffff" fill-rule="nonzero" node-id="363" stroke="#0c0426" stroke-linecap="round" stroke-width="1" target-height="54.679993" target-width="149.56" target-x="112.18" target-y="248.32"></path><path d="M 268.14 549.91 L 270.29 559.61 L 276.91 561.91 L 270.29 565.17 L 268.14 576.91 L 266.45 565.17 L 259.38 561.91 L 266.45 559.61 L 268.14 549.91 Z" fill="#ffffff" fill-rule="nonzero" node-id="365" stroke="#0c0426" stroke-linecap="round" stroke-width="1" target-height="27" target-width="17.529999" target-x="259.38" target-y="549.91"></path></svg>