<svg t="1782517450589" class="icon" viewBox="0 0 1024 1024" version="1.1" xmlns="http://www.w3.org/2000/svg" p-id="6286" width="200" height="200"><path d="M262.8096 357.2736h619.8272a171.4176 171.4176 0 0 1-41.472-110.2848c0-63.4368 41.472-92.7232 41.472-92.7232H262.8096A101.4784 101.4784 0 0 0 161.28 256a101.5296 101.5296 0 0 0 101.5296 101.2736z" fill="#F5D126" p-id="6287"></path><path d="M882.6368 154.2656h-81.3056s-41.472 29.2864-41.472 92.7232a171.4176 171.4176 0 0 0 41.472 110.2848h81.3056a171.4176 171.4176 0 0 1-41.472-110.2848c0-63.4368 41.472-92.7232 41.472-92.7232z" fill="#F2B200" p-id="6288"></path><path d="M262.8096 871.3728h619.8272a171.4176 171.4176 0 0 1-41.472-110.2848c0-63.4368 41.472-92.7232 41.472-92.7232H262.8096a101.4784 101.4784 0 0 0-101.5296 101.4784 101.5296 101.5296 0 0 0 101.5296 101.5296z" fill="#FF6950" p-id="6289"></path><path d="M882.6368 668.3648h-81.3056s-41.472 29.2864-41.472 92.7232a171.4176 171.4176 0 0 0 41.472 110.2848h81.3056a171.4176 171.4176 0 0 1-41.472-110.2848c0-63.4368 41.472-92.7232 41.472-92.7232z" fill="#F4403B" p-id="6290"></path><path d="M882.6368 372.6336H262.8096a116.8896 116.8896 0 1 1 0-233.728h619.8272a15.36 15.36 0 0 1 8.8576 27.904c-1.3312 0.9728-34.9696 26.0608-34.9696 80.1792a157.9008 157.9008 0 0 0 37.2736 99.7376 15.36 15.36 0 0 1-11.1616 25.9072zM262.8096 169.6256a86.1696 86.1696 0 1 0 0 172.288h589.7728a185.3952 185.3952 0 0 1-26.7776-94.9248 138.24 138.24 0 0 1 22.4256-77.3632z" fill="#333333" p-id="6291"></path><path d="M781.1584 614.4H161.28a171.6736 171.6736 0 0 0 41.472-110.336c0-63.4368-41.472-92.7232-41.472-92.7232h619.8784a101.4784 101.4784 0 0 1 101.4784 101.5296A101.4784 101.4784 0 0 1 781.1584 614.4z" fill="#5BC7FC" p-id="6292"></path><path d="M781.1072 411.2896h-76.1856a101.5296 101.5296 0 0 1 0 203.0592h76.1856a101.5296 101.5296 0 0 0 0-203.0592z" fill="#25C3F4" p-id="6293"></path><path d="M781.1584 629.76H161.28a15.36 15.36 0 0 1-11.1104-25.9584 157.7984 157.7984 0 0 0 37.2224-99.7888c0-54.1184-33.792-79.0528-35.072-80.2304a15.36 15.36 0 0 1 8.96-27.8528h619.8784a116.8896 116.8896 0 0 1 0 233.7792z m-589.824-30.72h589.824a86.1696 86.1696 0 0 0 0-172.3392H195.6864a137.9328 137.9328 0 0 1 22.4256 77.312A185.6 185.6 0 0 1 191.3344 599.04zM882.6368 886.7328H262.8096a116.8896 116.8896 0 1 1 0-233.728h619.8272a15.36 15.36 0 0 1 8.8576 27.904c-1.3312 0.9728-34.9696 26.0608-34.9696 80.1792a156.1088 156.1088 0 0 0 37.2224 99.6864 15.36 15.36 0 0 1-11.1104 25.9584zM262.8096 683.7248a86.1696 86.1696 0 1 0 0 172.288h589.7728a185.3952 185.3952 0 0 1-26.7776-94.9248 137.9328 137.9328 0 0 1 22.4256-77.3632z" fill="#333333" p-id="6294"></path><path d="M524.0832 232.6016h-36.1984a15.36 15.36 0 0 1 0-30.72h36.1984a15.36 15.36 0 0 1 0 30.72zM431.6672 232.6016H273.8176a15.36 15.36 0 0 1 0-30.72h157.8496a15.36 15.36 0 0 1 0 30.72zM524.0832 485.0688h-36.1984a15.36 15.36 0 0 1 0-30.72h36.1984a15.36 15.36 0 0 1 0 30.72zM431.6672 485.0688H273.8176a15.36 15.36 0 0 1 0-30.72h157.8496a15.36 15.36 0 0 1 0 30.72zM524.0832 746.6496h-36.1984a15.36 15.36 0 1 1 0-30.72h36.1984a15.36 15.36 0 0 1 0 30.72zM431.6672 746.6496H273.8176a15.36 15.36 0 1 1 0-30.72h157.8496a15.36 15.36 0 0 1 0 30.72z" fill="#FFFFFF" p-id="6295"></path></svg>