<?xml version="1.0" standalone="no"?><!DOCTYPE svg PUBLIC "-//W3C//DTD SVG 1.1//EN" "http://www.w3.org/Graphics/SVG/1.1/DTD/svg11.dtd"><svg height="1024" node-id="1" sillyvg="true" template-height="1024" template-width="1024" version="1.1" viewBox="0 0 1024 1024" width="1024" xmlns="http://www.w3.org/2000/svg" xmlns:xlink="http://www.w3.org/1999/xlink"><defs node-id="21"></defs><g node-id="23"><path d="M 906.08 822.00 C 906.08 856.34 863.74 889.28 788.37 913.57 C 713.00 937.85 610.78 951.50 504.19 951.50 C 397.61 951.50 295.39 937.85 220.02 913.57 C 144.65 889.28 102.31 856.34 102.31 822.00 C 102.31 787.65 144.65 754.71 220.02 730.43 C 295.39 706.14 397.61 692.50 504.19 692.50 C 610.78 692.50 713.00 706.14 788.37 730.43 C 863.74 754.71 906.08 787.65 906.08 822.00 Z" fill="#f2f4ff" fill-rule="evenodd" group-id="1" id="椭圆形备份-5" node-id="6" stroke="none" target-height="259" target-width="803.77386" target-x="102.30799" target-y="692.49554"></path><path d="M 505.55 162.00 C 559.27 219.48 594.99 266.97 612.70 304.46 C 633.02 347.46 649.82 385.20 656.00 457.04 C 656.00 465.80 655.71 474.34 655.14 482.65 L 732.98 498.35 C 737.64 499.29 741.00 503.40 741.00 508.16 L 741.00 664.66 C 741.00 665.06 740.96 665.46 740.88 665.85 C 740.22 669.10 737.06 671.20 733.81 670.54 L 585.59 640.50 C 561.65 659.67 532.66 670.00 500.29 670.00 C 468.76 670.00 440.13 660.20 416.15 641.98 L 275.19 670.54 C 271.94 671.20 268.78 669.10 268.12 665.85 C 268.04 665.46 268.00 665.06 268.00 664.66 L 268.00 508.34 C 268.00 503.58 271.35 499.48 276.01 498.54 L 343.06 484.95 C 342.36 475.92 342.00 466.61 342.00 457.04 C 348.78 394.00 363.59 352.23 389.49 304.46 C 407.78 270.71 446.47 223.23 505.55 162.00 Z" fill="#ffffff" fill-rule="evenodd" group-id="1" id="形状结合" node-id="7" stroke="none" target-height="509.2005" target-width="472.99997" target-x="268.00003" target-y="162"></path><path d="M 505.55 162.00 C 559.27 219.48 594.99 266.97 612.70 304.46 C 633.02 347.46 649.82 385.20 656.00 457.04 C 656.00 465.80 655.71 474.34 655.14 482.65 L 732.98 498.35 C 737.64 499.29 741.00 503.40 741.00 508.16 L 741.00 664.66 C 741.00 665.06 740.96 665.46 740.88 665.85 C 740.22 669.10 737.06 671.20 733.81 670.54 L 585.59 640.50 C 561.65 659.67 532.66 670.00 500.29 670.00 C 468.76 670.00 440.13 660.20 416.15 641.98 L 275.19 670.54 C 271.94 671.20 268.78 669.10 268.12 665.85 C 268.04 665.46 268.00 665.06 268.00 664.66 L 268.00 508.34 C 268.00 503.58 271.35 499.48 276.01 498.54 L 343.06 484.95 C 342.36 475.92 342.00 466.61 342.00 457.04 C 348.78 394.00 363.59 352.23 389.49 304.46 C 407.78 270.71 446.47 223.23 505.55 162.00 Z M 505.47 170.73 L 504.63 171.61 C 448.85 229.85 412.19 275.16 394.76 307.32 C 367.49 357.63 354.30 398.77 347.97 457.68 L 348.00 457.35 L 348.01 459.20 C 348.05 467.09 348.35 474.84 348.89 482.42 L 349.04 484.49 L 349.45 489.78 L 344.25 490.83 L 277.21 504.42 C 275.34 504.79 274.00 506.43 274.00 508.34 L 274.00 664.66 L 414.96 636.10 L 417.62 635.56 L 419.78 637.20 C 442.95 654.80 470.37 664.00 500.29 664.00 C 530.97 664.00 558.72 654.33 581.84 635.82 L 584.03 634.07 L 586.78 634.62 L 735.00 664.66 L 735.00 508.16 C 735.00 506.25 733.66 504.61 731.79 504.23 L 653.96 488.53 L 648.80 487.49 L 649.16 482.24 C 649.67 474.71 649.95 467.02 649.99 459.18 L 650.00 457.30 L 649.89 456.00 C 647.04 423.88 641.94 397.43 634.30 372.93 L 633.93 371.74 C 632.74 367.96 631.53 364.33 630.26 360.72 L 629.81 359.45 C 624.46 344.43 618.00 329.71 607.28 307.02 C 590.40 271.31 556.61 225.98 505.91 171.21 L 505.47 170.73 Z" fill="#000000" fill-rule="nonzero" group-id="1" id="形状结合" node-id="8" stroke="none" target-height="509.2005" target-width="472.99997" target-x="268.00003" target-y="162"></path><path d="M 542.65 352.47 C 542.65 362.56 538.64 372.24 531.51 379.37 C 524.37 386.51 514.70 390.51 504.61 390.51 C 494.52 390.51 484.84 386.51 477.71 379.37 C 470.57 372.24 466.57 362.56 466.57 352.47 C 466.57 342.38 470.57 332.71 477.71 325.57 C 484.84 318.44 494.52 314.43 504.61 314.43 C 514.70 314.43 524.37 318.44 531.51 325.57 C 538.64 332.71 542.65 342.38 542.65 352.47 Z" fill="#0076fc" fill-rule="evenodd" group-id="1" id="椭圆形" node-id="9" stroke="none" target-height="76.08331" target-width="76.08334" target-x="466.56583" target-y="314.42978"></path><path d="M 504.61 314.43 C 525.62 314.43 542.65 331.46 542.65 352.47 C 542.65 373.48 525.62 390.51 504.61 390.51 C 483.60 390.51 466.57 373.48 466.57 352.47 C 466.57 331.46 483.60 314.43 504.61 314.43 Z M 504.61 320.43 C 486.91 320.43 472.57 334.78 472.57 352.47 C 472.57 370.17 486.91 384.51 504.61 384.51 C 522.30 384.51 536.65 370.17 536.65 352.47 C 536.65 334.78 522.30 320.43 504.61 320.43 Z" fill="#000000" fill-rule="nonzero" group-id="1" id="椭圆形" node-id="10" stroke="none" target-height="76.08331" target-width="76.08328" target-x="466.5659" target-y="314.42978"></path><path d="M 598.15 692.00 C 598.89 692.00 599.61 692.16 600.27 692.47 C 602.79 693.64 603.87 696.63 602.70 699.14 L 560.63 789.25 C 560.13 790.32 559.27 791.18 558.21 791.68 C 555.70 792.85 552.71 791.76 551.54 789.25 L 535.67 755.27 L 510.36 827.30 C 509.86 828.74 508.73 829.87 507.29 830.37 C 504.68 831.29 501.81 829.92 500.89 827.30 L 475.04 753.74 L 458.46 789.25 C 457.96 790.32 457.11 791.18 456.04 791.68 C 453.53 792.85 450.54 791.76 449.37 789.25 L 407.30 699.14 C 406.99 698.48 406.83 697.75 406.83 697.02 C 406.83 694.25 409.08 692.00 411.85 692.00 L 424.51 692.00 C 446.72 710.13 475.09 721.00 506.00 721.00 C 536.91 721.00 565.28 710.13 587.50 692.00 Z" fill="#0076fc" fill-rule="evenodd" group-id="1" id="形状结合" node-id="11" stroke="none" target-height="139.29108" target-width="197.04254" target-x="406.82874" target-y="692"></path><path d="M 601.54 689.75 C 605.56 691.63 607.29 696.40 605.42 700.41 L 563.35 790.52 C 562.55 792.23 561.18 793.60 559.48 794.40 C 555.46 796.27 550.69 794.54 548.82 790.52 L 536.06 763.20 L 513.19 828.30 C 512.42 830.50 510.72 832.25 508.56 833.10 L 508.28 833.20 C 504.11 834.67 499.53 832.47 498.06 828.30 L 474.65 761.67 L 461.18 790.52 C 460.43 792.13 459.17 793.44 457.60 794.25 L 457.31 794.40 C 453.29 796.27 448.52 794.54 446.65 790.52 L 404.58 700.41 C 404.09 699.35 403.83 698.19 403.83 697.02 C 403.83 692.59 407.42 689.00 411.85 689.00 L 424.51 689.00 C 425.20 689.00 425.87 689.24 426.40 689.68 C 448.72 707.89 476.58 718.00 506.00 718.00 C 535.42 718.00 563.28 707.89 585.60 689.68 C 586.13 689.24 586.80 689.00 587.49 689.00 L 598.15 689.00 C 599.32 689.00 600.48 689.26 601.54 689.75 Z M 588.56 695.00 L 587.98 695.46 C 565.08 713.64 536.78 723.79 506.92 724.00 L 506.00 724.00 C 475.80 724.00 447.16 713.82 424.02 695.46 L 423.44 695.00 L 411.85 695.00 C 410.78 695.00 409.91 695.82 409.83 696.87 L 409.83 697.02 C 409.83 697.31 409.89 697.60 410.02 697.87 L 452.09 787.98 C 452.56 788.99 453.76 789.43 454.77 788.96 C 455.20 788.76 455.54 788.41 455.74 787.98 L 472.32 752.47 C 473.46 750.03 476.98 750.21 477.87 752.74 L 503.72 826.31 C 504.09 827.36 505.24 827.91 506.30 827.54 C 506.87 827.34 507.33 826.88 507.53 826.31 L 532.84 754.27 C 533.73 751.74 537.25 751.56 538.39 754.00 L 554.26 787.98 C 554.73 788.99 555.93 789.43 556.94 788.96 C 557.37 788.76 557.71 788.41 557.91 787.98 L 599.98 697.87 C 600.45 696.86 600.02 695.66 599.01 695.19 C 598.74 695.06 598.45 695.00 598.15 695.00 L 588.56 695.00 Z" fill="#000000" fill-rule="nonzero" group-id="1" id="形状结合" node-id="12" stroke="none" target-height="145.67078" target-width="203.46179" target-x="403.82874" target-y="689"></path><path d="M 312.63 809.21 C 312.63 812.57 311.29 815.79 308.92 818.17 C 306.54 820.55 303.32 821.88 299.96 821.88 C 296.60 821.88 293.37 820.55 291.00 818.17 C 288.62 815.79 287.29 812.57 287.29 809.21 C 287.29 805.85 288.62 802.63 291.00 800.25 C 293.37 797.88 296.60 796.54 299.96 796.54 C 303.32 796.54 306.54 797.88 308.92 800.25 C 311.29 802.63 312.63 805.85 312.63 809.21 Z" fill="#ffffff" fill-rule="evenodd" group-id="1" id="椭圆形备份-8" node-id="13" stroke="none" target-height="25.33899" target-width="25.33899" target-x="287.28818" target-y="796.54236"></path><path d="M 183.00 428.50 C 183.00 435.40 177.40 441.00 170.50 441.00 C 163.60 441.00 158.00 435.40 158.00 428.50 C 158.00 421.60 163.60 416.00 170.50 416.00 C 177.40 416.00 183.00 421.60 183.00 428.50 Z" fill="#ffffff" fill-rule="evenodd" group-id="1" id="椭圆形备份-5" node-id="14" stroke="none" target-height="25" target-width="25" target-x="158.00003" target-y="416"></path><path d="M 170.50 416.00 C 177.40 416.00 183.00 421.60 183.00 428.50 C 183.00 435.40 177.40 441.00 170.50 441.00 C 163.60 441.00 158.00 435.40 158.00 428.50 C 158.00 421.60 163.60 416.00 170.50 416.00 Z M 170.50 419.00 C 165.25 419.00 161.00 423.25 161.00 428.50 C 161.00 433.75 165.25 438.00 170.50 438.00 C 175.75 438.00 180.00 433.75 180.00 428.50 C 180.00 423.25 175.75 419.00 170.50 419.00 Z" fill="#000000" fill-rule="nonzero" group-id="1" id="椭圆形备份-5" node-id="15" stroke="none" target-height="25" target-width="25" target-x="158.00003" target-y="416"></path><path d="M 356.50 126.00 C 358.99 126.00 361.00 128.01 361.00 130.50 L 361.00 140.00 L 369.50 140.00 C 371.99 140.00 374.00 142.01 374.00 144.50 C 374.00 146.99 371.99 149.00 369.50 149.00 L 361.00 149.00 L 361.00 157.50 C 361.00 159.99 358.99 162.00 356.50 162.00 C 354.01 162.00 352.00 159.99 352.00 157.50 L 352.00 149.00 L 342.50 149.00 C 340.01 149.00 338.00 146.99 338.00 144.50 C 338.00 142.01 340.01 140.00 342.50 140.00 L 352.00 140.00 L 352.00 130.50 C 352.00 128.01 354.01 126.00 356.50 126.00 Z" fill="#0076fc" fill-rule="evenodd" group-id="1" id="形状结合备份-5" node-id="16" stroke="none" target-height="36" target-width="36" target-x="338.00003" target-y="126"></path><path d="M 356.50 126.00 C 358.99 126.00 361.00 128.01 361.00 130.50 L 361.00 140.00 L 369.50 140.00 C 371.99 140.00 374.00 142.01 374.00 144.50 C 374.00 146.99 371.99 149.00 369.50 149.00 L 361.00 149.00 L 361.00 157.50 C 361.00 159.99 358.99 162.00 356.50 162.00 C 354.01 162.00 352.00 159.99 352.00 157.50 L 352.00 149.00 L 342.50 149.00 C 340.01 149.00 338.00 146.99 338.00 144.50 C 338.00 142.01 340.01 140.00 342.50 140.00 L 352.00 140.00 L 352.00 130.50 C 352.00 128.01 354.01 126.00 356.50 126.00 Z M 356.50 128.25 C 355.26 128.25 354.25 129.26 354.25 130.50 L 354.25 142.25 L 342.50 142.25 C 341.26 142.25 340.25 143.26 340.25 144.50 C 340.25 145.74 341.26 146.75 342.50 146.75 L 354.25 146.75 L 354.25 157.50 C 354.25 158.74 355.26 159.75 356.50 159.75 C 357.74 159.75 358.75 158.74 358.75 157.50 L 358.75 146.75 L 369.50 146.75 C 370.74 146.75 371.75 145.74 371.75 144.50 C 371.75 143.26 370.74 142.25 369.50 142.25 L 358.75 142.25 L 358.75 130.50 C 358.75 129.26 357.74 128.25 356.50 128.25 Z" fill="#0076fc" fill-rule="nonzero" group-id="1" id="形状结合备份-5" node-id="17" stroke="none" target-height="36" target-width="36" target-x="338.00003" target-y="126"></path><path d="M 906.00 579.00 C 906.00 586.73 899.73 593.00 892.00 593.00 C 884.27 593.00 878.00 586.73 878.00 579.00 C 878.00 571.27 884.27 565.00 892.00 565.00 C 899.73 565.00 906.00 571.27 906.00 579.00 Z" fill="#0076fc" fill-rule="evenodd" group-id="1" id="椭圆形备份-5" node-id="18" stroke="none" target-height="28" target-width="28.000061" target-x="878" target-y="565"></path><path d="M 892.00 565.00 C 899.73 565.00 906.00 571.27 906.00 579.00 C 906.00 586.73 899.73 593.00 892.00 593.00 C 884.27 593.00 878.00 586.73 878.00 579.00 C 878.00 571.27 884.27 565.00 892.00 565.00 Z M 892.00 566.00 C 884.82 566.00 879.00 571.82 879.00 579.00 C 879.00 586.18 884.82 592.00 892.00 592.00 C 899.18 592.00 905.00 586.18 905.00 579.00 C 905.00 571.82 899.18 566.00 892.00 566.00 Z" fill="#0076fc" fill-rule="nonzero" group-id="1" id="椭圆形备份-5" node-id="19" stroke="none" target-height="28" target-width="28.000061" target-x="878" target-y="565"></path></g></svg>