<svg viewBox="0 0 1024 1024" height="1024" width="1024" version="1.1" fill="none" xmlns:xlink="http://www.w3.org/1999/xlink" xmlns="http://www.w3.org/2000/svg"><defs><clipPath id="master_svg0_6_94"><rect rx="0" height="1024" width="1024" y="0" x="0"></rect></clipPath><mask maskUnits="objectBoundingBox" style="mask-type:alpha" id="master_svg1_6_96"><g><ellipse fill-opacity="1" fill="#FFFFFF" ry="491.52001953125" rx="491.52001953125" cy="512" cx="514.0480346679688"></ellipse></g></mask><mask maskUnits="objectBoundingBox" style="mask-type:alpha" id="master_svg2_6_0031"><g><path fill-opacity="1" fill="#FFFFFF" d="M911.6493794921876,390.099732890625C926.6785594921876,490.883572890625,1084.3994794921875,765.349242890625,1108.6494794921875,845.599242890625C1167.8055994921874,1041.363282890625,749.7693894921875,1160.129762890625,687.1493494921875,1165.099612890625C608.3993264921875,1171.349612890625,545.2910694921875,992.087032890625,576.1494144921875,839.099612890625C611.6493984921875,663.0999728906249,582.4814754921875,540.6185628906251,562.1494140921875,465.099612890625C548.1493892921875,413.099612890625,570.3915484921876,329.341342890625,618.6493794921874,289.599622890625C627.1493984921875,282.599622890625,603.1494024921875,196.099624890625,631.1494144921875,178.599628590625C655.4213104921876,163.429706890625,692.4054394921875,248.87097189062501,709.6493694921875,246.099624890625C737.6493694921875,241.599608890625,780.7406294921875,243.133628890625,810.1494094921875,246.09968589062498C823.0710794921874,247.402923890625,881.6493794921876,188.099706890625,898.6493794921876,178.599720590625C917.5683294921876,168.027387590625,894.6493794921876,276.099685890625,911.6493794921876,390.099732890625Z"></path></g></mask></defs><g mask="url(#master_svg1_6_96)" clip-path="url(#master_svg0_6_94)"><g><ellipse fill-opacity="1" fill="#E7E5CE" ry="491.52001953125" rx="491.52001953125" cy="512" cx="514.0480346679688"></ellipse></g><g transform="matrix(0.9902681112289429,0.13917312026023865,-0.13917312026023865,0.9902681112289429,28.035268336439913,-47.33676980715245)"><g><path fill-opacity="1" fill="#6F5FDC" d="M554.7452109375,665.027343890625C501.22012093750004,659.027343890625,333.7199709375,670.027343890625,354.2202606375,760.027342890625C362.5502489375,796.597502890625,393.3455239375,789.700352890625,434.2610859375,780.5365728906249C458.96400093750003,775.0039228906251,487.35596093749996,768.645032890625,516.7200609375,770.527342890625C555.7930609375001,773.032032890625,577.4322709375,792.851352890625,598.3498709375,812.009752890625C619.1893009375,831.0965528906249,639.3125009375,849.527372890625,675.2449909375,849.527342890625C747.2449909375,849.527282890625,745.2449309374999,759.527392890625,695.7449309374999,659.027389890625Q646.2449309374999,558.527389890625,597.2452109375,576.527389490625Q592.8155809375,654.970809890625,565.4368709375,664.025855890625Q560.4688609375,665.668944890625,554.7452109375,665.027343890625Z"></path></g><g mask="url(#master_svg2_6_0031)"><g><path fill-opacity="1" fill="#6F5FDC" d="M911.6493794921876,390.099732890625C926.6785594921876,490.883572890625,1084.3994794921875,765.349242890625,1108.6494794921875,845.599242890625C1167.8055994921874,1041.363282890625,749.7693894921875,1160.129762890625,687.1493494921875,1165.099612890625C608.3993264921875,1171.349612890625,545.2910694921875,992.087032890625,576.1494144921875,839.099612890625C611.6493984921875,663.0999728906249,582.4814754921875,540.6185628906251,562.1494140921875,465.099612890625C548.1493892921875,413.099612890625,570.3915484921876,329.341342890625,618.6493794921874,289.599622890625C627.1493984921875,282.599622890625,603.1494024921875,196.099624890625,631.1494144921875,178.599628590625C655.4213104921876,163.429706890625,692.4054394921875,248.87097189062501,709.6493694921875,246.099624890625C737.6493694921875,241.599608890625,780.7406294921875,243.133628890625,810.1494094921875,246.09968589062498C823.0710794921874,247.402923890625,881.6493794921876,188.099706890625,898.6493794921876,178.599720590625C917.5683294921876,168.027387590625,894.6493794921876,276.099685890625,911.6493794921876,390.099732890625Z"></path></g><g><path fill-opacity="1" fill="#000000" d="M381.2882604921875,448.637237890625C370.1576900921875,508.116157890625,434.2570874921875,535.412882890625,488.7964894921875,558.638492890625C512.6566294921874,568.799332890625,534.6870594921875,578.180982890625,547.7881894921875,589.137232890625C590.8359394921874,625.137232890625,680.7883294921875,704.137142890625,744.7883294921875,725.137142890625C808.7883294921875,746.137142890625,899.2883294921875,711.1372028906251,899.2883294921875,613.137332890625C899.2883294921875,515.137229890625,837.7882094921874,478.137206890625,678.2882094921874,478.137134890625C640.9826094921875,478.137137890625,592.2246994921875,461.57199889062497,544.9750194921875,445.519267890625C466.2023234921875,418.756817790625,391.6215934921875,393.418557890625,381.2882604921875,448.637237890625Z"></path></g></g><g><path fill-opacity="1" fill="#6F5FDC" d="M386.51654723535154,437.29330478515624C375.3859768353516,496.77222478515625,439.48537423535157,524.0689497851563,494.02477623535157,547.2945597851563C517.8849162353515,557.4553997851563,539.9153462353515,566.8370497851563,553.0164762353515,577.7932997851563C596.0642262353515,613.7932997851563,686.0166162353515,692.7932097851563,750.0166162353515,713.7932097851563C814.0166162353515,734.7932097851563,904.5166162353515,699.7932697851563,904.5166162353515,601.7933997851562C904.5166162353515,503.79329678515626,843.0164962353515,466.79327378515626,683.5164962353515,466.79320178515627C646.2108962353516,466.79320478515626,597.4529862353515,450.2280657851562,550.2033062353515,434.1753347851562C471.43061023535154,407.41288468515626,396.8498802353516,382.07462478515623,386.51654723535154,437.29330478515624Z"></path></g><g><path fill-opacity="1" fill="#000000" d="M847.9229385382813,251.25524164746093C846.6313440382812,252.41639364746095,847.3814456382812,254.57115164746094,849.1009712382812,254.81553664746093C866.0134202382812,257.2191996474609,879.6621742382813,263.46614464746096,890.9822582382812,276.05271864746095C892.2591702382813,277.4724886474609,894.7249912382813,276.5907596474609,894.7406002382812,274.68130464746093C894.9302372382813,251.48526364746095,896.1990162382813,233.56635264746095,896.9242092382813,220.38541064746093C897.2138022382812,215.12177944746094,891.0729142382812,212.38738014746093,887.1761212382812,215.93768214746095C877.0042382382812,225.20510464746093,863.0963322382812,237.61424264746094,847.9229385382813,251.25524164746093Z"></path></g><g transform="matrix(0.970296323299408,0.2419220209121704,-0.2419220209121704,0.970296323299408,110.22333094661735,-142.24540581475594)"><path fill-opacity="1" fill="#000000" d="M648.6139445078124,378.237364531875C641.5448337078125,379.159523121875,633.4922226678125,383.595610621875,634.4339724778125,387.774689921875C635.3757222078125,391.953769921875,642.8484325078125,399.558806921875,652.1254025078125,397.924325921875C663.7190495078125,395.954358921875,666.1820165078125,384.431805621875,664.6303235078125,380.888193621875C663.0786305078125,377.344581661875,655.6830555078125,377.315205511875,648.6139445078124,378.237364531875Z"></path></g></g><g transform="matrix(-0.9848080277442932,0.1736479252576828,0.1736479252576828,0.9848080277442932,1390.3554214950564,-121.64021414138188)"><g transform="matrix(0.8746199011802673,-0.4848097562789917,0.4848097562789917,0.8746199011802673,-88.91513136685899,399.2099588682013)"><g><ellipse fill-opacity="1" fill="#FFFFFF" ry="34.467857360839844" rx="30.412818908691406" cy="405.9771041870117" cx="757.7704849243164"></ellipse></g><g><ellipse fill-opacity="1" fill="#000000" ry="16.220169067382812" rx="14.192647933959961" cy="413.313777923584" cx="772.6199855804443"></ellipse></g></g><g transform="matrix(0.8746199011802673,-0.4848097562789917,0.4848097562789917,0.8746199011802673,-61.999579293456236,433.2439522216988)"><g><ellipse fill-opacity="1" fill="#FFFFFF" ry="34.467857360839844" rx="30.412818908691406" cy="370.9567127227783" cx="837.028076171875"></ellipse></g><g><ellipse fill-opacity="1" fill="#000000" ry="16.220169067382812" rx="14.192647933959961" cy="375.6959705352783" cx="852.8956775665283"></ellipse></g></g></g><g><path fill-opacity="1" fill="#FF8848" d="M260,30.5Q289,45.5,302,76.5C317.440041,113.318558,329.5,171.5,340.5,199Q350.672646,224.43161,382,254Q354.5,237,338.5,202.00002C328.571701,180.28186,313.5,118,304.5,92Q295.5,66,276.5,46Q258,69.5,262,86Q268,76,276.5,69.5Q253.5,99,270,145.5Q275.5,132.5,288.261108,118.999992Q268,155,277.5,174.5Q281.5,165.99998,285.5,160.50002Q279.5,201,325,237.00002Q324,219,330.5,204.50002Q328,246,363,263.5C393.01666,278.50833,418,276,418,270.5C418,265,411.5,252,400,241.5Q388.5,231,369.5,229.50002Q378,225,388.49998,226.50002C357,200.5,360.5,147.5,343,125Q334.034576,113.473022,324,109Q335,108,345.5,117C340,86.5,330.139458,72.79709199999999,305.5,66Q311.5,62,331.5,69.5Q326,52,302,52Q306,49.5,318,49C317.399624,48.783197,316.603447,48.446242999999996,315.644714,48.040495C309.417473,45.405041,296.332287,39.86721,285.5,45.5C280.5,40,269.4999886,27.500086500000002,262,26L260,30.5Z"></path></g></g></svg>