<svg viewBox="0 0 1024 1024" height="1024" width="1024" version="1.1" fill="none" xmlns:xlink="http://www.w3.org/1999/xlink" xmlns="http://www.w3.org/2000/svg"><defs><clipPath id="master_svg0_8_033"><rect rx="0" height="1024" width="1024" y="0" x="0"></rect></clipPath><mask maskUnits="objectBoundingBox" style="mask-type:alpha" id="master_svg1_8_035"><g><ellipse fill-opacity="1" fill="#FFFFFF" ry="491.52001953125" rx="491.52001953125" cy="512" cx="514.0480346679688"></ellipse></g></mask></defs><g mask="url(#master_svg1_8_035)" clip-path="url(#master_svg0_8_033)"><g><ellipse fill-opacity="1" fill="#E7E5CE" ry="491.52001953125" rx="491.52001953125" cy="512" cx="514.0480346679688"></ellipse></g><g><path fill-opacity="1" fill="#FF8848" d="M111,142.5Q140,157.5,153,188.5C168.440041,225.318558,180.5,283.5,191.5,311Q201.672646,336.43161,233,366Q205.5,349,189.5,314.00002C179.57170100000002,292.28186,164.5,230,155.5,204Q146.5,178,127.5,158Q109,181.5,113,198Q119,188,127.5,181.5Q104.5,211,121,257.5Q126.5,244.5,139.261108,230.99999200000002Q119,267,128.5,286.5Q132.5,277.99998,136.5,272.50002Q130.5,313,176,349.00002Q175,331,181.5,316.50002Q179,358,214,375.5C244.01666,390.50833,269,388,269,382.5C269,377,262.5,364,251,353.5Q239.5,343,220.5,341.50002Q229,337,239.49998,338.50002C208,312.5,211.5,259.5,194,237Q185.03457600000002,225.47302200000001,175,221Q186,220,196.5,229C191,198.5,181.139458,184.797092,156.5,178Q162.5,174,182.5,181.5Q177,164,153,164Q157,161.5,169,161C168.39962400000002,160.783197,167.60344700000002,160.446243,166.644714,160.040495C160.417473,157.405041,147.332287,151.86721,136.5,157.5C131.5,152,120.4999886,139.5000865,113,138L111,142.5Z"></path></g><g><g><path fill-opacity="1" fill="#6F5FDC" d="M250.7104949953125,852.21265C243.7103347953125,877.2121,271.4202576953125,908.92529,332.7101596953125,911.21265C392.96579269531253,913.46143,505.8205826953125,903.55627,560.4499226953126,861.41193C562.1817626953125,860.07587,564.4589226953125,859.73615,566.5415326953125,860.40454C644.2116726953125,885.33459,958.9614226953125,806.46161,975.7103926953125,789.71265C992.7103926953125,772.71265,1023.7100226953125,750.21216,1058.2100226953125,602.2126499999999C1090.2907126953125,464.59161,1021.2053226953125,372.36475,998.1309226953125,352.06677C995.7824126953125,350.00085,994.6694926953126,346.41104,995.2361426953125,343.33493C1001.9627726953125,306.80957,1001.1193826953125,120.90805399999999,843.2100226953125,95.2132263C731.8038626953125,77.085302,679.2102926953125,175.213303,679.2102926953125,211.2133C679.2102926953125,247.21335,718.2102326953125,255.2131,740.7102326953125,239.2131C746.2006526953126,235.30876,751.2147526953124,228.81415,756.7478026953124,221.64729C773.8892226953125,199.44441,796.0116626953125,170.789734,852.7100226953125,192.713112Q902.0339926953125,211.78507000000002,872.8538226953125,312.34045000000003C872.1713226953125,314.69241,870.1043126953125,316.35568,867.6671726953125,316.59627Q821.1590526953125,321.18748,796.7100226953125,332.2131C715.9775726953126,368.6207,727.7109726953124,435.2131,710.7109726953124,454.21317Q694.1492626953125,472.72333,650.0635726953125,465.13318C648.5483726953125,464.87228,646.9992326953125,465.17587,645.7111226953125,466.0152Q410.1703926953125,619.49316,400.7104826953125,685.71265C391.2104826953125,752.21265,325.2104946953125,824.71265,309.2104946953125,836.21265C302.5990756953125,840.9646,292.6581456953125,840.25281,282.7742806953125,839.5451C268.7386476953125,838.5401,254.8180927953125,837.54333,250.7104949953125,852.21265Z"></path></g><g><path fill-opacity="1" fill="#6F5FDC" d="M716.2638806738281,758.753624484375C684.2249676738281,782.985034484375,608.1614155738281,840.512809484375,612.7095388438281,871.212646484375C616.7095389738281,898.212646484375,635.2104796738281,910.712646484375,667.7099226738281,906.212646484375Q700.2093656738282,901.712646484375,811.7104806738281,811.212646484375L724.2104806738281,752.712646484375C722.0483806738281,754.378730784375,719.3619506738281,756.410510784375,716.2638806738281,758.753624484375Z"></path></g><g><path fill-opacity="1" fill="#000000" fill-rule="evenodd" d="M762.9833819042968,849.5158195304688Q765.3298219042969,847.7435922304687,767.7269319042969,845.9161987304688C711.2561799042969,856.7375647304688,654.3319279042969,864.8053127304687,612.7621580942969,865.2174187304688Q612.4554612142969,867.3091697304687,612.7096439342969,871.2127797304687Q656.4317779042968,868.9241787304687,694.0002139042969,863.4999387304688Q731.5686519042969,858.0756987304687,762.9833819042968,849.5158195304688Z"></path></g><g><path fill-opacity="1" fill="#FFFFFF" d="M437.00018522375,715.5000573632813C430.50018409375,734.0000273632812,490.13872159375,857.6022973632812,683.50013859375,846.0003073632813C858.50002859375,835.5000273632812,967.73644859375,744.6310473632813,947.50002859375,605.0000093632813C940.48736859375,556.6125483632812,914.2954085937499,594.5317853632813,883.7534785937501,638.7487063632813C870.74291859375,657.5846713632812,856.9429585937501,677.5634533632813,843.49999859375,692.5001073632812C837.38952859375,699.2895373632813,831.35281859375,706.6044573632812,825.1169085937499,714.1606873632812C785.4293185937499,762.2516473632812,737.67489859375,820.1174273632812,611.49999859375,814.5000573632813C504.45101959375,809.7341773632812,464.06455659375,748.7890273632813,447.57247559375,723.9016873632812C441.57163809375,714.8461273632813,438.73430629375,710.5644573632812,437.00018522375,715.5000573632813Z"></path></g><g><path fill-opacity="1" fill="#6F5FDC" d="M786.3339152109374,840.592098203125C778.6148262109375,866.654968203125,772.1773276109375,888.390658203125,779.2087932109375,908.7123982031251C788.1536182109375,934.564028203125,845.3297962109375,932.462468203125,860.7044752109375,929.212278203125C922.2032362109375,916.212338203125,1027.1957962109375,764.211608203125,1058.2030662109375,602.212128203125C1089.2103262109376,440.212646203125,1029.5043062109376,393.077418303125,931.2091862109376,401.712687433125C857.2148662109375,408.213116603125,757.0031202109375,467.714889203125,798.7103312109375,723.712738203125C806.6027302109375,772.156098203125,795.5540752109375,809.460968203125,786.3339152109374,840.592098203125Z"></path></g><g><path fill-opacity="1" fill="#6F5FDC" d="M590.8935044775391,417.333029C603.685254477539,403.787193,635.610884477539,382.2484608,668.7104644775391,387.7137146C720.400314477539,396.2485123,703.725604477539,541.51224,690.7776044775391,570.97464C689.7458944775391,573.32231,689.6840644775391,576.13789,691.0099644775391,578.33287C741.436444477539,661.81152,625.8487044775391,763.71411,510.71046447753906,763.71411C393.9022344775391,763.71411,284.71046447753906,683.9538,284.71046447753906,583.71393C284.71046447753906,540.07104,296.42211147753903,492.5528,332.5701484775391,468.718704C344.71046447753906,460.71402,363.05280347753904,466.253387,373.71046447753906,458.71403499999997C384.3681254775391,451.174683,390.21046447753906,435.214069,408.21046447753906,424.714069C464.84587447753904,391.6767483,555.1558344775391,407.498873,582.157604477539,419.134068C585.0821944775391,420.394276,588.707074477539,419.648346,590.8935044775391,417.333027"></path></g><g><path fill-opacity="1" fill="#000000" d="M590.7408790363281,452.572807078125C587.9021852363281,455.130043078125,587.7758073363282,459.476051078125,590.3511428363281,462.298336078125L651.1543197363281,528.931955078125C654.6428297363282,532.754985078125,660.9382707363281,531.564525078125,662.7397227363281,526.712725078125Q693.0567297363282,445.060959078125,666.7104797363281,426.712677978125Q640.0544777363282,408.148678078125,590.7408790363281,452.572807078125Z"></path></g><g><path fill-opacity="1" fill="#000000" d="M442.95472,545C403.950636,545,369.446911,601.792786,386.4486914,664.26434C403.450472,726.7359,465,803,591,819C717,835,813.99942,761.7112999999999,819.5,707.5C825.00058,653.28871,737.505,657.55254,690.5,664.2644C635.54688,672.11119,554.5,641,526,616.5C480.455101,577.347366,481.95883200000003,545,442.95472,545Z"></path></g><g><path fill-opacity="1" fill="#6F5FDC" d="M442.71046103125,544.712646484375C403.71051403125,544.712646484375,369.21044903125,599.712646484375,386.21042633125,660.212156484375C403.21040303125,720.711666484375,463.92089803125,801.4252964843749,601.2104470312499,814.212646484375C738.49999703125,826.9999964843751,829.99999703125,739.9999964843751,835.49999703125,687.4999964843751C840.58767703125,638.935897484375,755.5783670312501,651.306706484375,705.60159703125,658.579486484375C701.5511770312501,659.168906484375,697.7308970312499,659.724846484375,694.2073370312501,660.212146484375C647.2073370312501,666.712146484375,557.20731703125,657.712176484375,516.20731703125,615.212181484375C475.20751903125,572.712181484375,481.71043403125,544.712646484375,442.71046103125,544.712646484375Z"></path></g><g><path fill-opacity="1" fill="#000000" d="M409.71044921875,584.712706553125Q409.71044921875,590.722134453125,415.48846291875,598.336471453125C417.30019621875,600.723993453125,420.51652721875,600.800914453125,421.23128621875003,597.890285453125C422.32264921875,593.446057453125,422.21544921875,586.732630753125,421.21044921875,582.712631253125C419.71044921875,576.712631253125,409.71044921875,577.212640553125,409.71044921875,584.712706553125Z"></path></g><g><path fill-opacity="1" fill="#000000" d="M430.21044921875,578.71244998125Q430.21044921875,584.93464678125,431.71203661875,591.80080778125C432.59513471875,595.83886478125,436.79789921875,597.17921878125,439.18914131875,593.80761478125C442.06863321875,589.74758678125,444.71044921875,584.05377978125,444.71044921875,578.71240238125C444.71044921875,569.71260788125,430.21044921875,569.21291538125,430.21044921875,578.71244998125Z"></path></g><g><path fill-opacity="1" fill="#000000" d="M404.71017838125,597.2125608875C400.71017838125,594.7125607375,394.71040438125,597.2126432675,396.71017837125,602.7123909375Q398.29749898125,607.0778159375,404.29537778125,609.5534439375C406.02601718125,610.2677659375,407.88396028125,608.9711099375,407.90735828125,607.0989919375Q408.00517828125,599.2719357375,404.71017838125,597.2125608875Z"></path></g><g><path fill-opacity="1" fill="#6F5FDC" d="M426.84123321875,418.389022484375C425.51362571875,422.253631484375,428.41724681875,426.212646484375,432.50351711875,426.212646484375L558.39438921875,426.212646484375C562.99616921875,426.212646484375,565.88352921875,421.264335484375,563.51368921875,417.319686484375Q518.69194821875,342.712646484375,475.21044921875,342.712646484375Q452.83844521875,342.712613800049,426.84123321875,418.389022484375Z"></path></g><g><path fill-opacity="1" fill="#000000" d="M408.56347961875,633.406122484375C406.89844241875,637.598125484375,410.01971201875,641.971200484375,414.52218531875,642.241350484375L445.05492421875,644.073314484375C450.08658621874997,644.375213484375,453.79411321875,639.434423484375,451.67510621875,634.860736484375Q441.64545021875,613.212646484375,429.21044921875,613.212646484375Q416.58420021875,613.212646484375,408.56347961875,633.406122484375Z"></path></g><g><path fill-opacity="1" fill="#000000" d="M450.66104381875,598.683228984375C449.95060497875,601.871104984375,452.27254941875,604.891459984375,455.31362441875,603.700181984375Q460.27294921875,601.757468984375,467.71044921875,595.212625984375C480.21044921875,584.212887284375,462.20977021875,576.212768984375,456.71038241875,584.212936384375Q452.53084661875,590.293062184375,450.66104381875,598.683228984375Z"></path></g></g><g transform="matrix(0.925685703754425,0.37829527258872986,-0.37829527258872986,0.925685703754425,203.0318346558197,-97.52062993503932)"><path fill-opacity="1" fill="#000000" d="M363.98149821875,468.51006961C356.91238741875,469.4322282,348.85977637875,473.8683157,349.80152618875,478.047395C350.74327591875,482.226475,358.21598621875,489.831512,367.49295621875,488.197031C379.08660321875,486.227064,381.54957021875,474.7045107,379.99787721875,471.1608987C378.44618421875,467.61728674,371.05060921875,467.58791059,363.98149821875,468.51006961Z"></path></g><g><path fill-opacity="1" fill="#000000" fill-rule="evenodd" d="M488.630066,477Q503.809998,477.0000005,519.631905,482.7587662L519.632179,482.7580128Q520.294823,482.9991999,521,482.9991999Q521.196472,482.9991999,521.391991,482.9799423Q521.587509,482.9606857,521.780197,482.9223557Q521.9729,482.8840275,522.160904,482.8269958Q522.348907,482.7699642,522.530418,482.6947775Q522.711929,482.6195927,522.885208,482.5269794Q523.0584719999999,482.4343643,523.221825,482.3252125Q523.385193,482.2160606,523.537064,482.091423Q523.688934,481.9667854,523.827858,481.8278608Q523.966782,481.6889381,524.0914310000001,481.5370655Q524.216064,481.3851938,524.325211,481.2218361Q524.434364,481.0584793,524.526978,480.8852096Q524.619591,480.7119398,524.694771,480.5304265Q524.769958,480.3489141,524.826996,480.1609054Q524.884026,479.9728975,524.922348,479.7802043Q524.960678,479.587512,524.9799419999999,479.3919902Q524.999199,479.1964684,524.999199,479Q524.999199,478.8472404,524.987549,478.6949263Q524.975891,478.5426121,524.95266,478.3916306Q524.9294199999999,478.2406487,524.894737,478.0918798Q524.860046,477.9431105,524.814117,477.797421Q524.768173,477.6517315,524.711258,477.5099707Q524.654343,477.3682098,524.586784,477.231204Q524.519218,477.0941982,524.441399,476.9627454Q524.3635859999999,476.8312929,524.275963,476.7061596Q524.188339,476.5810261,524.0914310000001,476.4629412Q523.994522,476.3448565,523.888893,476.2345083Q523.783257,476.1241601,523.66951,476.0221915Q523.555763,475.9202232,523.43457,475.8272288Q523.313377,475.7342343,523.185448,475.6507556Q523.05751,475.5672772,522.923584,475.4938011Q522.789658,475.4203248,522.650513,475.3572793Q522.511368,475.2942338,522.367821,475.2419865L522.368095,475.2412343Q505.220627,469.0000005,488.630066,469Q472.177982,469,450.8886564,475.1573634L450.8888786,475.1581316Q450.7340138,475.2029219,450.5832567,475.2600322Q450.4324996,475.3171427,450.2868285,475.3862026Q450.1411575,475.4552622,450.0015178,475.5358231Q449.8618782,475.616384,449.729176,475.7079234Q449.5964739,475.7994628,449.4715705,475.9013863Q449.3466673,476.0033102,449.2303729,476.1149569Q449.114079,476.2266035,449.0071485,476.3472483Q448.9002182,476.4678934,448.8033457,476.5967538Q448.7064734,476.7256143,448.6202872,476.8618541Q448.5341015,476.9980941,448.4591613,477.1408291Q448.3842211,477.2835636,448.321013,477.4318676Q448.2578049,477.58017159999997,448.2067387,477.7330818Q448.155673,477.8859921,448.1170809,478.0425162Q448.0784886,478.1990409,448.0526204,478.3581643Q448.0267525,478.5172873,448.0137763,478.6779761Q448.0007999,478.838665,448.0007999,478.9998775Q448.0007999,479.1963458,448.0200572,479.3918676Q448.0393143,479.5873895,448.0776436,479.7800817Q448.1159725,479.972775,448.1730042,480.1607833Q448.2300358,480.3487916,448.3052211,480.530304Q448.3804059,480.7118173,448.4730206,480.8850861Q448.5656347,481.0583553,448.6747868,481.2217121Q448.7839384,481.3850698,448.9085765,481.5369425Q449.0332146,481.6888142,449.1721387,481.8277378Q449.3110626,481.9666624,449.4629345,482.0913Q449.6148062,482.2159386,449.7781637,482.3250895Q449.9415207,482.43424219999997,450.1147902,482.5268564Q450.2880596,482.6194706,450.4695725,482.6946554Q450.6510853,482.7698421,450.8390934,482.8268738Q451.02710176,482.8839054,451.21979481,482.9222336Q451.41248775,482.9605637,451.60800982,482.97982030000003Q451.80353189,482.9990778,452,482.9990778Q452.56671691,482.9990778,453.1111214,482.8416233L453.1113436,482.842392Q473.311644,477,488.630066,477Z"></path></g></g></svg>