<svg height="1024" node-id="1" sillyvg="true" template-height="1024" template-width="1024" version="1.1" viewBox="0 0 1024 1024" width="1024" xmlns="http://www.w3.org/2000/svg" xmlns:xlink="http://www.w3.org/1999/xlink"><defs node-id="49"><clipPath id="master_svg0_2_113" node-id="3"><path d="M 0.00 0.00 L 1024.00 0.00 L 1024.00 1024.00 L 0.00 1024.00 Z" fill="#000000" fill-rule="nonzero" node-id="52" stroke="none" target-height="1024" target-width="1024" target-x="0" target-y="0"/></clipPath><mask height="11637.406" id="master_svg1_2_116" maskUnits="userSpaceOnUse" node-id="5" width="11637.399" x="-5599.246" y="-5135.066"><path d="M -57.41 1097.06 C -160.14 1016.80 -226.77 899.02 -242.66 769.63 C -258.55 640.25 -222.38 509.85 -142.13 407.12 C -61.87 304.40 55.91 237.76 185.30 221.87 C 314.68 205.99 445.08 242.15 547.81 322.41 C 650.53 402.67 717.17 520.44 733.06 649.83 C 748.94 779.22 712.78 909.62 632.52 1012.34 C 552.26 1115.07 434.49 1181.70 305.10 1197.59 C 175.71 1213.48 45.31 1177.31 -57.41 1097.06 Z" fill="#ffffff" fill-rule="nonzero" node-id="58" stroke="none" target-height="1007.4888" target-width="1007.4887" target-x="-258.54675" target-y="205.9878"/></mask><mask height="87.24481" id="master_svg2_2_124" maskUnits="userSpaceOnUse" node-id="8" width="160.9728" x="147.35362" y="428.9536"><path d="M 16.38 288.77 C 7.17 295.56 18.43 337.92 36.86 357.38 C 41.83 362.62 48.52 368.69 55.53 375.05 C 74.51 392.28 95.90 411.69 92.16 422.91 C 87.04 438.27 40.96 427.01 33.79 442.37 C 26.62 457.72 41.98 464.89 58.37 457.73 C 74.75 450.56 140.29 448.51 192.51 467.97 C 227.33 480.94 260.44 503.47 291.84 535.55 L 331.78 480.26 C 319.49 480.26 302.08 474.11 286.72 464.90 C 271.36 455.68 268.29 433.15 264.19 413.70 C 260.10 394.24 257.02 368.64 242.69 368.64 C 228.35 368.64 226.30 382.97 231.42 396.29 C 232.42 398.88 233.89 401.83 235.45 404.97 C 241.89 417.92 249.96 434.13 233.47 442.37 C 212.99 452.61 144.66 433.15 114.31 402.43 C 83.97 371.71 55.30 310.27 47.10 300.03 C 38.91 289.79 25.60 281.98 16.38 288.77 Z" fill="#ffffff" fill-rule="nonzero" node-id="65" stroke="none" target-height="253.57547" target-width="324.60797" target-x="7.168106" target-y="281.9755"/></mask></defs><g clip-path="url(#master_svg0_2_113)" id="sillyvg_g_2" node-id="70"><path d="M 1005.57 512.00 C 1005.57 642.36 953.78 767.38 861.61 859.56 C 769.43 951.74 644.41 1003.52 514.05 1003.52 C 383.69 1003.52 258.67 951.74 166.49 859.56 C 74.31 767.38 22.53 642.36 22.53 512.00 C 22.53 381.64 74.31 256.62 166.49 164.44 C 258.67 72.26 383.69 20.48 514.05 20.48 C 644.41 20.48 769.43 72.26 861.61 164.44 C 953.78 256.62 1005.57 381.64 1005.57 512.00 Z" fill="#e9dbed" fill-rule="nonzero" group-id="1" node-id="74" stroke="none" target-height="983.04004" target-width="983.04" target-x="22.528076" target-y="20.47998"/><path d="M 16.38 288.77 C 7.17 295.56 18.43 337.92 36.86 357.38 C 41.83 362.62 48.52 368.69 55.53 375.05 C 74.51 392.28 95.90 411.69 92.16 422.91 C 87.04 438.27 40.96 427.01 33.79 442.37 C 26.62 457.72 41.98 464.90 58.37 457.73 C 74.75 450.56 140.29 448.51 192.51 467.97 C 227.33 480.94 260.44 503.47 291.84 535.55 L 331.78 480.26 C 319.49 480.26 302.08 474.11 286.72 464.90 C 271.36 455.68 268.29 433.15 264.19 413.70 C 260.10 394.24 257.02 368.64 242.69 368.64 C 228.35 368.64 226.30 382.98 231.42 396.29 C 232.42 398.89 233.89 401.83 235.45 404.97 C 241.90 417.92 249.96 434.13 233.47 442.37 C 212.99 452.61 144.66 433.15 114.31 402.43 C 83.97 371.71 55.30 310.27 47.10 300.03 C 38.91 289.79 25.60 281.98 16.38 288.77 Z" fill="#81cb00" fill-rule="nonzero" group-id="2" node-id="79" stroke="none" target-height="253.57547" target-width="324.608" target-x="7.168152" target-y="281.97623"/><path d="M 160.77 460.80 L 179.20 508.93 L 294.91 460.80 L 278.53 436.22 L 160.77 460.80 Z" fill="#000000" fill-rule="nonzero" group-id="3,14" node-id="86" stroke="none" target-height="72.70401" target-width="134.144" target-x="160.76802" target-y="436.224"/><path d="M 111.45 878.45 C 104.93 919.25 255.51 985.17 563.20 1076.22 C 531.80 893.27 521.22 769.02 531.46 703.49 C 546.82 605.18 676.86 480.26 694.27 440.32 C 711.68 400.38 662.53 354.30 620.54 354.30 C 578.56 354.30 514.05 408.58 482.30 418.82 C 467.69 423.53 421.89 427.01 382.98 447.49 C 344.06 467.97 305.15 486.40 265.22 532.48 C 224.94 549.55 196.61 571.73 180.22 599.04 C 155.65 640.00 153.60 674.82 162.82 685.06 C 172.03 695.30 225.28 679.94 250.88 652.29 C 267.95 633.86 277.16 622.59 278.53 618.50 C 269.65 665.60 256.00 705.54 237.57 738.30 C 209.92 787.46 172.03 808.96 116.74 868.35 C 113.78 871.53 112.02 874.89 111.45 878.45 Z" fill="#82cb00" fill-rule="nonzero" group-id="4" node-id="92" stroke="none" target-height="721.92004" target-width="606.7547" target-x="104.925316" target-y="354.304"/><path d="M 606.63 366.57 C 594.77 370.05 582.15 379.74 584.89 386.55 C 587.62 393.37 602.47 404.21 617.93 398.92 C 637.27 392.44 638.40 372.28 634.79 366.70 C 631.18 361.13 618.50 363.09 606.63 366.57 Z" fill="#000000" fill-rule="nonzero" group-id="5" node-id="97" stroke="none" target-height="43.076843" target-width="56.243225" target-x="582.1547" target-y="361.13034"/><path d="M 450.56 787.46 C 426.55 839.48 421.89 999.42 427.01 1019.90 L 524.29 1032.20 C 516.10 978.95 510.29 929.11 506.88 882.69 C 504.60 851.73 504.35 820.37 504.14 794.55 C 503.88 762.28 503.69 738.64 499.71 735.23 C 494.82 731.04 462.85 760.83 450.56 787.46 Z" fill="#ffffff" fill-rule="nonzero" group-id="6" node-id="102" stroke="none" target-height="301.15778" target-width="102.40018" target-x="421.88797" target-y="731.03754"/><path d="M 182.26 656.71 C 181.32 659.72 184.02 662.58 187.05 661.69 C 209.06 655.16 226.48 644.85 239.31 630.76 C 252.21 616.59 261.39 597.70 266.84 574.10 C 267.54 571.08 264.63 568.47 261.70 569.51 C 240.47 577.07 223.89 587.26 211.97 600.06 C 199.92 613.00 190.02 631.89 182.26 656.71 Z" fill="#000000" fill-rule="nonzero" group-id="7" node-id="107" stroke="none" target-height="94.11536" target-width="86.21896" target-x="181.32385" target-y="568.4676"/><path d="M 381.26 526.76 C 393.70 543.87 391.53 566.64 376.44 577.61 C 361.34 588.58 339.02 583.60 326.59 566.49 C 314.15 549.37 316.32 526.61 331.41 515.64 C 346.51 504.67 368.83 509.65 381.26 526.76 Z" fill="#ffffff" fill-rule="nonzero" group-id="8,15,17" node-id="116" stroke="none" target-height="83.90637" target-width="79.54138" target-x="314.15488" target-y="504.67053"/><path d="M 376.08 534.77 C 381.93 542.83 380.96 553.50 373.91 558.62 C 366.87 563.74 356.41 561.36 350.56 553.31 C 344.71 545.26 345.68 534.58 352.73 529.46 C 359.77 524.34 370.23 526.72 376.08 534.77 Z" fill="#000000" fill-rule="nonzero" group-id="8,15,18" node-id="121" stroke="none" target-height="39.399292" target-width="37.216797" target-x="344.7112" target-y="524.34204"/><path d="M 463.93 477.41 C 476.36 494.52 474.20 517.28 459.10 528.25 C 444.00 539.22 421.69 534.24 409.25 517.13 C 396.82 500.02 398.98 477.26 414.08 466.29 C 429.18 455.32 451.50 460.30 463.93 477.41 Z" fill="#ffffff" fill-rule="nonzero" group-id="8,16,19" node-id="129" stroke="none" target-height="83.90634" target-width="79.54132" target-x="396.8203" target-y="455.31668"/><path d="M 458.00 481.53 C 463.85 489.58 462.88 500.26 455.83 505.37 C 448.79 510.49 438.33 508.12 432.48 500.06 C 426.63 492.01 427.60 481.33 434.65 476.21 C 441.69 471.09 452.15 473.47 458.00 481.53 Z" fill="#000000" fill-rule="nonzero" group-id="8,16,20" node-id="134" stroke="none" target-height="39.399292" target-width="37.216736" target-x="426.63177" target-y="471.09448"/><path d="M 560.53 470.51 C 531.86 490.99 529.77 526.83 549.76 539.11 C 569.75 551.40 587.06 541.21 602.47 525.31 C 604.87 522.83 607.15 520.57 609.27 518.46 C 620.75 507.03 627.64 500.17 625.04 488.94 C 621.97 475.63 589.20 450.03 560.53 470.51 Z" fill="#000000" fill-rule="nonzero" group-id="9" node-id="141" stroke="none" target-height="101.37317" target-width="97.871216" target-x="529.7663" target-y="450.02924"/><path d="M 218.11 321.54 C 218.11 334.51 236.20 342.36 272.38 345.09 C 273.07 360.11 277.85 379.90 286.72 404.48 C 295.59 429.06 313.00 454.66 338.94 481.28 L 387.07 452.61 C 354.99 448.51 332.46 433.83 319.49 408.58 C 300.03 370.69 296.96 333.82 296.96 302.08 C 296.96 289.24 300.64 273.39 304.09 258.59 C 309.15 236.79 313.69 217.26 305.15 212.99 C 290.82 205.82 281.60 220.16 276.48 237.57 C 271.36 254.98 269.31 312.32 269.31 316.42 C 269.31 320.51 258.05 317.44 247.81 312.32 C 237.57 307.20 218.11 302.08 218.11 321.54 Z" fill="#81cb00" fill-rule="nonzero" group-id="10" node-id="146" stroke="none" target-height="275.4549" target-width="168.96002" target-x="218.11206" target-y="205.82463"/><path d="M 728.32 193.73 C 717.26 203.41 718.64 222.76 728.32 230.50 C 734.77 235.66 743.15 236.54 753.48 233.14 C 744.07 239.12 742.14 247.51 747.67 258.30 C 755.97 274.48 782.51 269.91 789.69 261.47 C 794.48 255.84 796.60 250.91 796.05 246.68 C 798.26 253.96 804.53 258.47 814.85 260.23 C 830.33 262.87 841.95 247.92 840.01 236.31 C 838.72 228.56 833.75 222.99 825.08 219.59 C 832.83 218.48 838.45 213.08 841.95 203.40 C 847.20 188.89 834.20 172.44 822.59 170.50 C 814.85 169.21 806.01 172.67 796.05 180.88 C 789.23 164.93 783.24 156.31 778.08 155.02 C 770.34 153.09 755.41 153.08 749.05 162.76 C 744.81 169.21 746.93 178.48 755.41 190.56 C 744.72 186.22 735.69 187.28 728.32 193.73 Z" fill="#fb7a83" fill-rule="nonzero" group-id="11" node-id="151" stroke="none" target-height="121.39906" target-width="129.93286" target-x="717.263" target-y="153.08302"/><path d="M 794.62 210.94 C 794.62 214.20 793.33 217.33 791.03 219.63 C 788.72 221.94 785.60 223.23 782.34 223.23 C 779.08 223.23 775.95 221.94 773.65 219.63 C 771.34 217.33 770.05 214.20 770.05 210.94 C 770.05 207.69 771.34 204.56 773.65 202.26 C 775.95 199.95 779.08 198.66 782.34 198.66 C 785.60 198.66 788.72 199.95 791.03 202.26 C 793.33 204.56 794.62 207.69 794.62 210.94 Z" fill="#ffffff" fill-rule="nonzero" group-id="12" node-id="156" stroke="none" target-height="24.575989" target-width="24.57605" target-x="770.0481" target-y="198.656"/><path d="M 273.41 642.05 C 285.01 627.03 292.86 609.62 296.96 589.82 C 294.23 595.29 288.09 604.84 278.53 618.50 L 273.41 642.05 Z" fill="#000000" fill-rule="nonzero" group-id="13" node-id="161" stroke="none" target-height="52.224" target-width="23.552002" target-x="273.40796" target-y="589.824"/></g></svg>