<svg height="1024" node-id="1" sillyvg="true" template-height="1024" template-width="1024" version="1.1" viewBox="0 0 1024 1024" width="1024" xmlns="http://www.w3.org/2000/svg" xmlns:xlink="http://www.w3.org/1999/xlink"><defs node-id="43"><clipPath id="master_svg0_2_93" node-id="3"><path d="M 0.00 0.00 L 1024.00 0.00 L 1024.00 1024.00 L 0.00 1024.00 Z" fill="#000000" fill-rule="nonzero" node-id="46" stroke="none" target-height="1024" target-width="1024" target-x="0" target-y="0"/></clipPath><mask height="12957.569" id="master_svg1_2_94" maskUnits="userSpaceOnUse" node-id="5" width="12957.585" x="-5966.2793" y="-5793.1157"><path d="M 246.31 269.66 C 362.46 210.48 497.36 199.86 621.34 240.15 C 745.32 280.43 848.22 368.31 907.40 484.46 C 966.58 600.61 977.20 735.52 936.92 859.50 C 896.63 983.48 808.75 1086.38 692.60 1145.56 C 576.45 1204.74 441.54 1215.36 317.56 1175.07 C 193.59 1134.79 90.69 1046.91 31.50 930.76 C -27.68 814.60 -38.29 679.70 1.99 555.72 C 42.27 431.74 130.16 328.84 246.31 269.66 Z" fill="#ffffff" fill-rule="nonzero" node-id="52" stroke="none" target-height="1015.49536" target-width="1015.49536" target-x="-38.29448" target-y="199.86194"/></mask><mask height="433.81833" id="master_svg2_2_001" maskUnits="userSpaceOnUse" node-id="8" width="502.72803" x="178.63957" y="314.87045"><path d="M 77.82 798.62 C 77.82 848.79 193.54 909.21 204.80 945.05 C 216.06 980.89 223.74 1085.44 236.54 1091.58 C 249.34 1097.73 318.77 1103.23 328.70 1096.60 C 337.92 1090.46 336.90 1004.44 361.47 1004.44 L 415.74 1004.44 C 434.84 1004.44 454.66 1084.42 477.18 1096.60 C 488.89 1102.93 568.32 1103.24 568.32 1077.25 C 568.32 1047.55 543.74 1020.93 534.53 962.56 C 525.31 904.19 537.07 870.48 545.79 845.72 C 553.18 824.74 574.15 827.72 593.62 830.49 C 609.21 832.71 623.84 834.79 629.76 824.32 C 645.92 795.73 601.72 775.65 569.14 777.14 C 565.12 777.33 562.41 772.46 565.77 770.25 C 580.18 760.76 596.31 764.19 610.12 767.13 C 622.68 769.80 633.32 772.06 638.98 763.80 C 650.98 746.26 633.84 711.46 578.13 718.22 C 573.01 718.84 568.31 714.90 568.75 709.77 C 570.58 688.23 578.29 665.62 591.87 641.95 C 606.56 616.34 625.27 591.56 648.00 567.59 C 656.05 559.09 662.53 548.89 663.91 537.26 C 665.06 527.58 664.94 518.10 663.55 508.82 C 662.12 499.26 658.92 489.90 653.95 480.76 C 648.33 470.44 638.37 463.57 627.46 459.23 C 610.33 452.40 593.01 445.38 575.49 438.17 C 552.28 428.61 530.77 403.35 510.98 362.39 L 511.62 362.27 C 542.14 356.16 573.39 349.91 557.06 329.63 C 523.26 287.64 472.06 294.30 457.73 305.05 C 441.27 317.40 435.44 337.08 440.24 364.12 C 441.61 371.80 437.42 379.56 429.96 381.82 L 356.43 404.11 C 348.59 406.48 340.39 401.86 338.18 393.97 C 325.66 349.35 312.00 326.66 297.19 325.89 C 295.43 325.80 293.64 326.02 291.84 326.55 C 268.86 333.36 251.90 373.66 256.00 438.17 C 258.05 470.43 253.41 574.14 241.66 678.81 C 235.60 732.82 226.87 781.04 215.47 823.48 C 211.27 839.11 193.45 846.85 181.20 836.27 C 145.98 805.87 135.78 755.90 147.99 686.90 C 148.58 683.57 145.13 680.99 142.22 682.71 C 121.82 694.75 111.62 711.20 111.62 732.06 C 108.59 730.33 105.16 728.06 101.32 725.24 C 97.45 722.39 91.86 723.26 90.26 727.79 C 84.91 742.86 86.23 765.79 94.21 796.57 C 86.02 794.52 80.55 795.20 77.82 798.62 Z" fill="#ffffff" fill-rule="nonzero" node-id="59" stroke="none" target-height="815.5987" target-width="587.23474" target-x="77.82373" target-y="287.6419"/></mask></defs><g clip-path="url(#master_svg0_2_93)" id="sillyvg_g_2" node-id="64"><path d="M 1005.57 512.00 C 1005.57 642.36 953.78 767.38 861.61 859.56 C 769.43 951.74 644.41 1003.52 514.05 1003.52 C 383.69 1003.52 258.67 951.74 166.49 859.56 C 74.31 767.38 22.53 642.36 22.53 512.00 C 22.53 381.64 74.31 256.62 166.49 164.44 C 258.67 72.26 383.69 20.48 514.05 20.48 C 644.41 20.48 769.43 72.26 861.61 164.44 C 953.78 256.62 1005.57 381.64 1005.57 512.00 Z" fill="#eae3d4" fill-rule="nonzero" group-id="1" node-id="68" stroke="none" target-height="983.04004" target-width="983.04004" target-x="22.527954" target-y="20.47998"/><path d="M 77.82 798.62 C 77.82 848.79 193.54 909.21 204.80 945.05 C 216.06 980.89 223.74 1085.44 236.54 1091.58 C 249.34 1097.73 318.77 1103.23 328.70 1096.60 C 337.92 1090.46 336.90 1004.44 361.47 1004.44 L 415.74 1004.44 C 434.84 1004.44 454.66 1084.42 477.18 1096.60 C 488.89 1102.93 575.49 1103.24 575.49 1077.25 C 575.49 1047.55 569.20 1026.26 559.98 967.89 C 558.52 958.65 557.07 949.88 555.69 941.57 C 548.37 897.35 543.17 865.97 550.51 845.13 C 557.90 824.16 577.39 827.31 595.55 830.24 C 610.12 832.59 623.83 834.80 629.76 824.32 C 645.92 795.73 601.72 775.65 569.14 777.14 C 565.12 777.33 562.41 772.46 565.77 770.25 C 580.18 760.76 596.31 764.19 610.12 767.13 C 622.68 769.80 633.32 772.06 638.98 763.80 C 650.98 746.26 633.84 711.46 578.13 718.22 C 573.01 718.84 568.31 714.90 568.75 709.77 C 570.58 688.23 578.29 665.62 591.87 641.95 C 606.56 616.34 625.27 591.56 648.00 567.59 C 656.05 559.09 662.53 548.89 663.91 537.26 C 665.06 527.58 664.94 518.10 663.55 508.82 C 662.12 499.26 658.92 489.90 653.95 480.76 C 648.33 470.44 638.37 463.57 627.46 459.23 C 610.33 452.40 593.01 445.38 575.49 438.17 C 552.28 428.61 530.77 403.35 510.98 362.39 L 511.62 362.27 C 542.14 356.16 573.39 349.91 557.06 329.63 C 523.26 287.64 472.06 294.30 457.73 305.05 C 441.27 317.40 435.44 337.08 440.24 364.12 C 441.61 371.80 437.42 379.56 429.96 381.82 L 356.43 404.11 C 348.59 406.48 340.39 401.86 338.18 393.97 C 325.66 349.35 312.00 326.66 297.19 325.89 C 295.43 325.80 293.64 326.02 291.84 326.55 C 268.86 333.36 251.90 373.66 256.00 438.17 C 258.05 470.43 253.41 574.14 241.66 678.81 C 235.60 732.82 226.87 781.04 215.47 823.48 C 211.27 839.11 193.45 846.85 181.20 836.27 C 145.98 805.87 135.78 755.90 147.99 686.90 C 148.58 683.57 145.13 680.99 142.22 682.71 C 121.82 694.75 111.62 711.20 111.62 732.06 C 108.59 730.33 105.16 728.06 101.32 725.24 C 97.45 722.39 91.86 723.26 90.26 727.79 C 84.91 742.86 86.23 765.79 94.21 796.57 C 86.02 794.52 80.55 795.20 77.82 798.62 Z" fill="#0052df" fill-rule="nonzero" group-id="2" node-id="73" stroke="none" target-height="815.5987" target-width="587.23474" target-x="77.82373" target-y="287.6419"/><path d="M 221.60 668.73 C 283.62 683.09 346.28 691.95 409.60 695.30 C 472.92 698.64 536.64 698.64 600.78 695.30 L 600.77 672.32 C 537.29 674.99 474.17 673.58 411.40 668.09 C 348.64 662.60 286.23 653.03 224.17 639.38 L 221.60 668.73 Z" fill="#000000" fill-rule="nonzero" group-id="3,7" node-id="80" stroke="none" target-height="59.267273" target-width="379.17072" target-x="221.60454" target-y="639.3759"/><path d="M 221.60 662.58 C 283.66 676.24 346.07 685.81 408.83 691.30 C 471.60 696.79 534.73 698.20 598.21 695.53 L 600.77 666.18 C 537.29 668.85 474.17 667.44 411.40 661.95 C 348.64 656.46 286.23 646.88 224.17 633.23 L 221.60 662.58 Z" fill="#c54b22" fill-rule="nonzero" group-id="3,8" node-id="85" stroke="none" target-height="64.96979" target-width="379.17017" target-x="221.60454" target-y="633.232"/><path d="M 277.37 416.82 C 276.90 422.62 282.52 427.04 288.04 425.20 L 315.20 416.15 C 319.33 414.77 321.67 410.41 320.47 406.23 C 309.76 368.76 300.86 350.37 293.77 351.04 C 293.46 351.07 293.16 351.13 292.86 351.23 C 285.85 353.57 280.68 375.43 277.37 416.82 Z" fill="#000000" fill-rule="nonzero" group-id="3,9" node-id="90" stroke="none" target-height="76.674774" target-width="44.761566" target-x="276.90414" target-y="350.36688"/><path d="M 458.75 363.52 C 476.50 367.62 495.35 370.12 515.31 371.02 L 510.99 362.38 C 486.41 365.19 468.99 365.57 458.75 363.52 Z" fill="#000000" fill-rule="nonzero" group-id="3,10" node-id="95" stroke="none" target-height="8.636017" target-width="56.554993" target-x="458.75195" target-y="362.38098"/><path d="M 610.96 478.78 C 598.69 480.36 584.72 487.96 586.36 495.12 C 587.99 502.28 600.96 515.31 617.05 512.51 C 637.17 509.13 641.44 489.40 638.75 483.32 C 636.06 477.25 623.22 477.20 610.96 478.78 Z" fill="#000000" fill-rule="nonzero" group-id="3,11" node-id="100" stroke="none" target-height="38.10486" target-width="56.717346" target-x="584.72253" target-y="477.2041"/><path d="M 798.92 291.97 C 799.15 291.77 799.37 291.58 799.58 291.37 C 799.87 291.10 800.15 290.83 800.43 290.54 C 800.70 290.26 800.97 289.97 801.23 289.67 C 801.49 289.38 801.75 289.08 801.99 288.77 C 802.24 288.46 802.48 288.14 802.71 287.82 C 802.94 287.50 803.16 287.18 803.38 286.84 C 803.59 286.51 803.80 286.18 804.00 285.84 C 804.20 285.49 804.39 285.15 804.57 284.80 C 804.75 284.45 804.92 284.09 805.08 283.73 C 805.25 283.37 805.40 283.01 805.55 282.64 C 805.69 282.27 805.83 281.90 805.96 281.53 C 806.09 281.16 806.21 280.78 806.32 280.40 C 806.42 280.02 806.52 279.64 806.61 279.25 C 806.71 278.87 806.79 278.48 806.86 278.10 C 806.93 277.71 806.99 277.32 807.04 276.93 C 807.10 276.53 807.14 276.14 807.17 275.75 C 807.21 275.35 807.23 274.96 807.24 274.57 C 807.26 274.17 807.26 273.78 807.25 273.38 C 807.25 272.99 807.23 272.59 807.21 272.20 C 807.18 271.80 807.15 271.41 807.11 271.02 C 807.06 270.63 807.01 270.23 806.94 269.84 C 806.88 269.45 806.81 269.07 806.72 268.68 C 806.64 268.29 806.55 267.91 806.45 267.53 C 806.35 267.15 806.24 266.77 806.12 266.39 C 806.00 266.02 805.87 265.64 805.73 265.27 C 805.59 264.90 805.44 264.54 805.29 264.17 C 805.13 263.81 804.97 263.45 804.79 263.10 C 804.62 262.74 804.44 262.39 804.24 262.05 C 804.05 261.70 803.85 261.36 803.65 261.02 C 803.44 260.69 803.22 260.36 803.00 260.03 C 802.77 259.71 802.54 259.39 802.30 259.07 C 802.06 258.76 801.82 258.45 801.56 258.15 C 801.31 257.85 801.04 257.55 800.77 257.27 C 800.50 256.98 800.23 256.69 799.95 256.42 C 799.66 256.14 799.37 255.88 799.08 255.61 C 798.78 255.35 798.48 255.10 798.17 254.85 C 797.86 254.61 797.54 254.37 797.22 254.14 C 796.90 253.91 796.58 253.68 796.25 253.47 C 795.91 253.26 795.58 253.05 795.24 252.85 C 794.89 252.65 794.55 252.46 794.20 252.28 C 793.85 252.10 793.49 251.93 793.13 251.76 C 792.77 251.60 792.41 251.45 792.04 251.30 C 791.68 251.15 791.31 251.02 790.93 250.89 C 790.56 250.76 790.18 250.64 789.80 250.53 C 789.42 250.42 789.04 250.32 788.66 250.23 C 788.27 250.14 787.89 250.06 787.50 249.99 C 787.11 249.92 786.72 249.86 786.33 249.80 C 785.94 249.75 785.54 249.71 785.15 249.68 C 784.76 249.64 784.36 249.62 783.97 249.61 C 783.57 249.59 783.18 249.59 782.78 249.59 C 782.39 249.60 781.99 249.61 781.60 249.64 C 781.20 249.66 780.81 249.70 780.42 249.74 C 780.03 249.79 779.64 249.84 779.25 249.90 C 778.86 249.97 778.47 250.04 778.08 250.12 C 777.70 250.21 777.31 250.30 776.93 250.40 C 776.55 250.50 776.17 250.61 775.79 250.73 C 775.42 250.85 775.04 250.98 774.67 251.12 C 774.30 251.26 773.94 251.40 773.57 251.56 C 773.21 251.72 772.85 251.88 772.50 252.06 C 772.14 252.23 771.79 252.41 771.45 252.60 C 771.10 252.80 770.76 252.99 770.43 253.20 C 770.09 253.41 769.76 253.63 769.43 253.85 C 769.11 254.07 768.79 254.31 768.48 254.55 C 768.16 254.79 767.85 255.03 767.55 255.29 C 767.25 255.54 766.96 255.80 766.67 256.07 C 766.17 256.54 765.70 257.02 765.24 257.52 C 764.79 258.02 764.36 258.54 763.95 259.07 C 763.54 259.61 763.15 260.17 762.79 260.74 C 762.42 261.31 762.08 261.89 761.77 262.49 C 761.45 263.09 761.16 263.70 760.90 264.32 C 760.64 264.94 760.40 265.58 760.19 266.22 C 759.98 266.86 759.80 267.51 759.64 268.17 C 759.48 268.83 759.36 269.49 759.26 270.16 C 758.58 270.21 757.91 270.29 757.25 270.40 C 756.58 270.51 755.92 270.65 755.26 270.81 C 754.60 270.98 753.96 271.17 753.32 271.39 C 752.68 271.61 752.05 271.86 751.43 272.13 C 750.81 272.40 750.20 272.70 749.61 273.02 C 749.02 273.34 748.44 273.69 747.87 274.06 C 747.31 274.44 746.76 274.83 746.23 275.25 C 745.70 275.67 745.18 276.11 744.69 276.57 C 744.40 276.84 744.12 277.11 743.84 277.40 C 743.57 277.68 743.30 277.97 743.04 278.27 C 742.78 278.56 742.52 278.87 742.28 279.17 C 742.03 279.48 741.79 279.80 741.56 280.12 C 741.33 280.44 741.11 280.76 740.89 281.10 C 740.68 281.43 740.47 281.76 740.27 282.11 C 740.08 282.45 739.89 282.79 739.71 283.14 C 739.52 283.50 739.35 283.85 739.19 284.21 C 739.02 284.57 738.87 284.93 738.72 285.30 C 738.58 285.67 738.44 286.04 738.31 286.41 C 738.19 286.78 738.07 287.16 737.96 287.54 C 737.85 287.92 737.75 288.30 737.66 288.69 C 737.57 289.07 737.49 289.46 737.41 289.85 C 737.34 290.23 737.28 290.62 737.23 291.02 C 737.18 291.41 737.13 291.80 737.10 292.19 C 737.07 292.59 737.04 292.98 737.03 293.38 C 737.02 293.77 737.01 294.16 737.02 294.56 C 737.02 294.95 737.04 295.35 737.06 295.74 C 737.09 296.14 737.12 296.53 737.17 296.92 C 737.21 297.32 737.27 297.71 737.33 298.10 C 737.39 298.49 737.47 298.87 737.55 299.26 C 737.63 299.65 737.72 300.03 737.82 300.41 C 737.93 300.79 738.04 301.17 738.16 301.55 C 738.28 301.93 738.41 302.30 738.54 302.67 C 738.68 303.04 738.83 303.41 738.99 303.77 C 739.14 304.13 739.31 304.49 739.48 304.84 C 739.65 305.20 739.84 305.55 740.03 305.89 C 740.22 306.24 740.42 306.58 740.63 306.92 C 740.83 307.25 741.05 307.58 741.27 307.91 C 741.50 308.23 741.73 308.55 741.97 308.87 C 742.21 309.18 742.46 309.49 742.71 309.79 C 742.97 310.09 743.23 310.39 743.50 310.68 C 743.77 310.96 744.04 311.25 744.33 311.52 C 744.61 311.80 744.90 312.07 745.20 312.33 C 745.49 312.59 745.80 312.84 746.10 313.09 C 746.41 313.33 746.73 313.57 747.05 313.80 C 747.37 314.03 747.69 314.26 748.03 314.47 C 748.36 314.69 748.69 314.89 749.04 315.09 C 749.38 315.29 749.72 315.48 750.07 315.66 C 750.43 315.84 750.78 316.01 751.14 316.18 C 751.50 316.34 751.86 316.50 752.23 316.64 C 752.60 316.79 752.97 316.92 753.34 317.05 C 753.71 317.18 754.09 317.30 754.47 317.41 C 754.85 317.52 755.23 317.62 755.62 317.71 C 756.00 317.80 756.39 317.88 756.78 317.95 C 757.16 318.02 757.55 318.08 757.95 318.14 C 758.34 318.19 758.73 318.23 759.12 318.26 C 759.52 318.30 759.91 318.32 760.31 318.34 C 760.70 318.35 761.09 318.35 761.49 318.35 C 761.88 318.34 762.28 318.33 762.67 318.30 C 763.07 318.28 763.46 318.24 763.85 318.20 C 764.25 318.15 764.64 318.10 765.03 318.04 C 765.42 317.97 765.80 317.90 766.19 317.82 C 766.58 317.73 766.96 317.64 767.34 317.54 C 767.72 317.44 768.10 317.33 768.48 317.21 C 768.86 317.09 769.23 316.96 769.60 316.82 C 769.97 316.68 770.34 316.54 770.70 316.38 C 771.06 316.22 771.42 316.06 771.77 315.88 C 772.13 315.71 772.48 315.53 772.82 315.34 C 773.17 315.15 773.51 314.95 773.85 314.74 C 774.18 314.53 774.51 314.31 774.84 314.09 C 775.16 313.87 775.48 313.63 775.80 313.39 C 776.11 313.16 776.42 312.91 776.72 312.65 C 777.02 312.40 777.32 312.14 777.61 311.87 C 778.18 311.33 778.73 310.77 779.24 310.18 L 825.31 359.58 C 824.68 360.05 824.09 360.56 823.51 361.09 C 823.22 361.36 822.94 361.64 822.67 361.92 C 822.39 362.21 822.12 362.50 821.86 362.79 C 821.60 363.09 821.35 363.39 821.10 363.70 C 820.85 364.01 820.62 364.32 820.38 364.64 C 820.15 364.97 819.93 365.29 819.72 365.62 C 819.50 365.95 819.30 366.29 819.10 366.63 C 818.90 366.97 818.71 367.32 818.53 367.67 C 818.35 368.02 818.17 368.38 818.01 368.74 C 817.85 369.10 817.69 369.46 817.55 369.83 C 817.40 370.19 817.26 370.56 817.14 370.94 C 817.01 371.31 816.89 371.69 816.78 372.07 C 816.67 372.45 816.57 372.83 816.48 373.21 C 816.39 373.60 816.31 373.98 816.24 374.37 C 816.17 374.76 816.10 375.15 816.05 375.54 C 816.00 375.93 815.96 376.33 815.92 376.72 C 815.89 377.11 815.87 377.51 815.85 377.90 C 815.84 378.30 815.83 378.69 815.84 379.09 C 815.85 379.48 815.86 379.88 815.89 380.27 C 815.91 380.66 815.95 381.06 815.99 381.45 C 816.03 381.84 816.09 382.23 816.15 382.62 C 816.21 383.01 816.29 383.40 816.37 383.79 C 816.45 384.17 816.54 384.56 816.65 384.94 C 816.75 385.32 816.86 385.70 816.98 386.08 C 817.10 386.45 817.23 386.83 817.37 387.20 C 817.50 387.57 817.65 387.93 817.81 388.29 C 817.96 388.66 818.13 389.02 818.30 389.37 C 818.48 389.72 818.66 390.08 818.85 390.42 C 819.04 390.77 819.24 391.11 819.45 391.44 C 819.66 391.78 819.87 392.11 820.10 392.43 C 820.32 392.76 820.55 393.08 820.79 393.39 C 821.03 393.71 821.28 394.01 821.53 394.32 C 821.79 394.62 822.05 394.91 822.32 395.20 C 822.59 395.49 822.87 395.77 823.15 396.05 C 823.43 396.32 823.72 396.59 824.02 396.85 C 824.32 397.11 824.62 397.37 824.93 397.61 C 825.24 397.86 825.55 398.10 825.87 398.33 C 826.19 398.56 826.52 398.78 826.85 399.00 C 827.18 399.21 827.52 399.42 827.86 399.62 C 828.20 399.82 828.55 400.00 828.90 400.19 C 829.25 400.37 829.60 400.54 829.96 400.70 C 830.32 400.87 830.68 401.02 831.05 401.17 C 831.42 401.31 831.79 401.45 832.16 401.58 C 832.54 401.71 832.91 401.83 833.29 401.93 C 833.67 402.04 834.05 402.14 834.44 402.23 C 834.82 402.32 835.21 402.41 835.60 402.48 C 835.99 402.55 836.38 402.61 836.77 402.66 C 837.16 402.72 837.55 402.76 837.95 402.79 C 838.34 402.82 838.73 402.85 839.13 402.86 C 839.52 402.88 839.92 402.88 840.31 402.87 C 840.71 402.87 841.10 402.85 841.50 402.83 C 841.89 402.80 842.28 402.77 842.68 402.72 C 843.07 402.68 843.46 402.63 843.85 402.56 C 844.24 402.50 844.63 402.43 845.01 402.34 C 845.40 402.26 845.78 402.17 846.16 402.07 C 846.55 401.97 846.93 401.86 847.30 401.74 C 847.68 401.62 848.05 401.49 848.42 401.35 C 848.79 401.21 849.16 401.06 849.52 400.91 C 849.88 400.75 850.24 400.58 850.60 400.41 C 850.95 400.24 851.30 400.05 851.65 399.86 C 851.99 399.67 852.33 399.47 852.67 399.27 C 853.00 399.06 853.33 398.84 853.66 398.62 C 853.99 398.39 854.31 398.16 854.62 397.92 C 854.93 397.68 855.24 397.43 855.54 397.18 C 855.84 396.92 856.14 396.66 856.43 396.39 C 856.92 395.93 857.40 395.45 857.85 394.95 C 858.31 394.45 858.74 393.93 859.15 393.39 C 859.56 392.86 859.95 392.30 860.31 391.73 C 860.67 391.16 861.01 390.58 861.33 389.98 C 861.64 389.38 861.93 388.77 862.19 388.15 C 862.46 387.52 862.70 386.89 862.91 386.25 C 863.12 385.61 863.30 384.96 863.45 384.30 C 863.61 383.64 863.74 382.98 863.84 382.31 C 864.51 382.26 865.18 382.17 865.85 382.06 C 866.52 381.96 867.18 381.82 867.83 381.65 C 868.49 381.49 869.14 381.30 869.78 381.08 C 870.42 380.86 871.05 380.61 871.67 380.34 C 872.28 380.07 872.89 379.77 873.48 379.45 C 874.08 379.12 874.66 378.77 875.22 378.40 C 875.79 378.03 876.33 377.64 876.87 377.22 C 877.40 376.80 877.91 376.36 878.41 375.90 C 878.69 375.63 878.98 375.35 879.25 375.07 C 879.53 374.79 879.79 374.50 880.06 374.20 C 880.32 373.90 880.57 373.60 880.82 373.29 C 881.06 372.98 881.30 372.67 881.53 372.35 C 881.76 372.03 881.99 371.70 882.20 371.37 C 882.42 371.04 882.62 370.70 882.82 370.36 C 883.02 370.02 883.21 369.67 883.39 369.32 C 883.57 368.97 883.74 368.62 883.91 368.26 C 884.07 367.90 884.23 367.53 884.37 367.17 C 884.52 366.80 884.65 366.43 884.78 366.06 C 884.91 365.68 885.03 365.31 885.14 364.93 C 885.25 364.55 885.35 364.17 885.44 363.78 C 885.53 363.40 885.61 363.01 885.68 362.62 C 885.75 362.23 885.81 361.84 885.87 361.45 C 885.92 361.06 885.96 360.67 885.99 360.27 C 886.03 359.88 886.05 359.49 886.06 359.09 C 886.08 358.70 886.08 358.30 886.08 357.91 C 886.07 357.51 886.06 357.12 886.03 356.72 C 886.01 356.33 885.97 355.94 885.93 355.54 C 885.88 355.15 885.83 354.76 885.77 354.37 C 885.70 353.98 885.63 353.59 885.55 353.21 C 885.46 352.82 885.37 352.44 885.27 352.06 C 885.17 351.67 885.06 351.29 884.94 350.92 C 884.82 350.54 884.69 350.17 884.55 349.80 C 884.41 349.43 884.27 349.06 884.11 348.70 C 883.95 348.34 883.79 347.98 883.61 347.62 C 883.44 347.27 883.26 346.92 883.07 346.57 C 882.88 346.23 882.68 345.89 882.47 345.55 C 882.26 345.22 882.04 344.88 881.82 344.56 C 881.60 344.23 881.36 343.91 881.12 343.60 C 880.88 343.29 880.64 342.98 880.38 342.68 C 880.13 342.38 879.87 342.08 879.60 341.79 C 879.33 341.50 879.05 341.22 878.77 340.95 C 878.48 340.67 878.19 340.40 877.90 340.14 C 877.60 339.88 877.30 339.63 876.99 339.38 C 876.68 339.13 876.37 338.90 876.05 338.66 C 875.73 338.43 875.40 338.21 875.07 338.00 C 874.74 337.78 874.40 337.58 874.06 337.38 C 873.72 337.18 873.37 336.99 873.02 336.81 C 872.67 336.63 872.31 336.45 871.95 336.29 C 871.60 336.13 871.23 335.97 870.87 335.83 C 870.50 335.68 870.13 335.54 869.75 335.42 C 869.38 335.29 869.00 335.17 868.62 335.06 C 868.24 334.95 867.86 334.85 867.48 334.76 C 867.09 334.67 866.71 334.59 866.32 334.52 C 865.93 334.45 865.54 334.38 865.15 334.33 C 864.76 334.28 864.37 334.24 863.97 334.20 C 863.58 334.17 863.18 334.15 862.79 334.13 C 862.39 334.12 862.00 334.11 861.61 334.12 C 861.21 334.13 860.82 334.14 860.42 334.17 C 860.03 334.19 859.63 334.23 859.24 334.27 C 858.85 334.31 858.46 334.37 858.07 334.43 C 857.68 334.50 857.29 334.57 856.90 334.65 C 856.52 334.73 856.13 334.83 855.75 334.93 C 855.37 335.03 854.99 335.14 854.62 335.26 C 854.24 335.38 853.87 335.51 853.50 335.65 C 853.13 335.78 852.76 335.93 852.40 336.09 C 852.03 336.24 851.68 336.41 851.32 336.58 C 850.97 336.76 850.62 336.94 850.27 337.13 C 849.92 337.32 849.58 337.52 849.25 337.73 C 848.91 337.94 848.58 338.15 848.26 338.38 C 847.93 338.60 847.61 338.83 847.30 339.07 C 846.98 339.31 846.68 339.56 846.37 339.81 C 846.07 340.07 845.78 340.33 845.49 340.60 C 845.27 340.80 845.06 341.01 844.85 341.22 L 798.92 291.97 Z" fill="#ffffff" fill-rule="evenodd" group-id="4" node-id="106" stroke="none" target-height="153.29164" target-width="149.0705" target-x="737.0121" target-y="249.5879"/><path d="M 448.37 467.67 C 458.62 486.17 453.70 508.50 437.38 517.55 C 421.05 526.60 399.51 518.94 389.26 500.44 C 379.00 481.94 383.92 459.61 400.24 450.56 C 416.57 441.51 438.11 449.17 448.37 467.67 Z" fill="#ffffff" fill-rule="nonzero" group-id="5,12,14" node-id="115" stroke="none" target-height="85.087524" target-width="79.61896" target-x="379.0008" target-y="441.51007"/><path d="M 450.99 475.54 C 455.81 484.24 453.55 494.72 445.93 498.95 C 438.31 503.17 428.23 499.54 423.40 490.83 C 418.58 482.12 420.84 471.64 428.46 467.42 C 436.07 463.20 446.16 466.83 450.99 475.54 Z" fill="#000000" fill-rule="nonzero" group-id="5,12,15" node-id="120" stroke="none" target-height="39.970215" target-width="37.2359" target-x="418.5752" target-y="463.19928"/><path d="M 536.43 428.76 C 546.68 447.26 541.76 469.59 525.44 478.64 C 509.12 487.69 487.57 480.02 477.32 461.52 C 467.06 443.03 471.98 420.69 488.31 411.65 C 504.63 402.60 526.17 410.26 536.43 428.76 Z" fill="#ffffff" fill-rule="nonzero" group-id="5,13,16" node-id="128" stroke="none" target-height="85.087524" target-width="79.61896" target-x="467.06464" target-y="402.59848"/><path d="M 538.64 433.56 C 543.47 442.26 541.20 452.74 533.58 456.96 C 525.97 461.19 515.88 457.55 511.05 448.85 C 506.23 440.14 508.49 429.66 516.11 425.44 C 523.73 421.22 533.81 424.85 538.64 433.56 Z" fill="#000000" fill-rule="nonzero" group-id="5,13,17" node-id="133" stroke="none" target-height="39.970215" target-width="37.2359" target-x="506.2292" target-y="421.2152"/><path d="M 532.48 947.20 C 537.60 985.09 545.49 1017.84 540.67 1033.22 C 535.85 1048.60 501.94 1033.22 494.59 1033.22 C 479.89 1033.22 479.23 985.95 479.23 939.01 C 479.23 892.07 491.15 854.02 505.86 854.02 C 520.56 854.02 527.36 909.31 532.48 947.20 Z" fill="#ffffff" fill-rule="nonzero" group-id="6" node-id="140" stroke="none" target-height="194.58063" target-width="66.257996" target-x="479.23206" target-y="854.01605"/></g></svg>