<svg height="1500" node-id="1" sillyvg="true" template-height="1500" template-width="1500" version="1.1" viewBox="0 0 1500 1500" width="1500" xmlns="http://www.w3.org/2000/svg" xmlns:xlink="http://www.w3.org/1999/xlink"><defs node-id="103"></defs><g node-id="355"><path d="M 0.00 0.00 L 1500.00 0.00 L 1500.00 1500.00 L 0.00 1500.00 Z" fill="#ffe6c9" fill-rule="nonzero" group-id="1" node-id="109" stroke="none" target-height="1500" target-width="1500" target-x="0" target-y="0"/><g node-id="357"><path d="M 1183.75 503.36 C 1184.67 502.25 1185.50 501.84 1186.24 502.12 C 1186.97 502.40 1187.07 503.27 1186.52 504.74 C 1184.86 508.79 1184.81 511.42 1186.38 512.61 C 1187.94 513.81 1192.04 513.76 1198.67 512.47 C 1202.54 511.74 1206.64 510.54 1210.96 508.88 C 1215.29 507.22 1219.43 505.29 1223.39 503.08 C 1227.35 500.87 1231.13 498.48 1234.72 495.90 C 1238.31 493.32 1241.40 490.75 1243.98 488.16 C 1250.43 481.53 1248.31 478.86 1237.63 480.15 C 1235.60 480.52 1234.45 480.20 1234.18 479.18 C 1233.90 478.17 1234.78 477.29 1236.80 476.55 C 1246.75 473.23 1256.05 472.22 1264.71 473.51 C 1273.37 474.80 1279.81 478.30 1284.05 484.01 C 1286.07 486.77 1287.27 489.81 1287.64 493.13 C 1288.01 496.45 1287.50 499.86 1286.12 503.35 C 1284.74 506.85 1282.48 510.30 1279.35 513.71 C 1276.22 517.12 1272.17 520.11 1267.19 522.69 C 1262.40 525.45 1257.43 527.57 1252.27 529.04 C 1254.30 531.07 1255.49 533.56 1255.86 536.50 C 1256.23 539.45 1255.95 543.32 1255.03 548.10 L 1252.27 564.95 C 1256.69 564.40 1260.97 563.66 1265.12 562.74 C 1269.26 561.82 1273.09 560.81 1276.59 559.70 C 1278.43 559.15 1279.72 559.52 1280.46 560.80 C 1281.57 562.09 1282.48 563.66 1283.22 565.50 C 1284.14 567.53 1284.14 569.28 1283.22 570.75 C 1282.30 572.23 1280.00 573.33 1276.31 574.07 C 1272.62 574.81 1268.53 575.41 1264.02 575.87 C 1259.50 576.33 1254.85 576.75 1250.07 577.11 L 1245.10 607.50 C 1245.47 607.50 1245.83 607.55 1246.21 607.64 C 1246.58 607.74 1246.94 607.78 1247.32 607.78 C 1255.97 608.52 1261.82 611.28 1264.86 616.07 C 1267.90 620.86 1269.05 627.49 1268.31 635.96 C 1267.94 640.20 1267.48 644.62 1266.93 649.22 C 1266.38 653.83 1265.69 658.39 1264.86 662.90 C 1264.03 667.42 1263.15 671.70 1262.23 675.75 C 1261.31 679.80 1260.30 683.49 1259.19 686.80 C 1258.27 688.83 1257.39 690.81 1256.56 692.74 C 1255.73 694.67 1254.76 696.47 1253.66 698.13 C 1255.87 698.50 1257.71 697.81 1259.19 696.06 C 1260.66 694.31 1262.41 690.67 1264.44 685.15 C 1265.55 682.02 1266.69 678.48 1267.89 674.51 C 1269.09 670.55 1270.19 666.55 1271.21 662.49 C 1272.22 658.44 1273.14 654.48 1273.97 650.61 C 1274.80 646.74 1275.49 643.43 1276.04 640.66 C 1276.59 637.53 1276.59 635.78 1276.04 635.41 C 1275.49 635.04 1274.38 635.69 1272.73 637.34 C 1271.44 638.44 1270.52 638.77 1269.97 638.31 C 1269.42 637.85 1269.60 636.89 1270.52 635.41 C 1273.65 629.33 1277.98 625.19 1283.51 622.98 C 1289.04 620.77 1294.47 620.59 1299.81 622.43 C 1303.49 623.72 1306.07 626.07 1307.55 629.48 C 1309.02 632.89 1309.21 637.54 1308.10 643.43 C 1306.62 651.72 1304.37 660.28 1301.33 669.13 C 1298.29 677.97 1295.20 685.62 1292.07 692.06 C 1288.75 698.51 1285.25 703.25 1281.57 706.29 C 1277.88 709.33 1273.74 711.03 1269.14 711.40 C 1261.58 711.95 1255.23 709.00 1250.08 702.56 C 1241.61 711.58 1228.62 714.99 1211.12 712.78 C 1209.09 712.41 1207.20 712.09 1205.46 711.81 C 1203.71 711.53 1201.91 711.12 1200.07 710.57 C 1199.15 714.81 1197.40 717.43 1194.82 718.44 C 1192.24 719.45 1188.83 719.68 1184.60 719.13 C 1180.91 718.76 1177.18 717.84 1173.41 716.37 C 1169.63 714.89 1166.73 713.42 1164.71 711.95 C 1162.13 710.29 1160.38 708.36 1159.46 706.15 C 1158.54 703.94 1158.45 700.99 1159.18 697.31 L 1172.17 629.90 C 1173.83 621.61 1171.80 620.69 1166.09 627.14 C 1165.54 627.88 1164.98 627.97 1164.43 627.42 C 1163.88 626.87 1163.78 626.13 1164.15 625.21 C 1165.07 622.27 1167.09 619.18 1170.23 615.95 C 1173.36 612.73 1177.14 610.10 1181.56 608.08 C 1184.14 606.79 1186.90 605.87 1189.85 605.32 C 1192.79 604.77 1195.83 604.77 1198.97 605.32 C 1199.15 604.77 1199.25 603.94 1199.25 602.83 L 1203.67 578.24 C 1199.98 578.06 1196.58 577.87 1193.45 577.69 C 1190.32 577.51 1187.46 577.23 1184.88 576.86 C 1180.83 576.49 1177.42 575.20 1174.66 572.99 C 1171.90 570.78 1170.42 568.02 1170.24 564.70 C 1169.87 559.55 1172.82 555.03 1179.08 551.16 C 1180.37 550.24 1181.29 549.96 1181.84 550.33 C 1182.39 550.70 1182.12 551.43 1181.01 552.54 C 1177.88 555.49 1176.31 558.34 1176.31 561.10 C 1176.49 562.94 1177.23 564.28 1178.52 565.11 C 1179.81 565.94 1182.85 566.54 1187.64 566.91 C 1190.03 567.28 1192.75 567.51 1195.79 567.60 C 1198.83 567.70 1202.01 567.83 1205.32 568.01 L 1211.40 534.85 L 1206.43 534.85 C 1199.80 534.48 1194.41 533.33 1190.27 531.40 C 1186.13 529.47 1183.13 527.03 1181.29 524.08 C 1179.45 521.14 1178.71 517.86 1179.08 514.27 C 1179.42 510.68 1180.98 507.05 1183.75 503.36 Z M 1191.21 611.11 C 1195.81 611.11 1199.87 612.77 1203.37 616.08 C 1206.87 619.40 1208.99 624.55 1209.72 631.55 C 1210.45 626.58 1210.27 622.48 1209.17 619.25 C 1208.07 616.03 1206.55 613.59 1204.61 611.93 C 1202.68 610.27 1200.47 609.40 1197.98 609.30 C 1195.49 609.23 1193.23 609.83 1191.21 611.11 Z M 1202.26 698.15 C 1206.86 698.33 1210.32 697.36 1212.62 695.25 C 1214.92 693.13 1216.81 689.59 1218.28 684.61 C 1219.39 681.11 1220.40 677.20 1221.32 672.87 C 1222.24 668.54 1223.12 664.08 1223.94 659.47 C 1224.77 654.87 1225.50 650.26 1226.15 645.66 C 1226.79 641.06 1227.30 636.64 1227.67 632.40 C 1228.22 625.95 1225.00 622.82 1218.00 623.01 L 1214.13 623.01 C 1214.13 625.41 1213.85 628.26 1213.30 631.58 C 1212.75 635.63 1212.01 640.33 1211.09 645.67 C 1210.17 651.01 1209.20 656.68 1208.19 662.66 C 1207.18 668.65 1206.16 674.68 1205.15 680.76 C 1204.14 686.82 1203.18 692.62 1202.26 698.15 Z M 1243.42 613.32 C 1245.63 613.32 1247.93 614.11 1250.33 615.67 C 1252.72 617.24 1254.89 619.36 1256.82 622.02 C 1258.75 624.69 1260.27 627.96 1261.38 631.83 C 1262.49 635.70 1262.94 640.03 1262.76 644.82 C 1265.34 633.03 1264.69 624.47 1260.83 619.12 C 1256.96 613.79 1251.16 611.85 1243.42 613.32 Z M 1281.83 541.21 C 1281.46 538.08 1282.29 535.04 1284.32 532.09 C 1286.35 529.15 1289.47 526.94 1293.71 525.46 C 1295.18 524.91 1296.06 524.91 1296.34 525.46 C 1296.62 526.01 1296.02 526.75 1294.54 527.67 C 1292.33 529.15 1290.62 530.80 1289.43 532.64 C 1288.23 534.48 1287.82 536.23 1288.19 537.89 C 1288.74 541.21 1292.79 543.23 1300.35 543.97 L 1314.72 544.80 C 1316.74 540.57 1318.59 536.33 1320.25 532.09 C 1321.91 527.85 1323.38 523.90 1324.67 520.21 C 1326.51 514.87 1326.78 511.19 1325.50 509.16 L 1317.49 508.61 C 1311.78 508.24 1307.40 507.28 1304.37 505.71 C 1301.33 504.15 1299.16 501.98 1297.88 499.22 C 1296.96 496.83 1297.14 493.97 1298.43 490.66 C 1299.72 487.34 1301.74 484.77 1304.51 482.92 C 1306.53 481.82 1307.69 481.40 1307.96 481.68 C 1308.23 481.96 1307.55 483.11 1305.89 485.13 C 1304.97 486.23 1304.19 487.71 1303.54 489.55 C 1302.89 491.39 1302.85 493.05 1303.40 494.52 C 1304.13 496.18 1305.61 497.28 1307.82 497.84 C 1310.03 498.39 1313.80 498.76 1319.15 498.95 C 1325.23 499.14 1331.90 499.09 1339.18 498.81 C 1346.45 498.53 1353.87 498.12 1361.42 497.57 C 1368.97 497.02 1376.34 496.28 1383.52 495.36 C 1390.70 494.44 1397.15 493.34 1402.86 492.04 C 1404.89 491.67 1406.36 491.67 1407.28 492.04 C 1408.20 492.41 1408.94 492.96 1409.49 493.70 C 1410.04 494.62 1410.60 495.50 1411.15 496.32 C 1411.70 497.15 1412.16 497.93 1412.53 498.67 C 1414.00 501.80 1411.79 503.92 1405.90 505.02 C 1400.37 505.94 1394.11 506.68 1387.11 507.23 C 1380.11 507.78 1372.74 508.24 1365.01 508.61 C 1372.93 514.32 1374.49 523.44 1369.71 535.96 C 1368.79 538.72 1367.68 541.40 1366.39 543.97 C 1375.05 543.24 1383.47 542.36 1391.67 541.34 C 1399.86 540.33 1407.46 538.99 1414.46 537.33 C 1416.48 536.96 1417.87 537.33 1418.60 538.43 C 1420.07 540.46 1421.09 542.21 1421.64 543.68 C 1422.74 545.71 1422.74 547.27 1421.64 548.38 C 1420.53 549.49 1418.05 550.41 1414.18 551.14 C 1411.05 551.51 1407.73 551.88 1404.23 552.25 C 1400.73 552.62 1397.14 552.99 1393.45 553.36 C 1394.92 559.44 1396.39 565.52 1397.87 571.59 C 1399.34 577.67 1400.81 582.83 1402.29 587.06 C 1404.31 593.69 1406.80 596.55 1409.75 595.63 C 1412.69 594.71 1415.00 590.38 1416.66 582.64 C 1417.21 580.25 1417.99 579.14 1419.01 579.32 C 1420.02 579.51 1420.43 580.80 1420.25 583.19 C 1419.88 592.03 1417.72 599.45 1413.76 605.43 C 1409.80 611.42 1403.95 615.33 1396.22 617.17 C 1387.93 619.20 1380.79 618.83 1374.81 616.06 C 1368.82 613.30 1364.82 608.42 1362.79 601.42 C 1361.31 596.45 1359.79 591.11 1358.23 585.40 C 1356.66 579.69 1355.23 573.70 1353.95 567.44 C 1349.90 573.89 1345.70 579.87 1341.38 585.40 C 1337.05 590.93 1332.58 595.90 1327.98 600.32 C 1330.01 599.59 1332.12 599.03 1334.33 598.66 C 1336.54 598.29 1338.66 598.29 1340.68 598.66 C 1353.39 600.50 1358.64 610.73 1356.43 629.33 L 1356.43 630.44 C 1359.01 627.31 1361.96 625.15 1365.27 623.95 C 1368.59 622.75 1371.99 622.53 1375.49 623.26 C 1380.09 624.18 1383.04 626.39 1384.33 629.89 L 1384.88 629.34 C 1387.46 626.21 1390.63 623.95 1394.41 622.57 C 1398.18 621.19 1401.73 620.77 1405.05 621.33 C 1413.15 622.81 1416.38 628.42 1414.72 638.18 L 1405.33 692.06 C 1404.96 694.64 1405.14 696.11 1405.88 696.48 C 1406.61 696.85 1407.44 695.83 1408.37 693.44 C 1409.10 691.96 1409.79 690.22 1410.44 688.19 C 1411.08 686.17 1411.59 684.14 1411.96 682.11 C 1412.33 680.08 1412.83 679.17 1413.48 679.35 C 1414.12 679.54 1414.45 680.64 1414.45 682.67 C 1414.45 685.80 1413.90 689.53 1412.79 693.86 C 1411.68 698.19 1410.39 701.55 1408.92 703.94 C 1405.23 709.83 1399.43 712.41 1391.51 711.68 C 1385.25 710.76 1381.47 707.72 1380.18 702.56 C 1378.89 704.95 1377.32 706.89 1375.48 708.36 C 1371.98 711.30 1367.37 712.50 1361.67 711.95 C 1356.88 711.58 1353.42 709.74 1351.31 706.42 C 1349.19 703.10 1348.69 698.50 1349.79 692.61 C 1351.26 683.59 1352.97 674.28 1354.90 664.70 C 1356.83 655.12 1358.53 646.84 1360.01 639.83 C 1360.56 637.07 1360.52 635.46 1359.87 634.99 C 1359.22 634.53 1357.89 634.85 1355.86 635.96 C 1355.67 635.96 1355.58 636.06 1355.58 636.24 C 1354.47 644.90 1353.00 654.20 1351.16 664.15 C 1349.32 674.10 1347.29 683.86 1345.08 693.44 C 1343.05 702.65 1340.52 709.51 1337.48 714.02 C 1334.44 718.53 1330.53 721.80 1325.74 723.83 C 1320.58 725.85 1314.97 726.55 1308.89 725.90 C 1302.81 725.25 1297.93 723.18 1294.25 719.68 C 1290.75 716.55 1289.00 712.26 1289.00 706.83 C 1289.00 701.40 1290.47 696.37 1293.42 691.77 C 1294.89 689.19 1296.05 688.14 1296.87 688.59 C 1297.70 689.05 1297.56 690.66 1296.46 693.42 C 1294.98 696.55 1294.20 699.08 1294.11 701.02 C 1294.01 702.95 1294.15 704.20 1294.52 704.75 C 1295.25 705.67 1296.41 704.75 1297.97 701.99 C 1299.53 699.23 1301.24 693.88 1303.08 685.97 C 1304.00 681.37 1305.01 676.39 1306.12 671.05 C 1307.23 665.71 1308.28 660.28 1309.30 654.75 C 1310.31 649.22 1311.23 643.79 1312.06 638.45 C 1312.89 633.11 1313.58 628.32 1314.13 624.08 C 1315.05 618.55 1313.12 617.63 1308.33 621.32 C 1306.67 622.61 1305.47 622.98 1304.74 622.42 C 1304.00 621.87 1304.37 620.58 1305.84 618.55 C 1307.31 616.16 1308.78 614.22 1310.26 612.75 C 1304.36 615.33 1298.66 616.67 1293.13 616.76 C 1287.60 616.86 1282.63 615.89 1278.21 613.86 C 1275.08 612.39 1272.50 610.45 1270.47 608.06 C 1268.44 605.67 1267.06 603.04 1266.33 600.19 C 1265.59 597.34 1265.54 594.30 1266.19 591.07 C 1266.83 587.85 1268.26 584.76 1270.47 581.81 C 1271.94 579.97 1273.10 579.28 1273.92 579.74 C 1274.75 580.20 1274.70 581.45 1273.78 583.47 C 1271.75 587.52 1270.88 590.70 1271.16 593.00 C 1271.44 595.31 1272.40 596.64 1274.06 597.01 C 1275.90 597.56 1278.34 596.87 1281.38 594.94 C 1284.42 593.01 1287.78 589.65 1291.47 584.86 C 1297.73 576.02 1303.81 565.98 1309.70 554.74 C 1307.67 554.56 1305.65 554.42 1303.62 554.33 C 1301.59 554.24 1299.66 554.01 1297.82 553.64 C 1292.48 553.09 1288.56 551.62 1286.08 549.22 C 1283.63 546.83 1282.20 544.16 1281.83 541.21 Z M 1271.05 481.81 C 1272.89 482.73 1274.46 484.21 1275.75 486.23 C 1277.04 488.26 1277.87 490.56 1278.24 493.14 C 1278.61 495.72 1278.56 498.53 1278.10 501.57 C 1277.64 504.61 1276.76 507.61 1275.47 510.55 C 1278.41 507.05 1280.40 503.64 1281.41 500.33 C 1282.42 497.01 1282.61 494.02 1281.96 491.35 C 1281.31 488.68 1280.03 486.51 1278.09 484.86 C 1276.17 483.19 1273.82 482.18 1271.05 481.81 Z M 1299.79 656.98 C 1301.81 652.74 1303.24 648.69 1304.07 644.82 C 1304.90 640.95 1304.99 637.55 1304.35 634.60 C 1303.70 631.66 1302.37 629.31 1300.34 627.55 C 1298.31 625.80 1295.55 624.93 1292.05 624.93 C 1296.84 626.96 1299.69 630.83 1300.61 636.53 C 1301.54 642.24 1301.26 649.06 1299.79 656.98 Z M 1350.35 636.26 C 1352.93 625.21 1352.70 616.69 1349.66 610.70 C 1346.62 604.72 1341.41 602.00 1334.05 602.55 C 1345.28 606.60 1350.72 617.84 1350.35 636.26 Z M 1357.53 509.44 C 1359.56 511.28 1360.89 513.63 1361.54 516.49 C 1362.18 519.35 1362.37 522.48 1362.09 525.88 C 1361.81 529.29 1361.12 532.83 1360.02 536.52 C 1358.91 540.21 1357.53 543.80 1355.88 547.30 C 1358.82 544.36 1361.27 540.90 1363.20 536.94 C 1365.13 532.98 1366.33 529.11 1366.79 525.34 C 1367.25 521.57 1366.74 518.20 1365.27 515.26 C 1363.79 512.30 1361.22 510.36 1357.53 509.44 Z M 1369.97 626.31 C 1374.02 627.79 1376.64 630.50 1377.84 634.46 C 1379.04 638.42 1379.36 643.07 1378.81 648.41 C 1381.75 641.41 1382.35 635.84 1380.61 631.69 C 1378.85 627.55 1375.31 625.76 1369.97 626.31 Z M 1379.64 693.73 C 1380.19 689.50 1380.93 684.85 1381.85 679.78 C 1382.77 674.72 1383.65 669.65 1384.47 664.58 C 1385.30 659.52 1386.17 654.68 1387.10 650.07 C 1388.02 645.47 1388.76 641.50 1389.31 638.19 C 1390.23 634.51 1390.41 632.34 1389.86 631.70 C 1389.31 631.06 1388.20 631.10 1386.54 631.84 C 1385.80 632.21 1385.25 632.39 1384.88 632.39 C 1385.43 634.60 1385.43 637.27 1384.88 640.40 C 1383.96 644.27 1383.08 648.46 1382.26 652.97 C 1381.43 657.49 1380.55 662.09 1379.63 666.78 C 1378.71 671.48 1377.83 676.04 1377.00 680.46 C 1376.17 684.88 1375.39 689.03 1374.65 692.89 C 1374.10 696.39 1374.46 698.14 1375.76 698.14 C 1377.05 698.51 1378.34 697.22 1379.63 694.27 L 1379.63 693.73 Z M 1400.08 624.65 C 1404.13 626.13 1406.75 628.84 1407.95 632.80 C 1409.15 636.76 1409.47 641.41 1408.92 646.75 C 1411.86 639.75 1412.46 634.14 1410.72 629.90 C 1408.97 625.67 1405.42 623.92 1400.08 624.65 Z" fill="#ffffff" fill-rule="nonzero" group-id="1,3" hidden="true" node-id="113" stroke="none" target-height="254.3299" target-width="264.29004" target-x="1158.45" target-y="472.22003" visibility="hidden"/><path d="M 1168.27 875.80 C 1170.11 872.12 1172.00 869.08 1173.93 866.68 C 1175.86 864.29 1178.12 861.80 1180.70 859.22 C 1182.54 857.75 1183.78 857.20 1184.43 857.56 C 1185.07 857.93 1184.66 859.13 1183.19 861.15 C 1181.35 863.73 1179.83 866.17 1178.63 868.47 C 1177.43 870.77 1176.37 873.49 1175.45 876.62 C 1174.34 880.12 1174.57 882.93 1176.14 885.05 C 1177.70 887.17 1180.97 887.68 1185.95 886.57 C 1189.63 885.65 1194.56 883.49 1200.73 880.08 C 1206.90 876.67 1213.02 871.56 1219.10 864.75 C 1219.47 862.91 1219.70 861.12 1219.79 859.36 C 1219.88 857.61 1220.02 856.00 1220.20 854.53 L 1220.75 849.28 C 1215.96 850.20 1211.40 850.48 1207.07 850.11 C 1202.74 849.74 1198.73 849.10 1195.05 848.18 C 1187.13 845.97 1181.42 841.73 1177.92 835.47 C 1174.42 829.21 1174.23 821.75 1177.37 813.09 C 1179.03 808.67 1181.38 804.62 1184.42 800.93 C 1187.46 797.25 1191.00 794.21 1195.06 791.81 C 1199.11 789.42 1203.49 787.71 1208.18 786.70 C 1212.88 785.69 1217.62 785.55 1222.41 786.29 C 1225.91 786.84 1229.68 788.04 1233.74 789.88 C 1234.29 788.41 1234.80 786.89 1235.26 785.32 C 1235.72 783.76 1236.13 782.14 1236.50 780.49 C 1239.44 769.99 1239.44 762.72 1236.50 758.66 C 1234.10 754.98 1230.46 753.09 1225.59 753.00 C 1220.71 752.91 1216.15 753.88 1211.91 755.90 C 1209.70 757.01 1208.46 757.19 1208.18 756.45 C 1207.90 755.72 1208.59 754.61 1210.25 753.13 C 1212.83 750.92 1216.14 749.17 1220.20 747.88 C 1224.25 746.59 1228.58 745.81 1233.19 745.53 C 1237.79 745.25 1242.35 745.44 1246.87 746.08 C 1251.38 746.73 1255.39 747.97 1258.89 749.81 C 1265.52 753.31 1269.85 758.33 1271.88 764.87 C 1273.90 771.41 1274.18 779.37 1272.71 788.77 C 1271.60 796.33 1269.95 803.05 1267.74 808.94 C 1265.53 814.84 1262.95 819.99 1260.00 824.41 C 1263.13 836.02 1264.14 849.65 1263.04 865.30 C 1261.75 882.06 1259.63 898.14 1256.69 913.51 C 1253.74 928.89 1249.96 942.75 1245.36 955.09 C 1242.04 963.93 1237.62 971.57 1232.10 978.02 C 1226.57 984.47 1220.45 989.53 1213.73 993.22 C 1207.00 996.90 1199.73 999.16 1191.90 999.99 C 1184.07 1000.82 1176.20 1000.03 1168.28 997.64 C 1163.12 995.98 1158.93 993.54 1155.71 990.32 C 1152.49 987.09 1150.14 983.37 1148.66 979.13 C 1147.19 974.89 1146.63 970.43 1147.00 965.73 C 1147.37 961.03 1148.66 956.47 1150.87 952.05 C 1152.90 948.00 1155.75 944.31 1159.44 941.00 C 1163.12 937.69 1166.71 935.20 1170.22 933.54 C 1177.96 930.04 1185.51 928.39 1192.88 928.57 C 1194.91 928.57 1195.92 929.03 1195.92 929.95 C 1195.92 930.87 1194.91 931.52 1192.88 931.88 C 1189.19 932.43 1185.60 933.17 1182.10 934.09 C 1178.60 935.01 1175.10 936.58 1171.60 938.79 C 1168.47 940.82 1165.80 943.26 1163.59 946.11 C 1161.38 948.97 1159.72 951.68 1158.62 954.26 C 1156.96 957.95 1156.22 961.26 1156.41 964.21 C 1156.59 967.16 1157.33 969.64 1158.62 971.67 C 1159.91 973.69 1161.70 975.30 1164.01 976.50 C 1166.31 977.70 1168.75 978.30 1171.33 978.30 C 1179.62 978.30 1186.15 975.03 1190.95 968.49 C 1195.74 961.95 1199.97 952.88 1203.66 941.28 C 1205.13 936.31 1206.60 931.06 1208.08 925.53 C 1209.55 920.00 1210.84 914.30 1211.95 908.40 C 1208.45 911.53 1204.86 913.93 1201.18 915.58 C 1194.18 919.08 1188.15 920.92 1183.08 921.11 C 1178.01 921.30 1173.36 919.55 1169.13 915.86 C 1167.10 914.02 1165.58 911.53 1164.57 908.40 C 1163.56 905.27 1163.05 901.82 1163.05 898.04 C 1163.05 894.27 1163.51 890.44 1164.43 886.57 C 1165.33 882.70 1166.62 879.11 1168.27 875.80 Z M 1169.38 899.83 C 1168.64 903.14 1168.97 905.96 1170.35 908.26 C 1171.73 910.57 1173.62 912.27 1176.02 913.37 C 1178.41 914.47 1181.04 914.94 1183.89 914.75 C 1186.74 914.57 1189.28 913.65 1191.49 911.99 C 1189.09 912.36 1186.66 912.31 1184.17 911.85 C 1181.68 911.39 1179.43 910.65 1177.40 909.64 C 1175.37 908.63 1173.62 907.29 1172.15 905.63 C 1170.67 903.98 1169.75 902.04 1169.38 899.83 Z M 1222.43 815.29 C 1221.88 805.34 1218.84 799.45 1213.31 797.61 C 1210.55 796.51 1207.65 796.28 1204.61 796.92 C 1201.57 797.57 1198.71 798.72 1196.04 800.37 C 1193.37 802.03 1191.02 804.06 1189.00 806.45 C 1186.97 808.85 1185.41 811.33 1184.30 813.91 C 1182.09 819.62 1181.90 824.59 1183.75 828.83 C 1185.59 833.07 1188.81 835.00 1193.42 834.63 C 1205.20 833.52 1214.87 827.08 1222.43 815.29 Z M 1266.63 790.98 C 1267.92 786.74 1268.61 782.51 1268.70 778.27 C 1268.79 774.04 1268.29 770.26 1267.18 766.94 C 1266.08 763.63 1264.42 760.86 1262.21 758.65 C 1260.00 756.44 1257.24 755.15 1253.92 754.78 C 1258.52 756.99 1261.89 761.60 1264.01 768.59 C 1266.12 775.60 1267.00 783.06 1266.63 790.98 Z M 1273.54 869.16 C 1274.27 865.48 1274.37 863.31 1273.82 862.67 C 1273.27 862.03 1271.70 862.44 1269.12 863.91 C 1266.17 865.75 1265.43 865.11 1266.91 861.98 C 1268.38 858.85 1270.36 855.86 1272.85 853.00 C 1275.34 850.15 1278.14 848.07 1281.28 846.78 C 1284.41 845.31 1287.91 844.39 1291.78 844.02 C 1295.65 843.65 1299.33 844.02 1302.83 845.13 C 1307.06 846.42 1310.01 849.09 1311.67 853.14 C 1316.27 851.30 1320.88 850.01 1325.48 849.27 C 1330.08 848.54 1334.41 848.35 1338.47 848.72 C 1344.73 849.27 1349.80 851.39 1353.67 855.07 C 1357.54 858.76 1359.01 864.74 1358.09 873.03 C 1357.17 882.42 1355.97 891.68 1354.50 900.80 C 1353.02 909.92 1351.28 918.44 1349.25 926.36 C 1348.14 930.78 1346.35 934.47 1343.86 937.41 C 1341.37 940.36 1338.38 942.66 1334.88 944.32 C 1331.38 945.98 1327.51 947.04 1323.28 947.50 C 1319.04 947.96 1314.62 947.73 1310.02 946.81 C 1305.97 945.89 1302.56 944.79 1299.80 943.50 C 1298.70 946.63 1297.08 948.61 1294.97 949.44 C 1292.85 950.27 1289.95 950.50 1286.27 950.13 C 1282.77 949.76 1279.27 949.07 1275.77 948.06 C 1272.27 947.05 1269.69 945.99 1268.03 944.88 C 1263.98 942.12 1262.32 937.61 1263.06 931.34 L 1273.54 869.16 Z M 1270.78 837.12 C 1269.49 836.02 1268.43 834.54 1267.60 832.70 C 1266.77 830.86 1266.45 828.83 1266.63 826.62 C 1266.81 824.41 1267.60 822.06 1268.98 819.57 C 1270.36 817.08 1272.71 814.55 1276.03 811.97 C 1277.69 810.50 1279.90 809.03 1282.66 807.55 C 1285.42 806.08 1288.55 804.61 1292.05 803.13 C 1294.26 797.05 1296.28 790.84 1298.13 784.48 C 1299.97 778.13 1301.35 772.56 1302.27 767.76 C 1302.82 764.45 1302.64 762.47 1301.72 761.82 C 1300.80 761.18 1298.77 761.04 1295.64 761.41 C 1294.16 761.78 1293.29 761.55 1293.01 760.72 C 1292.73 759.89 1293.24 759.02 1294.53 758.10 C 1297.29 755.71 1300.56 753.64 1304.34 751.88 C 1308.11 750.13 1311.94 748.80 1315.81 747.87 C 1319.68 746.95 1323.50 746.40 1327.28 746.21 C 1331.05 746.03 1334.33 746.21 1337.09 746.76 C 1342.62 747.86 1346.80 750.40 1349.66 754.36 C 1352.51 758.32 1353.29 763.71 1352.01 770.52 C 1351.46 773.83 1350.77 777.06 1349.94 780.19 C 1349.11 783.32 1348.23 786.45 1347.31 789.58 C 1349.89 789.21 1352.42 788.94 1354.91 788.75 C 1357.40 788.57 1359.93 788.47 1362.51 788.47 C 1374.11 787.92 1384.06 788.24 1392.35 789.44 C 1400.64 790.64 1406.90 793.08 1411.14 796.76 C 1419.61 803.94 1422.74 815.55 1420.53 831.57 C 1419.24 841.52 1417.81 851.65 1416.25 861.96 C 1414.68 872.28 1413.03 882.40 1411.28 892.35 C 1409.53 902.30 1407.73 911.92 1405.89 921.22 C 1404.05 930.52 1402.20 939.14 1400.36 947.05 C 1398.15 957.00 1395.25 965.42 1391.66 972.33 C 1388.07 979.24 1383.55 984.90 1378.12 989.32 C 1372.68 993.74 1366.19 997.06 1358.64 999.27 C 1351.09 1001.48 1342.34 1002.86 1332.39 1003.42 C 1321.34 1003.97 1312.31 1002.77 1305.31 999.83 C 1298.31 996.88 1293.15 992.92 1289.84 987.95 C 1286.52 982.98 1285.05 977.54 1285.42 971.65 C 1285.79 965.76 1287.91 960.14 1291.77 954.80 C 1293.24 952.78 1294.53 952.13 1295.64 952.87 C 1296.75 953.61 1296.65 954.99 1295.36 957.02 C 1292.23 962.73 1291.03 967.70 1291.77 971.94 C 1292.50 976.17 1294.44 979.54 1297.57 982.02 C 1300.70 984.51 1304.66 986.12 1309.45 986.85 C 1314.24 987.58 1319.12 987.31 1324.09 986.02 C 1331.27 984.18 1337.17 979.98 1341.77 973.45 C 1346.37 966.91 1350.24 956.55 1353.37 942.37 C 1357.05 924.51 1360.51 906.45 1363.73 888.22 C 1366.95 869.99 1369.76 851.38 1372.16 832.41 C 1372.89 826.70 1372.62 822.01 1371.33 818.32 C 1370.04 814.64 1366.45 812.24 1360.56 811.14 C 1357.43 810.59 1354.02 810.17 1350.34 809.90 C 1346.65 809.62 1342.69 809.39 1338.46 809.21 C 1332.56 818.97 1325.10 826.89 1316.08 832.97 C 1312.21 835.55 1307.97 837.49 1303.37 838.77 C 1298.76 840.06 1294.29 840.84 1289.97 841.12 C 1285.64 841.40 1281.72 841.17 1278.23 840.43 C 1274.74 839.70 1272.25 838.59 1270.78 837.12 Z M 1287.63 814.46 C 1285.97 815.01 1284.41 815.57 1282.93 816.12 C 1281.45 816.67 1280.17 817.32 1279.06 818.05 C 1275.01 820.26 1272.71 822.57 1272.15 824.96 C 1271.60 827.36 1271.96 829.11 1273.26 830.21 C 1274.18 830.95 1275.51 830.90 1277.27 830.07 C 1279.02 829.24 1281.18 826.71 1283.76 822.47 L 1287.63 814.46 Z M 1290.95 849.00 C 1295.74 849.37 1299.42 851.86 1302.00 856.46 C 1304.58 861.07 1306.05 866.87 1306.42 873.87 C 1308.45 864.29 1308.03 857.39 1305.18 853.15 C 1302.32 848.90 1297.58 847.52 1290.95 849.00 Z M 1301.72 932.99 C 1304.66 932.81 1306.92 931.84 1308.49 930.09 C 1310.05 928.34 1311.21 926.08 1311.94 923.32 C 1313.78 915.77 1315.39 907.76 1316.77 899.28 C 1318.15 890.81 1319.39 881.87 1320.50 872.48 C 1320.87 868.24 1320.64 865.34 1319.81 863.78 C 1318.98 862.22 1317.00 861.43 1313.87 861.43 L 1312.76 861.43 C 1312.76 862.53 1312.58 864.01 1312.21 865.85 C 1310.73 875.98 1309.12 887.03 1307.37 899.01 C 1305.63 910.98 1303.75 922.31 1301.72 932.99 Z M 1330.18 751.47 C 1334.23 752.95 1337.78 756.12 1340.82 761.00 C 1343.86 765.88 1344.83 773.29 1343.72 783.24 C 1345.93 778.08 1347.08 773.43 1347.17 769.29 C 1347.26 765.14 1346.62 761.69 1345.24 758.93 C 1343.86 756.17 1341.88 754.14 1339.30 752.85 C 1336.72 751.56 1333.68 751.10 1330.18 751.47 Z M 1335.15 853.69 C 1340.12 855.17 1344.17 857.88 1347.31 861.84 C 1350.44 865.80 1352.10 871.65 1352.28 879.38 C 1354.49 870.54 1353.98 863.95 1350.76 859.63 C 1347.54 855.31 1342.34 853.33 1335.15 853.69 Z M 1389.03 795.67 C 1391.79 796.41 1394.65 797.74 1397.59 799.68 C 1400.53 801.61 1403.21 804.06 1405.60 807.00 C 1407.99 809.95 1409.97 813.35 1411.54 817.22 C 1413.10 821.09 1413.98 825.33 1414.17 829.93 C 1415.28 824.40 1415.46 819.43 1414.72 815.01 C 1413.98 810.59 1412.41 806.91 1410.02 803.96 C 1407.62 801.02 1404.63 798.85 1401.04 797.47 C 1397.46 796.09 1393.45 795.49 1389.03 795.67 Z" fill="#ffffff" fill-rule="nonzero" group-id="1,3" node-id="115" stroke="none" target-height="258.71997" target-width="276.11" target-x="1146.63" target-y="745.25"/></g><g node-id="358"><path d="M 1409.04 996.11 C 1401.64 1002.88 1394.24 1009.64 1386.84 1016.41 C 1384.90 1018.18 1384.91 1021.71 1386.84 1023.48 C 1388.91 1025.38 1391.85 1025.37 1393.91 1023.48 C 1401.31 1016.71 1408.71 1009.95 1416.11 1003.18 C 1418.05 1001.41 1418.04 997.88 1416.11 996.11 C 1414.04 994.21 1411.11 994.22 1409.04 996.11 L 1409.04 996.11 Z" fill="#ffffff" fill-rule="nonzero" group-id="1,4" node-id="120" stroke="none" target-height="31.169983" target-width="33.150024" target-x="1384.9" target-y="994.21"/></g><g node-id="359"><path d="M 1423.95 1023.67 C 1411.76 1036.36 1399.56 1049.05 1387.37 1061.75 C 1383.92 1065.34 1380.47 1068.93 1377.02 1072.53 C 1375.21 1074.42 1375.00 1077.75 1377.02 1079.60 C 1378.98 1081.40 1382.16 1081.62 1384.09 1079.60 C 1396.28 1066.91 1408.48 1054.22 1420.67 1041.52 C 1424.12 1037.93 1427.57 1034.34 1431.02 1030.74 C 1432.83 1028.85 1433.04 1025.52 1431.02 1023.67 C 1429.06 1021.87 1425.89 1021.65 1423.95 1023.67 L 1423.95 1023.67 Z" fill="#ffffff" fill-rule="nonzero" group-id="1,5" node-id="125" stroke="none" target-height="59.96997" target-width="58.04004" target-x="1375" target-y="1021.65"/></g><g node-id="360"><path d="M 1186.58 424.08 C 1177.28 435.08 1167.97 446.07 1158.67 457.07 C 1156.98 459.06 1156.57 462.21 1158.67 464.14 C 1160.53 465.85 1163.94 466.27 1165.74 464.14 C 1175.04 453.14 1184.35 442.15 1193.65 431.15 C 1195.34 429.16 1195.75 426.01 1193.65 424.08 C 1191.80 422.37 1188.39 421.95 1186.58 424.08 L 1186.58 424.08 Z" fill="#ffffff" fill-rule="nonzero" group-id="1,6" hidden="true" node-id="130" stroke="none" target-height="44.319977" target-width="39.180054" target-x="1156.57" target-y="421.95" visibility="hidden"/></g><path d="M 1176.37 392.31 C 1162.87 406.14 1149.38 419.97 1135.88 433.80 C 1132.04 437.73 1128.20 441.67 1124.36 445.60 C 1122.53 447.47 1122.35 450.83 1124.36 452.67 C 1126.34 454.48 1129.48 454.67 1131.43 452.67 C 1144.93 438.84 1158.42 425.01 1171.92 411.18 C 1175.76 407.25 1179.60 403.31 1183.44 399.38 C 1185.27 397.51 1185.45 394.15 1183.44 392.31 C 1181.47 390.49 1178.33 390.31 1176.37 392.31 L 1176.37 392.31 Z" fill="#ffffff" fill-rule="nonzero" group-id="1,7" hidden="true" node-id="135" stroke="none" target-height="64.360016" target-width="63.099976" target-x="1122.35" target-y="390.31" visibility="hidden"/></g><g node-id="356"><g node-id="362"><g node-id="391"><path d="M 949.00 1377.94 C 949.00 1419.39 947.75 1460.14 945.33 1500.00 L 207.60 1500.00 C 205.16 1460.14 203.91 1419.38 203.91 1377.94 C 203.91 899.89 370.71 512.37 576.45 512.37 C 782.20 512.37 949.00 899.88 949.00 1377.94 Z" fill="#f8b62d" fill-rule="nonzero" group-id="2,8,37" node-id="145" stroke="none" target-height="987.63" target-width="745.08997" target-x="203.91" target-y="512.37"/></g><path d="M 844.68 763.82 C 773.44 598.31 678.18 507.15 576.46 507.15 C 474.74 507.15 379.48 598.31 308.24 763.82 C 237.61 927.94 198.70 1146.03 198.70 1377.94 C 198.70 1418.78 199.93 1459.74 202.37 1500.00 L 212.84 1500.00 C 210.37 1459.75 209.14 1418.79 209.14 1377.94 C 209.14 1147.43 247.74 930.80 317.83 767.95 C 351.78 689.09 391.23 627.24 435.11 584.12 C 480.04 539.98 527.59 517.59 576.46 517.59 C 625.33 517.59 672.89 539.97 717.81 584.12 C 761.69 627.24 801.14 689.09 835.09 767.95 C 905.18 930.80 943.78 1147.43 943.78 1377.94 C 943.78 1418.73 942.55 1459.69 940.08 1500.00 L 950.55 1500.00 C 952.99 1459.68 954.22 1418.72 954.22 1377.94 C 954.22 1146.03 915.31 927.94 844.68 763.82 Z" fill="#231815" fill-rule="nonzero" group-id="2,8,38" node-id="150" stroke="none" target-height="992.85" target-width="755.51996" target-x="198.7" target-y="507.15"/></g><g node-id="363"><path d="M 498.55 434.17 C 475.96 438.12 453.94 443.49 432.60 450.21 C 307.25 489.62 205.25 575.00 150.62 684.37 C 146.95 660.21 145.02 635.16 145.02 609.53 C 145.02 448.90 232.52 307.05 338.10 256.59 C 407.24 284.83 464.76 349.50 498.55 434.17 Z" fill="#f8b62d" fill-rule="nonzero" group-id="2,9" node-id="156" stroke="none" target-height="427.78" target-width="353.53003" target-x="145.02" target-y="256.59"/><path d="M 150.62 689.59 C 150.35 689.59 150.08 689.57 149.81 689.53 C 147.56 689.18 145.80 687.41 145.46 685.16 C 141.70 660.44 139.80 634.99 139.80 609.54 C 139.80 531.86 159.73 455.67 197.43 389.18 C 233.11 326.25 282.27 277.49 335.85 251.89 C 337.18 251.25 338.71 251.21 340.07 251.77 C 409.39 280.09 468.92 345.87 503.39 432.25 C 503.97 433.71 503.87 435.35 503.10 436.73 C 502.33 438.10 500.99 439.06 499.44 439.33 C 477.31 443.20 455.34 448.54 434.15 455.20 C 311.10 493.87 209.46 578.26 155.29 686.70 C 154.40 688.49 152.57 689.59 150.62 689.59 Z M 338.27 262.30 C 229.19 315.80 150.24 461.34 150.24 609.53 C 150.24 628.95 151.37 648.36 153.61 667.43 C 210.64 563.52 310.86 483.01 431.04 445.23 C 450.63 439.07 470.87 434.02 491.30 430.19 C 457.92 350.22 402.49 289.37 338.27 262.30 Z" fill="#231815" fill-rule="nonzero" group-id="2,9" node-id="158" stroke="none" target-height="438.38" target-width="364.16998" target-x="139.8" target-y="251.21002"/></g><g node-id="364"><path d="M 498.55 434.17 C 475.96 438.12 453.94 443.49 432.60 450.21 C 307.25 489.62 205.25 575.00 150.62 684.37 C 146.95 660.21 145.02 635.16 145.02 609.53 C 145.02 448.90 232.52 307.05 338.10 256.59 C 407.24 284.83 464.76 349.50 498.55 434.17 Z" fill="#f8b62d" fill-rule="nonzero" group-id="2,10" node-id="163" stroke="none" target-height="427.78" target-width="353.53003" target-x="145.02" target-y="256.59"/><path d="M 150.62 689.59 C 150.35 689.59 150.08 689.57 149.81 689.53 C 147.56 689.18 145.80 687.41 145.46 685.16 C 141.70 660.44 139.80 634.99 139.80 609.54 C 139.80 531.86 159.73 455.67 197.43 389.18 C 233.11 326.25 282.27 277.49 335.85 251.89 C 337.18 251.25 338.71 251.21 340.07 251.77 C 409.39 280.09 468.92 345.87 503.39 432.25 C 503.97 433.71 503.87 435.35 503.10 436.73 C 502.33 438.10 500.99 439.06 499.44 439.33 C 477.31 443.20 455.34 448.54 434.15 455.20 C 311.10 493.87 209.46 578.26 155.29 686.70 C 154.40 688.49 152.57 689.59 150.62 689.59 Z M 338.27 262.30 C 229.19 315.80 150.24 461.34 150.24 609.53 C 150.24 628.95 151.37 648.36 153.61 667.43 C 210.64 563.52 310.86 483.01 431.04 445.23 C 450.63 439.07 470.87 434.02 491.30 430.19 C 457.92 350.22 402.49 289.37 338.27 262.30 Z" fill="#231815" fill-rule="nonzero" group-id="2,10" node-id="165" stroke="none" target-height="438.38" target-width="364.16998" target-x="139.8" target-y="251.21002"/></g><g node-id="365"><path d="M 680.12 434.17 C 702.71 438.12 724.73 443.49 746.07 450.21 C 871.42 489.62 973.42 575.01 1028.05 684.37 C 1031.72 660.21 1033.65 635.16 1033.65 609.53 C 1033.65 448.90 946.15 307.05 840.57 256.59 C 771.43 284.83 713.91 349.50 680.12 434.17 Z" fill="#f8b62d" fill-rule="nonzero" group-id="2,11" node-id="170" stroke="none" target-height="427.78" target-width="353.53003" target-x="680.12" target-y="256.59"/><path d="M 1028.05 689.59 C 1026.10 689.59 1024.28 688.49 1023.38 686.70 C 969.21 578.26 867.57 493.87 744.50 455.18 C 723.31 448.51 701.35 443.17 679.21 439.31 C 677.66 439.04 676.32 438.09 675.55 436.71 C 674.78 435.34 674.68 433.69 675.26 432.23 C 709.74 345.85 769.27 280.07 838.58 251.75 C 839.94 251.19 841.48 251.24 842.80 251.87 C 896.38 277.48 945.54 326.23 981.22 389.16 C 1018.92 455.64 1038.85 531.84 1038.85 609.52 C 1038.85 634.98 1036.95 660.42 1033.19 685.14 C 1032.85 687.39 1031.09 689.16 1028.84 689.51 C 1028.59 689.57 1028.32 689.59 1028.05 689.59 Z M 687.38 430.18 C 707.81 434.01 728.05 439.06 747.64 445.23 C 867.81 483.01 968.04 563.52 1025.07 667.43 C 1027.31 648.36 1028.44 628.95 1028.44 609.53 C 1028.44 461.34 949.49 315.80 840.41 262.31 C 776.18 289.37 720.76 350.23 687.38 430.18 Z" fill="#231815" fill-rule="nonzero" group-id="2,11" node-id="172" stroke="none" target-height="438.40002" target-width="364.16998" target-x="674.68" target-y="251.19"/></g><g node-id="366"><path d="M 680.12 434.17 C 702.71 438.12 724.73 443.49 746.07 450.21 C 871.42 489.62 973.42 575.01 1028.05 684.37 C 1031.72 660.21 1033.65 635.16 1033.65 609.53 C 1033.65 448.90 946.15 307.05 840.57 256.59 C 771.43 284.83 713.91 349.50 680.12 434.17 Z" fill="#f8b62d" fill-rule="nonzero" group-id="2,12" node-id="177" stroke="none" target-height="427.78" target-width="353.53003" target-x="680.12" target-y="256.59"/><path d="M 1028.05 689.59 C 1026.10 689.59 1024.28 688.49 1023.38 686.70 C 969.21 578.26 867.57 493.87 744.50 455.18 C 723.31 448.51 701.35 443.17 679.21 439.31 C 677.66 439.04 676.32 438.09 675.55 436.71 C 674.78 435.34 674.68 433.69 675.26 432.23 C 709.74 345.85 769.27 280.07 838.58 251.75 C 839.94 251.19 841.48 251.24 842.80 251.87 C 896.38 277.48 945.54 326.23 981.22 389.16 C 1018.92 455.64 1038.85 531.84 1038.85 609.52 C 1038.85 634.98 1036.95 660.42 1033.19 685.14 C 1032.85 687.39 1031.09 689.16 1028.84 689.51 C 1028.59 689.57 1028.32 689.59 1028.05 689.59 Z M 687.38 430.18 C 707.81 434.01 728.05 439.06 747.64 445.23 C 867.81 483.01 968.04 563.52 1025.07 667.43 C 1027.31 648.36 1028.44 628.95 1028.44 609.53 C 1028.44 461.34 949.49 315.80 840.41 262.31 C 776.18 289.37 720.76 350.23 687.38 430.18 Z" fill="#231815" fill-rule="nonzero" group-id="2,12" node-id="179" stroke="none" target-height="438.40002" target-width="364.16998" target-x="674.68" target-y="251.19"/></g><g node-id="367"><g node-id="393"><path d="M 1071.50 867.71 C 1071.50 932.19 1056.39 993.45 1029.23 1048.67 C 953.76 1202.16 785.19 1309.05 589.34 1309.05 C 401.51 1309.05 238.78 1210.76 159.19 1067.30 C 135.14 1023.96 118.68 976.51 111.41 926.38 C 110.94 923.28 110.52 920.17 110.16 917.06 C 108.18 900.87 107.17 884.40 107.17 867.72 C 107.17 802.30 122.72 740.21 150.62 684.38 C 146.95 660.22 145.02 635.17 145.02 609.54 C 145.02 448.91 232.52 307.06 338.10 256.60 C 387.29 301.35 413.29 372.61 432.60 450.22 C 453.94 443.51 475.96 438.13 498.55 434.18 C 527.94 429.05 558.30 426.37 589.34 426.37 C 611.13 426.37 632.61 427.69 653.64 430.27 C 685.54 434.17 716.46 440.91 746.07 450.22 C 765.38 372.61 791.38 301.35 840.57 256.60 C 946.15 307.06 1033.65 448.92 1033.65 609.54 C 1033.65 635.18 1031.72 660.22 1028.05 684.38 C 1055.96 740.20 1071.50 802.29 1071.50 867.71 Z" fill="#f8b62d" fill-rule="nonzero" group-id="2,13,39" node-id="186" stroke="none" target-height="1052.4501" target-width="964.33" target-x="107.17" target-y="256.6"/></g><path d="M 589.35 1314.26 C 497.70 1314.26 408.39 1290.83 331.09 1246.49 C 255.83 1203.32 194.81 1142.23 154.64 1069.82 C 129.77 1025.01 113.49 977.00 106.26 927.12 C 105.79 924.05 105.36 920.86 104.99 917.66 C 102.98 901.26 101.96 884.45 101.96 867.71 C 101.96 803.48 116.51 741.52 145.22 683.52 C 141.63 659.31 139.81 634.43 139.81 609.53 C 139.81 531.86 159.74 455.66 197.44 389.17 C 233.12 326.24 282.28 277.48 335.86 251.88 C 337.77 250.97 340.05 251.30 341.62 252.73 C 394.27 300.63 419.97 379.07 436.33 443.60 C 456.30 437.55 476.91 432.66 497.67 429.03 C 527.66 423.80 558.51 421.14 589.36 421.14 C 611.11 421.14 632.96 422.46 654.30 425.08 C 684.20 428.73 713.80 434.96 742.37 443.60 C 758.73 379.07 784.43 300.63 837.08 252.73 C 838.65 251.30 840.93 250.97 842.84 251.88 C 896.42 277.49 945.58 326.24 981.26 389.17 C 1018.96 455.65 1038.89 531.85 1038.89 609.53 C 1038.89 634.43 1037.07 659.31 1033.48 683.52 C 1062.19 741.52 1076.74 803.48 1076.74 867.71 C 1076.74 931.55 1062.34 993.21 1033.94 1050.97 C 995.88 1128.38 934.75 1194.05 857.15 1240.88 C 777.60 1288.89 685.00 1314.26 589.35 1314.26 Z M 337.18 262.84 C 228.66 316.76 150.25 461.83 150.25 609.52 C 150.25 634.46 152.11 659.37 155.79 683.58 C 155.95 684.64 155.78 685.73 155.30 686.70 C 126.83 743.67 112.40 804.57 112.40 867.71 C 112.40 884.03 113.39 900.42 115.35 916.42 C 115.71 919.53 116.13 922.60 116.58 925.59 C 123.64 974.25 139.51 1021.06 163.76 1064.76 C 245.57 1212.22 408.64 1303.82 589.35 1303.82 C 776.83 1303.82 947.66 1202.76 1024.56 1046.36 C 1052.25 990.04 1066.29 929.93 1066.29 867.70 C 1066.29 804.56 1051.86 743.66 1023.39 686.69 C 1022.91 685.73 1022.74 684.64 1022.90 683.57 C 1026.58 659.36 1028.44 634.45 1028.44 609.51 C 1028.44 461.81 950.02 316.75 841.51 262.83 C 791.22 310.43 766.82 388.45 751.15 451.45 C 750.80 452.85 749.89 454.04 748.64 454.74 C 747.38 455.44 745.90 455.60 744.52 455.17 C 714.92 445.87 684.14 439.22 653.03 435.42 C 632.11 432.86 610.69 431.56 589.36 431.56 C 559.11 431.56 528.87 434.16 499.46 439.29 C 477.32 443.16 455.36 448.50 434.17 455.16 C 432.80 455.59 431.31 455.44 430.05 454.73 C 428.79 454.03 427.89 452.84 427.54 451.44 C 411.87 388.47 387.47 310.44 337.18 262.84 Z" fill="#231815" fill-rule="nonzero" group-id="2,13,40" node-id="191" stroke="none" target-height="1063.29" target-width="974.77997" target-x="101.96" target-y="250.97002"/></g><g node-id="368"><path d="M 848.10 489.25 C 789.59 455.62 723.59 433.53 654.29 425.08 C 632.95 422.47 611.10 421.14 589.35 421.14 C 558.50 421.14 527.65 423.79 497.66 429.03 C 475.07 432.98 452.66 438.43 431.04 445.23 C 402.85 454.09 375.82 465.39 350.16 478.75 C 347.42 480.17 346.58 483.68 348.31 486.23 C 348.33 486.26 348.35 486.29 348.37 486.32 C 349.84 488.48 352.69 489.18 355.00 487.97 C 380.11 474.90 406.57 463.86 434.17 455.18 C 455.35 448.52 477.32 443.17 499.46 439.31 C 528.86 434.18 559.11 431.58 589.36 431.58 C 610.69 431.58 632.11 432.88 653.03 435.44 C 722.32 443.89 786.58 465.95 842.80 498.39 C 845.33 499.85 848.55 499.01 850.02 496.48 L 850.02 496.48 C 851.48 493.95 850.63 490.70 848.10 489.25 Z" fill="#231815" fill-rule="nonzero" group-id="2,14" node-id="197" stroke="none" target-height="78.70999" target-width="504.90002" target-x="346.57996" target-y="421.14"/></g><g node-id="369"><path d="M 1025.24 1044.94 C 1021.99 1051.60 1018.56 1058.21 1014.93 1064.75 C 933.11 1212.21 770.03 1303.82 589.34 1303.82 C 409.76 1303.82 245.43 1211.10 164.36 1065.81 C 253.38 1039.81 335.33 989.89 399.15 922.59 C 430.13 889.91 457.09 853.10 491.93 824.58 C 526.79 796.06 572.44 776.19 616.53 785.38 C 665.06 795.49 699.46 836.93 734.46 872.03 C 802.12 939.88 885.73 991.73 976.57 1022.19 C 993.53 1027.88 1011.95 1033.74 1025.24 1044.94 Z" fill="#ffffff" fill-rule="nonzero" group-id="2,15" node-id="202" stroke="none" target-height="527.6299" target-width="860.88" target-x="164.36" target-y="776.19006"/></g><g node-id="370"><path d="M 676.50 897.49 C 676.50 930.70 637.48 957.62 589.34 957.62 C 541.20 957.62 502.18 930.70 502.18 897.49 C 502.18 864.28 541.20 837.36 589.34 837.36 C 637.48 837.36 676.50 864.28 676.50 897.49 Z" fill="#231815" fill-rule="nonzero" group-id="2,16" node-id="207" stroke="none" target-height="120.25995" target-width="174.32" target-x="502.18" target-y="837.36005"/><path d="M 589.34 962.84 C 538.40 962.84 496.96 933.52 496.96 897.49 C 496.96 861.46 538.40 832.14 589.34 832.14 C 640.28 832.14 681.72 861.46 681.72 897.49 C 681.72 933.52 640.28 962.84 589.34 962.84 Z M 589.34 842.58 C 544.15 842.58 507.39 867.21 507.39 897.49 C 507.39 927.77 544.15 952.40 589.34 952.40 C 634.53 952.40 671.29 927.77 671.29 897.49 C 671.29 867.21 634.52 842.58 589.34 842.58 Z" fill="#231815" fill-rule="nonzero" group-id="2,16" node-id="209" stroke="none" target-height="130.70001" target-width="184.75998" target-x="496.96" target-y="832.14"/></g><g node-id="371"><path d="M 604.78 867.15 C 604.78 877.91 592.10 886.64 576.46 886.64 C 560.82 886.64 548.14 877.91 548.14 867.15 C 548.14 856.39 560.82 847.66 576.46 847.66 C 592.10 847.66 604.78 856.39 604.78 867.15 Z" fill="#ffffff" fill-rule="nonzero" group-id="2,17" node-id="214" stroke="none" target-height="38.97992" target-width="56.640015" target-x="548.14" target-y="847.6601"/></g><g node-id="372"><path d="M 432.60 794.97 C 432.60 825.51 418.36 850.27 400.79 850.27 C 383.22 850.27 368.98 825.51 368.98 794.97 C 368.98 764.43 383.22 739.67 400.79 739.67 C 418.36 739.67 432.60 764.43 432.60 794.97 Z" fill="#231815" fill-rule="nonzero" group-id="2,18" node-id="219" stroke="none" target-height="110.599915" target-width="63.620026" target-x="368.98" target-y="739.67004"/><path d="M 400.79 855.48 C 380.03 855.48 363.76 828.90 363.76 794.96 C 363.76 761.02 380.03 734.44 400.79 734.44 C 421.55 734.44 437.82 761.02 437.82 794.96 C 437.82 828.90 421.55 855.48 400.79 855.48 Z M 400.79 744.89 C 386.37 744.89 374.20 767.82 374.20 794.97 C 374.20 822.12 386.38 845.05 400.79 845.05 C 415.20 845.05 427.38 822.12 427.38 794.97 C 427.38 767.82 415.20 744.89 400.79 744.89 Z" fill="#231815" fill-rule="nonzero" group-id="2,18" node-id="221" stroke="none" target-height="121.03998" target-width="74.05997" target-x="363.76004" target-y="734.44"/></g><g node-id="373"><path d="M 809.70 794.97 C 809.70 825.51 795.46 850.27 777.89 850.27 C 760.32 850.27 746.08 825.51 746.08 794.97 C 746.08 764.43 760.32 739.67 777.89 739.67 C 795.46 739.67 809.70 764.43 809.70 794.97 Z" fill="#231815" fill-rule="nonzero" group-id="2,19" node-id="226" stroke="none" target-height="110.599915" target-width="63.619995" target-x="746.08" target-y="739.67004"/><path d="M 777.89 855.48 C 757.13 855.48 740.86 828.90 740.86 794.96 C 740.86 761.02 757.13 734.44 777.89 734.44 C 798.65 734.44 814.92 761.02 814.92 794.96 C 814.92 828.90 798.65 855.48 777.89 855.48 Z M 777.89 744.89 C 763.47 744.89 751.30 767.82 751.30 794.97 C 751.30 822.12 763.48 845.05 777.89 845.05 C 792.30 845.05 804.48 822.12 804.48 794.97 C 804.48 767.82 792.30 744.89 777.89 744.89 Z" fill="#231815" fill-rule="nonzero" group-id="2,19" node-id="228" stroke="none" target-height="121.03998" target-width="74.06" target-x="740.86" target-y="734.44"/></g><g node-id="374"><path d="M 334.22 865.48 C 334.22 909.71 300.14 945.57 258.09 945.57 C 216.04 945.57 181.96 909.71 181.96 865.48 C 181.96 821.25 216.04 785.39 258.09 785.39 C 300.14 785.39 334.22 821.25 334.22 865.48 Z" fill="#c34923" fill-rule="nonzero" group-id="2,20" node-id="233" stroke="none" target-height="160.18" target-width="152.26001" target-x="181.95999" target-y="785.38995"/></g><g node-id="375"><path d="M 1009.15 865.48 C 1009.15 909.71 975.07 945.57 933.02 945.57 C 890.97 945.57 856.89 909.71 856.89 865.48 C 856.89 821.25 890.97 785.39 933.02 785.39 C 975.07 785.39 1009.15 821.25 1009.15 865.48 Z" fill="#c34923" fill-rule="nonzero" group-id="2,21" node-id="238" stroke="none" target-height="160.18" target-width="152.26001" target-x="856.89" target-y="785.38995"/></g><g node-id="376"><g node-id="395"><path d="M 812.75 921.79 C 811.83 928.27 810.45 934.68 808.50 940.93 C 807.95 942.69 807.35 944.44 806.71 946.17 C 806.39 947.03 806.06 947.89 805.71 948.75 C 805.54 949.18 805.36 949.61 805.18 950.05 C 805.56 949.14 804.95 950.56 804.85 950.80 C 803.24 954.45 801.40 958.01 799.35 961.43 C 798.25 963.26 797.09 965.06 795.88 966.81 C 795.31 967.63 794.73 968.44 794.14 969.24 C 794.05 969.36 793.11 970.61 793.60 969.97 C 793.18 970.51 792.76 971.04 792.33 971.57 C 789.40 975.17 786.21 978.56 782.79 981.71 C 775.06 988.83 766.18 994.58 756.41 999.31 C 744.21 1005.22 731.08 1009.10 717.82 1011.77 C 701.25 1015.10 684.14 1016.85 667.28 1014.99 C 654.98 1013.63 642.90 1010.00 632.30 1003.70 C 627.76 1001.00 624.29 998.44 620.52 994.99 C 618.77 993.39 617.10 991.71 615.50 989.96 C 614.76 989.15 614.04 988.32 613.33 987.47 C 613.03 987.11 612.73 986.74 612.43 986.38 C 612.26 986.17 612.10 985.96 611.93 985.76 C 611.12 984.73 612.42 986.43 611.65 985.39 C 609.27 982.23 607.12 978.91 605.22 975.45 C 604.37 973.91 603.57 972.33 602.82 970.74 C 602.49 970.03 602.17 969.31 601.85 968.59 C 601.41 967.60 601.95 968.86 601.74 968.34 C 601.60 968.01 601.47 967.67 601.33 967.34 C 599.91 963.78 598.88 960.17 597.94 956.48 C 597.90 956.31 597.87 956.14 597.84 955.97 C 596.98 951.05 589.33 952.35 589.30 957.13 C 589.20 974.74 578.92 990.66 565.30 1001.22 C 549.45 1013.51 528.94 1018.58 509.36 1020.79 C 469.38 1025.30 423.36 1022.56 392.23 993.94 C 378.12 980.97 367.72 963.42 366.41 944.02 C 366.25 941.68 364.52 939.67 362.06 939.67 C 359.83 939.67 357.55 941.66 357.71 944.02 C 359.01 963.30 367.86 981.06 380.99 995.05 C 394.96 1009.94 413.20 1019.87 432.77 1025.30 C 455.78 1031.68 480.17 1032.18 503.82 1030.05 C 525.30 1028.12 547.48 1023.66 565.74 1011.55 C 583.93 999.48 597.88 979.53 598.00 957.14 C 595.15 957.53 592.31 957.91 589.46 958.30 C 591.12 967.87 595.80 977.43 601.08 985.46 C 613.54 1004.41 633.07 1016.99 655.16 1021.79 C 672.14 1025.47 689.50 1024.88 706.60 1022.49 C 721.62 1020.39 736.52 1016.94 750.63 1011.32 C 771.34 1003.07 789.97 990.24 802.94 971.90 C 811.97 959.13 817.70 944.15 820.42 928.80 C 820.69 927.26 820.94 925.71 821.16 924.16 C 821.49 921.84 820.59 919.49 818.12 918.81 C 816.06 918.20 813.08 919.45 812.75 921.79 L 812.75 921.79 Z" fill="#231815" fill-rule="nonzero" group-id="2,22,41" node-id="245" stroke="none" target-height="113.98004" target-width="463.94" target-x="357.55" target-y="918.2"/></g></g><g node-id="377"><path d="M 669.32 1019.53 C 666.85 1054.37 655.18 1088.56 635.63 1117.51 C 612.46 1151.79 578.34 1178.54 539.53 1192.87 C 498.71 1207.93 452.03 1208.96 412.16 1191.50 C 372.31 1174.04 340.48 1137.15 333.20 1094.25 C 330.31 1077.19 331.83 1057.95 343.53 1045.20 C 357.34 1030.17 380.42 1028.89 400.75 1030.62 C 421.10 1032.36 442.67 1035.86 461.10 1027.09 C 461.78 1026.78 462.44 1026.43 463.08 1026.10 C 475.29 1027.09 487.66 1026.90 499.83 1025.98 C 521.17 1024.36 542.91 1020.41 561.18 1009.23 C 579.43 998.06 593.65 978.48 593.62 957.09 C 593.63 957.09 603.33 1013.37 669.32 1019.53 Z" fill="#ffa09f" fill-rule="nonzero" group-id="2,23" node-id="251" stroke="none" target-height="251.86993" target-width="339.01" target-x="330.31" target-y="957.09"/><path d="M 475.95 1209.60 C 452.84 1209.60 430.33 1205.15 410.07 1196.28 C 366.86 1177.35 335.44 1138.59 328.05 1095.13 C 325.87 1082.27 324.49 1058.23 339.68 1041.68 C 352.01 1028.26 372.13 1022.96 401.19 1025.44 C 403.66 1025.65 406.15 1025.89 408.65 1026.13 C 426.00 1027.78 443.95 1029.49 458.86 1022.40 C 459.42 1022.14 459.92 1021.88 460.41 1021.63 L 462.02 1020.80 L 463.51 1020.92 C 474.65 1021.83 486.40 1021.78 499.45 1020.80 C 515.56 1019.58 539.22 1016.59 558.46 1004.80 C 576.68 993.65 588.43 974.93 588.41 957.11 L 598.77 956.21 C 599.15 958.34 608.77 1008.65 669.81 1014.34 L 674.89 1014.81 L 674.53 1019.90 C 671.97 1055.97 660.02 1090.73 639.96 1120.43 C 616.20 1155.59 581.17 1183.06 541.35 1197.77 C 519.96 1205.66 497.69 1209.60 475.95 1209.60 Z M 387.93 1035.27 C 368.99 1035.27 355.66 1039.71 347.37 1048.74 C 335.19 1062.01 336.48 1082.41 338.34 1093.38 C 345.04 1132.81 374.84 1169.44 414.25 1186.72 C 451.12 1202.87 496.12 1203.33 537.72 1187.98 C 575.52 1174.02 608.75 1147.96 631.30 1114.59 C 649.41 1087.78 660.56 1056.60 663.69 1024.14 C 623.26 1018.60 604.02 994.30 595.25 976.76 C 589.91 991.27 578.88 1004.52 563.90 1013.69 C 542.73 1026.66 517.42 1029.89 500.22 1031.19 C 487.20 1032.18 475.38 1032.25 464.14 1031.43 C 463.86 1031.57 463.57 1031.71 463.28 1031.84 C 445.82 1040.14 426.42 1038.29 407.65 1036.51 C 405.18 1036.28 402.73 1036.04 400.29 1035.83 C 395.95 1035.45 391.82 1035.27 387.93 1035.27 Z" fill="#231815" fill-rule="nonzero" group-id="2,23" node-id="253" stroke="none" target-height="253.3899" target-width="350.40002" target-x="324.49" target-y="956.2101"/></g><g node-id="378"><g node-id="396"><path d="M 362.90 1161.01 C 390.86 1167.26 420.10 1163.83 446.93 1154.32 C 473.92 1144.75 498.17 1129.28 520.60 1111.69 C 533.29 1101.74 545.39 1091.07 557.32 1080.22 C 561.47 1076.45 555.30 1070.31 551.17 1074.07 C 530.88 1092.53 510.00 1110.54 486.70 1125.15 C 463.53 1139.68 437.80 1150.76 410.52 1154.34 C 395.46 1156.31 380.07 1155.95 365.23 1152.63 C 359.76 1151.41 357.43 1159.79 362.90 1161.01 L 362.90 1161.01 Z" fill="#231815" fill-rule="nonzero" group-id="2,24,42" node-id="260" stroke="none" target-height="96.94995" target-width="204.03998" target-x="357.43" target-y="1070.31"/></g></g><g node-id="379"><g node-id="397"><path d="M 288.96 1073.02 C 284.84 1093.93 287.34 1115.44 296.04 1134.88 C 297.00 1137.02 300.12 1137.53 301.99 1136.44 C 304.20 1135.15 304.51 1132.64 303.55 1130.49 C 295.87 1113.34 293.71 1093.75 297.34 1075.33 C 297.79 1073.03 296.69 1070.64 294.30 1069.98 C 292.18 1069.40 289.42 1070.71 288.96 1073.02 L 288.96 1073.02 Z" fill="#231815" fill-rule="nonzero" group-id="2,25,43" node-id="268" stroke="none" target-height="68.130005" target-width="19.670013" target-x="284.84" target-y="1069.4"/></g></g><g node-id="380"><g node-id="398"><path d="M 258.91 1082.35 C 254.63 1098.63 254.08 1115.57 257.13 1132.11 C 257.56 1134.42 260.36 1135.73 262.48 1135.15 C 264.91 1134.48 265.94 1132.12 265.52 1129.80 C 262.76 1114.83 263.43 1099.38 267.30 1084.67 C 268.72 1079.24 260.34 1076.93 258.91 1082.35 L 258.91 1082.35 Z" fill="#231815" fill-rule="nonzero" group-id="2,26,44" node-id="276" stroke="none" target-height="58.799927" target-width="14.639999" target-x="254.08" target-y="1076.93"/></g></g><g node-id="381"><g node-id="399"><path d="M 479.71 601.62 C 483.79 615.98 482.90 631.11 477.23 643.69 C 471.55 656.28 461.57 665.28 449.47 668.72 C 437.36 672.16 424.14 669.76 412.69 662.04 C 401.25 654.33 392.53 641.93 388.44 627.57 C 384.36 613.22 385.26 598.08 390.93 585.50 C 396.60 572.91 406.58 563.91 418.69 560.47 C 430.79 557.03 444.02 559.43 455.46 567.15 C 466.90 574.87 475.63 587.27 479.71 601.62 Z" fill="#ffffff" fill-rule="nonzero" group-id="2,27,45" node-id="284" stroke="none" target-height="115.13458" target-width="99.42828" target-x="384.362" target-y="557.02924"/></g></g><g node-id="382"><g node-id="400"><path d="M 773.89 560.49 C 786.00 563.94 795.98 572.95 801.64 585.54 C 807.31 598.12 808.20 613.26 804.11 627.62 C 800.02 641.97 791.29 654.37 779.84 662.08 C 768.39 669.79 755.16 672.19 743.05 668.74 C 730.95 665.29 720.97 656.28 715.30 643.69 C 709.64 631.10 708.75 615.97 712.84 601.61 C 716.93 587.26 725.66 574.86 737.11 567.15 C 748.56 559.44 761.79 557.04 773.89 560.49 Z" fill="#ffffff" fill-rule="nonzero" group-id="2,28,46" node-id="292" stroke="none" target-height="115.14526" target-width="99.44507" target-x="708.75085" target-y="557.04224"/></g></g><g node-id="383"><path d="M 887.55 1490.29 C 887.55 1493.54 887.34 1496.78 886.91 1500.00 L 266.03 1500.00 C 265.60 1496.78 265.39 1493.55 265.39 1490.29 C 265.39 1406.92 404.66 1339.35 576.47 1339.35 C 748.27 1339.36 887.55 1406.93 887.55 1490.29 Z" fill="#ffffff" fill-rule="nonzero" group-id="2,29" node-id="298" stroke="none" target-height="160.65002" target-width="622.1599" target-x="265.39" target-y="1339.35"/></g><g node-id="384"><g node-id="401"><path d="M 313.93 464.90 C 325.08 466.68 335.45 471.81 343.32 479.96 C 351.15 488.07 356.18 498.90 357.29 510.13 C 357.52 512.47 359.12 514.48 361.64 514.48 C 363.81 514.48 366.22 512.48 365.99 510.13 C 364.67 496.77 359.19 484.13 349.96 474.32 C 341.10 464.92 328.99 458.54 316.25 456.51 C 313.93 456.14 311.57 457.11 310.90 459.55 C 310.33 461.62 311.60 464.53 313.93 464.90 L 313.93 464.90 Z" fill="#231815" fill-rule="nonzero" group-id="2,30,47" node-id="305" stroke="none" target-height="58.339966" target-width="55.890015" target-x="310.33" target-y="456.14"/></g></g><g node-id="385"><g node-id="402"><path d="M 278.63 544.16 C 268.18 502.65 269.08 455.43 296.43 420.32 C 303.04 411.83 311.04 404.44 320.15 398.72 C 318.02 397.08 315.89 395.45 313.76 393.81 C 307.81 424.16 305.29 456.56 313.35 486.77 C 315.56 495.04 318.64 503.08 322.55 510.70 C 325.11 515.68 332.61 511.29 330.06 506.31 C 316.92 480.70 315.41 450.96 318.18 422.80 C 319.06 413.84 320.41 404.95 322.14 396.12 C 322.83 392.61 319.18 389.06 315.75 391.21 C 298.24 402.20 284.64 418.67 276.00 437.35 C 266.27 458.38 262.70 481.64 263.80 504.70 C 264.48 518.79 266.79 532.80 270.23 546.47 C 271.61 551.89 280.00 549.59 278.63 544.16 L 278.63 544.16 Z" fill="#231815" fill-rule="nonzero" group-id="2,31,48" node-id="313" stroke="none" target-height="162.83002" target-width="69.90997" target-x="262.7" target-y="389.06"/></g></g><g node-id="386"><g node-id="403"><path d="M 877.13 443.61 C 864.84 450.39 854.64 461.21 848.90 474.05 C 842.30 488.81 841.24 505.63 846.08 521.08 C 847.75 526.40 856.15 524.13 854.47 518.77 C 850.29 505.45 850.81 490.59 856.69 477.83 C 861.91 466.49 870.60 457.15 881.52 451.12 C 886.42 448.41 882.04 440.90 877.13 443.61 L 877.13 443.61 Z" fill="#231815" fill-rule="nonzero" group-id="2,32,49" node-id="321" stroke="none" target-height="85.50003" target-width="45.17993" target-x="841.24" target-y="440.9"/></g></g><g node-id="387"><g node-id="404"><path d="M 897.75 469.01 C 888.25 474.15 879.29 481.29 875.19 491.58 C 871.49 500.86 872.83 512.39 880.13 519.54 C 884.13 523.46 890.29 517.31 886.28 513.39 C 881.15 508.37 880.80 500.13 883.62 493.81 C 887.18 485.85 894.71 480.54 902.14 476.52 C 907.06 473.85 902.68 466.34 897.75 469.01 L 897.75 469.01 Z" fill="#231815" fill-rule="nonzero" group-id="2,33,50" node-id="329" stroke="none" target-height="57.120026" target-width="35.569946" target-x="871.49005" target-y="466.34"/></g></g><g node-id="388"><g node-id="405"><path d="M 956.64 492.55 C 945.91 513.30 929.61 530.94 909.72 543.21 C 904.19 546.62 898.40 549.68 892.40 552.19 C 890.24 553.10 888.68 555.07 889.36 557.54 C 889.92 559.58 892.53 561.49 894.71 560.58 C 917.97 550.85 938.09 535.04 953.08 514.76 C 957.24 509.13 960.93 503.17 964.15 496.95 C 966.72 491.98 959.22 487.57 956.64 492.55 L 956.64 492.55 Z" fill="#231815" fill-rule="nonzero" group-id="2,34,51" node-id="337" stroke="none" target-height="73.91998" target-width="78.04004" target-x="888.67993" target-y="487.57"/></g></g><g node-id="389"><g node-id="406"><path d="M 1015.48 1310.80 C 1021.57 1323.51 1025.65 1337.31 1026.66 1351.40 C 1027.66 1365.35 1025.76 1379.17 1021.45 1392.45 C 1019.72 1397.79 1028.11 1400.07 1029.84 1394.76 C 1034.44 1380.57 1036.48 1365.51 1035.30 1350.62 C 1034.08 1335.17 1029.67 1320.35 1022.99 1306.40 C 1021.98 1304.28 1018.95 1303.72 1017.04 1304.84 C 1014.88 1306.12 1014.46 1308.68 1015.48 1310.80 L 1015.48 1310.80 Z" fill="#231815" fill-rule="nonzero" group-id="2,35,52" node-id="345" stroke="none" target-height="96.349976" target-width="22.019958" target-x="1014.46" target-y="1303.72"/></g></g><path d="M 1046.36 1314.10 C 1055.53 1333.30 1057.31 1354.52 1050.75 1374.80 C 1049.02 1380.14 1057.42 1382.42 1059.14 1377.11 C 1062.64 1366.30 1064.19 1354.82 1063.29 1343.47 C 1062.35 1331.66 1058.97 1320.37 1053.87 1309.71 C 1052.86 1307.59 1049.83 1307.04 1047.92 1308.15 C 1045.75 1309.42 1045.34 1311.98 1046.36 1314.10 L 1046.36 1314.10 Z" fill="#231815" fill-rule="nonzero" group-id="2,36,53" node-id="353" stroke="none" target-height="75.380005" target-width="18.849976" target-x="1045.34" target-y="1307.04"/></g></svg>