<?xml version="1.0" standalone="no"?><!DOCTYPE svg PUBLIC "-//W3C//DTD SVG 1.1//EN" "http://www.w3.org/Graphics/SVG/1.1/DTD/svg11.dtd"><svg height="1024" node-id="1" sillyvg="true" template-height="1024" template-width="1024" version="1.1" viewBox="0 0 1024 1024" width="1024" xmlns="http://www.w3.org/2000/svg" xmlns:xlink="http://www.w3.org/1999/xlink"><defs node-id="53"><clipPath id="master_svg0_2_037" node-id="3"><path d="M 0.00 0.00 L 1024.00 0.00 L 1024.00 1024.00 L 0.00 1024.00 Z" fill="#000000" fill-rule="nonzero" node-id="56" stroke="none" target-height="1024" target-width="1024" target-x="0" target-y="0"></path></clipPath><mask height="9134.407" id="master_svg1_2_045" maskUnits="userSpaceOnUse" node-id="5" width="9134.84" x="-3873.9663" y="-3846.2012"><path d="M 339.15 635.20 C 339.15 765.56 390.94 890.58 483.12 982.76 C 575.30 1074.94 700.32 1126.72 830.68 1126.72 C 961.03 1126.72 1086.06 1074.94 1178.23 982.76 C 1270.41 890.58 1322.20 765.56 1322.20 635.20 C 1322.20 504.84 1270.41 379.82 1178.23 287.65 C 1086.06 195.47 961.03 143.68 830.68 143.68 C 700.32 143.68 575.30 195.47 483.12 287.65 C 390.94 379.82 339.15 504.84 339.15 635.20 Z" fill="#ffffff" fill-rule="nonzero" node-id="62" stroke="none" target-height="983.04144" target-width="983.04144" target-x="339.15472" target-y="143.68317"></path></mask><mask height="156.05756" id="master_svg2_2_061" maskUnits="userSpaceOnUse" node-id="8" width="54.06726" x="880.2302" y="580.9152"><path d="M 381.73 360.57 C 362.70 388.25 375.10 412.28 404.72 469.72 C 410.16 480.26 416.18 491.93 422.69 504.95 C 436.84 533.25 439.60 577.94 442.90 631.66 C 449.41 737.36 458.07 878.01 559.91 997.50 C 699.15 1160.88 983.98 1077.69 1042.11 1060.71 C 1048.11 1058.96 1051.69 1057.91 1052.45 1057.91 C 1076.01 1108.08 1185.57 1186.94 1237.80 1173.62 C 1260.16 1167.92 1253.24 1161.10 1238.57 1146.64 C 1218.98 1127.32 1185.57 1094.39 1189.67 1032.31 C 1194.37 961.21 1238.60 924.82 1263.39 904.43 C 1276.44 893.70 1284.09 887.40 1277.73 882.81 C 1259.30 869.50 1114.92 856.18 1060.65 986.23 C 963.88 966.77 900.90 903.28 889.64 818.29 C 885.27 785.34 884.34 755.39 884.26 724.43 C 884.24 717.30 888.31 710.65 895.20 708.80 C 926.29 700.43 954.07 718.31 970.70 729.02 C 980.70 735.46 986.67 739.31 986.92 733.30 C 990.69 641.35 933.95 618.15 903.25 605.60 C 892.24 601.10 884.58 597.97 884.26 593.52 C 879.40 526.20 862.50 461.43 805.67 397.43 C 684.90 261.43 525.65 336.29 489.46 353.31 C 485.27 355.28 482.72 356.47 482.09 356.47 C 475.84 356.47 467.06 354.27 457.17 351.78 C 431.40 345.29 398.01 336.90 381.73 360.57 Z" fill="#ffffff" fill-rule="nonzero" node-id="69" stroke="none" target-height="925.51086" target-width="921.39197" target-x="362.70102" target-y="261.43106"></path></mask><mask height="224.72858" id="master_svg3_2_042" maskUnits="userSpaceOnUse" node-id="11" width="219.82372" x="200.71162" y="102.211525"><path d="M 395.26 212.99 C 395.26 258.24 358.59 294.91 313.34 294.91 C 268.10 294.91 231.42 258.24 231.42 212.99 C 231.42 167.75 268.10 131.07 313.34 131.07 C 358.59 131.07 395.26 167.75 395.26 212.99 Z" fill="#ffffff" fill-rule="nonzero" node-id="76" stroke="none" target-height="163.84003" target-width="163.83998" target-x="231.42384" target-y="131.07202"></path></mask></defs><g clip-path="url(#master_svg0_2_037)" id="sillyvg_g_3" node-id="81"><path d="M 1005.57 512.00 C 1005.57 642.36 953.78 767.38 861.61 859.56 C 769.43 951.74 644.41 1003.52 514.05 1003.52 C 383.69 1003.52 258.67 951.74 166.49 859.56 C 74.31 767.38 22.53 642.36 22.53 512.00 C 22.53 381.64 74.31 256.62 166.49 164.44 C 258.67 72.26 383.69 20.48 514.05 20.48 C 644.41 20.48 769.43 72.26 861.61 164.44 C 953.78 256.62 1005.57 381.64 1005.57 512.00 Z" fill="#eeddd2" fill-rule="nonzero" group-id="1" node-id="85" stroke="none" target-height="983.04004" target-width="983.04" target-x="22.528076" target-y="20.47998"></path><path d="M 367.40 714.87 C 360.23 721.01 401.19 806.00 476.97 818.29 C 493.20 820.93 503.69 819.15 508.44 812.97 C 518.45 799.91 502.84 767.21 461.61 714.87 C 460.82 721.71 458.50 726.93 454.67 730.53 C 448.56 736.26 438.58 737.86 424.74 735.35 C 406.90 732.10 393.91 724.86 384.57 719.65 C 376.22 715.00 370.78 711.97 367.40 714.87 Z" fill="#00cfe0" fill-rule="nonzero" group-id="2,4" node-id="92" stroke="none" target-height="108.958374" target-width="158.21533" target-x="360.23004" target-y="711.96674"></path><path d="M 422.37 794.63 C 437.72 805.94 456.01 814.89 476.97 818.29 C 493.20 820.93 503.69 819.15 508.44 812.97 C 518.45 799.91 502.84 767.21 461.61 714.87 C 460.58 723.74 457.00 729.89 450.85 733.30 C 447.49 761.86 440.32 783.36 422.37 794.63 Z" fill="#000000" fill-rule="nonzero" group-id="2,5" node-id="97" stroke="none" target-height="106.05823" target-width="96.071045" target-x="422.3745" target-y="714.86694"></path><path d="M 381.73 360.57 C 362.70 388.25 375.10 412.28 404.72 469.72 C 410.16 480.26 416.18 491.93 422.69 504.95 C 436.84 533.25 439.60 577.94 442.90 631.66 C 449.41 737.36 458.07 878.01 559.91 997.50 C 699.15 1160.88 983.98 1077.69 1042.11 1060.71 C 1048.11 1058.96 1051.69 1057.91 1052.45 1057.91 C 1076.01 1108.08 1185.57 1186.94 1237.80 1173.62 C 1260.16 1167.92 1253.24 1161.10 1238.57 1146.64 C 1218.98 1127.32 1185.57 1094.39 1189.67 1032.31 C 1194.37 961.21 1238.60 924.82 1263.39 904.43 C 1276.44 893.70 1284.09 887.40 1277.73 882.81 C 1259.30 869.50 1114.92 856.18 1060.65 986.23 C 963.88 966.77 900.90 903.28 889.64 818.29 C 885.27 785.34 884.34 755.39 884.26 724.43 C 884.24 717.30 888.31 710.65 895.20 708.80 C 926.29 700.43 954.07 718.31 970.70 729.02 C 980.70 735.46 986.67 739.31 986.92 733.30 C 990.69 641.35 933.95 618.15 903.25 605.60 C 892.24 601.10 884.58 597.97 884.26 593.52 C 879.40 526.20 862.50 461.43 805.67 397.43 C 684.90 261.43 525.65 336.29 489.46 353.31 C 485.27 355.28 482.72 356.47 482.09 356.47 C 475.84 356.47 467.06 354.27 457.17 351.78 C 431.40 345.29 398.01 336.90 381.73 360.57 Z" fill="#00cfe0" fill-rule="nonzero" group-id="2,6" node-id="102" stroke="none" target-height="925.51086" target-width="921.39197" target-x="362.70102" target-y="261.43106"></path><path d="M 884.74 723.97 L 929.79 709.63 C 918.19 687.10 909.99 669.70 905.22 657.41 C 900.44 645.12 894.98 624.64 888.83 595.97 C 888.83 596.05 888.81 596.12 888.77 596.16 C 888.47 596.46 887.13 595.71 884.74 593.92 L 884.74 723.97 Z" fill="#000000" fill-rule="nonzero" group-id="2,7,14" node-id="109" stroke="none" target-height="130.04797" target-width="45.05597" target-x="884.73584" target-y="593.92004"></path><path d="M 397.31 401.41 C 389.44 402.87 400.31 420.15 415.81 444.78 C 425.37 459.97 436.70 477.97 446.46 496.77 C 472.06 546.04 455.68 673.79 483.33 790.53 C 510.98 907.26 557.06 993.28 634.88 1034.24 C 712.70 1075.20 728.06 1045.50 693.25 1034.24 C 658.43 1022.98 575.49 886.78 563.20 752.64 C 553.72 649.12 565.58 585.32 571.49 553.52 C 573.24 544.11 574.46 537.51 574.46 533.50 C 574.46 524.13 567.15 520.98 552.37 514.60 C 539.49 509.04 520.95 501.04 496.64 484.35 C 473.28 468.32 456.47 449.01 442.56 433.02 C 425.37 413.26 412.59 398.58 397.31 401.41 Z" fill="#ffffff" fill-rule="nonzero" group-id="2,8" node-id="115" stroke="none" target-height="676.6216" target-width="338.62872" target-x="389.43512" target-y="398.57837"></path><path d="M 789.09 684.66 C 750.10 642.59 622.85 655.87 648.51 740.80 C 662.96 788.64 740.86 868.46 839.38 861.82 C 937.89 855.17 980.99 819.75 980.99 809.79 C 980.99 799.82 891.71 775.46 862.98 754.42 C 834.25 733.38 808.14 705.21 789.09 684.66 Z" fill="#000000" fill-rule="nonzero" group-id="2,9" node-id="120" stroke="none" target-height="225.87433" target-width="358.14044" target-x="622.8516" target-y="642.5873"></path><path d="M 789.29 682.10 C 750.38 643.19 623.40 655.48 649.00 734.02 C 663.42 778.27 741.16 852.08 839.46 845.94 C 937.77 839.80 980.78 807.03 980.78 797.82 C 980.78 788.60 891.69 766.07 863.02 746.61 C 834.34 727.15 808.29 701.10 789.29 682.10 Z" fill="#00cfe0" fill-rule="nonzero" group-id="2,10" node-id="125" stroke="none" target-height="208.89478" target-width="357.3767" target-x="623.3991" target-y="643.1894"></path><path d="M 620.68 416.47 C 610.43 434.97 615.34 457.30 631.67 466.35 C 647.99 475.40 669.54 467.74 679.79 449.24 C 690.04 430.74 685.12 408.41 668.80 399.36 C 652.48 390.31 630.93 397.97 620.68 416.47 Z" fill="#ffffff" fill-rule="nonzero" group-id="2,11,15,19" node-id="134" stroke="none" target-height="85.087524" target-width="79.6189" target-x="610.4252" target-y="390.31277"></path><path d="M 618.06 424.34 C 613.23 433.05 615.50 443.53 623.11 447.75 C 630.73 451.97 640.82 448.34 645.64 439.63 C 650.47 430.93 648.21 420.45 640.59 416.23 C 632.97 412.00 622.88 415.64 618.06 424.34 Z" fill="#000000" fill-rule="nonzero" group-id="2,11,15,20" node-id="139" stroke="none" target-height="39.970184" target-width="37.2359" target-x="613.23303" target-y="412.00415"></path><path d="M 532.62 377.56 C 522.36 396.06 527.28 418.39 543.60 427.44 C 559.93 436.49 581.47 428.82 591.73 410.33 C 601.98 391.83 597.06 369.49 580.74 360.45 C 564.41 351.40 542.87 359.06 532.62 377.56 Z" fill="#ffffff" fill-rule="nonzero" group-id="2,11,16,21" node-id="147" stroke="none" target-height="85.087524" target-width="79.6189" target-x="522.36115" target-y="351.39886"></path><path d="M 530.41 382.36 C 525.58 391.06 527.84 401.54 535.46 405.77 C 543.08 409.99 553.16 406.35 557.99 397.65 C 562.82 388.94 560.55 378.46 552.94 374.24 C 545.32 370.02 535.23 373.65 530.41 382.36 Z" fill="#000000" fill-rule="nonzero" group-id="2,11,16,22" node-id="152" stroke="none" target-height="39.970215" target-width="37.23578" target-x="525.57983" target-y="370.01773"></path><path d="M 395.26 212.99 C 395.26 258.24 358.59 294.91 313.34 294.91 C 268.10 294.91 231.42 258.24 231.42 212.99 C 231.42 167.75 268.10 131.07 313.34 131.07 C 358.59 131.07 395.26 167.75 395.26 212.99 Z" fill="#ffffff" fill-rule="nonzero" group-id="3,12" node-id="162" stroke="none" target-height="163.84003" target-width="163.83998" target-x="231.42384" target-y="131.07202"></path><path d="M 219.03 234.15 C 231.32 227.50 241.90 221.76 250.77 216.92 C 264.07 209.67 278.88 203.02 281.30 203.02 C 283.72 203.02 320.30 211.48 340.25 219.94 C 360.20 228.41 371.38 244.73 379.85 256.52 C 381.69 259.09 383.72 260.57 385.95 260.96 C 390.55 261.78 395.97 257.99 402.22 249.57 L 398.89 188.81 C 387.00 188.41 370.27 187.60 348.71 186.39 C 325.49 185.09 305.23 192.67 293.52 197.05 C 288.92 198.77 285.64 199.99 284.02 199.99 L 277.37 199.99 L 236.26 177.32 L 223.26 193.95 L 219.03 234.15 Z" fill="#ff6903" fill-rule="nonzero" group-id="3,13,17" node-id="169" stroke="none" target-height="84.46216" target-width="183.18642" target-x="219.03029" target-y="177.32202"></path><path d="M 263.47 240.50 C 261.16 256.76 261.16 272.08 263.47 286.45 L 299.14 308.21 L 340.85 291.59 C 321.51 279.70 307.60 265.69 299.14 249.57 C 290.67 233.45 285.03 217.93 282.21 203.02 C 285.84 184.88 293.90 172.08 306.39 164.63 C 318.89 157.17 338.43 149.71 365.04 142.26 L 323.32 125.93 C 304.83 117.52 291.93 119.74 284.63 132.58 C 275.33 148.93 278.11 184.50 279.16 198.08 C 279.35 200.51 279.49 202.24 279.49 203.02 C 279.49 208.16 266.93 216.11 263.47 240.50 Z" fill="#ff6903" fill-rule="nonzero" group-id="3,13,18" node-id="174" stroke="none" target-height="190.69312" target-width="103.87973" target-x="261.15564" target-y="117.5196"></path></g></svg>