<svg viewBox="0 0 1024 1024" height="1024" width="1024" version="1.1" fill="none" xmlns:xlink="http://www.w3.org/1999/xlink" xmlns="http://www.w3.org/2000/svg"><defs><clipPath id="master_svg0_2_61"><rect rx="0" height="1024" width="1024" y="0" x="0"></rect></clipPath><mask maskUnits="objectBoundingBox" style="mask-type:alpha" id="master_svg1_2_62"><g><ellipse fill-opacity="1" fill="#FFFFFF" ry="491.52001953125" rx="491.52001953125" cy="512" cx="514.0480346679688"></ellipse></g></mask><mask maskUnits="objectBoundingBox" style="mask-type:alpha" id="master_svg2_2_85"><g><path fill-opacity="1" fill="#FFFFFF" d="M388.50839596289063,387.71153244140623C376.7698879628906,393.55863144140625,344.2632012628906,409.75064044140623,354.07652776289063,414.65731044140625C355.90314556289064,415.57062544140626,358.51176496289065,417.00526444140627,361.6350231628906,418.72294244140625C376.0206969628906,426.63453244140624,401.3244629628906,440.55066244140625,411.42051696289064,437.18531244140627C423.7085189628906,433.08931244140626,468.7645219628906,393.15331244140623,492.3165119628906,393.15331244140623C515.8685119628906,393.15331244140623,555.5055219628906,414.65731044140625,563.3350219628907,414.65731044140625C571.1645219628906,414.65731044140625,547.6125219628906,332.73730944140624,524.0605119628906,320.4493086414063Q500.5085119628906,308.16130824140623,403.2285309628906,346.04931044140625Q393.21601496289065,350.14500444140623,393.21601496289065,357.3760034414062C393.21601496289065,359.21891744140623,393.6668399628906,361.71471744140626,394.16916696289064,364.49566644140623C395.6378139628906,372.62624344140625,397.54673396289064,383.19420644140627,389.91653096289065,387.00930744140624C389.48986396289064,387.22264144140627,389.0187609628906,387.4573054414062,388.50839596289063,387.71153244140623Z"></path></g></mask></defs><g mask="url(#master_svg1_2_62)" clip-path="url(#master_svg0_2_61)"><g><ellipse fill-opacity="1" fill="#D9EBE9" ry="491.52001953125" rx="491.52001953125" cy="512" cx="514.0480346679688"></ellipse></g><g><path fill-opacity="1" fill="#E03D00" d="M120.83203125,376.8316116015625Q140.28803225000001,392.1916016015625,159.74403425,392.1916016015625Q142.33603325,399.35960160156253,134.14403125,421.8876016015625Q154.62982225,417.7904216015625,158.72234724999998,424.1849716015625Q159.74403425,425.78134160156253,159.74403425,428.0316016015625C159.74403425,430.2680616015625,162.00464225000002,437.4698016015625,165.53199725000002,448.7070816015625C179.77025625,494.0665716015625,214.64826225000002,605.1791116015625,204.80003325,720.8957216015625C192.51203125,865.2794816015625,157.69603325,953.4035016015625,145.40803125,991.2315016015625C133.12003125,1029.0595116015625,458.75204125,1121.2798416015626,499.71203125,1092.6078516015625C540.6720612500001,1063.9358516015625,616.44806125,963.5838616015625,665.60004125,849.9198616015625C714.75207125,736.2561016015625,735.23205125,605.1840816015625,650.24005125,552.9600816015625C565.24805125,500.7360116015625,509.95206125,476.1599116015625,493.56805125,440.31991160156247C477.18405125,404.4799216015625,468.99203125,352.25688960156253,444.41604125,324.6083986015625C442.69827125,322.6758536015625,440.93545125,320.6432606015625,439.11014125,318.5385976015625C414.82098125,290.5321956015625,379.46323125,249.7632376015625,291.84004125,262.1444309015625C197.63203425,275.4560646015625,182.27203325,351.2316056015625,159.74403425,360.44761160156247Q137.21603225,369.6636016015625,120.83203125,376.8316116015625Z"></path></g><g><g transform="matrix(0.8746199011802673,-0.4848097562789917,0.4848097562789917,0.8746199011802673,-137.6857883656412,168.020126665323)"><g><ellipse fill-opacity="1" fill="#FFFFFF" ry="30.63809585571289" rx="27.03361701965332" cy="380.8437080383301" cx="283.03364753723145"></ellipse></g><g><ellipse fill-opacity="1" fill="#000000" ry="14.417927742004395" rx="12.615687370300293" cy="387.36517810821533" cx="296.2332715988159"></ellipse></g></g><g transform="matrix(0.8746199011802673,-0.4848097562789917,0.4848097562789917,0.8746199011802673,-112.0314995083736,196.76604596765083)"><g><ellipse fill-opacity="1" fill="#FFFFFF" ry="30.63809585571289" rx="27.03361701965332" cy="345.6177558898926" cx="351.43687629699707"></ellipse></g><g><ellipse fill-opacity="1" fill="#000000" ry="14.417927742004395" rx="12.615687370300293" cy="349.8304491043091" cx="365.5413465499878"></ellipse></g></g></g><g><path fill-opacity="1" fill="#000000" d="M149.5040283203125,1104.8964854687501Q208.8960303203125,1136.64044546875,322.5600483203125,1074.17648546875C436.2240283203125,1011.71246546875,559.1040383203125,798.72010546875,564.2240583203125,719.87210546875C569.3440583203126,641.02410846875,534.5280483203126,602.79228546875,474.1120283203125,594.60028526875C413.6960483203125,586.40828466875,329.7280383203125,602.11162946875,287.7440383203125,655.36010746875C245.76003232031252,708.60859546875,229.3760303203125,845.82411546875,216.0640333203125,882.68810546875Q190.2122423203125,954.27767546875,166.9120293203125,982.0161154687501Q180.7360303203125,1026.04846546875,149.5040283203125,1104.8964854687501Z"></path></g><g><path fill-opacity="1" fill="#E03D00" d="M123.90399169921875,1028.09554765625Q216.06399569921876,1098.75158765625,329.72800169921874,1036.28756765625C443.3920016992187,973.82354765625,562.1760216992187,770.10557765625,562.1760216992187,697.34356765625C562.1760216992187,624.58155065625,533.5040016992187,566.27146865625,473.0880116992187,558.07946895625C412.67200169921875,549.88746835625,347.13600169921875,556.03162115625,305.15199169921874,609.28010165625C263.16800169921873,662.52858765625,244.73600169921875,770.04772765625,228.35200169921876,861.18356765625Q211.96799469921876,952.31942765625,123.90399169921875,1028.09554765625Z"></path></g><g><g><path fill-opacity="1" fill="#FFDD00" d="M388.50839596289063,387.71153244140623C376.7698879628906,393.55863144140625,344.2632012628906,409.75064044140623,354.07652776289063,414.65731044140625C355.91460206289065,415.57634744140626,358.24757816289065,416.99230944140623,361.0175485628906,418.67349244140627C373.6791989628906,426.35827244140626,395.4715919628906,439.58477244140624,420.8640139628906,436.22400244140624C451.8115009628906,432.12800244140624,468.7645219628906,393.15331244140623,492.3165119628906,393.15331244140623C515.8685119628906,393.15331244140623,555.5055219628906,414.65731044140625,563.3350219628907,414.65731044140625C571.1645219628906,414.65731044140625,547.6125219628906,332.73730944140624,524.0605119628906,320.4493086414063Q500.5085119628906,308.16130824140623,403.2285309628906,346.04931044140625Q394.2400129628906,349.1840034414063,394.2400129628906,358.4000054414063C394.2400129628906,360.7865794414063,394.6367759628906,363.51229844140624,395.04698196289064,366.33037544140626C396.22083296289065,374.39460744140627,397.5047799628906,383.2151874414062,389.91653096289065,387.00930744140624C389.48986396289064,387.22264144140627,389.0187609628906,387.4573054414062,388.50839596289063,387.71153244140623Z"></path></g><g mask="url(#master_svg2_2_85)"><g transform="matrix(0.8480481505393982,0.5299193263053894,-0.5299193263053894,0.8480481505393982,247.40614041729168,-170.50774863337392)"><path fill-opacity="1" fill="#000000" d="M431.39508520507815,355.3180246140625C431.39508520507815,359.8423414140625,427.7030854050781,364.8690264140625,425.4240856050781,365.0860254140625C423.1450853050781,365.3030264140625,421.0185852050781,358.8663414140625,421.0185852050781,354.3420248140625C421.0185852050781,349.8177078140625,423.7693474050781,346.1500244140625,427.16258530507815,346.1500244140625C430.55582430507815,346.1500244140625,431.39508520507815,350.7937078140625,431.39508520507815,355.3180246140625Z"></path></g><g><path fill-opacity="1" fill="#000000" d="M392.988525390625,413.634053734375Q415.516527390625,416.706054734375,425.756527390625,414.658054734375Q435.99652839062503,412.610053734375,489.244529390625,393.154052734375Q457.500526390625,400.322052934375,439.068527390625,407.490052734375C422.557705390625,413.910928734375,406.868542390625,413.758519734375,396.417150990625,413.656991734375C395.201040990625,413.645177734375,394.055846490625,413.634053734375,392.988525390625,413.634053734375Z"></path></g></g></g><g><path fill-opacity="1" fill="#FFFFFF" d="M465.9201427753906,460.7998935984375C447.4881410753906,467.9678935984375,428.0320586753906,516.0957373984374,443.39210607539064,582.6557433984375C453.2848307753906,625.5240733984375,491.81737877539064,656.0391533984375,521.2866747753906,649.7005033984375C522.3832087753906,649.4646433984375,523.0344237753907,648.3464333984375,522.7562257753906,647.2598533984375C518.4351197753906,630.3829233984375,516.5466077753906,616.7046633984376,518.4861827753906,606.9229433984375C518.7576527753906,605.5538433984375,520.3290247753906,604.9711333984375,521.4963607753906,605.7362533984375Q541.4882097753906,618.8398733984375,579.0031997753906,629.3150333984374C579.9450397753906,629.5780133984375,580.9268597753907,629.1262533984375,581.3526897753907,628.2459533984375Q591.1789697753907,607.9330033984374,589.6074697753907,592.6065333984375C589.4223897753907,590.8013033984375,591.4256097753906,589.3450033984375,593.0082097753906,590.2329833984375C611.2374597753906,600.4615033984375,626.8851297753906,603.4736033984375,650.8381697753906,596.4048333984375C651.7004997753907,596.1503433984375,652.2980197753907,595.3655133984375,652.2363997753906,594.4685533984375C651.2763397753906,580.4938633984375,636.9575997753907,564.6438933984375,609.2801497753906,547.8397373984375C580.6081497753906,530.4317393984375,543.7441097753906,516.0958323984376,519.1681057753906,492.5438303984375C515.0721507753906,488.6185323984375,511.3743977753906,484.9207843984375,507.9705737753906,481.5169563984375C490.9512787753906,464.4976591984375,481.2801707753906,454.8265504984375,465.9201427753906,460.7998935984375Z"></path></g><g><path fill-opacity="1" fill="#FFFFFF" fill-rule="evenodd" d="M829.9669627148437,252.7232683203125Q831.1536527148437,250.7723683203125,832.2033827148438,248.7519833203125Q833.2530927148438,246.73159832031251,834.1613427148437,244.6503753203125Q835.0696127148437,242.5691533203125,835.8325027148437,240.43600432031252Q836.5954027148438,238.30285632031251,837.2096827148438,236.1269153203125Q837.8239627148438,233.9509733203125,838.2869827148438,231.7415543203125Q838.7500027148437,229.5321353203125,839.0598027148437,227.2987063203125Q839.3696027148437,225.0652773203125,839.5248127148437,222.8174053203125Q839.6800527148438,220.5695263203125,839.6800427148437,218.3168263203125Q839.6800427148437,216.6275633203125,839.5926927148438,214.9403383203125Q839.5053727148438,213.2531123203125,839.3309327148438,211.5719913203125Q839.1564927148438,209.8908613203125,838.8953427148438,208.2198863203125Q838.6341827148437,206.5489123203125,838.2869727148437,204.8921093203125Q837.9397627148437,203.2353053203125,837.5073127148437,201.5966763203125Q837.0748627148438,199.95803832031248,836.5582227148437,198.3415223203125Q836.0415927148438,196.7249983203125,835.4420127148437,195.1344873203125Q834.8424027148437,193.5439763203125,834.1613327148438,191.9833033203125Q833.4802527148438,190.4226303203125,832.7193127148437,188.8955613203125Q831.9583727148438,187.3684883203125,831.1194127148437,185.87869632031249Q830.2804427148437,184.3889003203125,829.3654627148437,182.9399723203125Q828.4504827148437,181.4910473203125,827.4617027148438,180.0864813203125Q826.4729327148438,178.6819133203125,825.4127327148437,177.3250883203125Q824.3525427148437,175.9682613203125,823.2234827148437,174.6624493203125Q822.0944027148437,173.35663232031249,820.8991827148437,172.1049733203125Q819.7039827148437,170.8533153203125,818.4454927148438,169.6588283203125Q817.1870127148437,168.4643423203125,815.8683027148437,167.3299043203125Q814.5495927148438,166.1954673203125,813.1738427148438,165.1238123203125Q811.7980627148438,164.05215832031251,810.3685627148437,163.0458683203125Q808.9390527148437,162.0395773203125,807.4592327148438,161.1010743203125Q805.9794327148437,160.1625723203125,804.4528827148438,159.29411892031248Q802.9263327148437,158.4256668203125,801.3567227148437,157.6293554203125Q799.7871127148437,156.8330440203125,798.1782227148437,156.1107926203125Q796.5693327148438,155.3885412203125,794.9250627148438,154.7420897203125Q793.2807927148438,154.0956383203125,791.6050727148438,153.5265441203125Q789.9293527148437,152.9574499203125,788.2262427148437,152.4670841203125Q786.5231327148438,151.9767179203125,784.7967027148437,151.5662613203125Q783.0702827148438,151.1558049203125,781.3247227148438,150.8262467203125Q779.5791627148437,150.4966886003125,777.8186827148438,150.2488228103125Q776.0581927148437,150.0009570703125,774.2870227148437,149.8353807303125Q772.5158427148438,149.6698043603125,770.7382227148437,149.5869163423125Q768.9606027148437,149.5040283203125,767.1808427148437,149.5040283203125Q765.4010927148438,149.5040283203125,763.6234727148437,149.5869163423125Q761.8458527148438,149.6698043603125,760.0746727148437,149.8353807303125Q758.3034927148437,150.0009570703125,756.5430027148437,150.2488228703125Q754.7825027148438,150.4966886003125,753.0369427148437,150.8262467203125Q751.2913827148437,151.1558049203125,749.5649727148437,151.5662613203125Q747.8385427148437,151.9767179203125,746.1354327148438,152.4670839203125Q744.4323127148438,152.9574499203125,742.7565827148437,153.5265441203125Q741.0808627148438,154.0956383203125,739.4365827148438,154.7420897203125Q737.7923027148438,155.3885412203125,736.1834227148438,156.1107921203125Q734.5745427148438,156.8330440203125,733.0049427148438,157.6293554203125Q731.4353327148438,158.4256668203125,729.9088027148438,159.29411892031248Q728.3822527148437,160.1625723203125,726.9024327148437,161.1010743203125Q725.4226227148438,162.0395773203125,723.9931027148438,163.0458683203125Q722.5636027148438,164.05215832031251,721.1878327148438,165.1238133203125Q719.8120527148437,166.1954693203125,718.4933467148437,167.3299043203125Q717.1746367148437,168.4643423203125,715.9161607148437,169.6588283203125Q714.6576847148438,170.8533153203125,713.4624787148438,172.1049733203125Q712.2672577148437,173.35663232031249,711.1381987148437,174.6624493203125Q710.0091247148438,175.9682613203125,708.9489287148438,177.3250883203125Q707.8887327148437,178.6819153203125,706.8999557148437,180.0864833203125Q705.9111787148438,181.4910503203125,704.9962007148438,182.9399793203125Q704.0812227148438,184.3889043203125,703.2422487148438,185.8787003203125Q702.4032747148437,187.3684923203125,701.6423337148437,188.8955613203125Q700.8813937148437,190.4226343203125,700.2003097148438,191.9833073203125Q699.5192257148437,193.5439793203125,698.9196477148438,195.1344943203125Q698.3200687148437,196.7250063203125,697.8034367148438,198.3415223203125Q697.2868037148437,199.9580423203125,696.8543547148438,201.5966763203125Q696.4219057148438,203.2353133203125,696.0746917148438,204.8921123203125Q695.7274777148438,206.5489123203125,695.4663387148437,208.21989032031252Q695.2051927148437,209.8908653203125,695.0307467148438,211.5719913203125Q694.8562927148438,213.2531123203125,694.7689667148437,214.9403383203125Q694.6816407148438,216.6275633203125,694.6816407148438,218.3168263203125Q694.6816407148438,218.6647413203125,694.6853487148437,219.0126343203125Q691.0347597148437,218.3167723203125,687.3088227148437,218.3167723203125Q686.4038547148438,218.3167723203125,685.4999847148438,218.3582153203125Q684.5961147148438,218.39965832031248,683.6955187148437,218.48245232031252Q682.7949147148438,218.56523932031251,681.8997497148438,218.68917132031248Q681.0045777148438,218.8131023203125,680.1170077148438,218.97788232031252Q679.2294347148437,219.1426623203125,678.3515927148437,219.3478923203125Q677.4737547148437,219.5531233203125,676.6077647148437,219.7983093203125Q675.7417717148437,220.0434873203125,674.8897137148438,220.3280333203125Q674.0376507148437,220.6125793203125,673.2015767148438,220.9357983203125Q672.3655017148437,221.25901832031252,671.5474317148437,221.6201473203125Q670.7293547148438,221.9812773203125,669.9312557148437,222.3794323203125Q669.1331477148437,222.7775883203125,668.3569377148438,223.21180732031252Q667.5807267148438,223.64603432031248,666.8282777148438,224.11528732031252Q666.0758287148437,224.5845413203125,665.3489607148438,225.0876923203125Q664.6220897148437,225.5908353203125,663.9225467148437,226.1266633203125Q663.2229997148438,226.66249132031248,662.5524677148437,227.22970532031252Q661.8819347148437,227.7969203203125,661.2420347148437,228.39416532031248Q660.6021347148437,228.9914093203125,659.9943997148438,229.6172413203125Q659.3866657148437,230.2430723203125,658.8125687148438,230.8959813203125Q658.2384647148438,231.5488893203125,657.6993787148438,232.22729532031252Q657.1602937148438,232.9057083203125,656.6575237148437,233.6079943203125Q656.1547547148438,234.3102723203125,655.6895137148438,235.03474432031248Q655.2242737148438,235.7592013203125,654.7976757148438,236.5041043203125Q654.3710787148437,237.24900032031252,653.9841577148437,238.0125273203125Q653.5972367148438,238.7760693203125,653.2509227148438,239.55640432031248Q652.9046097148438,240.3367463203125,652.5997387148437,241.1320033203125Q652.2948687148438,241.92726132031248,652.0321727148438,242.7355193203125Q651.7694777148438,243.5437773203125,651.5495877148437,244.3630983203125Q651.3297007148437,245.1824113203125,651.1531527148437,246.01081132031248Q650.9766047148438,246.8392183203125,650.8438187148438,247.6747053203125Q650.7110367148438,248.5101933203125,650.6223377148438,249.3507533203125Q650.5336337148437,250.19131832031252,650.4892307148438,251.0349283203125Q650.4448247148438,251.8785383203125,650.4448247148438,252.7231783203125Q650.4448207148438,255.21988832031252,650.8310207148437,257.6904483203125Q651.2172207148437,260.1609983203125,651.9815297148438,262.5536483203125L638.9760327148438,262.5536483203125C627.6652403148438,262.5536483203125,618.4960327148438,271.7228583203125,618.4960327148438,283.0336483203125C618.4960327148438,285.2958083203125,620.3298739148438,287.1296583203125,622.5920348148437,287.1296583203125L694.6816407148438,287.1296583203125L790.5280327148438,287.1296683203125L860.0970327148437,287.1296683203125C863.7512627148437,287.1296683203125,866.7136427148438,284.1673083203125,866.7136427148438,280.51304832031246C866.7136427148438,265.1651783203125,854.2717327148438,252.7232683203125,838.9238427148438,252.7232683203125L829.9669627148437,252.7232683203125Z"></path></g></g></svg>