<svg viewBox="0 0 1024 1024" height="1024" width="1024" version="1.1" fill="none" xmlns:xlink="http://www.w3.org/1999/xlink" xmlns="http://www.w3.org/2000/svg"><defs><clipPath id="master_svg0_4_0"><rect rx="0" height="1024" width="1024" y="0" x="0"></rect></clipPath><mask maskUnits="objectBoundingBox" style="mask-type:alpha" id="master_svg1_4_16"><g><ellipse fill-opacity="1" fill="#FFFFFF" ry="491.52001953125" rx="491.52001953125" cy="512.0000305175781" cx="514.04833984375"></ellipse></g></mask></defs><g mask="url(#master_svg1_4_16)" clip-path="url(#master_svg0_4_0)"><g><g><ellipse fill-opacity="1" fill="#E5E5E5" ry="510" rx="510" cy="516" cx="514"></ellipse></g><g><g><path fill-opacity="1" fill="#A0A0A0" fill-rule="evenodd" d="M570.6934655517578,893.0950853344726C556.8504355517578,872.7399943344726,573.4622055517578,830.1794033344727,591.9194955517578,818.1514053344727C590.4461855517578,843.9997403344727,596.6166655517578,853.1529423344726,605.2684355517579,865.9867863344726C607.4556855517578,869.2313383344726,609.8015255517578,872.7111053344727,612.2225455517578,876.7553673344727Q623.3619855517578,895.3635563344726,605.0642855517578,934.1822253344726Q625.1644455517578,957.7638053344726,642.2163655517578,1004.5118153344727L599.1490055517578,1012.7360653344726Q579.9213755517578,955.0854253344727,555.8185155517579,937.9144753344726C531.7157155517579,920.7435053344726,495.01718555175785,924.5528253344727,464.04690555175785,917.5593793344726Q433.07662955175783,910.5659413344727,387.9640655517578,842.2073073344726L401.8071415517578,838.5063853344726Q432.26190155175783,890.3192973344726,464.04690555175785,906.0482333344727C481.7126995517578,914.7901913344726,499.4606655517578,912.9196393344727,518.8724255517578,910.8737263344726C534.3870355517578,909.2385173344727,550.9644055517579,907.4913023344726,569.4120655517578,910.9607013344727Q576.4206255517578,912.2787703344727,583.1371655517578,915.8163753344727Q575.9596355517579,900.8384173344726,570.6934655517578,893.0950853344726Z"></path></g><g><path fill-opacity="1" fill="#898989" fill-rule="evenodd" d="M701.343309350586,862.0108145532226C698.7755993505859,840.3151745532226,701.6691093505859,816.1619445532226,721.7872293505859,791.3195145532227C764.4960793505859,738.5814545532227,794.028059350586,692.3198815532227,776.4934993505859,634.9556045532227C811.562609350586,648.8340625532227,829.0971993505859,668.2639085532227,837.403059350586,698.7965275532226C845.708849350586,729.3291325532226,837.088499350586,771.3765345532227,807.5565993505859,798.4648345532227C778.0246993505859,825.5531245532227,749.9870793505859,826.4783145532226,737.7328793505859,848.6838945532227Q727.366359350586,867.4688345532227,717.551969350586,907.8676545532227Q729.2752093505859,937.1387445532226,745.7815093505859,970.5858545532226L702.714169350586,981.8942045532226Q676.0242153505859,878.2845645532227,668.134727350586,815.0628745532226Q633.643886350586,832.4105445532226,610.375154350586,810.7496445532227C584.533576850586,786.6936145532227,579.920329550586,739.5068745532227,590.0720634505859,722.8527295532226C591.678824950586,720.2167895532226,593.3318252505859,717.8590015532227,594.902995150586,715.6179355532227C603.2586863505859,703.6996005532227,609.2999803505859,695.0824545532226,593.763890250586,665.4884415532226C625.141540350586,683.9930495532227,636.2159953505859,702.4976575532227,628.8330233505859,722.8527295532226C620.8768353505859,744.7881745532227,624.671157350586,761.2414445532227,636.216362350586,772.8160345532226Q654.8020783505859,791.4490445532226,666.7118833505859,802.4967745532226Q664.8239593505859,783.7775545532227,664.8239593505859,769.1141145532226Q664.8239593505859,703.4227675532227,683.281395350586,659.9369275532226L723.8877393505859,659.9369275532226Q688.818629350586,723.7778395532226,688.818629350586,789.4692045532227Q688.818629350586,820.2724045532227,701.343309350586,862.0108145532226Z"></path></g><g><path fill-opacity="1" fill="#000000" fill-rule="evenodd" d="M271.7423533422851,515.951359963379C201.41072034228517,442.8433899633789,330.5576703422852,379.3641099633789,396.8882933422851,346.7608999633789C419.1570933422852,335.8151799633789,434.34572334228517,328.34956996337894,432.52929334228514,325.1678699633789C430.3235133422852,321.3043699633789,413.05576334228516,329.7381499633789,390.7162833422851,340.64900996337894L390.7157233422852,340.64927996337894C339.86176334228514,365.4871299633789,262.72662834228515,403.1610799633789,277.16200634228517,337.8264499633789C292.5826183422852,268.0327199633789,378.66192334228515,240.5766799633789,421.25069334228516,226.9924399633789C436.0431933422851,222.2741799633789,445.58893334228515,219.2294299633789,445.1048833422851,216.6653899633789C444.64438334228515,214.2263299633789,431.5939133422852,219.0192599633789,412.6489833422852,225.97700996337892L412.6486733422852,225.9771199633789C354.33990334228514,247.3918099633789,240.19421634228516,289.3132699633789,265.41985234228514,204.0067999633789C292.7158813422852,111.6987709633789,436.29880334228517,149.0605129633789,489.4909333422852,162.9016499633789C501.42817334228516,166.0078429633789,508.8128733422852,167.92941296337892,509.30942334228513,166.9350969633789C510.01337334228515,165.5256269633789,498.15755334228515,162.1632309633789,481.9314033422852,157.5613669633789L481.93052334228514,157.5611149633789C435.70040334228514,144.4499509633789,353.9958233422851,121.27799796337891,426.2062133422852,104.5461509633789C501.6399333422852,87.0674166633789,538.1883933422852,127.9742009633789,556.3140933422851,148.26140196337892C561.6297733422851,154.2109829633789,565.3610933422851,158.38715396337892,568.0239033422852,158.7971799633789C571.3938933422851,159.3160929633789,567.5475833422852,154.1754909633789,561.8652433422851,146.5810319633789L561.8649633422851,146.5806469633789C547.7468033422851,127.71181496337891,522.2953533422851,93.6958999633789,568.0238433422851,93.6958999633789C632.1579633422851,93.6958999633789,622.2219633422851,181.3308639633789,633.0615033422852,181.3308639633789C636.0800533422852,181.3308639633789,634.6854633422852,174.3946919633789,632.8182133422852,165.1079409633789L632.8180633422851,165.1071779633789C627.9798633422852,141.04516196337892,619.9690933422851,101.2041282633789,677.3227033422852,125.3424629633789C735.8798333422851,149.98731996337892,728.0451433422852,181.4921879633789,723.9894833422852,197.8008699633789L723.9891733422851,197.8020799633789C722.5395933422851,203.6313599633789,721.5728533422852,207.5188299633789,724.2944433422851,208.4571999633789C731.4488033422851,210.92407996337892,733.2474133422852,202.9080099633789,735.2969433422852,193.7732599633789C739.1991333422852,176.38156896337892,744.0111433422851,154.9348949633789,788.4284433422852,194.0608699633789C839.2953233422852,238.86784996337892,795.4442533422852,253.09062996337892,772.7282533422851,260.4583799633789C765.1897333422852,262.9034799633789,759.9791933422852,264.5935099633789,761.3296233422852,266.3958499633789C762.8142433422852,268.3770699633789,768.0932433422852,266.3564399633789,775.8677133422851,263.3805599633789C796.4786733422851,255.4912799633789,834.6288233422852,240.8885899633789,866.1115533422851,276.3417599633789C895.0732833422852,308.9556499633789,851.4908833422852,323.8190199633789,821.2396633422852,334.13594996337895C806.2020633422851,339.2643699633789,794.4589033422851,343.2693699633789,796.5582033422852,347.7726999633789C798.1304733422852,351.1454199633789,804.9535333422851,347.6965099633789,814.7911733422851,342.7237299633789L814.7923933422852,342.7231199633789C844.5149933422852,327.69862996337895,901.7518033422851,298.76594996337894,924.8260233422851,402.0238099633789C947.4358333422852,503.2024599633789,867.2384433422851,456.8782999633789,823.3505633422851,431.5274099633789L823.3481233422851,431.5260099633789C807.6216833422851,422.4421499633789,796.5582033422852,416.0516999633789,796.5582033422852,420.1066699633789C796.5582033422852,423.6010499633789,806.7350233422851,428.6842699633789,821.2411833422851,435.9298799633789C870.5451433422852,460.5567099633789,969.8612433422852,510.1641299633789,889.5975133422852,607.2743899633789C805.9486433422852,708.4800199633789,771.5012633422851,566.3698499633789,757.9547833422852,510.4848099633789L757.9542333422851,510.4825799633789C755.1327333422852,498.8426599633789,753.2180833422851,490.9438899633789,751.9543833422852,489.7644999633789C776.5332433422851,467.1905899633789,788.2198233422852,432.1786299633789,780.6876633422852,369.5815799633789C768.4578633422851,267.9449199633789,669.7458233422851,152.2872469633789,534.3451333422852,192.59255196337892C398.9443733422852,232.8978699633789,433.01247334228515,349.4278199633789,474.94283334228516,425.6569899633789C492.7086533422852,457.9551499633789,523.3339033422851,483.8039299633789,557.4497733422852,501.2708199633789C554.5315333422852,501.1401399633789,548.1245533422851,510.1959299633789,538.9611233422852,523.1477399633789L538.9597233422851,523.1497299633788C513.6485033422852,558.925879963379,467.3074833422852,624.4261199633789,415.36657334228516,608.178499963379C365.5754533422852,592.6033999633789,423.8517533422852,529.3803799633789,462.25342334228515,487.7189999633789L462.25393334228517,487.71844996337893C479.58551334228514,468.91571996337893,492.86844334228516,454.5052899633789,490.3402933422851,450.8499499633789C488.35782334228514,447.9836199633789,479.9299233422852,456.1930599633789,466.9556333422852,468.83099996337893L466.9550433422852,468.8315799633789C426.72309334228515,508.0207599633789,342.77733634228514,589.7907199633789,271.7423533422851,515.951359963379ZM558.2891033422852,501.6984599633789C559.7364233422852,504.0372999633789,550.4238033422852,516.8222099633789,537.1935833422851,534.9851199633789C497.5813333422851,589.3665199633789,422.85212334228515,691.9580499633789,496.6632633422852,706.7348999633789C570.2852533422852,721.4738499633789,607.7067033422852,608.6391999633789,628.0332433422852,547.3495599633789C630.8161133422852,538.9585599633789,633.2785733422852,531.5336699633789,635.4696433422852,525.5346099633789C610.3794033422852,522.6398699633789,583.4116933422852,514.4385499633789,558.2891033422852,501.6984599633789ZM643.3712233422851,526.2746999633789C642.3579433422851,531.059429963379,641.0505733422851,536.7003299633789,639.5977233422852,542.9689999633789C625.6471933422852,603.1612299633789,598.2822333422852,721.2327699633789,689.0656233422851,694.9805699633789C787.1489033422852,666.617349963379,763.6818633422852,555.1906799633789,754.0330233422851,509.37604996337893C752.0151433422852,499.7953299633789,750.6017233422851,493.0839299633789,751.0305833422851,490.60168996337893C735.8119533422852,504.2114599633789,715.8063433422851,513.2449999633789,692.4583533422851,521.1609899633788C678.2947733422852,525.963079963379,661.4434633422852,527.5668099633789,643.3712233422851,526.2746999633789Z"></path></g><g><path fill-opacity="1" fill="#5C5C5C" fill-rule="evenodd" d="M126.79098093496094,652.5312269262695C113.66732783496094,602.5348769262696,172.85805483496094,631.5859769262695,210.15564683496092,649.8918669262696C225.31536083496093,657.3323569262695,236.85826083496096,662.9976569262695,238.45847083496093,660.8583869262695C239.72411083496092,659.1664369262695,234.04675083496093,655.9276969262695,225.09621083496094,650.8217569262695C194.88829083496094,633.5893769262696,127.39747643496094,595.0885009262695,163.70586383496095,522.9993759262695C201.96000683496095,447.0470199262695,253.01666083496093,566.6794429262695,273.271910834961,614.1401869262695C277.9379608349609,625.0733169262695,280.96944083496095,632.1765469262696,281.833420834961,632.1767069262695C282.927080834961,632.1768569262695,280.702790834961,625.1221269262695,277.47067083496097,614.8708569262695L277.4702908349609,614.8696469262695C267.0652608349609,581.8685299262695,246.21654083496094,515.7434669262695,291.98502083496095,545.2050289262695C337.03404083496093,574.2034989262695,335.24013083496095,616.0040969262695,334.28934083496097,638.1581669262696C334.12358083496093,642.0197869262695,333.98347083496094,645.2844969262695,334.12155083496094,647.7804169262695C314.8799608349609,638.1847769262695,294.93668083496095,636.9761569262696,276.2948108349609,650.6819369262696C234.76511083496092,681.2152369262695,239.37994083496093,717.2973869262695,255.99185083496093,752.4561269262695C272.60376083496095,787.6149069262696,323.36148083496096,841.2782969262696,385.19371083496094,830.1756669262695C413.7871508349609,825.0414169262694,425.6056408349609,808.4317369262695,426.85496083496093,787.5744969262696C430.52287083496094,789.1983369262696,442.87654083496096,788.8580369262695,458.82164083496093,788.4185569262695L458.8221608349609,788.4185569262695C505.5685608349609,787.1306269262695,583.1838208349609,784.9922569262695,563.309430834961,829.0040969262695C543.089680834961,873.7805869262695,482.01540083496093,849.0761169262696,448.38762083496096,835.4736669262695L448.3857008349609,835.4729069262696C435.96901083496095,830.4504169262696,427.29478083496093,826.9417469262696,425.8014708349609,829.0040969262695C424.12886083496096,831.3142469262696,436.01442083496096,835.4595069262696,451.7915208349609,840.9618269262695L451.79225083496095,840.9620769262694C488.24382083496096,853.6749369262695,545.4675408349609,873.6322669262695,504.24574083496094,894.9414169262695C458.62456083496096,918.5251269262695,419.61040083496096,875.3163269262695,402.2886208349609,856.1318769262696C397.18465083496096,850.4791969262695,393.96388083496095,846.9122369262695,393.01256083496094,847.7544969262696C391.8112008349609,848.8179969262695,399.03950083496096,856.1481369262696,408.5055408349609,865.7474169262696L408.50621083496094,865.7480869262695C431.97761083496096,889.5501769262696,469.2059208349609,927.3029869262696,425.8016508349609,918.0723369262696C379.72783083496097,908.2737469262695,372.73016083496094,875.7113369262695,369.4461708349609,860.4301269262695C368.38872083496096,855.5095269262695,367.71634083496093,852.3806569262695,366.2483808349609,852.3805969262695C364.5923108349609,852.3805269262696,365.48608083496094,857.3407069262696,366.69594083496094,864.0551569262695L366.69604083496097,864.0557369262694C369.889210834961,881.7767369262695,375.2840108349609,911.7161069262695,341.8204308349609,894.9414169262695C308.43286083496093,878.2051469262695,319.49562083496096,855.3000569262695,325.71645083496094,842.4202069262695C328.0931708349609,837.4993069262696,329.76305083496095,834.0418169262696,327.97719083496094,832.9507569262696C326.13853083496093,831.8275269262695,324.59895083496093,836.9649169262696,322.48592083496095,844.0158769262696C317.17502083496095,861.7376469262695,308.2418508349609,891.5463669262695,281.83375083496094,864.4089169262695C254.63132083496095,836.4551769262696,275.0361608349609,822.0665969262695,286.1795808349609,814.2087469262696C290.15826083496097,811.4032669262695,292.9562808349609,809.4302169262695,291.98523083496093,807.9695169262695C290.92921083496094,806.3809569262695,288.51282083496096,808.8832769262696,284.9092708349609,812.6151469262695C275.91919083496094,821.9251769262696,259.54027083496095,838.8870669262695,238.45880083496093,819.0726669262694C218.36763783496093,800.1890369262695,235.43754083496094,792.0111769262695,248.40448083496094,785.7989869262695L248.40543083496095,785.7985269262695C254.49812083496093,782.8795569262695,259.684780834961,780.3946269262696,259.68474083496096,777.4369869262696C259.6847208349609,775.3450669262695,258.08098083496094,776.4217569262696,254.92660083496094,778.5394369262696C244.12878083496093,785.7884269262695,215.16249083496092,805.2346269262696,170.16628983496093,751.5308169262695C129.22929623496094,702.6717469262695,182.99872183496095,718.9463569262696,216.14890283496095,728.9800669262695L216.14932983496095,728.9801869262695L216.14955883496094,728.9802669262696C230.08067083496093,733.1968569262696,240.37015083496095,736.3112369262695,238.45869083496092,733.0260869262695C231.99869083496094,721.9235269262696,145.24878683496092,722.8487769262695,126.79098093496094,652.5312269262695ZM426.95183083496096,785.1830869262695C429.9062308349609,784.2999369262695,437.9032408349609,784.9334169262695,448.30266083496093,785.7572369262696C480.4700808349609,788.3054569262695,535.623270834961,792.6745069262695,535.623270834961,759.6117669262695C535.623270834961,729.8808969262695,493.5637408349609,740.0620969262695,460.12538083496094,748.1563969262695C441.55257083496093,752.6522569262695,425.63954083496094,756.5042469262696,421.07091083496096,752.5156369262695C424.9785008349609,763.7889469262695,427.17247083496096,774.9502369262696,426.95183083496096,785.1830869262695ZM419.86696083496093,749.1817569262696C420.9960208349609,745.3064069262696,431.86006083496096,743.6721069262695,444.30153083496094,741.8005169262696C468.20103083496093,738.2052669262696,497.92076083496096,733.7344769262695,475.63682083496093,710.8207469262695C448.55067083496095,682.9690969262696,415.43831083496093,697.7762069262695,400.71007083496096,704.3623569262695C398.91914083496096,705.1632169262696,397.40007083496096,705.8425169262696,396.19670083496095,706.3087669262695C396.84163083496094,707.1953469262695,397.48070083496094,708.0831869262695,398.1137508349609,708.9717169262696C406.97923083496096,721.4152769262696,414.6628308349609,735.3223669262695,419.86696083496093,749.1817569262696ZM394.9285408349609,704.5773669262695C396.38396083496093,703.8165669262695,398.58494083496095,702.9786569262695,401.23878083496095,701.9683269262696C418.17320083496094,695.5214969262695,453.54887083496095,682.0540269262696,431.33809083496095,636.8021169262695C409.4957708349609,592.3008649262695,384.93202083496095,644.3342469262695,373.10873083496097,669.3794969262696C372.04893083496097,671.6244869262696,371.09152083496093,673.6526369262696,370.24759083496093,675.3749769262695C379.07152083496095,684.3343269262696,387.38438083496095,694.3483469262695,394.9285408349609,704.5773669262695ZM368.74643083496096,673.8659769262695C369.24173083496095,672.8787769262696,369.79025083496094,671.8082169262696,370.3777508349609,670.6615969262696L370.3779408349609,670.6612169262695C380.1668408349609,651.5566969262695,400.7736708349609,611.3389869262695,366.2483808349609,583.8198399262695C333.73225083496095,557.9020959262696,335.55444083496093,609.7358469262696,336.5218008349609,637.2536969262695L336.52188083496094,637.2560369262695C336.69582083496095,642.2046569262695,336.84210083496095,646.3666869262695,336.75601083496093,649.1484569262695C347.811220834961,655.1155669262696,358.60268083496095,663.7718269262696,368.74643083496096,673.8659769262695Z"></path></g></g></g></g></svg>