<?xml version="1.0" standalone="no"?><!DOCTYPE svg PUBLIC "-//W3C//DTD SVG 1.1//EN" "http://www.w3.org/Graphics/SVG/1.1/DTD/svg11.dtd"><svg height="1024" node-id="1" sillyvg="true" template-height="1024" template-width="1024" version="1.1" viewBox="0 0 1024 1024" width="1024" xmlns="http://www.w3.org/2000/svg" xmlns:xlink="http://www.w3.org/1999/xlink"><defs node-id="69"><clipPath id="master_svg0_2_068" node-id="3"><path d="M 0.00 0.00 L 1024.00 0.00 L 1024.00 1024.00 L 0.00 1024.00 Z" fill="#000000" fill-rule="nonzero" node-id="72" stroke="none" target-height="1024" target-width="1024" target-x="0" target-y="0"></path></clipPath><mask height="202183.06" id="master_svg1_2_072" maskUnits="userSpaceOnUse" node-id="5" width="202183.06" x="-100087.64" y="-100138.77"><path d="M 438.84 1083.59 C 479.12 1207.57 567.01 1310.47 683.16 1369.65 C 799.31 1428.83 934.21 1439.45 1058.19 1399.16 C 1182.17 1358.88 1285.07 1271.00 1344.25 1154.85 C 1403.44 1038.69 1414.05 903.79 1373.77 779.81 C 1333.49 655.83 1245.60 552.93 1129.45 493.75 C 1013.30 434.57 878.40 423.95 754.42 464.23 C 630.44 504.52 527.54 592.40 468.35 708.55 C 409.17 824.70 398.55 959.61 438.84 1083.59 Z" fill="#ffffff" fill-rule="nonzero" node-id="78" stroke="none" target-height="1015.4995" target-width="1015.4996" target-x="398.55438" target-y="423.94858"></path></mask><mask height="867.5516" id="master_svg2_2_098" maskUnits="userSpaceOnUse" node-id="8" width="752.0258" x="301.87506" y="308.63202"><path d="M 249.13 838.13 C 219.43 887.29 214.31 992.76 270.63 1026.55 C 326.95 1060.34 602.11 1086.46 633.86 1068.03 C 641.92 1063.35 642.77 1052.20 644.14 1034.17 C 646.21 1006.82 649.49 963.64 680.96 903.17 C 688.78 888.14 696.45 874.16 703.77 860.80 C 745.33 785.00 775.94 729.17 762.88 613.38 C 764.50 613.38 766.67 613.43 769.32 613.50 C 801.72 614.33 905.82 616.99 959.78 542.20 C 1015.53 464.93 979.73 465.20 955.89 465.38 C 954.77 465.39 953.67 465.40 952.62 465.40 C 929.06 465.40 844.37 442.35 799.02 424.44 C 753.66 406.53 736.26 352.26 625.66 338.94 C 523.21 326.61 460.55 399.96 442.93 420.59 C 441.54 422.23 440.42 423.53 439.59 424.44 C 430.72 434.12 409.77 432.99 392.76 432.08 C 388.18 431.84 383.89 431.61 380.20 431.61 C 362.79 431.61 354.60 442.87 354.60 489.97 C 354.60 564.08 434.47 635.38 450.86 651.77 C 467.24 668.15 433.45 693.75 393.51 716.28 C 353.58 738.81 278.82 788.98 249.13 838.13 Z" fill="#ffffff" fill-rule="nonzero" node-id="85" stroke="none" target-height="759.85223" target-width="801.2212" target-x="214.31264" target-y="326.61188"></path></mask><mask height="88.98505" id="master_svg3_2_104" maskUnits="userSpaceOnUse" node-id="11" width="221.97243" x="222.02852" y="88.84061"><path d="M 442.78 127.87 C 414.57 153.21 383.21 165.89 348.70 165.89 C 314.20 165.89 282.83 153.21 254.62 127.87 C 252.87 126.29 252.87 123.57 254.62 121.99 C 282.83 96.64 314.20 83.97 348.70 83.97 C 383.21 83.97 414.57 96.64 442.78 121.99 C 444.54 123.57 444.54 126.29 442.78 127.87" fill="#ffffff" fill-rule="nonzero" node-id="92" stroke="none" target-height="81.92001" target-width="191.67563" target-x="252.86545" target-y="83.96803"></path></mask><mask height="50.534195" id="master_svg4_2_081" maskUnits="userSpaceOnUse" node-id="14" width="112.01752" x="382.19324" y="46.741364"><path d="M 494.04 74.47 C 479.08 87.90 462.46 94.62 444.17 94.62 C 425.88 94.62 409.26 87.90 394.31 74.47 C 393.38 73.63 393.38 72.19 394.31 71.35 C 409.26 57.92 425.88 51.20 444.17 51.20 C 462.46 51.20 479.08 57.92 494.04 71.35 C 494.97 72.19 494.97 73.63 494.04 74.47" fill="#ffffff" fill-rule="nonzero" node-id="99" stroke="none" target-height="43.417637" target-width="101.588135" target-x="393.37784" target-y="51.199993"></path></mask></defs><g clip-path="url(#master_svg0_2_068)" id="sillyvg_g_4" node-id="104"><path d="M 1005.57 512.00 C 1005.57 642.36 953.78 767.38 861.61 859.56 C 769.43 951.74 644.41 1003.52 514.05 1003.52 C 383.69 1003.52 258.67 951.74 166.49 859.56 C 74.31 767.38 22.53 642.36 22.53 512.00 C 22.53 381.64 74.31 256.62 166.49 164.44 C 258.67 72.26 383.69 20.48 514.05 20.48 C 644.41 20.48 769.43 72.26 861.61 164.44 C 953.78 256.62 1005.57 381.64 1005.57 512.00 Z" fill="#dbebdb" fill-rule="nonzero" group-id="1" node-id="108" stroke="none" target-height="983.04004" target-width="983.04004" target-x="22.528015" target-y="20.47998"></path><path d="M -92.16 619.52 C -154.28 857.99 53.39 984.66 195.06 932.96 C 207.74 928.34 211.19 912.88 203.85 901.55 C 164.04 840.11 132.05 764.50 154.98 656.62 C 178.63 545.36 217.55 525.87 281.38 479.39 C 289.42 473.53 288.82 461.46 279.95 456.93 C 177.81 404.76 -32.42 390.20 -92.16 619.52 Z" fill="#e1017c" fill-rule="nonzero" group-id="2" node-id="113" stroke="none" target-height="594.45605" target-width="443.70612" target-x="-154.28119" target-y="390.202"></path><path d="M 77.02 465.20 C 73.57 466.51 73.59 471.29 77.03 472.62 C 89.34 477.36 98.65 481.01 104.97 483.59 C 108.49 485.04 109.71 489.30 108.00 492.70 C 102.98 502.70 99.04 516.10 106.50 516.10 C 109.69 516.10 114.84 514.01 120.21 511.83 C 130.37 507.73 141.31 503.30 141.31 512.00 C 141.31 525.31 149.50 573.44 157.70 547.84 C 164.81 525.60 191.25 498.72 216.20 481.31 C 221.17 477.83 221.36 470.27 216.01 467.41 C 175.82 445.94 129.49 445.20 77.02 465.20 Z" fill="#ffffff" fill-rule="nonzero" group-id="3" node-id="118" stroke="none" target-height="128.2349" target-width="147.78967" target-x="73.57438" target-y="445.20474"></path><path d="M 249.13 838.13 C 219.43 887.29 214.31 992.76 270.63 1026.55 C 326.95 1060.34 602.11 1086.46 633.86 1068.03 C 641.92 1063.35 642.77 1052.20 644.14 1034.17 C 646.21 1006.82 649.49 963.64 680.96 903.17 C 688.78 888.14 696.45 874.16 703.77 860.80 C 745.33 785.00 775.94 729.17 762.88 613.38 C 764.50 613.38 766.67 613.43 769.32 613.50 C 801.72 614.33 905.82 616.99 959.78 542.20 C 1015.53 464.93 979.73 465.20 955.89 465.38 C 954.77 465.39 953.67 465.40 952.62 465.40 C 929.06 465.40 844.37 442.35 799.02 424.44 C 753.66 406.53 737.28 352.26 626.69 338.94 C 523.84 326.57 460.22 400.52 442.75 420.82 C 441.44 422.35 440.38 423.58 439.59 424.44 C 430.72 434.12 409.77 432.99 392.76 432.08 C 388.18 431.84 383.89 431.61 380.20 431.61 C 362.79 431.61 354.60 442.87 354.60 489.97 C 354.60 564.08 434.47 635.38 450.86 651.77 C 467.24 668.15 433.45 693.75 393.51 716.28 C 353.58 738.81 278.82 788.98 249.13 838.13 Z" fill="#df006c" fill-rule="nonzero" group-id="4" node-id="123" stroke="none" target-height="759.8988" target-width="801.2212" target-x="214.31264" target-y="326.5653"></path><path d="M 394.24 510.98 C 377.75 524.47 403.46 565.25 431.10 601.09 C 437.13 608.90 449.56 620.05 464.95 633.86 C 520.17 683.39 613.65 767.25 587.78 855.04 C 565.71 929.89 513.49 985.18 431.10 1020.93 L 560.13 1020.93 C 654.04 921.65 687.97 820.71 661.92 718.14 C 661.14 715.08 662.85 711.71 666.00 711.57 C 677.73 711.04 690.68 721.31 700.51 729.09 C 712.41 738.53 719.73 744.33 714.75 722.94 C 704.51 678.91 649.47 637.70 581.63 585.73 C 513.79 533.76 405.50 501.76 394.24 510.98 Z" fill="#ffffff" fill-rule="nonzero" group-id="5,9" node-id="130" stroke="none" target-height="519.1682" target-width="341.9759" target-x="377.74915" target-y="501.7598"></path><path d="M 400.26 444.25 C 388.29 441.12 372.49 442.93 371.32 450.18 C 370.16 457.43 377.30 474.37 393.27 477.80 C 413.19 482.21 424.54 465.51 424.32 458.87 C 424.10 452.23 412.22 447.38 400.26 444.25 Z" fill="#000000" fill-rule="nonzero" group-id="5,10" node-id="135" stroke="none" target-height="41.08789" target-width="54.384583" target-x="370.1571" target-y="441.1216"></path><path d="M 745.47 380.93 C 764.10 410.97 774.34 446.12 776.19 486.40 C 776.91 502.09 805.89 499.71 813.06 515.07 C 814.41 517.98 808.47 518.50 800.99 519.17 C 790.20 520.12 776.19 521.36 776.19 530.43 C 776.19 538.40 800.77 533.50 817.15 550.91 C 819.16 553.05 812.15 555.01 803.18 557.52 C 790.70 561.01 774.43 565.55 773.41 573.10 C 771.59 586.49 768.90 597.06 762.88 613.38 L 930.82 638.98 L 991.23 524.29 L 991.23 449.54 L 745.47 380.93 Z" fill="#df006c" fill-rule="nonzero" group-id="5,11" node-id="140" stroke="none" target-height="258.048" target-width="245.75995" target-x="745.4721" target-y="380.92795"></path><path d="M 769.02 594.94 C 766.44 604.16 859.14 592.90 904.19 565.25 C 949.25 537.60 957.44 514.05 951.30 504.83 C 947.38 498.96 934.75 500.57 919.48 502.51 C 910.77 503.62 901.20 504.83 891.90 504.83 C 811.48 504.83 786.43 486.40 775.28 474.12 C 775.70 478.14 776.00 482.23 776.19 486.40 C 776.92 502.09 805.89 499.71 813.06 515.07 C 814.41 517.98 808.47 518.50 800.99 519.17 C 790.20 520.12 776.19 521.36 776.19 530.43 C 776.19 538.41 800.77 533.50 817.15 550.91 C 819.16 553.05 812.15 555.01 803.18 557.52 C 790.70 561.01 774.43 565.55 773.41 573.10 C 772.14 582.48 771.73 585.30 769.02 594.94 Z" fill="#000000" fill-rule="nonzero" group-id="5,12" node-id="145" stroke="none" target-height="130.04095" target-width="190.99829" target-x="766.4417" target-y="474.12012"></path><path d="M 407.55 799.74 C 426.67 838.66 450.90 880.30 480.26 924.67 C 522.66 988.76 552.45 1057.61 623.62 1095.68 C 639.36 1104.10 652.05 1106.04 661.71 1101.51 C 670.06 1097.58 676.14 1088.81 679.94 1075.20 C 645.80 976.90 616.45 897.37 591.87 836.61 C 567.30 775.85 536.92 729.77 500.74 698.37 L 407.55 799.74 Z" fill="#000000" fill-rule="nonzero" group-id="5,13" node-id="150" stroke="none" target-height="407.67303" target-width="272.38397" target-x="407.552" target-y="698.3681"></path><path d="M 398.34 795.65 C 418.82 825.69 445.44 861.87 478.21 904.19 C 527.36 967.68 579.58 1047.55 623.62 1071.10 C 643.11 1081.53 657.94 1083.83 668.10 1078.00 C 673.24 1075.05 677.18 1070.02 679.94 1062.91 C 645.80 964.61 616.45 885.08 591.87 824.32 C 567.30 763.56 536.92 717.48 500.74 686.08 L 398.34 795.65 Z" fill="#df006c" fill-rule="nonzero" group-id="5,14" node-id="155" stroke="none" target-height="397.75" target-width="281.60007" target-x="398.33603" target-y="686.0801"></path><path d="M 567.43 453.34 C 557.18 471.84 562.10 494.17 578.42 503.21 C 594.74 512.26 616.29 504.60 626.54 486.10 C 636.80 467.60 631.88 445.27 615.55 436.22 C 599.23 427.17 577.69 434.84 567.43 453.34 Z" fill="#ffffff" fill-rule="nonzero" group-id="5,15,20,26" node-id="164" stroke="none" target-height="85.087494" target-width="79.6189" target-x="557.17694" target-y="427.1749"></path><path d="M 564.81 461.20 C 559.99 469.91 562.25 480.39 569.87 484.61 C 577.48 488.83 587.57 485.20 592.40 476.49 C 597.22 467.79 594.96 457.31 587.34 453.09 C 579.72 448.86 569.64 452.50 564.81 461.20 Z" fill="#000000" fill-rule="nonzero" group-id="5,15,20,27" node-id="169" stroke="none" target-height="39.970215" target-width="37.23584" target-x="559.9856" target-y="448.8642"></path><path d="M 479.37 414.42 C 469.11 432.92 474.03 455.25 490.36 464.30 C 506.68 473.35 528.22 465.69 538.48 447.19 C 548.73 428.69 543.81 406.36 527.49 397.31 C 511.17 388.26 489.62 395.93 479.37 414.42 Z" fill="#ffffff" fill-rule="nonzero" group-id="5,15,21,28" node-id="177" stroke="none" target-height="85.087494" target-width="79.6189" target-x="469.1128" target-y="388.2633"></path><path d="M 477.16 419.22 C 472.33 427.93 474.59 438.41 482.21 442.63 C 489.83 446.85 499.92 443.22 504.74 434.51 C 509.57 425.80 507.30 415.32 499.69 411.10 C 492.07 406.88 481.98 410.51 477.16 419.22 Z" fill="#000000" fill-rule="nonzero" group-id="5,15,21,29" node-id="182" stroke="none" target-height="39.970184" target-width="37.236023" target-x="472.33118" target-y="406.88"></path><path d="M 364.26 244.64 C 326.33 244.60 294.55 233.03 268.90 209.94 C 243.26 186.85 228.43 156.45 224.43 118.73 C 224.18 116.38 226.00 114.36 228.36 114.36 C 266.29 114.40 298.07 125.97 323.72 149.06 C 349.36 172.15 364.19 202.55 368.19 240.27 C 368.44 242.62 366.62 244.64 364.26 244.64" fill="#84a31a" fill-rule="nonzero" group-id="6,16" node-id="192" stroke="none" target-height="130.28131" target-width="144.2663" target-x="224.17566" target-y="114.35965"></path><path d="M 219.75 116.08 L 243.84 136.77 L 248.74 171.12 L 249.27 141.44 L 284.24 171.48 L 284.28 212.76 L 289.67 176.15 L 321.53 203.52 L 323.09 233.93 L 326.19 207.52 L 353.38 230.89 L 327.05 206.57 L 353.24 200.44 L 322.54 202.40 L 291.69 173.92 L 325.39 167.10 L 286.36 169.12 L 252.48 137.89 L 280.94 135.35 L 247.21 133.03 L 223.86 111.51 L 219.75 116.08 Z" fill="#5b7112" fill-rule="nonzero" group-id="6,17,22" node-id="199" stroke="none" target-height="122.412384" target-width="133.62946" target-x="219.75293" target-y="111.51489"></path><path d="M 210.94 153.60 L 234.50 163.84 L 238.59 112.64 L 228.35 112.64 L 210.94 153.60 Z" fill="#000000" fill-rule="nonzero" group-id="6,17,23" node-id="204" stroke="none" target-height="51.200005" target-width="27.648224" target-x="210.94382" target-y="112.639626"></path><path d="M 436.72 145.45 C 416.93 141.93 401.40 132.97 390.14 118.56 C 378.88 104.15 373.94 86.91 375.32 66.86 C 375.41 65.61 376.55 64.72 377.78 64.94 C 397.57 68.45 413.10 77.42 424.36 91.83 C 435.62 106.24 440.56 123.47 439.18 143.53 C 439.09 144.78 437.95 145.66 436.72 145.45" fill="#84a31a" fill-rule="nonzero" group-id="7,18" node-id="213" stroke="none" target-height="80.941895" target-width="66.61368" target-x="373.94238" target-y="64.72299"></path><path d="M 373.13 65.05 L 383.79 78.06 L 383.19 96.44 L 386.20 81.00 L 401.69 99.90 L 397.91 121.45 L 404.09 102.84 L 418.20 120.05 L 416.22 136.07 L 420.26 122.57 L 432.31 137.27 L 420.80 122.15 L 435.04 121.36 L 418.83 119.56 L 405.35 101.85 L 423.57 101.40 L 403.01 98.86 L 388.20 79.44 L 403.29 80.74 L 385.90 76.42 L 375.69 63.04 L 373.13 65.05 Z" fill="#5b7112" fill-rule="nonzero" group-id="7,19,24" node-id="220" stroke="none" target-height="74.22754" target-width="61.90753" target-x="373.12775" target-y="63.041626"></path><path d="M 370.69 91.14 L 406.53 72.70 L 404.48 68.61 L 370.69 76.80 L 370.69 91.14 Z" fill="#000000" fill-rule="nonzero" group-id="7,19,25" node-id="225" stroke="none" target-height="22.527992" target-width="35.839966" target-x="370.68793" target-y="68.6077"></path><path d="M 33.79 299.01 L 48.13 309.25 L 197.63 117.76 L 224.26 121.86 L 228.35 114.69 L 203.78 108.54 L 287.74 68.61 L 408.58 68.61 L 416.77 62.46 L 299.01 56.32 L 197.63 91.14 L 33.79 299.01 Z" fill="#000000" fill-rule="nonzero" group-id="8" node-id="232" stroke="none" target-height="252.92801" target-width="382.976" target-x="33.791992" target-y="56.320004"></path></g></svg>