<svg xmlns="http://www.w3.org/2000/svg" fill="none" viewBox="0 0 1024 1024" height="1024" width="1024">
<mask height="984" width="984" y="20" x="22" maskUnits="userSpaceOnUse" style="mask-type:alpha" id="mask0_8_170">
<circle fill="#DBEBDB" r="491.52" cy="512" cx="514.048"></circle>
</mask>
<g mask="url(#mask0_8_170)">
<circle fill="#DBEBDB" r="491.52" cy="512" cx="514.048"></circle>
<path fill="#DF006C" d="M423.5 172C411.5 172.4 396 221.5 416 286C440.833 297.667 497.8 307.9 497 273.5C496 230.5 446 171.25 423.5 172Z"></path>
<path fill="black" d="M472.5 268.5C474.5 250.5 446.5 213 438.5 211C425.352 207.713 434.548 256.88 439.067 269.341C439.592 270.79 440.765 271.829 442.198 272.397C452.995 276.681 471.007 281.939 472.5 268.5Z"></path>
<path fill="black" d="M603.628 221.699C603.506 247.995 582.29 283.933 546.5 293L419.5 581.5L314 749.5C268.334 792.833 172.2 875.7 153 860.5C129 841.5 90.9998 755.5 153 678.5C191.88 630.214 217.479 614.811 225.752 529.629C225.841 528.718 224.753 528.126 224.055 528.718C206.215 543.833 175.006 553.744 149.829 544.941C147.899 544.266 148.377 541.514 150.386 541.135C178.958 535.756 201.882 507.452 215 471.5C228.5 434.5 236.5 387.186 298.5 342C328 320.5 350 302.5 357.5 290C368.3 272 387.67 256.986 418.5 247.5C457.5 235.5 510.1 247.108 544 244.5C581.864 241.587 594.105 225.171 600.317 219.743C601.892 218.366 603.638 219.607 603.628 221.699Z"></path>
<path fill="#DF006C" d="M297.5 248.5C320.388 236.79 358 292 377.5 319.5C383.417 320.486 443.805 369.62 515.494 319.649C516.789 318.747 516.576 316.742 515.126 316.118C507.308 312.755 499.873 308.436 495.5 304.5C524.032 302.958 523.5 302 546 292.892C574.017 305.8 602.317 320.389 630.5 327C675 337.438 727 323 737 403C746 475 666.614 500.255 613.5 522.5C555 547 594 622 602.5 667.5C626.833 645.167 673 613.5 707 619C741 624.5 746.467 681.449 750.5 725C751.509 735.906 751.519 746.832 750.777 757.425C747.819 798.378 733.417 835.229 722.329 845.211C722.219 845.31 722.109 845.406 722 845.5C720.434 846.841 697.999 843 684 833.5C670 824 661.358 813.39 660.368 809C658 798.5 674 762.5 674 748C674 747.33 673.992 746.674 673.979 746.032C673.977 745.92 673.974 745.809 673.971 745.697C673.966 745.475 673.96 745.255 673.954 745.036C673.949 744.893 673.945 744.75 673.94 744.608C673.932 744.382 673.923 744.158 673.914 743.936C673.911 743.877 673.908 743.819 673.906 743.761C673.889 743.38 673.869 743.005 673.848 742.635C673.821 742.153 673.79 741.68 673.756 741.216C673.754 741.185 673.752 741.154 673.75 741.123C673.718 740.691 673.682 740.266 673.645 739.85C673.635 739.737 673.625 739.626 673.615 739.515C673.577 739.105 673.536 738.703 673.494 738.308C673.481 738.19 673.468 738.073 673.455 737.956C673.419 737.633 673.381 737.316 673.342 737.003C673.329 736.892 673.315 736.781 673.301 736.671C673.217 736.007 673.124 735.367 673.03 734.749C672.989 734.479 672.948 734.213 672.906 733.951C672.877 733.774 672.847 733.598 672.818 733.425C672.77 733.142 672.722 732.865 672.673 732.593C672.648 732.452 672.623 732.313 672.597 732.175C672.535 731.836 672.472 731.506 672.409 731.184C672.396 731.118 672.383 731.052 672.37 730.987C672.318 730.728 672.265 730.474 672.213 730.225C671.974 729.084 671.737 728.055 671.516 727.132C671.509 727.101 671.502 727.07 671.495 727.039C671.494 727.034 671.491 727.03 671.49 727.025C671.311 726.281 671.145 725.607 671 725C670.956 725.057 654.359 746.742 639.579 765.22C638.2 766.944 636.836 768.64 635.504 770.288C629.657 777.519 624.402 783.825 621 787.5C623.736 808.798 622.988 830.18 620.06 850.785C619.903 851.889 619.741 852.99 619.572 854.089C618.078 863.796 616.112 873.319 613.81 882.565C613.56 883.571 613.305 884.574 613.047 885.573C612.826 886.427 612.603 887.279 612.377 888.128C612.099 889.171 611.817 890.209 611.532 891.244C611.11 892.774 610.68 894.295 610.242 895.808C609.955 896.798 609.666 897.785 609.373 898.768C607.28 905.78 605.028 912.585 602.688 919.142C601.947 921.217 601.198 923.267 600.441 925.291C598.326 930.947 596.158 936.397 593.983 941.608C593.124 943.666 592.265 945.686 591.407 947.667C581.916 969.58 572.647 986.72 567.5 996.5C548.058 1033.44 384.196 1011.22 299 1004C210.5 996.5 145.5 946 145 910C137.5 820.5 222.686 786.672 252.5 758.5C273.646 738.517 298.829 705.659 307.5 645.5C311.752 646.25 316.298 678.369 307.72 704.57C307.113 706.428 309.295 708.079 310.911 706.98C432.718 624.092 302.283 454.235 322 401C290 348.5 276 259.5 297.5 248.5Z"></path>
<path fill="black" d="M671.964 760.496C680.957 769.439 694.051 777.793 707.5 782.5C723.046 787.942 735.874 788.85 746.452 788.281C740.538 816.322 730.302 838.384 722 845.5C719.499 847.643 698 843 684 833.5C670 824.001 661.358 813.39 660.368 809C658.532 800.859 667.735 777.389 671.964 760.496Z"></path>
<g clip-path="url(#clip0_8_170)">
<g clip-path="url(#clip1_8_170)">
<ellipse fill="white" transform="rotate(-29.981 471.225 394.255)" ry="38.2976" rx="33.792" cy="394.255" cx="471.225"></ellipse>
<ellipse fill="black" transform="rotate(-29.981 480.837 387.672)" ry="18.0224" rx="15.7696" cy="387.672" cx="480.837"></ellipse>
</g>
<g clip-path="url(#clip2_8_170)">
<ellipse fill="white" transform="rotate(-29.981 558.609 353.841)" ry="38.2976" rx="33.792" cy="353.841" cx="558.609"></ellipse>
<ellipse fill="black" transform="rotate(-29.981 567.89 343.308)" ry="18.0224" rx="15.7696" cy="343.308" cx="567.89"></ellipse>
</g>
</g>
<path fill="black" d="M362.241 346.242C351.051 313.951 322.438 279.031 314.5 283C301.664 289.418 317.588 344.583 332.432 371.483C332.731 372.025 333.438 372.145 333.908 371.743C341.385 365.345 347.859 355.966 361.807 347.421C362.208 347.175 362.395 346.686 362.241 346.242Z"></path>
<path fill="black" d="M650.103 373.283C648.814 367.758 659.835 361.893 669.509 360.674C679.183 359.455 689.304 359.494 691.427 364.179C693.551 368.863 690.18 384.096 674.314 386.701C661.619 388.861 651.392 378.807 650.103 373.283Z"></path>
<path fill="black" d="M446.5 1012.5C455.3 947.3 392.5 876 360 848.5C381 882.667 428.415 933 425.5 1002.5C423.771 1043.71 423.353 1044.29 425.5 1049.5C432.5 1066.5 437.7 1077.7 446.5 1012.5Z"></path>
<path fill="white" d="M489.5 666C508.5 600.5 542.5 563.5 567.5 563.5C567.5 570.667 565.5 585.2 565.5 596C565.5 618 583 704.5 593 781C603 857.5 558.5 960.5 542.5 994.5C534.245 1012.04 520.5 1032.67 514 1040.5C516.333 1034.5 524 1014.4 524 956C524 897.6 503.5 834 462 802C468 777.167 474.875 716.418 489.5 666Z"></path>
<path fill="#0052DF" d="M763.062 233.426C756.562 184.42 792.6 136.721 808.562 144.926C843.561 162.921 828.062 210.92 808.562 218.421C824.562 213.415 850.061 219.427 843.562 246.422C837.662 270.921 802.561 264.926 781.062 252.426C770.732 246.421 770.56 242.426 763.062 233.426Z"></path>
<path fill="#0052DF" d="M746.562 183.921C755.062 183.921 760.062 219.421 760.062 230.421C755.562 225.254 747.812 216.921 745.062 205.921C743.561 199.92 740.563 183.921 746.562 183.921Z"></path>
<path fill="black" d="M748.561 235.42C744.962 229.821 753.884 223.181 757.062 225.92C771.562 238.42 789.863 262.919 791.063 264.92C792.563 267.42 791.563 270.92 787.563 270.92C783.563 270.92 763.561 246.92 760.561 243.42C757.062 239.339 753.061 242.42 748.561 235.42Z"></path>
<path fill="black" d="M727.561 191.42C730.562 191.421 734.062 215.92 749.561 224.42C734.562 216.921 721.377 191.421 727.561 191.42Z"></path>
</g>
<defs>
<clipPath id="clip0_8_170">
<rect transform="translate(421.589 306.302) rotate(-0.980972)" fill="white" height="138.669" width="184.308"></rect>
</clipPath>
<clipPath id="clip1_8_170">
<rect transform="translate(422.816 377.968) rotate(-29.981)" fill="white" height="76.5952" width="67.584"></rect>
</clipPath>
<clipPath id="clip2_8_170">
<rect transform="translate(510.201 337.555) rotate(-29.981)" fill="white" height="76.5952" width="67.584"></rect>
</clipPath>
</defs>
</svg>
