<svg viewBox="0 0 1024 1024" height="1024" width="1024" version="1.1" fill="none" xmlns:xlink="http://www.w3.org/1999/xlink" xmlns="http://www.w3.org/2000/svg"><defs><clipPath id="master_svg0_2_05"><rect rx="0" height="1024" width="1024" y="0" x="0"></rect></clipPath><mask maskUnits="objectBoundingBox" style="mask-type:alpha" id="master_svg1_2_58"><g><ellipse fill-opacity="1" fill="#FFFFFF" ry="491.52001953125" rx="491.52001953125" cy="512" cx="514.0478515625"></ellipse></g></mask><mask maskUnits="objectBoundingBox" style="mask-type:alpha" id="master_svg2_2_20"><g><ellipse fill-opacity="1" fill="#FFFFFF" ry="69.63200378417969" rx="69.63200378417969" cy="454.6560516357422" cx="159.7438201904297"></ellipse></g></mask><mask maskUnits="objectBoundingBox" style="mask-type:alpha" id="master_svg3_2_31"><g><ellipse fill-opacity="1" fill="#FFFFFF" ry="69.63199615478516" rx="69.63199615478516" cy="217.08783721923828" cx="370.8587417602539"></ellipse></g></mask></defs><g mask="url(#master_svg1_2_58)" clip-path="url(#master_svg0_2_05)"><g><ellipse fill-opacity="1" fill="#E4D8D4" ry="491.52001953125" rx="491.52001953125" cy="512" cx="514.0478515625"></ellipse></g><g><g><path fill-opacity="1" fill="#000000" d="M376.03519984375,544.640781015625C357.52226684375,566.9521510156251,339.48215774375,588.693721015625,345.13209774375,622.5920710156249C350.08398194375,652.302251015625,364.61347384375,671.122741015625,377.83672684375,688.251251015625C391.95888184375,706.544131015625,404.59117084375,722.907101015625,402.47584884375,748.544071015625Q398.37984884375,798.186101015625,345.13184774375,849.920041015625L660.52383484375,849.920041015625L699.4355748437499,246.783630015625Q687.14758484375,179.198654215625,618.5395848437499,189.439627015625C549.93153484375,199.680600015625,402.47596784375,275.456047015625,397.35596884375,356.35205101562497C394.66985684375,398.792591015625,400.15719984375,415.585371015625,404.94610184375,430.240771015625C409.28533984374997,443.520051015625,413.05113984375,455.044491015625,409.64344784375,482.304051015625C406.43001984375,508.009581015625,391.07654984375,526.5132710156249,376.03519984375,544.640781015625Z"></path></g><g><path fill-opacity="1" fill="#73330B" d="M697.38818359375,245.75995632890624Q781.35618559375,314.3683546289062,811.05219359375,357.37635462890626Q840.74818359375,400.38432462890626,864.30018359375,502.78454462890625L885.80420359375,844.8005346289062L932.90818359375,844.8005346289062Q992.30020359375,774.1445946289062,981.03619359375,709.6325346289062C969.77218359375,645.1205446289063,923.69220359375,663.5525546289063,908.33220359375,572.4165346289062C902.3923935937501,537.1737646289063,907.63110359375,499.48120462890626,912.85643359375,461.8848546289063C921.1435235937499,402.2590446289063,929.3969835937501,342.87523462890624,892.97219359375,293.88933962890627Q833.58018359375,214.01599262890625,697.38818359375,245.75995632890624Z"></path></g><g><path fill-opacity="1" fill="#BE6229" d="M419.88427734375,1006.5920119531249L681.00430734375,1027.072021953125L901.16430734375,912.384031953125L879.66030734375,535.552001953125L668.71629734375,586.752002953125L641.60532734375,902.764101953125C638.27042734375,941.636691953125,609.1898173437501,973.396241953125,570.76081734375,980.134981953125L419.88427734375,1006.5920119531249Z"></path></g><g><path fill-opacity="1" fill="#000000" d="M640,758.7840129296875Q703.488003,761.8560029296875,765.952,730.1120029296875Q828.41602,698.3680039296875,860.16,611.3280029296875L647.2120004,683.0080029296876L640,758.7840129296875Z"></path></g><g><path fill-opacity="1" fill="#BE6229" d="M698.41198265625,245.759783213125C789.60205265625,315.267753203125,846.89200265625,398.335723203125,898.09198265625,483.328343203125C905.25998265625,483.328343203125,951.9793426562501,469.626353203125,956.45999265625,509.952423203125C960.55600265625,546.8164332031249,898.09198265625,577.536433203125,883.74151265625,588.1896632031251C843.91824265625,659.9498032031249,766.68295265625,708.6084332031251,677.93197265625,708.6084332031251C548.42340865625,708.6084332031251,457.77197265625,613.188053203125,457.77197265625,485.37603320312496C457.77197265625,386.048033203125,507.94797565625,240.640032803125,698.41198265625,245.759783213125Z"></path></g><g><path fill-opacity="1" fill="#73330B" d="M376.035126,544.6411124414062C357.522192,566.9524824414062,339.4820833,588.6940624414062,345.1320235,622.5924024414062C350.0839047,652.3025524414063,364.61338,671.1230424414063,377.836628,688.2515824414063C391.95879,706.5444924414063,404.591099,722.9075324414063,402.475777,748.5445524414063Q398.379776,798.1865224414063,345.1317735,849.9205324414063L529.452135,849.9200424414063C605.0931350000001,780.5548724414062,573.886125,724.1339124414062,543.669755,669.5040324414063C529.725445,644.2933024414062,515.9920950000001,619.4639924414063,513.068135,593.9200124414062C507.806735,547.9559624414062,520.755885,524.8022124414063,535.549835,498.3499124414063C546.792995,478.2466124414062,559.101665,456.2381024414062,565.2921249999999,420.86401244140626C573.930195,371.5036624414063,565.466755,350.39798244140627,557.374485,330.21788244140623C552.036565,316.90647244140627,546.860135,303.99779244140626,546.860135,283.64801044140626C546.860135,232.44800544140625,574.508135,200.70400344140626,618.539525,189.44000244140625C549.931455,199.68097544140625,402.475895,275.4564284414063,397.355892,356.35240244140624C394.669785,398.79294244140624,400.157124,415.58574244140624,404.946026,430.2411224414062C409.285263,443.52040244140625,413.051064,455.04483244140624,409.643372,482.30438244140623C406.429943,508.0099224414063,391.076473,526.5136124414062,376.035126,544.6411124414062Z"></path></g><g><path fill-opacity="1" fill="#000000" d="M899.1162109375,529.40830996875Q906.2842111375,529.40830996875,910.3802119375,533.50431096875Q914.4762119375,537.60031096875,914.4762119375,547.84030896875Q942.1242139375,527.36004496875,939.0522119375,513.02404396875Q935.9802129375,498.68804293875,905.2602110375,499.71230957675L899.1162109375,529.40830996875Z"></path></g><g><ellipse fill-opacity="1" fill="#000000" ry="6.144000053405762" rx="6.144000053405762" cy="555.0080137252808" cx="896.0439023971558"></ellipse></g><g><path fill-opacity="1" fill="#FFFFFF" d="M869.0509244125,608.3824345078125Q865.6932162125,627.3017275078125,869.0509244125,647.1680225078125L877.5657043125,647.1680225078125L880.8809643125,621.4823115078125L882.7652233125,647.1680225078125L890.0900213125,647.1680225078125L894.8787303125,593.3335895078125L900.7725293125,647.1680225078125L908.5081333125,647.1680225078125L911.8233943125,629.9269295078125L915.5070153125,647.1680225078125L924.7160723125,647.1680225078125Q924.3477133125,617.2600025078125,919.9273603125,601.4263455078125C915.5070153125,585.5926915078124,907.0346873125,567.2960205078125,894.8787303125,567.2960205078125C882.7227753125,567.2960205078125,872.4086332125,589.4631385078125,869.0509244125,608.3824345078125Z"></path></g></g><g><g><ellipse fill-opacity="1" fill="#BE6229" ry="69.63200378417969" rx="69.63200378417969" cy="454.6560516357422" cx="159.7438201904297"></ellipse></g><g mask="url(#master_svg2_2_20)"></g></g><g transform="matrix(0.7071067690849304,0.7071067690849304,-0.7071067690849304,0.7071067690849304,192.49429811620394,-169.8106531403846)"><g><ellipse fill-opacity="1" fill="#BE6229" ry="69.63199615478516" rx="69.63199615478516" cy="217.08783721923828" cx="370.8587417602539"></ellipse></g><g mask="url(#master_svg3_2_31)"></g></g></g></svg>