<svg viewBox="0 0 1024 1024" height="1024" width="1024" version="1.1" fill="none" xmlns:xlink="http://www.w3.org/1999/xlink" xmlns="http://www.w3.org/2000/svg"><defs><clipPath id="master_svg0_4_148"><rect rx="0" height="1024" width="1024" y="0" x="0"></rect></clipPath><mask maskUnits="objectBoundingBox" style="mask-type:alpha" id="master_svg1_4_149"><g><ellipse fill-opacity="1" fill="#FFFFFF" ry="491.52001953125" rx="491.52001953125" cy="512" cx="514.0480346679688"></ellipse></g></mask><mask maskUnits="objectBoundingBox" style="mask-type:alpha" id="master_svg2_4_703"><g><path fill-opacity="1" fill="#FFFFFF" d="M141,178Q237,314.5,260,314.5Q261.32742,314.5,262.24181,313.88545Q277.17089999999996,303.85181,182,130L141,178Z"></path></g></mask></defs><g mask="url(#master_svg1_4_149)" clip-path="url(#master_svg0_4_148)"><g><ellipse fill-opacity="1" fill="#EDDBDB" ry="491.52001953125" rx="491.52001953125" cy="512" cx="514.0480346679688"></ellipse></g><g><path fill-opacity="1" fill="#FFD23E" d="M462.4999774296875,925.4999385546874Q435.9999885296875,992.4999385546874,446.9999752296875,1024.9998185546874Q635.9999854296875,1026.9998185546874,677.4999854296875,1007.4998185546875Q718.9999954296875,987.9998185546875,836.9999954296875,932.4999385546874C836.9999954296875,930.0729385546875,837.5354654296875,924.7009285546875,838.2842054296875,917.1893285546874C840.9290154296875,890.6553085546875,846.2349254296876,837.4240685546874,839.9999954296875,793.0001185546876C831.9999954296875,736.0001185546876,800.9999954296875,686.9999385546876,800.9999954296875,663.9998785546875C800.9999954296875,661.9630785546875,801.0941154296875,658.9185185546876,801.2145954296875,655.0200485546875C802.4548654296875,614.8964885546875,806.4910554296875,484.3194045546875,739.4999954296875,430.9999785546875C665.9999954296875,372.4999545546875,494.0000004296875,412.5000019546875,482.0000004296875,481.9999385546875C475.0257054296875,522.3926985546875,514.1817394296875,593.4656685546875,544.2152054296876,647.9800585546875C561.9476554296875,680.1665985546874,576.4999854296875,706.5808385546875,576.4999854296875,717.5000585546875C576.4999854296875,746.9131485546875,488.9999654296875,858.5001185546876,462.4999774296875,925.4999385546874Z"></path></g><g><path fill-opacity="1" fill="#FFD23E" d="M570.5000205898438,80C554.9999889898437,80,536.4999995898437,204.5,555.0000023898438,297.5Q568.7158485898437,366.44992,644.0000225898438,411L722.0000645898438,430Q714.5000645898438,369.21069,695.0000045898437,317.5C675.4999645898438,265.78931,612.5989915898438,188.58968,598.0000115898438,160C586.0000115898438,136.5,586.0000495898438,80,570.5000205898438,80Z"></path></g><g><path fill-opacity="1" fill="#FFD23E" d="M740.5,447.5L751.5,460Q859.5,465,917.5,441Q975.5,417,1019,375.5L977,271.5Q887.5,304.5,854.5,338.5Q821.5,372.5,740.5,447.5Z"></path></g><g><path fill-opacity="1" fill="#000000" d="M787.5,438.5C854.5,432.5,904.21754,419.18831,954,386Q975,372,995.5,355L973,304Q922,332,889,355C856,378,804.5,428,787.5,438.5Z"></path></g><g transform="matrix(0.9271844625473022,0.37460681796073914,-0.37460681796073914,0.9271844625473022,211.86201750039618,-153.9370194044077)"><path fill-opacity="1" fill="#000000" d="M519.9844686757813,468.5932672C511.01595207578123,469.6658394,500.79967857578123,474.8254986,501.99446790678127,479.686229C503.1892571757812,484.546959,512.6698156757813,493.392456,524.4394226757812,491.491375C539.1481776757812,489.200087,542.2729186757813,475.7980857,540.3043026757813,471.6764739C538.3356816757813,467.55486223,528.9529856757813,467.52069455,519.9844686757813,468.5932672Z"></path></g><g><path fill-opacity="1" fill="#FFFFFF" d="M517.5000458125,526.5000121609374C510.0582323125,532.6587548609375,525.7959088125,557.3874089609375,547.5444448125,591.5609439609375C568.1718408125,623.9728239609375,594.2063518125,664.8809249609375,610.9999538125,706.4998749609375Q645.4999428125,791.9998749609375,672.0000028125,984.9998749609375L760.0000028125,961.4998749609375Q757.0001528125,829.9996649609375,706.5000628125,715.4997749609374C656.0000028125,600.9998779609375,532.0000458125,514.5000149609375,517.5000458125,526.5000121609374Z"></path></g><g><path fill-opacity="1" fill="#000000" d="M803.5,913L816.5,908.5L816.5,889.810547Q816.5,884.621094,823,862L808.5,883.5L803.5,913Z"></path></g><g><path fill-opacity="1" fill="#000000" d="M576.0000394484375,774.5Q570.0000038484375,822,582.5000000484375,861.5C594.9999961484375,901,640.7455291484375,952.7864500000001,655.5000001484375,970Q661.5000001484375,977,658.0000001484375,996.5L677.5000171484375,986.5L645.5000151484375,908L576.0000394484375,774.5Z"></path></g><g><path fill-opacity="1" fill="#FFD23E" d="M581.5001234703125,749.5Q568.0001220703125,785.5,581.5001220703125,843.5C595.0001220703125,901.5,659.0001220703125,955.5,663.5001220703125,972.5Q668.0001220703125,989.5,672.0001220703125,1018Q717.0001020703126,981.5,717.0001020703126,972.5C717.0001020703126,970.01021,717.3062320703125,967.7117499999999,717.6644320703125,965.02238C718.6010020703125,957.99036,719.8935420703125,948.28574,717.0001020703126,925.5C713.0001020703126,894,675.7342520703126,830,654.8671870703125,801.5C634.0001260703125,773,620.5001260703125,749.5,604.0001260703125,749.5L581.5001234703125,749.5Z"></path></g><g><path fill-opacity="1" fill="#FFD23E" d="M726.5,971.5L792,940.5Q812.0555420000001,908,812.0555420000001,896.5Q812.0555420000001,885,826,856.5L757,856.5Q736.5,888.5,732,913.5Q727.5,938.5,726.5,971.5Z"></path></g><g transform="matrix(-1,0,0,1,1463.7552490234375,0)"><g transform="matrix(0.8746199011802673,-0.4848097562789917,0.4848097562789917,0.8746199011802673,-140.70787220208877,414.9423295176148)"><g><ellipse fill-opacity="1" fill="#FFFFFF" ry="34.467857360839844" rx="30.412818908691406" cy="513.9771041870117" cx="762.2904434204102"></ellipse></g><g><ellipse fill-opacity="1" fill="#000000" ry="16.220169067382812" rx="14.192647933959961" cy="521.313777923584" cx="777.1399440765381"></ellipse></g></g><g transform="matrix(0.8746199011802673,-0.4848097562789917,0.4848097562789917,0.8746199011802673,-113.79232012868601,448.9763228711123)"><g><ellipse fill-opacity="1" fill="#FFFFFF" ry="34.467857360839844" rx="30.412818908691406" cy="478.9567127227783" cx="841.5480346679688"></ellipse></g><g><ellipse fill-opacity="1" fill="#000000" ry="16.220169067382812" rx="14.192647933959961" cy="483.6959705352783" cx="857.4156360626221"></ellipse></g></g></g><g mask="url(#master_svg2_4_703)"><g><path fill-opacity="1" fill="#FF6B0F" d="M141,178Q237,314.5,260,314.5Q261.32742,314.5,262.24181,313.88545Q277.17089999999996,303.85181,182,130L141,178Z"></path></g><g><path fill-opacity="1" fill="#000000" d="M174.9074254,198.011471C174.6059103,198.385765,175.099762,198.876251,175.4719841,198.572182L208,172L201.5,165L174.9074254,198.011471Z"></path></g><g transform="matrix(0.9717539548873901,0.23599624633789062,-0.23599624633789062,0.9717539548873901,50.06164829423142,-41.47237212894197)"><path fill-opacity="1" fill="#000000" d="M201.1046097097656,219.85484299169923C200.73783370976562,220.32737699169923,201.3598528097656,220.92842099169923,201.8195317097656,220.54565799169922L232.02195000976562,195.39690399169922L225.52195000976562,188.39690399169922L201.1046097097656,219.85484299169923Z"></path></g><g transform="matrix(0.9717539548873901,0.23599624633789062,-0.23599624633789062,0.9717539548873901,57.80316044809297,-43.9563612567963)"><path fill-opacity="1" fill="#000000" d="M216.17735815625,247.4039079638672C215.69460535625,247.93296096386717,216.37751345625,248.71048196386718,216.96443275625,248.3000259638672L248.14367715625,226.4951629638672L241.64367715625,219.4951629638672L216.17735815625,247.4039079638672Z"></path></g></g></g></svg>